<svg width="1044" height="241" viewBox="0 0 1044 241" fill="none" xmlns="http://www.w3.org/2000/svg">
<path d="M323.487 27.6414H283.212V210.944H323.487V174.435L338.55 158.736L372.269 210.944H418.091L365.891 130.359L416.133 78.0381H366.402L323.487 123.994V27.6414Z" fill="#26282D"/>
<path d="M740.62 37.3422H700.819V78.0381H677.75V110.86H700.819V180.81C700.819 190.591 703.306 198.202 708.544 203.354C713.777 208.502 721.499 210.944 731.426 210.944H766.292V178.831H740.62V110.86H766.292V78.0381H740.62V37.3422Z" fill="#26282D"/>
<path fill-rule="evenodd" clip-rule="evenodd" d="M479.561 75.6721C459.903 75.6721 443.994 81.7431 431.993 93.9872L431.983 93.9981C420.133 106.335 414.291 123.23 414.291 144.491C414.291 165.516 420.054 182.324 431.736 194.736C443.436 207.168 459.603 213.31 480.034 213.31C496.679 213.31 510.721 209.385 522.066 201.444L522.075 201.438L522.084 201.432C533.422 193.251 540.502 182.439 543.262 169.046L543.634 167.238H504.142L503.802 168.274C502.429 172.466 499.649 175.858 495.35 178.454C491.134 180.968 485.973 182.262 479.797 182.262C472.284 182.262 466.361 180.184 461.881 176.147C457.413 172.043 455.157 166.703 455.157 159.988V154.513H541.233L541.389 153.184C542.027 147.766 542.346 142.463 542.346 137.274C542.346 118.267 536.601 103.207 524.964 92.2969C513.588 81.1712 498.398 75.6721 479.561 75.6721ZM461.617 112.386C465.934 108.654 471.707 106.719 479.088 106.719C486.226 106.719 491.844 108.612 496.087 112.269L496.097 112.278L496.108 112.287C500.4 115.852 502.544 120.506 502.544 126.391V127.252H455.157V126.864C455.157 120.808 457.312 116.034 461.605 112.396L461.617 112.386Z" fill="#26282D"/>
<path fill-rule="evenodd" clip-rule="evenodd" d="M611.822 75.6721C594.969 75.6721 581.44 79.4259 571.396 87.1017L571.391 87.1053C561.367 94.8284 556.372 105.539 556.372 119.056C556.372 129.61 559.676 138.259 566.374 144.853C573.034 151.41 582.911 155.799 595.818 158.156L595.831 158.159L618.933 161.95L618.953 161.952C622.83 162.485 625.72 163.531 627.739 164.993L627.749 165L627.758 165.007C629.605 166.3 630.875 168.723 631.257 172.716C631.239 176.299 629.816 179.004 626.938 180.991L626.924 181.001C624.047 183.035 619.751 184.155 613.834 184.155C607.335 184.155 602.459 182.74 599.025 180.096C595.742 177.509 594.044 173.8 594.044 168.743V167.238H554.361V168.743C554.361 182.296 559.7 193.192 570.333 201.29L570.338 201.293C581.014 209.362 595.489 213.31 613.597 213.31C631.307 213.31 645.466 209.481 655.905 201.652C666.483 193.778 671.769 182.829 671.769 168.979C671.769 158.072 668.647 149.253 662.262 142.701C655.903 136.177 646.474 132.071 634.179 130.228L634.168 130.226L611.811 126.559L611.793 126.556C609.018 126.171 607.119 125.9 606.089 125.742C605.269 125.531 604.196 125.14 602.851 124.542C601.591 123.982 600.339 123.166 599.097 122.07C597.327 120.495 596.41 118.4 596.41 115.625C596.41 112.111 597.679 109.549 600.169 107.731C602.736 105.859 606.479 104.827 611.586 104.827C617.45 104.827 621.609 106.03 624.309 108.193C626.953 110.312 628.426 113.539 628.537 118.146L628.572 119.614H668.149L668.1 118.062C667.692 105.085 662.439 94.7181 652.364 87.0993C642.32 79.4243 628.751 75.6721 611.822 75.6721ZM655.003 200.448L655.905 201.652L655.901 201.655L655.003 200.448ZM598.099 181.283L599.018 180.091L599.025 180.096L599.03 180.1L598.099 181.283ZM632.762 172.647L631.263 172.785L631.257 172.716L631.257 172.647H632.762Z" fill="#26282D"/>
<path fill-rule="evenodd" clip-rule="evenodd" d="M930.292 75.6721C912.724 75.6721 898.493 79.6252 887.748 87.6839C877.024 95.7065 871.165 107.173 870.113 121.906L869.998 123.518H909.329L909.433 122.125C909.803 117.171 911.589 113.524 914.682 110.993L914.685 110.991C917.876 108.367 922.461 106.956 928.635 106.956C934.847 106.956 939.227 108.443 942.057 111.152C944.875 113.849 946.414 118.004 946.414 123.906V129.973H913.611C898.773 129.973 886.836 133.665 877.973 141.216C869.151 148.718 864.785 159.021 864.785 171.937C864.785 184.417 868.648 194.534 876.482 202.12L876.494 202.131C884.403 209.628 894.938 213.31 907.932 213.31C917.841 213.31 926.611 211.294 934.198 207.215L934.209 207.209C941.114 203.422 946.016 198.432 948.797 192.219L949.154 194.419L949.158 194.439C950.153 200.078 952.518 204.386 956.398 207.12L956.407 207.126L956.417 207.133C960.264 209.756 966.077 210.944 973.59 210.944H1002.3V182.262H986.334V124.616C986.334 111.078 981.821 99.5067 972.796 89.9901C963.873 80.3291 949.575 75.6721 930.292 75.6721ZM905.178 166.258C905.178 162.46 906.452 159.821 908.85 158.068C911.336 156.251 915.248 155.223 920.827 155.223H946.414V158.332C946.414 165.888 944.123 171.738 939.66 176.057C935.194 180.3 929.056 182.499 921.064 182.499C915.409 182.499 911.442 181.443 908.918 179.571C906.478 177.762 905.178 175.033 905.178 171.109V166.258Z" fill="#26282D"/>
<path d="M818.496 78.0381C804.834 78.0381 795.324 81.6282 790.812 89.4373C788.858 92.7759 787.494 96.0695 786.744 99.3159L786.741 99.3301L786.738 99.3443C786.079 102.477 785.76 106.295 785.76 110.775V210.944H825.561V110.86H864.128V78.0381H818.496Z" fill="#26282D"/>
<path d="M1028.68 211.054C1024.39 211.054 1020.83 209.693 1018.01 206.971C1015.3 204.131 1013.95 200.639 1013.95 196.497C1013.95 192.355 1015.3 188.923 1018.01 186.201C1020.83 183.361 1024.39 181.941 1028.68 181.941C1032.85 181.941 1036.29 183.361 1039 186.201C1041.71 188.923 1043.06 192.355 1043.06 196.497C1043.06 200.639 1041.71 204.131 1039 206.971C1036.29 209.693 1032.85 211.054 1028.68 211.054Z" fill="#F62E76"/>
<path d="M0.937012 27.0463C0.937012 12.1815 12.9873 0.131226 27.8521 0.131226H214.783C229.647 0.131226 241.698 12.1815 241.698 27.0463V213.977C241.698 228.842 229.647 240.892 214.783 240.892H27.852C12.9873 240.892 0.937012 228.842 0.937012 213.977V27.0463Z" fill="#2C0059"/>
<path d="M115.404 101.178C118.669 97.9129 123.963 97.9129 127.228 101.178L140.65 114.6C143.915 117.865 143.915 123.159 140.65 126.424L127.228 139.846C123.963 143.111 118.669 143.111 115.404 139.846L101.982 126.424C98.7173 123.159 98.7173 117.865 101.982 114.6L115.404 101.178Z" fill="#A950FF"/>
<path d="M177.223 101.071C180.429 97.8643 185.628 97.8643 188.835 101.071L202.468 114.704C205.675 117.911 205.675 123.11 202.468 126.317L188.835 139.95C185.628 143.157 180.429 143.157 177.223 139.95L163.589 126.317C160.383 123.11 160.383 117.911 163.589 114.704L177.223 101.071Z" fill="#A950FF"/>
<path d="M115.51 39.3604C118.717 36.1536 123.916 36.1536 127.123 39.3604L140.756 52.9936C143.963 56.2004 143.963 61.3995 140.756 64.6063L127.123 78.2395C123.916 81.4463 118.717 81.4463 115.51 78.2395L101.877 64.6063C98.67 61.3995 98.67 56.2004 101.877 52.9936L115.51 39.3604Z" fill="#E9C1FF"/>
<path d="M109.797 83.7441C113.062 87.0093 113.062 92.3031 109.797 95.5683L96.3752 108.99C93.11 112.255 87.8162 112.255 84.551 108.99L71.1293 95.5683C67.8642 92.3031 67.8642 87.0093 71.1293 83.7441L84.551 70.3224C87.8162 67.0572 93.11 67.0572 96.3752 70.3224L109.797 83.7441Z" fill="#CD88FF"/>
<path d="M79.0452 114.704C82.2519 117.911 82.2519 123.11 79.0452 126.317L65.4119 139.95C62.2052 143.157 57.006 143.157 53.7993 139.95L40.166 126.317C36.9593 123.11 36.9593 117.911 40.166 114.704L53.7993 101.071C57.006 97.8643 62.2052 97.8643 65.4119 101.071L79.0452 114.704Z" fill="#A950FF"/>
<path d="M171.507 83.7441C174.772 87.0093 174.772 92.3031 171.507 95.5683L158.085 108.99C154.82 112.255 149.526 112.255 146.261 108.99L132.839 95.5683C129.574 92.3031 129.574 87.0093 132.839 83.7441L146.261 70.3224C149.526 67.0572 154.82 67.0572 158.085 70.3224L171.507 83.7441Z" fill="#CD88FF"/>
<path d="M134.525 171.891C141.82 179.186 141.82 191.013 134.525 198.308C127.231 205.602 115.404 205.602 108.109 198.308C100.815 191.013 100.815 179.186 108.109 171.891C115.404 164.597 127.231 164.597 134.525 171.891Z" fill="#F62E76"/>
</svg>
