<svg id="Capa_1" enable-background="new 0 0 512 512" height="512" viewBox="0 0 512 512" width="512" xmlns="http://www.w3.org/2000/svg"><g><ellipse cx="88.915" cy="397.075" fill="#6a95d6" rx="52.644" ry="52.644" transform="matrix(1 -.009 .009 1 -3.386 .773)"/><circle cx="428.386" cy="397.075" fill="#6a95d6" r="52.644"/><path d="m405.761 289.814h-294.222v-170.732c0-32.535 26.375-58.91 58.91-58.91h176.4c32.535 0 58.91 26.375 58.91 58.91v170.732z" fill="#8daee1"/><path d="m202.987 60.172h-32.537c-32.535 0-58.91 26.375-58.91 58.91v170.731h136.083c-60.647-36.135-70.956-155.217-44.636-229.641z" fill="#6a95d6"/><g><g fill="#fff"><ellipse cx="176.624" cy="168.941" rx="30.241" ry="24.082"/><ellipse cx="340.54" cy="168.941" rx="30.241" ry="24.082"/></g><g fill="#4e5660"><path d="m285.879 182.944c-2.372 0-4.706-1.122-6.163-3.218-5.463-7.853-13.166-12.357-21.134-12.357s-15.671 4.504-21.134 12.358c-2.366 3.4-7.039 4.24-10.44 1.874-3.4-2.366-4.239-7.04-1.874-10.44 8.308-11.942 20.499-18.792 33.448-18.792s25.141 6.85 33.448 18.792c2.366 3.4 1.526 8.074-1.874 10.439-1.305.908-2.799 1.344-4.277 1.344z"/><path d="m192.004 155.074c-8.894 0-17.352-3.852-23.206-10.569-2.722-3.123-2.396-7.86.726-10.582 3.123-2.722 7.859-2.397 10.582.726 3.005 3.447 7.342 5.424 11.899 5.424 4.558 0 8.895-1.977 11.899-5.424 2.721-3.124 7.46-3.448 10.582-.726 3.122 2.721 3.448 7.459.726 10.582-5.855 6.717-14.314 10.569-23.208 10.569z"/><path d="m325.161 155.074c-8.895 0-17.353-3.852-23.207-10.569-2.722-3.123-2.397-7.86.726-10.582 3.122-2.722 7.859-2.397 10.581.726 3.005 3.447 7.342 5.424 11.899 5.424s8.894-1.977 11.899-5.424c2.722-3.124 7.459-3.448 10.582-.726 3.123 2.721 3.448 7.459.726 10.582-5.854 6.717-14.312 10.569-23.206 10.569z"/></g></g><path d="m289.262 442.269c-7.362 5.975-16.74 9.559-26.939 9.559-17.484 0-32.555-10.534-39.198-25.589-13.259 7.33-28.492 11.503-44.685 11.503-45.325 0-83.155-32.706-91.124-75.759-3.224.414-6.482.625-9.752.625-25.253 0-50.103-10.783-66.471-28.843-7.681-8.475-11.601-19.433-11.04-30.856.553-11.259 5.395-21.642 13.648-29.292-6.747-11.762-9.513-25.647-7.476-39.834 4.778-33.283 33.778-56.524 69.736-56.524 30.183 0 51.828 16.909 55.861 20.299 17.797 14.963 20.341 41.432 5.91 59.494.877 1.176 1.713 2.376 2.504 3.595 31.524-14.322 69.701-10.093 97.734 13.457 6.898-4.787 15.265-7.6 24.275-7.616h26.605c6.922 0 13.611.985 19.932 2.821 4.529-18.751 21.435-32.73 41.549-32.766h12.707c-1.813-25.125 18.128-45.967 42.715-45.967 12.292 0 23.786 5.201 31.838 14.171 14.132-15.497 37.433-18.389 54.955-6.99 19.795 12.887 25.413 39.464 12.534 59.25l-24.684 37.919-.093 38.277c-.051 20.307-14.334 37.349-33.365 41.66 3.659 37.945-40.219 61.269-69.588 37.461-5.682 4.611-12.564 7.798-20.097 9.012-8.655 28.996-44.292 40.146-67.991 20.933z" fill="#a2ddfd"/><g><g><path d="m77.564 327.289c-15.451 0-30.517-6.446-40.302-17.243-2.781-3.069-2.548-7.813.521-10.594 3.07-2.781 7.813-2.547 10.594.521 6.989 7.712 17.9 12.316 29.187 12.316 12.697 0 20.967-7.948 22.303-15.427 1.396-7.818-4.523-14.78-16.241-19.102-7.914-2.919-28.405-11.148-30.506-12.516-19.524-12.729-15.272-43.16 9.999-50.774 24.7-7.438 45.121 9.403 45.978 10.124 3.171 2.666 3.58 7.396.915 10.567-2.659 3.164-7.373 3.579-10.543.935-.226-.185-15.245-12.316-32.023-7.263-13.098 3.947-14.691 17.756-6.578 23.543 2.781 1.224 14.883 6.491 27.95 11.311 14.609 5.389 29.063 17.626 25.815 35.812-2.828 15.842-18.764 27.79-37.069 27.79z" fill="#fff"/></g><g fill="#fff"><path d="m473.286 227.362c-3.471-2.259-8.117-1.277-10.377 2.194l-25.31 38.88-25.558-39.142c-2.265-3.468-6.913-4.443-10.38-2.179-3.468 2.265-4.444 6.912-2.179 10.38l30.621 46.897-.119 48.688c-.01 4.143 3.339 7.508 7.481 7.518h.019c4.133 0 7.489-3.346 7.5-7.481l.119-48.714 30.377-46.664c2.259-3.471 1.277-8.117-2.194-10.377z"/><path d="m290.642 368.586c18.403-.896 33.087-15.521 33.087-33.368 0-18.423-15.647-33.412-34.878-33.412h-26.495c-.005 0-.011.001-.016.001s-.011-.001-.016-.001c-4.142 0-7.5 3.358-7.5 7.5v99.704c0 4.142 3.358 7.5 7.5 7.5s7.5-3.358 7.5-7.5v-40.306c.306-.002.618-.003.935-.005l39.84 45.266c2.74 3.113 7.48 3.408 10.585.675 3.109-2.736 3.412-7.476.675-10.585zm-20.818-14.883v-36.897h19.027c10.775 0 19.878 8.432 19.878 18.412s-9.103 18.412-19.878 18.412c-4.362-.001-12.857.04-19.027.073z"/><path d="m378.728 338.641c18.403-.896 33.086-15.52 33.086-33.368 0-18.423-15.646-33.412-34.878-33.412h-26.495c-.005 0-.011.001-.016.001-.006 0-.011-.001-.016-.001-4.142 0-7.5 3.358-7.5 7.5v99.704c0 4.142 3.358 7.5 7.5 7.5s7.5-3.358 7.5-7.5v-40.306c.306-.002.618-.003.935-.005l39.84 45.266c2.74 3.114 7.48 3.408 10.585.675 3.109-2.736 3.412-7.476.675-10.585zm-20.818-14.883v-36.897h19.027c10.775 0 19.878 8.432 19.878 18.412s-9.103 18.412-19.878 18.412c-4.36 0-12.856.04-19.027.073z"/><path d="m178.44 402.423c-31.624 0-57.352-25.728-57.352-57.352s25.728-57.352 57.352-57.352 57.352 25.728 57.352 57.352-25.728 57.352-57.352 57.352zm0-99.703c-23.353 0-42.352 18.999-42.352 42.352s18.999 42.352 42.352 42.352 42.352-18.999 42.352-42.352-18.999-42.352-42.352-42.352z"/></g></g></g></svg>