<svg width="224" height="224" viewBox="0 0 224 224" fill="none" xmlns="http://www.w3.org/2000/svg">
<rect x="37.6" y="53.6" width="153.6" height="124.8" rx="4" fill="#1A1C27" stroke="#7984B8" stroke-width="1.6"/>
<rect x="49.6" y="80" width="17.6" height="6.4" rx="3.2" fill="#464F79"/>
<rect x="92.8" y="190.4" width="17.6" height="6.4" rx="3.2" fill="#464F79"/>
<rect x="171.2" y="28.8" width="17.6" height="6.4" rx="3.2" fill="#464F79"/>
<rect x="67.2" y="92.8" width="17.6" height="6.4" rx="3.2" fill="#464F79"/>
<path d="M91.2 96C91.2 94.2327 92.6326 92.8 94.4 92.8V92.8C96.1673 92.8 97.6 94.2327 97.6 96V96C97.6 97.7673 96.1673 99.2 94.4 99.2V99.2C92.6326 99.2 91.2 97.7673 91.2 96V96Z" fill="#707BAD"/>
<path d="M158.4 32C158.4 30.2327 159.833 28.8 161.6 28.8V28.8C163.367 28.8 164.8 30.2327 164.8 32V32C164.8 33.7673 163.367 35.2 161.6 35.2V35.2C159.833 35.2 158.4 33.7673 158.4 32V32Z" fill="#707BAD"/>
<path d="M72 83.2C72 81.4327 73.4327 80 75.2 80H118.4C120.167 80 121.6 81.4327 121.6 83.2V83.2C121.6 84.9673 120.167 86.4 118.4 86.4H75.2C73.4327 86.4 72 84.9673 72 83.2V83.2Z" fill="#2A335E"/>
<path d="M38.4 193.6C38.4 191.833 39.8327 190.4 41.6 190.4H84.8C86.5673 190.4 88 191.833 88 193.6V193.6C88 195.367 86.5673 196.8 84.8 196.8H41.6C39.8327 196.8 38.4 195.367 38.4 193.6V193.6Z" fill="#2A335E"/>
<path d="M49.6 96C49.6 94.2327 51.0327 92.8 52.8 92.8H57.6C59.3673 92.8 60.8 94.2327 60.8 96V96C60.8 97.7673 59.3673 99.2 57.6 99.2H52.8C51.0327 99.2 49.6 97.7673 49.6 96V96Z" fill="#2A335E"/>
<path d="M154.112 185.597C154.326 186.914 152.433 187.379 152.013 186.112L150.828 182.54C150.586 181.808 149.679 181.556 149.094 182.058L145.992 184.718C144.988 185.578 143.611 184.235 144.446 183.21L147.275 179.737C147.73 179.179 147.524 178.34 146.862 178.056L142.747 176.287C141.533 175.765 142.132 173.937 143.42 174.235L147.4 175.157C148.151 175.331 148.839 174.688 148.715 173.927L148.112 170.212C147.898 168.895 149.791 168.43 150.211 169.697L151.395 173.269C151.638 174.001 152.545 174.253 153.13 173.751L156.232 171.091C157.235 170.231 158.613 171.574 157.778 172.599L154.949 176.072C154.494 176.63 154.7 177.469 155.361 177.753L159.477 179.522C160.691 180.044 160.092 181.872 158.804 181.574L154.824 180.652C154.073 180.478 153.385 181.121 153.509 181.882L154.112 185.597Z" fill="#FCD3A3"/>
<path d="M45.0361 44.8928C45.2158 45.3819 45.9076 45.3819 46.0874 44.8928L47.8266 40.1591C47.8833 40.0049 48.0049 39.8833 48.1592 39.8266L52.8928 38.0873C53.382 37.9076 53.382 37.2158 52.8928 37.036L48.1592 35.2968C48.0049 35.2401 47.8833 35.1185 47.8266 34.9643L46.0874 30.2306C45.9076 29.7415 45.2158 29.7415 45.0361 30.2306L43.2968 34.9643C43.2401 35.1185 43.1186 35.2401 42.9643 35.2968L38.2306 37.036C37.7415 37.2158 37.7415 37.9076 38.2306 38.0873L42.9643 39.8266C43.1186 39.8833 43.2401 40.0049 43.2968 40.1591L45.0361 44.8928Z" fill="#26CCE2"/>
<path d="M192 196C192 199.093 189.493 201.6 186.4 201.6C183.307 201.6 180.8 199.093 180.8 196C180.8 192.907 183.307 190.4 186.4 190.4C189.493 190.4 192 192.907 192 196ZM183.877 196C183.877 197.393 185.007 198.523 186.4 198.523C187.793 198.523 188.923 197.393 188.923 196C188.923 194.607 187.793 193.477 186.4 193.477C185.007 193.477 183.877 194.607 183.877 196Z" fill="#D9D9D9"/>
<circle cx="62.4" cy="62.4" r="3.2" fill="#8934DD"/>
<circle cx="51.2" cy="62.4" r="3.2" fill="#E0562A"/>
<circle cx="73.6" cy="62.4" r="3.2" fill="#5DCA75"/>
<path d="M191.443 46.3999L185 54.3514L189.6 58.4815L180.649 68.6524" stroke="#A626E2" stroke-width="2.0451" stroke-linecap="round"/>
<path d="M199.443 46.3999L193 54.3514L197.6 58.4815L188.649 68.6524" stroke="#A626E2" stroke-width="2.0451" stroke-linecap="round"/>
<rect x="84" y="124" width="65.6" height="28.8" rx="2.4" fill="#192A4E" stroke="#5F72B1" stroke-width="1.6"/>
<path d="M115.594 150H114.394L115.594 141.6H111.394C110.338 141.6 110.998 140.7 111.022 140.664C112.57 137.928 114.898 133.848 118.006 128.4H119.206L118.006 136.8H122.218C122.698 136.8 122.962 137.028 122.698 137.592C117.958 145.86 115.594 150 115.594 150Z" fill="white"/>
<mask id="path-21-inside-1_298_1898" fill="white">
<path fill-rule="evenodd" clip-rule="evenodd" d="M140.412 103.063L135.976 135.677L165.964 122.109L157.678 115.932L165.328 105.67L156.348 98.9764L148.698 109.239L140.412 103.063Z"/>
</mask>
<path fill-rule="evenodd" clip-rule="evenodd" d="M140.412 103.063L135.976 135.677L165.964 122.109L157.678 115.932L165.328 105.67L156.348 98.9764L148.698 109.239L140.412 103.063Z" fill="white"/>
<path d="M135.976 135.677L134.391 135.461L134.001 138.327L136.636 137.135L135.976 135.677ZM140.412 103.063L141.368 101.78L139.192 100.158L138.827 102.847L140.412 103.063ZM165.964 122.109L166.624 123.567L169.096 122.448L166.92 120.826L165.964 122.109ZM157.678 115.933L156.395 114.976L155.439 116.259L156.722 117.215L157.678 115.933ZM165.327 105.67L166.61 106.626L167.567 105.343L166.284 104.387L165.327 105.67ZM156.348 98.9764L157.304 97.6936L156.021 96.7374L155.065 98.0202L156.348 98.9764ZM148.698 109.239L147.742 110.522L149.025 111.478L149.981 110.195L148.698 109.239ZM137.562 135.892L141.997 103.278L138.827 102.847L134.391 135.461L137.562 135.892ZM165.305 120.651L135.317 134.219L136.636 137.135L166.624 123.567L165.305 120.651ZM156.722 117.215L165.008 123.392L166.92 120.826L158.634 114.65L156.722 117.215ZM164.045 104.714L156.395 114.976L158.961 116.889L166.61 106.626L164.045 104.714ZM155.391 100.259L164.371 106.953L166.284 104.387L157.304 97.6936L155.391 100.259ZM149.981 110.195L157.63 99.9326L155.065 98.0202L147.415 108.283L149.981 110.195ZM139.456 104.345L147.742 110.522L149.654 107.956L141.368 101.78L139.456 104.345Z" fill="#1A1C27" mask="url(#path-21-inside-1_298_1898)"/>
</svg>
