<svg xmlns:xlink="http://www.w3.org/1999/xlink" width="224" xmlns="http://www.w3.org/2000/svg" height="224" id="screenshot-669decfb-7b1e-800f-8002-230a0901f6b8" viewBox="0 0 224 224" style="-webkit-print-color-adjust: exact;" fill="none" version="1.1"><g id="shape-669decfb-7b1e-800f-8002-230a0901f6b8" width="224" height="224" rx="0" ry="0" style="fill: rgb(0, 0, 0);"><g id="shape-669decfb-7b1e-800f-8002-230a090296f2"><g class="fills" id="fills-669decfb-7b1e-800f-8002-230a090296f2"><rect rx="4" ry="4" x="37.60000000000002" y="53.60000000000002" transform="matrix(1.000000, 0.000000, 0.000000, 1.000000, 0.000000, 0.000000)" width="153.6" height="124.79999999999995" style="fill: rgb(250, 250, 255);"/></g><g id="strokes-669decfb-7b1e-800f-8002-230a090296f2" class="strokes"><g class="stroke-shape"><rect rx="4" ry="4" x="37.60000000000002" y="53.60000000000002" transform="matrix(1.000000, 0.000000, 0.000000, 1.000000, 0.000000, 0.000000)" width="153.6" height="124.79999999999995" style="fill: none; stroke-width: 1.6; stroke: rgb(121, 132, 184);"/></g></g></g><g id="shape-669decfb-7b1e-800f-8002-230a0902cad8"><g class="fills" id="fills-669decfb-7b1e-800f-8002-230a0902cad8"><rect rx="3.1999999999999886" ry="3.1999999999999886" x="49.60000000000002" y="80" transform="matrix(1.000000, 0.000000, 0.000000, 1.000000, 0.000000, 0.000000)" width="17.599999999999994" height="6.399999999999977" style="fill: rgb(70, 79, 121);"/></g></g><g id="shape-669decfb-7b1e-800f-8002-230a0902cad9"><g class="fills" id="fills-669decfb-7b1e-800f-8002-230a0902cad9"><rect rx="3.1999999999999886" ry="3.1999999999999886" x="92.80000000000001" y="190.39999999999986" transform="matrix(1.000000, 0.000000, 0.000000, 1.000000, 0.000000, 0.000000)" width="17.599999999999994" height="6.399999999999977" style="fill: rgb(70, 79, 121);"/></g></g><g id="shape-669decfb-7b1e-800f-8002-230a0902cada"><g class="fills" id="fills-669decfb-7b1e-800f-8002-230a0902cada"><rect rx="3.1999999999999886" ry="3.1999999999999886" x="171.2" y="28.799999999999955" transform="matrix(1.000000, 0.000000, 0.000000, 1.000000, 0.000000, 0.000000)" width="17.599999999999994" height="6.399999999999977" style="fill: rgb(70, 79, 121);"/></g></g><g id="shape-669decfb-7b1e-800f-8002-230a09032c6a"><g class="fills" id="fills-669decfb-7b1e-800f-8002-230a09032c6a"><rect rx="3.1999999999999886" ry="3.1999999999999886" x="67.19999999999999" y="92.79999999999995" transform="matrix(1.000000, 0.000000, 0.000000, 1.000000, 0.000000, 0.000000)" width="17.599999999999994" height="6.399999999999977" style="fill: rgb(70, 79, 121);"/></g></g><g id="shape-669decfb-7b1e-800f-8002-230a09038005"><g class="fills" id="fills-669decfb-7b1e-800f-8002-230a09038005"><path rx="0" ry="0" d="M91.200,96.000C91.200,94.233,92.633,92.800,94.400,92.800L94.400,92.800C96.167,92.800,97.600,94.233,97.600,96.000L97.600,96.000C97.600,97.767,96.167,99.200,94.400,99.200L94.400,99.200C92.633,99.200,91.200,97.767,91.200,96.000ZL91.200,96.000ZZ" style="fill: rgb(112, 123, 173);"/></g></g><g id="shape-669decfb-7b1e-800f-8002-230a0903c312"><g class="fills" id="fills-669decfb-7b1e-800f-8002-230a0903c312"><path rx="0" ry="0" d="M158.400,32.000C158.400,30.233,159.833,28.800,161.600,28.800L161.600,28.800C163.367,28.800,164.800,30.233,164.800,32.000L164.800,32.000C164.800,33.767,163.367,35.200,161.600,35.200L161.600,35.200C159.833,35.200,158.400,33.767,158.400,32.000ZL158.400,32.000ZZ" style="fill: rgb(112, 123, 173);"/></g></g><g id="shape-669decfb-7b1e-800f-8002-230a09042a80"><g class="fills" id="fills-669decfb-7b1e-800f-8002-230a09042a80"><path rx="0" ry="0" d="M72.000,83.200C72.000,81.433,73.433,80.000,75.200,80.000L118.400,80.000C120.167,80.000,121.600,81.433,121.600,83.200L121.600,83.200C121.600,84.967,120.167,86.400,118.400,86.400L75.200,86.400C73.433,86.400,72.000,84.967,72.000,83.200ZL72.000,83.200ZZ" style="fill: rgb(42, 51, 94);"/></g></g><g id="shape-669decfb-7b1e-800f-8002-230a0904525e"><g class="fills" id="fills-669decfb-7b1e-800f-8002-230a0904525e"><path rx="0" ry="0" d="M38.400,193.600C38.400,191.833,39.833,190.400,41.600,190.400L84.800,190.400C86.567,190.400,88.000,191.833,88.000,193.600L88.000,193.600C88.000,195.367,86.567,196.800,84.800,196.800L41.600,196.800C39.833,196.800,38.400,195.367,38.400,193.600ZL38.400,193.600ZZ" style="fill: rgb(42, 51, 94);"/></g></g><g id="shape-669decfb-7b1e-800f-8002-230a0904525f"><g class="fills" id="fills-669decfb-7b1e-800f-8002-230a0904525f"><path rx="0" ry="0" d="M49.600,96.000C49.600,94.233,51.033,92.800,52.800,92.800L57.600,92.800C59.367,92.800,60.800,94.233,60.800,96.000L60.800,96.000C60.800,97.767,59.367,99.200,57.600,99.200L52.800,99.200C51.033,99.200,49.600,97.767,49.600,96.000ZL49.600,96.000ZZ" style="fill: rgb(42, 51, 94);"/></g></g><g id="shape-669decfb-7b1e-800f-8002-230a0904f260"><g class="fills" id="fills-669decfb-7b1e-800f-8002-230a0904f260"><path rx="0" ry="0" d="M154.112,185.597C154.326,186.914,152.433,187.379,152.013,186.112L150.828,182.540C150.586,181.808,149.679,181.556,149.094,182.058L145.992,184.718C144.988,185.578,143.611,184.235,144.446,183.210L147.275,179.737C147.730,179.179,147.524,178.340,146.862,178.056L142.747,176.287C141.533,175.765,142.132,173.937,143.420,174.235L147.400,175.157C148.151,175.331,148.839,174.688,148.715,173.927L148.112,170.212C147.898,168.895,149.791,168.430,150.211,169.697L151.395,173.269C151.638,174.001,152.545,174.253,153.130,173.751L156.232,171.091C157.235,170.231,158.613,171.574,157.778,172.599L154.949,176.072C154.494,176.630,154.700,177.469,155.361,177.753L159.477,179.522C160.691,180.044,160.092,181.872,158.804,181.574L154.824,180.652C154.073,180.478,153.385,181.121,153.509,181.882L154.112,185.597ZZ" style="fill: rgb(252, 211, 163);"/></g></g><g id="shape-669decfb-7b1e-800f-8002-230a09053b54"><g class="fills" id="fills-669decfb-7b1e-800f-8002-230a09053b54"><path rx="0" ry="0" d="M45.036,44.893C45.216,45.382,45.908,45.382,46.087,44.893L47.827,40.159C47.883,40.005,48.005,39.883,48.159,39.827L52.893,38.087C53.382,37.908,53.382,37.216,52.893,37.036L48.159,35.297C48.005,35.240,47.883,35.119,47.827,34.964L46.087,30.231C45.908,29.741,45.216,29.741,45.036,30.231L43.297,34.964C43.240,35.119,43.119,35.240,42.964,35.297L38.231,37.036C37.741,37.216,37.741,37.908,38.231,38.087L42.964,39.827C43.119,39.883,43.240,40.005,43.297,40.159L45.036,44.893ZZ" style="fill: rgb(38, 204, 226);"/></g></g><g id="shape-669decfb-7b1e-800f-8002-230a09057431"><g class="fills" id="fills-669decfb-7b1e-800f-8002-230a09057431"><path rx="0" ry="0" d="M192.000,196.000C192.000,199.093,189.493,201.600,186.400,201.600C183.307,201.600,180.800,199.093,180.800,196.000C180.800,192.907,183.307,190.400,186.400,190.400C189.493,190.400,192.000,192.907,192.000,196.000ZZM183.877,196.000C183.877,197.393,185.007,198.523,186.400,198.523C187.793,198.523,188.923,197.393,188.923,196.000C188.923,194.607,187.793,193.477,186.400,193.477C185.007,193.477,183.877,194.607,183.877,196.000ZZ" style="fill: rgb(217, 217, 217);"/></g></g><g id="shape-669decfb-7b1e-800f-8002-230a09057432"><g class="fills" id="fills-669decfb-7b1e-800f-8002-230a09057432"><ellipse rx="3.200000000000003" ry="3.1999999999999886" cx="62.39999999999999" cy="62.400000000000034" transform="matrix(1.000000, 0.000000, 0.000000, 1.000000, 0.000000, 0.000000)" style="fill: rgb(137, 52, 221);"/></g></g><g id="shape-669decfb-7b1e-800f-8002-230a0905b975"><g class="fills" id="fills-669decfb-7b1e-800f-8002-230a0905b975"><ellipse rx="3.200000000000003" ry="3.1999999999999886" cx="51.2" cy="62.400000000000034" transform="matrix(1.000000, 0.000000, 0.000000, 1.000000, 0.000000, 0.000000)" style="fill: rgb(224, 86, 42);"/></g></g><g id="shape-669decfb-7b1e-800f-8002-230a0905b976"><g class="fills" id="fills-669decfb-7b1e-800f-8002-230a0905b976"><ellipse rx="3.200000000000003" ry="3.1999999999999886" cx="73.59999999999998" cy="62.400000000000034" transform="matrix(1.000000, 0.000000, 0.000000, 1.000000, 0.000000, 0.000000)" style="fill: rgb(93, 202, 117);"/></g></g><g id="shape-669decfb-7b1e-800f-8002-230a0905b977"><g class="fills" id="fills-669decfb-7b1e-800f-8002-230a0905b977"><path fill="none" stroke-linecap="round" rx="0" ry="0" d="M191.443,46.400L185.000,54.351L189.600,58.481L180.649,68.652" style="fill: none;"/></g><g id="strokes-669decfb-7b1e-800f-8002-230a0905b977" class="strokes"><g class="stroke-shape"><path stroke-linecap="round" rx="0" ry="0" d="M191.443,46.400L185.000,54.351L189.600,58.481L180.649,68.652" style="fill: none; stroke-width: 2.0451; stroke: rgb(166, 38, 226);"/></g></g></g><g id="shape-669decfb-7b1e-800f-8002-230a0905c4d5"><g class="fills" id="fills-669decfb-7b1e-800f-8002-230a0905c4d5"><path fill="none" stroke-linecap="round" rx="0" ry="0" d="M199.443,46.400L193.000,54.351L197.600,58.481L188.649,68.652" style="fill: none;"/></g><g id="strokes-669decfb-7b1e-800f-8002-230a0905c4d5" class="strokes"><g class="stroke-shape"><path stroke-linecap="round" rx="0" ry="0" d="M199.443,46.400L193.000,54.351L197.600,58.481L188.649,68.652" style="fill: none; stroke-width: 2.0451; stroke: rgb(166, 38, 226);"/></g></g></g><g id="shape-669decfb-7b1e-800f-8002-230a0905c4d6"><g class="fills" id="fills-669decfb-7b1e-800f-8002-230a0905c4d6"><rect rx="2.4" ry="2.4" x="84" y="124" transform="matrix(1.000000, 0.000000, 0.000000, 1.000000, 0.000000, 0.000000)" width="65.6" height="28.799999999999955" style="fill: rgb(25, 42, 78);"/></g><g id="strokes-669decfb-7b1e-800f-8002-230a0905c4d6" class="strokes"><g class="stroke-shape"><rect rx="2.4" ry="2.4" x="84" y="124" transform="matrix(1.000000, 0.000000, 0.000000, 1.000000, 0.000000, 0.000000)" width="65.6" height="28.799999999999955" style="fill: none; stroke-width: 1.6; stroke: rgb(95, 114, 177);"/></g></g></g><g id="shape-669decfb-7b1e-800f-8002-230a090600ec"><g class="fills" id="fills-669decfb-7b1e-800f-8002-230a090600ec"><path rx="0" ry="0" d="M115.594,150.000L114.394,150.000L115.594,141.600L111.394,141.600C110.338,141.600,110.998,140.700,111.022,140.664C112.570,137.928,114.898,133.848,118.006,128.400L119.206,128.400L118.006,136.800L122.218,136.800C122.698,136.800,122.962,137.028,122.698,137.592C117.958,145.860,115.594,150.000,115.594,150.000ZZ" style="fill: rgb(255, 255, 255);"/></g></g><g id="shape-669decfb-7b1e-800f-8002-230a090600ed"><g class="fills" id="fills-669decfb-7b1e-800f-8002-230a090600ed"><path fill-rule="evenodd" clip-rule="evenodd" rx="0" ry="0" d="M140.412,103.063L135.976,135.677L165.964,122.109L157.678,115.932L165.328,105.670L156.348,98.976L148.698,109.239L140.412,103.063ZZ" style="fill: rgb(255, 255, 255);"/></g></g><g id="shape-669decfb-7b1e-800f-8002-230a09069938"><defs><mask x="-22.400000000000002" y="-22.400000000000002" width="268.8" height="268.8" id="rumext-id-23-path-21-inside-1_298_1898" fill="white"><g class="svg-mask-wrapper" transform="matrix(1.000000, 0.000000, 0.000000, 1.000000, 0.000000, -0.000000)"><path fill-rule="evenodd" clip-rule="evenodd" d="M140.412 103.063L135.976 135.677L165.964 122.109L157.678 115.932L165.328 105.67L156.348 98.9764L148.698 109.239L140.412 103.063Z"/></g></mask></defs><g class="fills" id="fills-669decfb-7b1e-800f-8002-230a09069938"><path mask="url(#rumext-id-23-path-21-inside-1_298_1898)" rx="0" ry="0" d="M135.976,135.677L134.391,135.461L134.001,138.327L136.636,137.135L135.976,135.677ZZM140.412,103.063L141.368,101.780L139.192,100.158L138.827,102.847L140.412,103.063ZZM165.964,122.109L166.624,123.567L169.096,122.448L166.920,120.826L165.964,122.109ZZM157.678,115.933L156.395,114.976L155.439,116.259L156.722,117.215L157.678,115.933ZZM165.327,105.670L166.610,106.626L167.567,105.343L166.284,104.387L165.327,105.670ZZM156.348,98.976L157.304,97.694L156.021,96.737L155.065,98.020L156.348,98.976ZZM148.698,109.239L147.742,110.522L149.025,111.478L149.981,110.195L148.698,109.239ZZM137.562,135.892L141.997,103.278L138.827,102.847L134.391,135.461L137.562,135.892ZZM165.305,120.651L135.317,134.219L136.636,137.135L166.624,123.567L165.305,120.651ZZM156.722,117.215L165.008,123.392L166.920,120.826L158.634,114.650L156.722,117.215ZZM164.045,104.714L156.395,114.976L158.961,116.889L166.610,106.626L164.045,104.714ZZM155.391,100.259L164.371,106.953L166.284,104.387L157.304,97.694L155.391,100.259ZZM149.981,110.195L157.630,99.933L155.065,98.020L147.415,108.283L149.981,110.195ZZM139.456,104.345L147.742,110.522L149.654,107.956L141.368,101.780L139.456,104.345ZZ" style="fill: rgb(26, 28, 39);"/></g></g></g></svg>