<svg xmlns="http://www.w3.org/2000/svg" xmlns:xlink="http://www.w3.org/1999/xlink" width="32" height="32"
     preserveAspectRatio="xMidYMid meet" viewBox="0 0 32 32"
     fill="currentColor"
     style="-ms-transform: rotate(360deg); -webkit-transform: rotate(360deg); transform: rotate(360deg);">
    <defs/>
    <path d="M20 24h-4v2h4v3h8v-8h-8zm2-1h4v4h-4z" />
    <path d="M4 20v2h4.586L2 28.586L3.414 30L10 23.414V28h2v-8H4z" />
    <path
        d="M24 5a3.996 3.996 0 0 0-3.858 3H14v2h6.142a3.94 3.94 0 0 0 .425 1.019L14 17.586L15.414 19l6.567-6.567A3.952 3.952 0 0 0 24 13a4 4 0 0 0 0-8zm0 6a2 2 0 1 1 2-2a2.002 2.002 0 0 1-2 2z"
        />
    <path d="M9.693 12.75a5 5 0 0 1 0-7.5l1.324 1.5a3 3 0 0 0 0 4.501z" />
    <path d="M7.047 15.751a9 9 0 0 1 0-13.501l1.324 1.5a7 7 0 0 0 0 10.501z" />
</svg>