<svg width="24" height="24" viewBox="0 0 24 24" fill="currentColor" xmlns="http://www.w3.org/2000/svg">
<path d="M3.2 14.8668V14.9353L3.26524 14.9144C3.71036 14.772 4.18486 14.695 4.67743 14.695C7.23309 14.695 9.30486 16.7668 9.30486 19.3224C9.30486 19.9074 9.19633 20.467 8.99836 20.9821L8.97225 21.05H9.04503H19.25C19.7937 21.05 20.3151 20.834 20.6996 20.4496C21.084 20.0651 21.3 19.5437 21.3 19V5C21.3 3.86222 20.3775 2.95 19.25 2.95H5.25C4.11239 2.95 3.2 3.86239 3.2 5V14.8668ZM13.9559 10.7127V12.6971H12.5659V6.40205H14.6361L16.354 11.0594L16.3661 11.0921H16.4009H16.4709H16.5222L16.5209 11.0408L16.4509 8.34142V6.40205H17.8409V12.6971H15.8306L14.0477 7.93452L14.0356 7.90205H14.0009H13.9359H13.8846L13.8859 7.95332L13.9559 10.7127ZM8.11584 10.5221V12.6971H6.66084V6.40705H10.8458V7.62205H8.16584H8.11584V7.67205V9.20705V9.25705H8.16584H10.7708V10.4721H8.16584H8.11584V10.5221ZM5.06992 21.7196V21.6696H5.01992H3.99248H3.94248V21.7196V22.7471V22.7971H3.99248H5.01992H5.06992V22.7471V21.7196ZM3.65 18.3448H3.7V18.2948V17.9523C3.7 17.6931 3.80298 17.4445 3.98629 17.2612C4.16959 17.0779 4.41821 16.9749 4.67744 16.9749C4.93667 16.9749 5.18529 17.0779 5.3686 17.2612C5.5519 17.4445 5.65488 17.6931 5.65488 17.9523C5.65488 18.2575 5.50576 18.5363 5.2527 18.7051C5.25263 18.7052 5.25255 18.7052 5.25247 18.7053L5.05417 18.8352L5.05413 18.8352C4.36192 19.2897 3.94248 20.0657 3.94248 20.8977V21.0347V21.0847H3.99248H5.01992H5.06992V21.0347V20.8977C5.06992 20.443 5.29346 20.0402 5.67101 19.7748L5.87548 19.6453L5.87549 19.6454L5.87658 19.6446C6.43125 19.2725 6.78232 18.6338 6.78232 17.9523C6.78232 17.3941 6.56056 16.8587 6.16582 16.464C5.77108 16.0692 5.23569 15.8475 4.67744 15.8475C4.11919 15.8475 3.58381 16.0692 3.18906 16.464C2.79432 16.8587 2.57256 17.3941 2.57256 17.9523V18.2948V18.3448H2.62256H3.65Z" fill="currentColor" stroke="currentColor" stroke-width="0.1"/>
</svg>
