<svg width="32" height="32" viewBox="0 0 32 32" fill="none" xmlns="http://www.w3.org/2000/svg">
    <path fill-rule="evenodd" clip-rule="evenodd" d="M10.5446 7.90218H22.5685L27.9018 13.2355V25.3333C27.9018 26.0405 27.6209 26.7188 27.1208 27.2189C26.6207 27.719 25.9424 27.9999 25.2352 27.9999H10.5446C9.83739 27.9999 9.15911 27.719 8.65902 27.2189C8.15892 26.7188 7.87797 26.0405 7.87797 25.3333V10.5688C7.87797 9.10218 9.06463 7.90218 10.5446 7.90218ZM10.5446 15.9022H21.2772V10.5688H10.5446V15.9022ZM15.8557 24.0617C17.3284 24.0617 18.5223 22.8678 18.5223 21.395C18.5223 19.9223 17.3284 18.7284 15.8557 18.7284C14.3829 18.7284 13.189 19.9223 13.189 21.395C13.189 22.8678 14.3829 24.0617 15.8557 24.0617Z" fill="currentColor"/>
    <path d="M6.59367 20H3.927V22.6667H6.59367V20ZM6.59367 14.6667H3.927V17.3333H6.59367V14.6667ZM3.927 25.3333H6.59367V28C5.26034 28 3.927 26.6667 3.927 25.3333ZM17.2603 4H14.5937V6.66667H17.2603V4ZM6.59367 9.33333H3.927V12H6.59367V9.33333ZM6.59367 4V6.66667H3.927C3.927 5.33333 5.26034 4 6.59367 4ZM11.927 4H9.26033V6.66667H11.927V4ZM22.5937 4H19.927V6.66667H22.5937V4Z" fill="currentColor"/>
    <path d="M25.3254 6.66667V4C26.6588 4 27.9921 5.33333 27.9921 6.66667H25.3254Z" fill="currentColor"/>
</svg>
