<svg width="32" height="32" viewBox="0 0 32 32" xmlns="http://www.w3.org/2000/svg">
    <path d="M28 21.3334V17.3334C28 15.8534 26.8134 14.6667 25.3334 14.6667H17.3334V10.6667H20V2.66669H12V10.6667H14.6667V14.6667H6.66671C5.18671 14.6667 4.00004 15.8534 4.00004 17.3334V21.3334H1.33337V29.3334H9.33337V21.3334H6.66671V17.3334H14.6667V21.3334H12V29.3334H20V21.3334H17.3334V17.3334H25.3334V21.3334H22.6667V29.3334H30.6667V21.3334H28ZM14.6667 5.33335H17.3334V8.00002H14.6667V5.33335ZM6.66671 26.6667H4.00004V24H6.66671V26.6667ZM17.3334 26.6667H14.6667V24H17.3334V26.6667ZM28 26.6667H25.3334V24H28V26.6667Z" fill="currentColor"/>
</svg>
