<svg width="24" height="24" viewBox="0 0 24 24" fill="currentColor" xmlns="http://www.w3.org/2000/svg">
<path d="M21.184 11.46H19.184V8.45996C19.184 7.35996 18.294 6.45996 17.184 6.45996H15.184V8.45996L17.184 8.45996V11.46H15.184L18.184 14.46L21.184 11.46ZM14 7.50996C14 6.39996 13.13 5.49996 12 5.48996C10.87 5.47996 10 6.35996 10 7.45996C10 8.56996 10.89 9.45996 12 9.45996C13.09 9.45996 13.97 8.58996 14 7.50996ZM13 2.47195L11 2.47195V4.45996L13 4.45996V2.47195ZM9 6.45996L6 6.45996C4.89 6.45996 4 7.35996 4 8.45996L4 11.46H2L5 14.46L8 11.46H6V8.45996H9V6.45996Z" fill="currentColor"/>
<path d="M2 18.16L4.75 21.16L9.5 16.41L8.34 15L4.75 18.59L3.16 17L2 18.16Z" fill="currentColor"/>
<path d="M18.3268 16.59L20.4468 14.46L21.8668 15.88L19.7368 18L21.8668 20.12L20.4468 21.54L18.3268 19.41L16.2068 21.54L14.7968 20.12L16.9168 18L14.7968 15.88L16.2068 14.47L18.3268 16.59Z" fill="currentColor"/>
</svg>
