<svg width="32" height="32" viewBox="0 0 32 32" fill="none" xmlns="http://www.w3.org/2000/svg">
    <path d="M14.7159 18.6511H14.6659V18.7011V21.3678V21.4178H14.7159H17.3825H17.4325V21.3678V18.7011V18.6511H17.3825H14.7159ZM9.44194 18.6511H9.39194V18.7011V21.3678V21.4178H9.44194H12.1086H12.1586V21.3678V18.7011V18.6511H12.1086H9.44194ZM12.05 13.3333V13.2833H12H9.33329H9.28329V13.3333V15.9999V16.0499H9.33329H12H12.05V15.9999V13.3333ZM17.3833 13.3333V13.2833H17.3333H14.6666H14.6166V13.3333V15.9999V16.0499H14.6666H17.3333H17.3833V15.9999V13.3333ZM22.7166 13.3333V13.2833H22.6666H20H19.95V13.3333V15.9999V16.0499H20H22.6666H22.7166V15.9999V13.3333ZM6.71663 19.5412V10.7166H25.2833V25.2833H12.4585H12.405L12.4086 25.3366C12.4182 25.4776 12.4231 25.6198 12.4231 25.7632C12.4231 26.5452 12.278 27.2933 12.0133 27.982L11.9872 28.0499H12.06H25.3333C26.0538 28.0499 26.7448 27.7637 27.2543 27.2542C27.7637 26.7448 28.05 26.0538 28.05 25.3333V6.66659C28.05 5.94608 27.7637 5.25509 27.2543 4.74561C26.7448 4.23614 26.0538 3.94992 25.3333 3.94992H24.05V1.33325V1.28325H24H21.3333H21.2833V1.33325V3.94992H10.7166V1.33325V1.28325H10.6666H7.99996H7.94996V1.33325V3.94992H6.66663C5.94612 3.94992 5.25513 4.23614 4.74565 4.74561C4.23618 5.25509 3.94996 5.94608 3.94996 6.66659V19.9396V20.0124L4.0179 19.9863C4.70653 19.7217 5.45453 19.5766 6.23653 19.5766C6.37996 19.5766 6.52225 19.5815 6.66323 19.5911L6.71663 19.5947V19.5412ZM22.7166 18.6666V18.6166H22.6666H20H19.95V18.6666V21.3333V21.3833H20H22.6666H22.7166V21.3333V18.6666ZM6.74319 28.9594V28.9094H6.69319H5.32327H5.27327V28.9594V30.3293V30.3793H5.32327H6.69319H6.74319V30.3293V28.9594ZM4.86663 24.443H4.91663V24.393V23.9364C4.91663 23.5863 5.05569 23.2506 5.30322 23.003C5.55076 22.7555 5.88648 22.6165 6.23655 22.6165C6.58661 22.6165 6.92234 22.7555 7.16987 23.003C7.41741 23.2506 7.55647 23.5863 7.55647 23.9364C7.55647 24.3488 7.35483 24.7259 7.01272 24.954C7.01265 24.9541 7.01257 24.9541 7.0125 24.9542L6.74798 25.1275L6.74794 25.1275C5.8297 25.7304 5.27327 26.7599 5.27327 27.8635V28.0461V28.0961H5.32327H6.69319H6.74319V28.0461V27.8635C6.74319 27.2512 7.04435 26.7092 7.55205 26.3525L7.82501 26.1796L7.82502 26.1796L7.82611 26.1789C8.56116 25.6858 9.02639 24.8393 9.02639 23.9364C9.02639 23.1965 8.73246 22.4869 8.20927 21.9637C7.68607 21.4405 6.97646 21.1465 6.23655 21.1465C5.49664 21.1465 4.78703 21.4405 4.26383 21.9637C3.74063 22.4869 3.4467 23.1965 3.4467 23.9364V24.393V24.443H3.4967H4.86663Z" fill="currentColor" stroke="currentColor" stroke-width="0.1"/>
</svg>
