<svg width="32" height="32" viewBox="0 0 32 32" fill="none" xmlns="http://www.w3.org/2000/svg">
    <path d="M1.33337 1.28325H1.28337V1.33325V6.66658V6.71659H1.33337H2.61671V20.2936V20.3765L2.69 20.3379C3.48974 19.9167 4.38584 19.6539 5.33667 19.5912L5.38337 19.5881V19.5413V6.71659H6.66671H6.71671V6.66658V5.38325H25.2834V6.66658V6.71659H25.3334H26.6167V25.2833H25.3334H25.2834V25.3333V26.6166H12.4585H12.4117L12.4086 26.6633C12.3458 27.6141 12.083 28.5102 11.6618 29.31L11.6232 29.3833H11.7061H25.2834V30.6666V30.7166H25.3334H30.6667H30.7167V30.6666V25.3333V25.2833H30.6667H29.3834V6.71659H30.6667H30.7167V6.66658V1.33325V1.28325H30.6667H25.3334H25.2834V1.33325V2.61659H6.71671V1.33325V1.28325H6.66671H1.33337ZM11.95 23.7426V23.7522L11.9536 23.7612C11.9872 23.8454 12.0191 23.9306 12.0493 24.0165L12.061 24.0499H12.0965H24H24.05V23.9999V11.9999V11.9499H24H18.7167V7.99992V7.94992H18.6667H8.00004H7.95004V7.99992V18.6666V18.7166H8.00004H11.95V23.7426ZM18.7167 18.6666V14.7166H21.2834V21.2833H14.7167V18.7166H18.6667H18.7167V18.6666ZM6.74327 28.9594V28.9094H6.69327H5.32335H5.27335V28.9594V30.3293V30.3793H5.32335H6.69327H6.74327V30.3293V28.9594ZM4.86671 24.443H4.91671V24.393V23.9364C4.91671 23.5863 5.05577 23.2506 5.3033 23.003C5.55084 22.7555 5.88656 22.6165 6.23663 22.6165C6.58669 22.6165 6.92242 22.7555 7.16995 23.003C7.41749 23.2506 7.55655 23.5863 7.55655 23.9364C7.55655 24.3488 7.35491 24.7259 7.0128 24.954C7.01273 24.9541 7.01265 24.9541 7.01258 24.9542L6.74806 25.1275L6.74802 25.1275C5.82978 25.7304 5.27335 26.7599 5.27335 27.8635V28.0461V28.0961H5.32335H6.69327H6.74327V28.0461V27.8635C6.74327 27.2512 7.04443 26.7092 7.55212 26.3525L7.82509 26.1796L7.8251 26.1796L7.8262 26.1789C8.56124 25.6858 9.02647 24.8393 9.02647 23.9364C9.02647 23.1965 8.73254 22.4869 8.20935 21.9637C7.68615 21.4405 6.97654 21.1465 6.23663 21.1465C5.49672 21.1465 4.78711 21.4405 4.26391 21.9637C3.74071 22.4869 3.44679 23.1965 3.44679 23.9364V24.393V24.443H3.49679H4.86671ZM10.7167 10.7166H15.95V15.9499H10.7167V10.7166Z" fill="currentColor" stroke="currentColor" stroke-width="0.1"/>
</svg>
