<svg width="24" height="24" viewBox="0 0 24 24" fill="currentColor" xmlns="http://www.w3.org/2000/svg">
<g clip-path="url(#clip0_483_2879)">
<path d="M0.95 5V5.05H1H1.95V15.2203V15.3031L2.0233 15.2645C2.62159 14.9495 3.29196 14.7529 4.00329 14.7059L4.05 14.7029V14.6561V5.05H5H5.05V5V4.05H18.95V5V5.05H19H19.95V18.95H19H18.95V19V19.95H9.34382H9.29701L9.29393 19.9967C9.24697 20.708 9.05036 21.3784 8.73528 21.9767L8.69668 22.05H8.77952H18.95V23V23.05H19H23H23.05V23V19V18.95H23H22.05V5.05H23H23.05V5V1V0.95H23H19H18.95V1V1.95H5.05V1V0.95H5H1H0.95V1V5ZM9.02514 18.0166L9.03689 18.05H9.07231H18H18.05V18V9V8.95H18H14.05V6V5.95H14H6H5.95V6V14V14.05H6H8.95V17.807V17.8166L8.95355 17.8256C8.97868 17.8886 9.00255 17.9523 9.02514 18.0166ZM14 14.05H14.05V14V11.05H15.95V15.95H11.05V14.05H14ZM5.06992 21.7196V21.6696H5.01992H3.99248H3.94248V21.7196V22.7471V22.7971H3.99248H5.01992H5.06992V22.7471V21.7196ZM3.65 18.3448H3.7V18.2948V17.9523C3.7 17.6931 3.80298 17.4445 3.98629 17.2612C4.16959 17.0779 4.41821 16.9749 4.67744 16.9749C4.93667 16.9749 5.18529 17.0779 5.3686 17.2612C5.5519 17.4445 5.65488 17.6931 5.65488 17.9523C5.65488 18.2576 5.5057 18.5364 5.25256 18.7052C5.25253 18.7053 5.2525 18.7053 5.25247 18.7053L5.05417 18.8352L5.05413 18.8352C4.36192 19.2897 3.94248 20.0657 3.94248 20.8977V21.0347V21.0847H3.99248H5.01992H5.06992V21.0347V20.8977C5.06992 20.443 5.29346 20.0402 5.67101 19.7748L5.87548 19.6453L5.87549 19.6454L5.87658 19.6446C6.43125 19.2725 6.78232 18.6338 6.78232 17.9523C6.78232 17.3941 6.56056 16.8587 6.16582 16.464C5.77108 16.0692 5.23569 15.8475 4.67744 15.8475C4.11919 15.8475 3.58381 16.0692 3.18906 16.464C2.79432 16.8587 2.57256 17.3941 2.57256 17.9523V18.2948V18.3448H2.62256H3.65ZM8.05 11.95V8.05H11.95V11.95H8.05Z" fill="currentColor" stroke="currentColor" stroke-width="0.1"/>
</g>
<defs>
<clipPath id="clip0_483_2879">
<rect width="24" height="24" fill="white"/>
</clipPath>
</defs>
</svg>
