<?xml version="1.0" encoding="UTF-8"?>
<svg width="700pt" height="600pt" version="1.1" viewBox="0 0 700 600" xmlns="http://www.w3.org/2000/svg" xmlns:xlink="http://www.w3.org/1999/xlink">
    <g>
        <path d="m468.32 229.18c0-15.32-13.105-29.613-34.281-40.32-27.879-12.859-58.316-19.199-89.008-18.547-30.691-0.66406-61.129 5.6719-89.008 18.52-21.18 10.711-34.281 25.004-34.281 40.32s13.105 29.613 34.281 40.32c27.879 12.855 58.316 19.195 89.008 18.539 30.691 0.65625 61.129-5.6836 89.008-18.539 21.172-10.711 34.273-24.992 34.281-40.32zm0 80.941c0 15.309-13.109 29.598-34.281 40.32-27.879 12.859-58.316 19.203-89.008 18.547-30.691 0.65625-61.129-5.6875-89.008-18.547-21.18-10.711-34.281-25.004-34.281-40.32v-48.16c8.0508 8.3086 17.504 15.133 27.922 20.16 29.848 13.863 62.465 20.734 95.367 20.094 32.906 0.64062 65.523-6.2305 95.375-20.094 10.414-5.0273 19.863-11.852 27.914-20.16v48.199zm0 80.938v-48.199c-8.0508 8.3086-17.5 15.129-27.914 20.16-29.852 13.863-62.469 20.734-95.375 20.094-32.902 0.64062-65.52-6.2305-95.367-20.094-10.418-5.0312-19.871-11.855-27.922-20.16v48.16c0 15.32 13.105 29.613 34.281 40.32 27.879 12.855 58.316 19.199 89.008 18.543 30.688 0.66406 61.129-5.668 89.008-18.516 21.172-10.711 34.273-24.992 34.281-40.32zm0 80.914c0 15.328-13.105 29.617-34.281 40.32-27.879 12.859-58.316 19.199-89.008 18.543-30.691 0.65625-61.129-5.6875-89.008-18.543-21.18-10.711-34.281-25.004-34.281-40.32v-48.16c8.0508 8.3047 17.504 15.129 27.922 20.16 29.848 13.863 62.465 20.734 95.367 20.094 32.906 0.64062 65.523-6.2305 95.375-20.094 10.414-5.0312 19.863-11.855 27.914-20.16zm14.168-170.28v-72.539c0-21.102-16.082-39.793-42.086-52.949l0.003906 0.003907c-29.852-13.863-62.469-20.734-95.375-20.094-32.902-0.64063-65.52 6.2305-95.367 20.094-26.008 13.156-42.09 31.848-42.09 52.949v72.535h-25.98c-21.805 0.19141-42.918-7.6367-59.332-21.992-14.789-12.371-23.598-30.461-24.223-49.73-0.625-19.27 7-37.891 20.961-51.191 14.332-14.066 33.07-22.766 53.062-24.641 3.5742-0.35156 6.3125-3.3281 6.3672-6.918 0.89453-32.184 15.41-62.477 39.934-83.336 26.383-22.719 60.125-35.059 94.938-34.723 23.523-0.10156 46.73 5.4297 67.676 16.133 20.031 10.168 37.059 25.391 49.398 44.164 1.3242 2.0664 3.625 3.293 6.0742 3.2422h0.98047 0.99219c18.387-0.14062 36.371 5.3711 51.52 15.793 14.039 9.5391 24.348 23.637 29.184 39.902 0.66016 3.0703 3.2617 5.3398 6.3945 5.5742 20.48 1.3789 39.832 9.8789 54.699 24.035 14.309 13.215 22.242 31.945 21.77 51.418-0.46875 19.473-9.2969 37.797-24.227 50.305-16.422 14.363-37.547 22.188-59.359 21.992z" fill-rule="evenodd"/>
    </g>
</svg>
