<svg width="24" height="24" viewBox="0 0 24 24" fill="currentColor" xmlns="http://www.w3.org/2000/svg">
<path d="M21.5 19.5L18.5 22.5L15.5 19.5H17.5V15.5H19.5V19.5H21.5Z" fill="currentColor"/>
<path fill-rule="evenodd" clip-rule="evenodd" d="M4.97119 2.03955C3.86662 2.03955 2.97119 2.93498 2.97119 4.03955V19.9785C2.97119 21.0831 3.86662 21.9785 4.97119 21.9785H13.7188C13.2039 21.0924 12.9091 20.0627 12.9091 18.964C12.9091 15.6454 15.5994 12.9551 18.918 12.9551C19.6608 12.9551 20.3721 13.0899 21.0288 13.3363V4.03955C21.0288 2.93498 20.1334 2.03955 19.0288 2.03955H4.97119ZM13.5582 10.54L12.1582 5.42804H13.4542L14.4582 9.60804H14.5502L15.5582 5.42804H16.8502L15.4542 10.54H13.5582ZM8.57785 8.30004L10.0458 10.54H11.4978L9.72544 7.86056L11.4418 5.42804H10.0258L8.57785 7.54804H8.38985V5.42804H7.14985V10.54H8.38985V8.30004H8.57785Z" fill="currentColor"/>
</svg>
