<svg width="32" height="32" viewBox="0 0 32 32" fill="none" xmlns="http://www.w3.org/2000/svg">
    <path d="M16 4C11.4533 4 7.58667 5.42667 6.05333 7.42667L13.0533 14.4267C14 14.5733 14.96 14.6667 16 14.6667C21.8933 14.6667 26.6667 12.28 26.6667 9.33333C26.6667 6.38667 21.8933 4 16 4ZM5.22667 9.44L3.33333 11.3333L6.66667 14.6667H0V17.3333H6.66667L3.33333 20.6667L5.22667 22.56L11.7867 16M26.6667 12C26.6667 14.9467 21.8933 17.3333 16 17.3333C15.12 17.3333 14.2667 17.2667 13.4533 17.16L10.16 20.4533C11.84 21 13.84 21.3333 16 21.3333C21.8933 21.3333 26.6667 18.9467 26.6667 16M26.6667 18.6667C26.6667 21.6133 21.8933 24 16 24C12.96 24 10.2267 23.3333 8.28 22.3333L6.04 24.5733C7.57333 26.5733 11.4533 28 16 28C21.8933 28 26.6667 25.6133 26.6667 22.6667" fill="currentColor"/>
</svg>
