<svg width="32" height="32" viewBox="0 0 32 32" fill="currentColor" xmlns="http://www.w3.org/2000/svg">
    <path d="M10.6456 4H5.36491C3.88491 4 2.69824 5.2 2.69824 6.66667V25.3333C2.69824 26.0406 2.97919 26.7189 3.47929 27.219C3.97939 27.719 4.65766 28 5.36491 28H10.6456V12H5.36491V6.66667H10.6456V4Z" fill="currentColor"/>
    <path d="M27.9254 12V9.33333H29.233V12H27.9254Z" fill="currentColor"/>
    <path d="M26.5921 17.3333V14.6667H29.233V17.3333H26.5921Z" fill="currentColor"/>
    <path d="M25.2588 22.6667V20H29.233V22.6667H25.2588Z" fill="currentColor"/>
    <path d="M10.6456 4H5.36491C3.88491 4 2.69824 5.2 2.69824 6.66667V25.3333C2.69824 26.0406 2.97919 26.7189 3.47929 27.219C3.97939 27.719 4.65766 28 5.36491 28H10.6456V12H5.36491V6.66667H10.6456V4Z" fill="currentColor"/>
    <path d="M16.6667 16.6666L14 16.6666L18 12.6666L22 16.6666L19.3333 16.6666L19.3333 20.6666L16.6667 20.6666L16.6667 16.6666Z" fill="currentColor"/>
</svg>
