<svg width="32" height="32" viewBox="0 0 32 32" xmlns="http://www.w3.org/2000/svg">
    <path d="M6.66667 28H25.3333C26.8 28 28 26.8 28 25.3333V6.66667C28 5.2 26.8 4 25.3333 4H6.66667C5.2 4 4 5.2 4 6.66667V25.3333C4 26.8 5.2 28 6.66667 28ZM6.66667 6.66667H25.3333V25.3333H6.66667V6.66667Z" fill="currentColor"/>
    <path d="M22.9199 15.9999C22.9199 14.1217 22.0302 12.3423 20.5474 11.0571L18.9657 11.6503C20.2508 12.6388 20.9428 14.3194 20.9428 15.9999C20.9428 17.6805 20.2508 19.3611 18.9657 20.3496L20.5474 20.9428C22.0302 19.6576 22.9199 17.8782 22.9199 15.9999Z" fill="currentColor"/>
    <path d="M13.0343 11.6503L11.4526 11.0571C9.96978 12.3423 9.08008 14.1217 9.08008 15.9999C9.08008 17.8782 9.96978 19.6576 11.4526 20.9428L13.0343 20.3496C11.7492 19.3611 11.0572 17.6805 11.0572 15.9999C11.0572 14.3194 11.7492 12.6388 13.0343 11.6503Z" fill="currentColor"/>
    <path d="M17.4829 13.0343L16.0989 15.0114L15.308 13.0343H14.0229L15.308 15.9011L13.0343 18.9656H14.616L16 16.9885L16.7909 18.9656H18.076L16.7909 15.9999L18.9657 13.0343H17.4829Z" fill="currentColor"/>
</svg>
