<svg xmlns="http://www.w3.org/2000/svg" xmlns:xlink="http://www.w3.org/1999/xlink" width="24" height="24"
     preserveAspectRatio="xMidYMid meet" viewBox="0 0 24 24"
     style="-ms-transform: rotate(360deg); -webkit-transform: rotate(360deg); transform: rotate(360deg);">
    <path d="M20 2H10a2 2 0 0 0-2 2v2h8a2 2 0 0 1 2 2v8h2a2 2 0 0 0 2-2V4a2 2 0 0 0-2-2z" fill="#0D1523"/>
    <path
        d="M4 22h10c1.103 0 2-.897 2-2V10c0-1.103-.897-2-2-2H4c-1.103 0-2 .897-2 2v10c0 1.103.897 2 2 2zm2-10h6v2H6v-2zm0 4h6v2H6v-2z"
        fill="#0D1523"/>
</svg>