<svg height='300px' width='300px'  fill="#0D1523" xmlns="http://www.w3.org/2000/svg" xmlns:xlink="http://www.w3.org/1999/xlink" version="1.1" x="0px" y="0px" viewBox="0 0 32 32" style="enable-background:new 0 0 32 32;" xml:space="preserve"><g><g><path d="M5,4H3C2.4477539,4,2,3.5527344,2,3s0.4477539-1,1-1h1V1c0-0.5527344,0.4477539-1,1-1s1,0.4472656,1,1v2    C6,3.5527344,5.5522461,4,5,4z"></path></g><g><path d="M29,4h-2c-0.5522461,0-1-0.4472656-1-1V1c0-0.5527344,0.4477539-1,1-1s1,0.4472656,1,1v1h1c0.5522461,0,1,0.4472656,1,1    S29.5522461,4,29,4z"></path></g><g><path d="M5,32c-0.5522461,0-1-0.4472656-1-1v-1H3c-0.5522461,0-1-0.4472656-1-1s0.4477539-1,1-1h2c0.5522461,0,1,0.4472656,1,1v2    C6,31.5527344,5.5522461,32,5,32z"></path></g><g><path d="M27,32c-0.5522461,0-1-0.4472656-1-1v-2c0-0.5527344,0.4477539-1,1-1h2c0.5522461,0,1,0.4472656,1,1s-0.4477539,1-1,1h-1    v1C28,31.5527344,27.5522461,32,27,32z"></path></g><g><path d="M24.9799805,28H7.0200195c-0.5522461,0-1-0.4472656-1-1V5c0-0.5527344,0.4477539-1,1-1h17.9599609    c0.5522461,0,1,0.4472656,1,1v22C25.9799805,27.5527344,25.5322266,28,24.9799805,28z M8.0200195,26h15.9599609V6H8.0200195V26z"></path></g><g><path d="M16.9609375,10.90625h-6.140625c-0.5522461,0-1-0.4472656-1-1s0.4477539-1,1-1h6.140625c0.5522461,0,1,0.4472656,1,1    S17.5131836,10.90625,16.9609375,10.90625z"></path></g><g><path d="M21.1796875,15.40625h-10.359375c-0.5522461,0-1-0.4472656-1-1s0.4477539-1,1-1h10.359375c0.5522461,0,1,0.4472656,1,1    S21.7319336,15.40625,21.1796875,15.40625z"></path></g><g><path d="M21.1796875,19.25h-10.359375c-0.5522461,0-1-0.4472656-1-1s0.4477539-1,1-1h10.359375c0.5522461,0,1,0.4472656,1,1    S21.7319336,19.25,21.1796875,19.25z"></path></g><g><path d="M21.1796875,23.09375h-10.359375c-0.5522461,0-1-0.4472656-1-1s0.4477539-1,1-1h10.359375c0.5522461,0,1,0.4472656,1,1    S21.7319336,23.09375,21.1796875,23.09375z"></path></g></g></svg>