<svg width="24" height="24" viewBox="0 0 24 24" fill="currentColor" xmlns="http://www.w3.org/2000/svg">
<path d="M15.2532 15.8272L15.2799 15.7838L15.2361 15.758L12.4006 14.0825V9.86101V9.81101H12.3506H10.8506H10.8006V9.86101V14.861V14.8894L10.825 14.9039L14.435 17.0639L14.4774 17.0893L14.5032 17.0472L15.2532 15.8272ZM9.34392 18.95H9.2904L9.29403 19.0034C9.30121 19.1088 9.30486 19.2152 9.30486 19.3224C9.30486 19.9074 9.19633 20.467 8.99836 20.9821L8.97225 21.05H9.04503H19C19.5437 21.05 20.0651 20.834 20.4496 20.4496C20.834 20.0651 21.05 19.5437 21.05 19V5C21.05 3.86222 20.1275 2.95 19 2.95H18.05V1V0.95H18H16H15.95V1V2.95H8.05V1V0.95H8H6H5.95V1V2.95H5C3.86239 2.95 2.95 3.86239 2.95 5V14.9548V15.0276L3.01794 15.0015C3.53301 14.8035 4.09249 14.695 4.67743 14.695C4.78472 14.695 4.89115 14.6987 4.9966 14.7059L5.05 14.7095V14.656V8.05H18.95V18.95H9.34392ZM5.06992 21.7196V21.6696H5.01992H3.99248H3.94248V21.7196V22.7471V22.7971H3.99248H5.01992H5.06992V22.7471V21.7196ZM3.65 18.3448H3.7V18.2948V17.9523C3.7 17.6931 3.80298 17.4445 3.98629 17.2612C4.16959 17.0779 4.41821 16.9749 4.67744 16.9749C4.93667 16.9749 5.18529 17.0779 5.3686 17.2612C5.5519 17.4445 5.65488 17.6931 5.65488 17.9523C5.65488 18.2576 5.50569 18.5365 5.25253 18.7053C5.25251 18.7053 5.25249 18.7053 5.25247 18.7053L5.05417 18.8352L5.05413 18.8352C4.36192 19.2897 3.94248 20.0657 3.94248 20.8977V21.0347V21.0847H3.99248H5.01992H5.06992V21.0347V20.8977C5.06992 20.443 5.29346 20.0402 5.67101 19.7748L5.87548 19.6453L5.87549 19.6454L5.87658 19.6446C6.43125 19.2725 6.78232 18.6338 6.78232 17.9523C6.78232 17.3941 6.56056 16.8587 6.16582 16.464C5.77108 16.0692 5.23569 15.8475 4.67744 15.8475C4.11919 15.8475 3.58381 16.0692 3.18906 16.464C2.79432 16.8587 2.57256 17.3941 2.57256 17.9523V18.2948V18.3448H2.62256H3.65Z" fill="currentColor" stroke="currentColor" stroke-width="0.1"/>
</svg>
