<svg width="32" height="32" viewBox="0 0 32 32" fill="none" xmlns="http://www.w3.org/2000/svg">
    <path d="M14.6667 6.66665H10.6667L16.0001 1.33331L21.3334 6.66665H17.3334V12.5733C16.3334 13.1866 15.4401 13.9466 14.6667 14.8266V6.66665ZM29.3334 14.6666L24.0001 9.33331V13.3333C19.1867 13.1333 15.0801 16.76 14.6667 21.56C12.5867 22.2933 11.4934 24.5866 12.2267 26.6666C12.9601 28.7466 15.2534 29.84 17.3334 29.1066C19.4134 28.36 20.5067 26.08 19.7734 24C19.3734 22.8533 18.4667 21.96 17.3334 21.56C17.9601 16.2266 23.2934 15.96 23.9334 15.96V19.96L29.3334 14.6666ZM14.1734 15.4533C12.4001 14.0933 10.2267 13.3333 8.00008 13.3333V9.33331L2.66675 14.6666L8.00008 20V16C9.78675 16.04 11.5067 16.6666 12.8534 17.8666C13.1867 17.0133 13.6267 16.2 14.1734 15.4533Z" fill="currentColor"/>
</svg>
