<svg width="32" height="32" viewBox="0 0 32 32" fill="currentColor" xmlns="http://www.w3.org/2000/svg">
    <path fill-rule="evenodd" clip-rule="evenodd" d="M10.5446 7.90218H22.5685L27.9018 13.2355V25.3333C27.9018 26.0405 27.6209 26.7188 27.1208 27.2189C26.6207 27.719 25.9424 27.9999 25.2352 27.9999H10.5446C9.83739 27.9999 9.15911 27.719 8.65902 27.2189C8.15892 26.7188 7.87797 26.0405 7.87797 25.3333V10.5688C7.87797 9.10218 9.06463 7.90218 10.5446 7.90218ZM10.5446 15.9022H21.2772V10.5688H10.5446V15.9022ZM15.8557 24.0617C17.3284 24.0617 18.5223 22.8678 18.5223 21.395C18.5223 19.9223 17.3284 18.7284 15.8557 18.7284C14.3829 18.7284 13.189 19.9223 13.189 21.395C13.189 22.8678 14.3829 24.0617 15.8557 24.0617Z" fill="currentColor"/>
</svg>
