<svg width="32" height="32" viewBox="0 0 32 32" fill="none" xmlns="http://www.w3.org/2000/svg">
    <path d="M5.94084 19.5837L6.00808 19.5806L5.98562 19.5171C5.59569 18.4152 5.38329 17.2313 5.38329 16.0001C5.38329 10.161 10.1609 5.38341 16 5.38341C21.839 5.38341 26.6166 10.161 26.6166 16.0001C26.6166 21.8391 21.839 26.6167 16 26.6167C14.7687 26.6167 13.5847 26.4043 12.4828 26.0144L12.4193 25.9919L12.4162 26.0591C12.3728 26.9793 12.1286 27.8467 11.7262 28.6187L11.6992 28.6705L11.7546 28.6892C13.09 29.1393 14.5179 29.3834 16 29.3834C23.3609 29.3834 29.3833 23.361 29.3833 16.0001C29.3833 8.63913 23.3609 2.61675 16 2.61675C8.63901 2.61675 2.61663 8.63913 2.61663 16.0001C2.61663 17.4821 2.86076 18.9099 3.31082 20.2452L3.32948 20.3006L3.38131 20.2736C4.15327 19.8713 5.02072 19.627 5.94084 19.5837ZM14.7044 17.0667V17.0955L14.7292 17.1099L21.1292 20.8433L21.1752 20.8701L21.1991 20.8224L22.1324 18.9558L22.1535 18.9136L22.1126 18.8901L16.8044 15.8378V9.33342V9.28341H16.7544H14.7544H14.7044V9.33342V17.0667ZM6.74319 28.9596V28.9096H6.69319H5.32327H5.27327V28.9596V30.3295V30.3795H5.32327H6.69319H6.74319V30.3295V28.9596ZM4.86663 24.4432H4.91663V24.3932V23.9365C4.91663 23.5865 5.05569 23.2507 5.30322 23.0032C5.55076 22.7557 5.88648 22.6166 6.23655 22.6166C6.58661 22.6166 6.92234 22.7557 7.16987 23.0032C7.41741 23.2507 7.55647 23.5865 7.55647 23.9365C7.55647 24.3491 7.35476 24.7261 7.01256 24.9543C7.01254 24.9543 7.01252 24.9543 7.0125 24.9543L6.74798 25.1276L6.74794 25.1277C5.8297 25.7306 5.27327 26.76 5.27327 27.8637V28.0463V28.0963H5.32327H6.69319H6.74319V28.0463V27.8637C6.74319 27.2514 7.04435 26.7094 7.55205 26.3527L7.82501 26.1798L7.82502 26.1798L7.82611 26.1791C8.56116 25.6859 9.02639 24.8394 9.02639 23.9365C9.02639 23.1966 8.73246 22.487 8.20927 21.9638C7.68607 21.4406 6.97646 21.1467 6.23655 21.1467C5.49664 21.1467 4.78703 21.4406 4.26383 21.9638C3.74063 22.487 3.4467 23.1966 3.4467 23.9365V24.3932V24.4432H3.4967H4.86663Z" fill="currentColor" stroke="currentColor" stroke-width="0.1"/>
</svg>
