<svg width="24" height="24" viewBox="0 0 24 24" fill="none" xmlns="http://www.w3.org/2000/svg">
    <path d="M17.7785 11.7578H18.503C18.7316 11.7578 18.8961 11.7076 18.9965 11.6073C19.0991 11.5046 19.1505 11.3518 19.1505 11.1488V10.9318C19.1505 10.7264 19.1003 10.5736 19 10.4733C18.8996 10.3729 18.7351 10.3228 18.5065 10.3228H17.7785V11.7578Z" fill="currentColor"/>
    <path fill-rule="evenodd" clip-rule="evenodd" d="M4.97852 2.03955C3.87395 2.03955 2.97852 2.93498 2.97852 4.03955V19.957C2.97852 21.0616 3.87395 21.957 4.97852 21.957H19.0288C20.1334 21.957 21.0288 21.0616 21.0288 19.957V4.03955C21.0288 2.93498 20.1334 2.03955 19.0288 2.03955H4.97852ZM4.2934 13.9138H5.3889V12.0833H6.9569V13.9138H8.0559V9.44077H6.9569V11.1698H5.3889V9.44077H4.2934V13.9138ZM9.87814 10.3543V13.9138H10.9736V10.3543H12.2056V9.44077H8.64264V10.3543H9.87814ZM13.7951 13.9138V10.3543H12.5596V9.44077H16.1226V10.3543H14.8906V13.9138H13.7951ZM17.7855 12.6433V13.9138H16.7075V9.44077H18.587C19.1563 9.44077 19.5728 9.56677 19.8365 9.81877C20.1025 10.0708 20.2355 10.4313 20.2355 10.9003V11.1838C20.2355 11.6551 20.1025 12.0168 19.8365 12.2688C19.5728 12.5184 19.1575 12.6433 18.5905 12.6433H17.7855Z" fill="currentColor"/>
</svg>
