<svg xmlns="http://www.w3.org/2000/svg" xmlns:xlink="http://www.w3.org/1999/xlink" width="24" height="24"
     preserveAspectRatio="xMidYMid meet" viewBox="0 0 24 24"
     style="-ms-transform: rotate(360deg); -webkit-transform: rotate(360deg); transform: rotate(360deg);">
    <g transform="translate(24 0) scale(-1 1)">
        <path
            d="M19 3h-4.18C14.4 1.84 13.3 1 12 1s-2.4.84-2.82 2H5c-1.1 0-2 .9-2 2v14c0 1.1.9 2 2 2h14c1.1 0 2-.9 2-2V5c0-1.1-.9-2-2-2zm-7 0c.55 0 1 .45 1 1s-.45 1-1 1s-1-.45-1-1s.45-1 1-1zm4 12h-4v3l-4.65-4.65c-.2-.2-.2-.51 0-.71L12 8v3h4v4z"
            fill="#0D1523"/>
    </g>
</svg>