<svg height='300px' width='300px'  fill="#0D1523" xmlns="http://www.w3.org/2000/svg" xmlns:xlink="http://www.w3.org/1999/xlink" version="1.1" x="0px" y="0px" viewBox="0 0 64 64" style="enable-background:new 0 0 64 64;" xml:space="preserve"><g><rect x="13.35" y="32.24" width="5.85" height="5.85"></rect><rect x="13.35" y="48.32" width="5.85" height="5.85"></rect><path d="M5.36,0v64h53.29l0-64H5.36z M21.65,55.39c0,0.67-0.55,1.22-1.22,1.22h-8.3c-0.68,0-1.22-0.55-1.22-1.22v-8.3   c0-0.67,0.55-1.22,1.22-1.22h8.3c0.67,0,1.22,0.55,1.22,1.22V55.39z M21.65,39.32c0,0.67-0.55,1.22-1.22,1.22h-8.3   c-0.68,0-1.22-0.55-1.22-1.22v-8.3c0-0.67,0.55-1.22,1.22-1.22h8.3c0.67,0,1.22,0.55,1.22,1.22V39.32z M37.83,55.12   c0,0.67-0.55,1.22-1.22,1.22h-8.29c-0.68,0-1.22-0.55-1.22-1.22v-8.3c0-0.67,0.55-1.22,1.22-1.22h8.29c0.67,0,1.22,0.55,1.22,1.22   V55.12z M37.83,39.05c0,0.67-0.55,1.22-1.22,1.22h-8.29c-0.68,0-1.22-0.55-1.22-1.22v-8.3c0-0.67,0.55-1.22,1.22-1.22h8.29   c0.67,0,1.22,0.55,1.22,1.22V39.05z M53.46,55.39c0,0.67-0.55,1.22-1.22,1.22h-8.3c-0.68,0-1.22-0.55-1.22-1.22v-8.3   c0-0.67,0.55-1.22,1.22-1.22h8.29c0.68,0,1.22,0.55,1.22,1.22V55.39z M53.46,39.32c0,0.67-0.55,1.22-1.22,1.22h-8.3   c-0.68,0-1.22-0.55-1.22-1.22v-8.3c0-0.67,0.55-1.22,1.22-1.22h8.29c0.68,0,1.22,0.55,1.22,1.22V39.32z M53.89,22.63   c0,0.67-0.55,1.22-1.22,1.22H11.7c-0.68,0-1.22-0.55-1.22-1.22V5.97c0-0.68,0.55-1.22,1.22-1.22h40.96c0.68,0,1.22,0.55,1.22,1.22   V22.63z"></path><rect x="29.53" y="31.97" width="5.85" height="5.85"></rect><rect x="29.53" y="48.04" width="5.85" height="5.85"></rect><rect x="45.16" y="48.32" width="5.85" height="5.85"></rect><rect x="12.92" y="7.2" width="38.52" height="14.22"></rect><rect x="45.16" y="32.24" width="5.85" height="5.85"></rect></g></svg>