<svg width="24" height="24" viewBox="0 0 24 24" fill="currentColor" xmlns="http://www.w3.org/2000/svg">
<path d="M10.4599 19C8.99988 21.07 6.14988 21.59 4.08988 20.15C2.03988 18.71 1.55988 15.84 2.99988 13.75C3.86988 12.5 5.20988 11.83 6.57988 11.77L6.62988 13.2C5.71988 13.27 4.83988 13.74 4.26988 14.56C3.26988 16 3.57988 17.94 4.94988 18.91C6.32988 19.87 8.25988 19.5 9.25988 18.07C9.56988 17.62 9.74988 17.13 9.81988 16.63V15.62L15.3999 15.58L15.4699 15.47C15.9999 14.55 17.1499 14.23 18.0499 14.75C18.9499 15.27 19.2599 16.43 18.7299 17.35C18.1999 18.26 17.0399 18.58 16.1399 18.06C15.7299 17.83 15.4399 17.46 15.3099 17.04L11.2399 17.06C11.1299 17.73 10.8699 18.38 10.4599 19ZM17.7399 11.86C20.2699 12.17 22.0699 14.44 21.7599 16.93C21.4499 19.43 19.1499 21.2 16.6199 20.89C15.1299 20.71 13.8999 19.86 13.1899 18.68L14.4299 17.96C14.9199 18.73 15.7499 19.28 16.7499 19.41C18.4999 19.62 20.0499 18.43 20.2599 16.76C20.4699 15.09 19.2299 13.56 17.4999 13.35C16.9599 13.29 16.4399 13.36 15.9699 13.53L15.1199 13.97L12.5399 9.20001H12.3199C11.2599 9.16001 10.4399 8.29001 10.4699 7.25001C10.4999 6.21001 11.3999 5.40001 12.4499 5.44001C13.4999 5.50001 14.3299 6.35001 14.2999 7.39001C14.2799 7.83001 14.1099 8.23001 13.8399 8.54001L15.7399 12.05C16.3599 11.85 17.0399 11.78 17.7399 11.86ZM8.24988 9.14001C7.24988 6.79001 8.30988 4.10001 10.6199 3.12001C12.9399 2.14001 15.6199 3.25001 16.6199 5.60001C17.2099 6.97001 17.0899 8.47001 16.4199 9.67001L15.1799 8.95001C15.5999 8.14001 15.6699 7.15001 15.2699 6.22001C14.5899 4.62001 12.7799 3.85001 11.2299 4.50001C9.66988 5.16001 8.96988 7.00001 9.64988 8.60001C9.92988 9.26001 10.3999 9.77001 10.9699 10.11L11.3599 10.32L8.28988 15.31C8.31988 15.36 8.35988 15.42 8.38988 15.5C8.87988 16.41 8.53988 17.56 7.61988 18.05C6.70988 18.54 5.55988 18.18 5.05988 17.24C4.56988 16.31 4.90988 15.16 5.82988 14.67C6.21988 14.46 6.64988 14.41 7.05988 14.5L9.36988 10.73C8.89988 10.3 8.49988 9.76001 8.24988 9.14001Z" fill="currentColor"/>
</svg>
