<svg width="32" height="32" viewBox="0 0 32 32" fill="none" xmlns="http://www.w3.org/2000/svg">
    <path d="M13.9467 25.3334C12 28.0934 8.20001 28.7868 5.45334 26.8668C2.72001 24.9468 2.08001 21.1201 4.00001 18.3334C5.16001 16.6668 6.94667 15.7734 8.77334 15.6934L8.84001 17.6001C7.62667 17.6934 6.45334 18.3201 5.69334 19.4134C4.36001 21.3334 4.77334 23.9201 6.60001 25.2134C8.44001 26.4934 11.0133 26.0001 12.3467 24.0934C12.76 23.4934 13 22.8401 13.0933 22.1734V20.8268L20.5333 20.7734L20.6267 20.6268C21.3333 19.4001 22.8667 18.9734 24.0667 19.6668C25.2667 20.3601 25.68 21.9068 24.9733 23.1334C24.2667 24.3468 22.72 24.7734 21.52 24.0801C20.9733 23.7734 20.5867 23.2801 20.4133 22.7201L14.9867 22.7468C14.84 23.6401 14.4933 24.5068 13.9467 25.3334ZM23.6533 15.8134C27.0267 16.2268 29.4267 19.2534 29.0133 22.5734C28.6 25.9068 25.5333 28.2668 22.16 27.8534C20.1733 27.6134 18.5333 26.4801 17.5867 24.9068L19.24 23.9468C19.8933 24.9734 21 25.7068 22.3333 25.8801C24.6667 26.1601 26.7333 24.5734 27.0133 22.3468C27.2933 20.1201 25.64 18.0801 23.3333 17.8001C22.6133 17.7201 21.92 17.8134 21.2933 18.0401L20.16 18.6268L16.72 12.2668H16.4267C15.0133 12.2134 13.92 11.0534 13.96 9.66676C14 8.2801 15.2 7.2001 16.6 7.25343C18 7.33343 19.1067 8.46676 19.0667 9.85343C19.04 10.4401 18.8133 10.9734 18.4533 11.3868L20.9867 16.0668C21.8133 15.8001 22.72 15.7068 23.6533 15.8134ZM11 12.1868C9.66667 9.05343 11.08 5.46676 14.16 4.1601C17.2533 2.85343 20.8267 4.33343 22.16 7.46676C22.9467 9.29343 22.7867 11.2934 21.8933 12.8934L20.24 11.9334C20.8 10.8534 20.8933 9.53343 20.36 8.29343C19.4533 6.1601 17.04 5.13343 14.9733 6.0001C12.8933 6.8801 11.96 9.33343 12.8667 11.4668C13.24 12.3468 13.8667 13.0268 14.6267 13.4801L15.1467 13.7601L11.0533 20.4134C11.0933 20.4801 11.1467 20.5601 11.1867 20.6668C11.84 21.8801 11.3867 23.4134 10.16 24.0668C8.94667 24.7201 7.41334 24.2401 6.74667 22.9868C6.09334 21.7468 6.54667 20.2134 7.77334 19.5601C8.29334 19.2801 8.86667 19.2134 9.41334 19.3334L12.4933 14.3068C11.8667 13.7334 11.3333 13.0134 11 12.1868Z" fill="currentColor"/>
</svg>
