<svg xmlns="http://www.w3.org/2000/svg" xmlns:xlink="http://www.w3.org/1999/xlink" width="20" height="20"
     preserveAspectRatio="xMidYMid meet" viewBox="0 0 20 20"
     fill="currentColor"
     style="-ms-transform: rotate(360deg); -webkit-transform: rotate(360deg); transform: rotate(360deg);">
    <path
        d="M11 13.824V6.176A2.395 2.395 0 0 0 12.4 4a2.4 2.4 0 1 0-4.8 0c0 .967.576 1.796 1.4 2.176v7.649A2.393 2.393 0 0 0 7.6 16a2.4 2.4 0 1 0 4.8 0c0-.967-.575-1.796-1.4-2.176zM10 2.615a1.384 1.384 0 1 1 0 2.768a1.384 1.384 0 0 1 0-2.768zm0 14.77a1.385 1.385 0 1 1 0-2.77a1.385 1.385 0 0 1 0 2.77z"
        />
</svg>