<svg width="32" height="32" viewBox="0 0 32 32" fill="none" xmlns="http://www.w3.org/2000/svg">
<g id="ShellCommands">
<g id="Vector">
<path d="M16.7989 25.3333H5.33329V9.33333H26.6666V15.0567C27.6148 15.2033 28.5124 15.5033 29.3333 15.9303V6.66667C29.3333 5.95942 29.0523 5.28115 28.5522 4.78105C28.0521 4.28095 27.3739 4 26.6666 4H5.33329C3.86663 4 2.66663 5.18667 2.66663 6.66667V25.3333C2.66663 26.0406 2.94758 26.7189 3.44767 27.219C3.94777 27.719 4.62605 28 5.33329 28H17.8027C17.3305 27.1856 16.9866 26.2875 16.7989 25.3333Z" fill="currentColor"/>
<path d="M17.3333 20.2275V20H17.4346C17.3998 20.0753 17.366 20.1511 17.3333 20.2275Z" fill="currentColor"/>
<path d="M9.68012 12L15.0268 17.3333L9.70678 22.6667H13.4801L17.8534 18.2933C18.3734 17.7733 18.3734 16.92 17.8534 16.4L13.4534 12H9.68012Z" fill="currentColor"/>
<path d="M28.3024 28.1487C28.0773 28.8241 27.4582 29.2744 26.7265 29.2744H21.0981C20.1412 29.2744 19.4095 28.5427 19.4095 27.5859V27.023H26.2762C26.5014 27.6985 27.1205 28.1487 27.8522 28.1487H28.3024ZM28.9779 18.0176H22.7866C21.8298 18.0176 21.0981 18.7493 21.0981 19.7061V25.8974H27.2893V26.4602C27.2893 26.7979 27.5145 27.023 27.8522 27.023H28.415V19.7061C28.415 19.3684 28.6402 19.1433 28.9779 19.1433C29.3156 19.1433 29.5407 19.3684 29.5407 19.7061V20.2689H30.6664V19.7061C30.6664 18.7493 29.9347 18.0176 28.9779 18.0176Z" fill="currentColor"/>
</g>
</g>
</svg>