<svg width="32" height="32" viewBox="0 0 32 32" fill="none" xmlns="http://www.w3.org/2000/svg">
    <path d="M20.6134 21.1733L22.5067 19.28L25.3334 22.12L28.16 19.2933L30.04 21.1733L27.2134 24L30.0534 26.8267L28.16 28.72L25.3334 25.88L22.5067 28.7067L20.6267 26.8267L23.4534 24L20.6134 21.1733ZM16 4C21.8934 4 26.6667 6.38667 26.6667 9.33333C26.6667 12.28 21.8934 14.6667 16 14.6667C10.1067 14.6667 5.33337 12.28 5.33337 9.33333C5.33337 6.38667 10.1067 4 16 4ZM5.33337 12C5.33337 14.9467 10.1067 17.3333 16 17.3333C21.8934 17.3333 26.6667 14.9467 26.6667 12V16.1067L25.3334 16C21.88 16 18.9334 18.1867 17.8134 21.2533L16 21.3333C10.1067 21.3333 5.33337 18.9467 5.33337 16V12ZM5.33337 18.6667C5.33337 21.6133 10.1067 24 16 24H17.3334C17.3334 25.4 17.6934 26.72 18.3334 27.8667L16 28C10.1067 28 5.33337 25.6133 5.33337 22.6667V18.6667Z" fill="currentColor"/>
</svg>
