<?xml version="1.0" encoding="UTF-8"?>
<svg width="700pt" height="700pt" version="1.1" viewBox="0 0 700 700" xmlns="http://www.w3.org/2000/svg">
 <g>
  <path d="m525 525c-9.6641 0-17.5-7.8281-17.5-17.5s7.8359-17.5 17.5-17.5c9.6484 0 17.5-7.8438 17.5-17.5v-20.508c0-11.723 3.8203-22.867 10.871-31.992-7.0508-9.125-10.871-20.27-10.871-31.992v-20.508c0-9.6562-7.8516-17.5-17.5-17.5-9.6641 0-17.5-7.8281-17.5-17.5s7.8359-17.5 17.5-17.5c28.949 0 52.5 23.551 52.5 52.5v20.508c0 4.5977 1.8711 9.1094 5.1289 12.375l7.2461 7.2461c6.8359 6.8359 6.8359 17.91 0 24.746l-7.2461 7.2461c-3.2578 3.2617-5.1289 7.7734-5.1289 12.371v20.508c0 28.949-23.551 52.5-52.5 52.5z"/>
  <path d="m455 525c-28.949 0-52.5-23.551-52.5-52.5v-20.508c0-4.5977-1.8711-9.1094-5.1289-12.375l-7.2461-7.2461c-6.8359-6.8359-6.8359-17.91 0-24.746l7.2461-7.2461c3.2578-3.2617 5.1289-7.7734 5.1289-12.371v-20.508c0-28.949 23.551-52.5 52.5-52.5 9.6641 0 17.5 7.8281 17.5 17.5s-7.8359 17.5-17.5 17.5c-9.6484 0-17.5 7.8438-17.5 17.5v20.508c0 11.723-3.8203 22.867-10.867 31.992 7.0469 9.125 10.867 20.27 10.867 31.992v20.508c0 9.6562 7.8516 17.5 17.5 17.5 9.6641 0 17.5 7.8281 17.5 17.5s-7.8359 17.5-17.5 17.5z"/>
  <path d="m245 525c-9.6641 0-17.5-7.8281-17.5-17.5s7.8359-17.5 17.5-17.5c9.6484 0 17.5-7.8438 17.5-17.5v-20.508c0-11.723 3.8203-22.867 10.871-31.992-7.0508-9.125-10.871-20.27-10.871-31.992v-20.508c0-9.6562-7.8516-17.5-17.5-17.5-9.6641 0-17.5-7.8281-17.5-17.5s7.8359-17.5 17.5-17.5c28.949 0 52.5 23.551 52.5 52.5v20.508c0 4.5977 1.8711 9.1094 5.1289 12.375l7.2461 7.2461c6.8359 6.8359 6.8359 17.91 0 24.746l-7.2461 7.2461c-3.2578 3.2617-5.1289 7.7734-5.1289 12.371v20.508c0 28.949-23.551 52.5-52.5 52.5z"/>
  <path d="m175 525c-28.949 0-52.5-23.551-52.5-52.5v-20.508c0-4.5977-1.8711-9.1094-5.1289-12.375l-7.2461-7.2461c-6.8359-6.8359-6.8359-17.91 0-24.746l7.2461-7.2461c3.2578-3.2617 5.1289-7.7734 5.1289-12.371v-20.508c0-28.949 23.551-52.5 52.5-52.5 9.6641 0 17.5 7.8281 17.5 17.5s-7.8359 17.5-17.5 17.5c-9.6484 0-17.5 7.8438-17.5 17.5v20.508c0 11.723-3.8203 22.867-10.867 31.992 7.0469 9.125 10.867 20.27 10.867 31.992v20.508c0 9.6562 7.8516 17.5 17.5 17.5 9.6641 0 17.5 7.8281 17.5 17.5s-7.8359 17.5-17.5 17.5z"/>
  <path d="m227.5 472.5c-4.4766 0-8.957-1.7109-12.375-5.1289l-35-35c-6.8359-6.8359-6.8359-17.91 0-24.746l35-35c6.8359-6.8359 17.91-6.8359 24.746 0 6.8359 6.8359 6.8359 17.91 0 24.746l-22.625 22.629 22.629 22.629c6.8359 6.8359 6.8359 17.91 0 24.746-3.418 3.418-7.8984 5.125-12.375 5.125z"/>
  <path d="m472.5 472.5c-4.4766 0-8.957-1.7109-12.375-5.1289-6.8359-6.8359-6.8359-17.91 0-24.746l22.629-22.625-22.629-22.629c-6.8359-6.8359-6.8359-17.91 0-24.746s17.91-6.8359 24.746 0l35 35c6.8359 6.8359 6.8359 17.91 0 24.746l-35 35c-3.4141 3.4219-7.8945 5.1289-12.371 5.1289z"/>
  <path d="m192.5 315h35v-35h35c9.6641 0 17.5-7.8359 17.5-17.5v-52.5h-35v35h-35c-9.6641 0-17.5 7.8359-17.5 17.5z"/>
  <path d="m507.5 315h-35v-35h-35c-9.6641 0-17.5-7.8359-17.5-17.5v-52.5h35v35h35c9.6641 0 17.5 7.8359 17.5 17.5z"/>
  <path d="m437.5 35h-175c-19.328 0-35 15.672-35 35v87.5c0 19.328 15.672 35 35 35h70v17.5h-17.5c-9.6719 0-17.5 7.8359-17.5 17.5s7.8281 17.5 17.5 17.5h70c9.6719 0 17.5-7.8359 17.5-17.5s-7.8281-17.5-17.5-17.5h-17.5v-17.5h70c19.328 0 35-15.672 35-35v-87.5c0-19.328-15.672-35-35-35zm-108.5 106.74c3.8711 2.9062 4.6562 8.3906 1.75 12.254-1.7148 2.2891-4.3398 3.5039-7.0039 3.5039-1.8281 0-3.6641-0.5625-5.2383-1.7422-13.348-10.016-21.004-25.328-21.004-42.008s7.6562-31.992 21.004-42.008c3.8555-2.8867 9.332-2.0859 12.246 1.7617 2.9062 3.8633 2.1211 9.3477-1.75 12.254-8.8984 6.6641-14 16.867-14 27.992s5.1016 21.328 13.996 27.992zm52.5 14.016c-1.5703 1.1797-3.4102 1.7422-5.2383 1.7422-2.668 0-5.2891-1.2148-7.0078-3.5039-2.9062-3.8633-2.1211-9.3477 1.75-12.254 8.8984-6.6641 14-16.867 14-27.992s-5.1016-21.328-13.996-27.992c-3.8711-2.9062-4.6562-8.3906-1.75-12.254 2.9141-3.8438 8.3906-4.6484 12.246-1.7617 13.344 10.016 21 25.328 21 42.008s-7.6562 31.992-21.004 42.008z"/>
 </g>
</svg>
