<svg width="24" height="24" viewBox="0 0 24 24" fill="currentColor" xmlns="http://www.w3.org/2000/svg">
<path d="M22.2076 6.2047L22.2086 6.20439L22.2036 6.19555L19.9841 2.23647C19.984 2.23631 19.9839 2.23615 19.9839 2.23599C19.8952 2.07028 19.7086 1.95 19.5 1.95H15C14.7914 1.95 14.6048 2.07028 14.5161 2.23599C14.5161 2.23615 14.516 2.23631 14.5159 2.23647L12.2964 6.19555L12.2955 6.19505L12.2924 6.2047L12.2024 6.4847L12.1975 6.5L12.2024 6.5153L12.2924 6.7953L12.2914 6.79561L12.2964 6.80445L14.5159 10.7635C14.516 10.7637 14.5161 10.7639 14.5161 10.764C14.6048 10.9297 14.7914 11.05 15 11.05H19.5C19.7086 11.05 19.8952 10.9297 19.9839 10.764C19.9839 10.7639 19.984 10.7637 19.9841 10.7635L22.2036 6.80445L22.2045 6.80495L22.2076 6.7953L22.2976 6.5153L22.3025 6.5L22.2976 6.4847L22.2076 6.2047ZM22.2076 17.2047L22.2086 17.2044L22.2036 17.1955L19.9841 13.2365C19.984 13.2363 19.9839 13.2361 19.9839 13.236C19.8952 13.0703 19.7086 12.95 19.5 12.95H15C14.7914 12.95 14.6048 13.0703 14.5161 13.236C14.5161 13.2361 14.516 13.2363 14.5159 13.2365L12.2964 17.1955L12.2955 17.1951L12.2924 17.2047L12.2024 17.4847L12.1975 17.5L12.2024 17.5153L12.2924 17.7953L12.2914 17.7956L12.2964 17.8045L14.5159 21.7635C14.516 21.7637 14.5161 21.7639 14.5161 21.764C14.6048 21.9297 14.7914 22.05 15 22.05H19.5C19.7086 22.05 19.8952 21.9297 19.9839 21.764C19.9839 21.7639 19.984 21.7637 19.9841 21.7635L22.2036 17.8045L22.2045 17.8049L22.2076 17.7953L22.2976 17.5153L22.3025 17.5L22.2976 17.4847L22.2076 17.2047ZM12.9576 11.7047L12.9586 11.7044L12.9536 11.6955L10.7341 7.73647C10.734 7.73631 10.7339 7.73615 10.7339 7.73599C10.6452 7.57028 10.4586 7.45 10.25 7.45H5.75C5.54136 7.45 5.35475 7.57028 5.26614 7.73599C5.26605 7.73615 5.26597 7.73631 5.26588 7.73647L3.04639 11.6955L3.0455 11.6951L3.0424 11.7047L2.9524 11.9847L2.94748 12L2.9524 12.0153L3.0424 12.2953L3.04143 12.2956L3.04639 12.3045L4.37614 14.6764L4.39137 14.7036L4.42247 14.7019C4.50687 14.6973 4.59187 14.695 4.67743 14.695C6.18421 14.695 7.52278 15.4151 8.3678 16.5302L8.38281 16.55H8.40765H10.25C10.4586 16.55 10.6452 16.4297 10.7339 16.264C10.7339 16.2639 10.734 16.2637 10.7341 16.2635L12.9536 12.3045L12.9545 12.3049L12.9576 12.2953L13.0476 12.0153L13.0525 12L13.0476 11.9847L12.9576 11.7047ZM5.06992 21.7196V21.6696H5.01992H3.99248H3.94248V21.7196V22.7471V22.7971H3.99248H5.01992H5.06992V22.7471V21.7196ZM3.65 18.3448H3.7V18.2948V17.9523C3.7 17.6931 3.80298 17.4445 3.98629 17.2612C4.16959 17.0779 4.41821 16.9749 4.67744 16.9749C4.93667 16.9749 5.18529 17.0779 5.3686 17.2612C5.5519 17.4445 5.65488 17.6931 5.65488 17.9523C5.65488 18.2576 5.50569 18.5365 5.25253 18.7053C5.25251 18.7053 5.25249 18.7053 5.25247 18.7053L5.05417 18.8352L5.05413 18.8352C4.36192 19.2897 3.94248 20.0657 3.94248 20.8977V21.0347V21.0847H3.99248H5.01992H5.06992V21.0347V20.8977C5.06992 20.443 5.29346 20.0402 5.67101 19.7748L5.87548 19.6453L5.87549 19.6454L5.87658 19.6446C6.43125 19.2725 6.78232 18.6338 6.78232 17.9523C6.78232 17.3941 6.56056 16.8587 6.16582 16.464C5.77108 16.0692 5.23569 15.8475 4.67744 15.8475C4.11919 15.8475 3.58381 16.0692 3.18906 16.464C2.79432 16.8587 2.57256 17.3941 2.57256 17.9523V18.2948V18.3448H2.62256H3.65Z" fill="currentColor" stroke="currentColor" stroke-width="0.1"/>
</svg>
