<svg width="32" height="32" viewBox="0 0 32 32" fill="none" xmlns="http://www.w3.org/2000/svg">
    <path d="M20 12H6.66667V6.66667H20M16 25.3333C14.9391 25.3333 13.9217 24.9119 13.1716 24.1618C12.4214 23.4116 12 22.3942 12 21.3333C12 20.2725 12.4214 19.2551 13.1716 18.5049C13.9217 17.7548 14.9391 17.3333 16 17.3333C17.0609 17.3333 18.0783 17.7548 18.8284 18.5049C19.5786 19.2551 20 20.2725 20 21.3333C20 22.3942 19.5786 23.4116 18.8284 24.1618C18.0783 24.9119 17.0609 25.3333 16 25.3333ZM22.6667 4H6.66667C5.18667 4 4 5.2 4 6.66667V25.3333C4 26.0406 4.28095 26.7189 4.78105 27.219C5.28115 27.719 5.95942 28 6.66667 28H25.3333C26.0406 28 26.7189 27.719 27.219 27.219C27.719 26.7189 28 26.0406 28 25.3333V9.33333L22.6667 4Z" fill="currentColor"/>
</svg>
