<svg height='300px' width='300px'  fill="#0D1523" xmlns="http://www.w3.org/2000/svg" xmlns:xlink="http://www.w3.org/1999/xlink" xml:space="preserve" version="1.1" style="shape-rendering:geometricPrecision;text-rendering:geometricPrecision;image-rendering:optimizeQuality;" viewBox="0 0 847 847" x="0px" y="0px" fill-rule="evenodd" clip-rule="evenodd"><defs><style type="text/css">

    .fil0 {fill:#0D1523}

  </style></defs><g><path class="fil0" d="M16 423c0,-225 182,-407 407,-407 225,0 408,182 408,407 0,225 -183,408 -408,408 -225,0 -407,-183 -407,-408zm266 159l0 -317c0,-14 11,-24 24,-24l59 0c13,0 24,10 24,24l0 317c0,13 -11,24 -24,24l-59 0c-13,0 -24,-11 -24,-24zm176 0l0 -317c0,-14 11,-24 24,-24l58 0c14,0 24,10 24,24l0 317c0,13 -10,24 -24,24l-58 0c-13,0 -24,-11 -24,-24z"></path></g></svg>