<svg width="32" height="32" viewBox="0 0 32 32" fill="none" xmlns="http://www.w3.org/2000/svg">
    <path d="M6.69334 28.9596V30.3295H5.32342V28.9596H6.69334ZM4.86678 24.3932H3.49686V23.9365C3.49686 23.2099 3.78552 22.513 4.29934 21.9992C4.81316 21.4854 5.51005 21.1967 6.2367 21.1967C6.96335 21.1967 7.66024 21.4854 8.17406 21.9992C8.68789 22.513 8.97655 23.2099 8.97655 23.9365C8.97655 24.8224 8.5199 25.6535 7.79841 26.1375L7.52443 26.3111C7.00386 26.6764 6.69334 27.2335 6.69334 27.8637V28.0463H5.32342V27.8637C5.32342 26.7768 5.87139 25.7631 6.77554 25.1695L7.04039 24.9959C7.39657 24.7585 7.60662 24.3658 7.60662 23.9365C7.60662 23.5732 7.46229 23.2248 7.20538 22.9679C6.94847 22.7109 6.60003 22.5666 6.2367 22.5666C5.87338 22.5666 5.52493 22.7109 5.26802 22.9679C5.01111 23.2248 4.86678 23.5732 4.86678 23.9365V24.3932Z" fill="currentColor"/>
    <path fill-rule="evenodd" clip-rule="evenodd" d="M6.82668 28.8263V30.4628H5.19009V28.8263H6.82668ZM5.00011 24.5265H3.36353V23.9365C3.36353 23.1745 3.66623 22.4437 4.20506 21.9049C4.74388 21.3661 5.47469 21.0634 6.2367 21.0634C6.99872 21.0634 7.72952 21.3661 8.26835 21.9049C8.80717 22.4437 9.10988 23.1745 9.10988 23.9365C9.10988 24.8678 8.63033 25.74 7.8727 26.2483L7.86978 26.2502L7.59847 26.422C7.11226 26.7643 6.82668 27.2812 6.82668 27.8636V28.1796H5.19009V27.8636C5.19009 26.732 5.76063 25.6763 6.70236 25.058L6.96643 24.885C6.96657 24.8849 6.96629 24.8851 6.96643 24.885C7.28519 24.6723 7.47329 24.3211 7.47329 23.9365C7.47329 23.6086 7.34301 23.294 7.1111 23.0621C6.8792 22.8302 6.56467 22.7 6.2367 22.7C5.90874 22.7 5.59421 22.8302 5.3623 23.0621C5.1304 23.294 5.00011 23.6086 5.00011 23.9365V24.5265ZM6.77554 25.1695L7.04039 24.9959C7.39657 24.7585 7.60662 24.3658 7.60662 23.9365C7.60662 23.5732 7.46229 23.2248 7.20538 22.9679C6.94847 22.7109 6.60003 22.5666 6.2367 22.5666C5.87338 22.5666 5.52493 22.7109 5.26802 22.9679C5.01111 23.2248 4.86678 23.5732 4.86678 23.9365V24.3932H3.49686V23.9365C3.49686 23.2099 3.78552 22.513 4.29934 21.9992C4.81316 21.4854 5.51005 21.1967 6.2367 21.1967C6.96335 21.1967 7.66024 21.4854 8.17406 21.9992C8.68789 22.513 8.97655 23.2099 8.97655 23.9365C8.97655 24.8224 8.5199 25.6535 7.79841 26.1375L7.52443 26.3111C7.00386 26.6764 6.69334 27.2335 6.69334 27.8637V28.0463H5.32342V27.8637C5.32342 26.7768 5.87139 25.7631 6.77554 25.1695ZM6.69334 28.9596H5.32342V30.3295H6.69334V28.9596Z" fill="currentColor"/>
    <path fill-rule="evenodd" clip-rule="evenodd" d="M17.4248 5.33341H14.7581V8.00008H17.4248V5.33341ZM12.0914 2.66675V10.6667H20.0914V2.66675H12.0914Z" fill="currentColor"/>
    <path fill-rule="evenodd" clip-rule="evenodd" d="M17.4248 24.0001H14.7581V26.6667H17.4248V24.0001ZM12.0914 21.3334V29.3334H20.0914V21.3334H12.0914Z" fill="currentColor"/>
    <path fill-rule="evenodd" clip-rule="evenodd" d="M28.0001 24.0001H25.3334V26.6667H28.0001V24.0001ZM22.6668 21.3334V29.3334H30.6668V21.3334H22.6668Z" fill="currentColor"/>
    <path d="M14.6403 10.6667H17.3069V13.3334H14.6403V10.6667Z" fill="currentColor"/>
    <path d="M14.6403 14.6667H17.3069V17.3334H14.6403V14.6667Z" fill="currentColor"/>
    <path d="M20.0914 14.6667H22.7581V17.3334H20.0914V14.6667Z" fill="currentColor"/>
    <path d="M9.18957 14.6667H11.8562V17.3334H9.18957V14.6667Z" fill="currentColor"/>
    <path d="M3.94689 14.6667H6.61356V17.3334H3.94689V14.6667Z" fill="currentColor"/>
    <path d="M25.3334 14.6667H28.0001V17.3334H25.3334V14.6667Z" fill="currentColor"/>
    <path d="M25.3334 18.6667H28.0001V21.3334H25.3334V18.6667Z" fill="currentColor"/>
    <path d="M14.6403 18.6667H17.3069V21.3334H14.6403V18.6667Z" fill="currentColor"/>
</svg>
