<svg width="24" height="24" viewBox="0 0 24 24" fill="currentColor" xmlns="http://www.w3.org/2000/svg">
<path d="M21 11.7V7L17 3H5C3.9 3 3 3.9 3 5V19C3 20.1 3.9 21 5 21H11.7C11.4 20.3 11.2 19.6 11.1 18.8C9.9 18.4 9 17.3 9 16C9 14.3 10.3 13 12 13C12.3 13 12.6 13.1 12.9 13.2C14.2 11.8 16 11 18 11C19.1 11 20.1 11.2 21 11.7ZM15 9H5V5H15V9Z" fill="currentColor"/>
<path d="M18.6975 16.9646L17.6511 13.8256L16.6048 16.9646L13.4657 18.011L16.6048 19.0573L17.6511 22.1964L18.6975 19.0573L21.8365 18.011L18.6975 16.9646ZM17.6511 18.7225C17.2744 18.7225 16.9396 18.4295 16.9396 18.011C16.9396 17.6343 17.2326 17.2995 17.6511 17.2995C18.0278 17.2995 18.3626 17.5924 18.3626 18.011C18.3626 18.3877 18.0278 18.7225 17.6511 18.7225Z" fill="currentColor"/>
</svg>
