<svg width="24" height="24" viewBox="0 0 24 24" fill="currentColor" xmlns="http://www.w3.org/2000/svg">
<path d="M20.8047 22.7654L20.8401 22.8006L20.8753 22.7653L22.1453 21.4953L22.1807 21.46L22.1453 21.4246L20.75 20.0293V20.0193L20.7353 20.0046L2.42534 1.69463L2.39012 1.65941L2.35477 1.69449L1.07477 2.96449L1.03923 2.99975L1.07454 3.03524L2.94999 4.92061V14.9548V15.0276L3.01792 15.0015C3.533 14.8035 4.09248 14.695 4.67743 14.695C7.23309 14.695 9.30486 16.7668 9.30486 19.3224C9.30486 19.9074 9.19634 20.4669 8.99837 20.982L8.97226 21.05H9.04504H19.0794L20.8047 22.7654ZM6.19999 2.94998H6.07927L6.16463 3.03534L20.9646 17.8353L21.05 17.9207V17.8V8.99998V8.97927L21.0353 8.96463L15.0353 2.96463L15.0207 2.94998H15H6.19999ZM5.06992 21.7196V21.6696H5.01992H3.99248H3.94248V21.7196V22.7471V22.7971H3.99248H5.01992H5.06992V22.7471V21.7196ZM3.65 18.3448H3.7V18.2948V17.9523C3.7 17.6931 3.80298 17.4445 3.98629 17.2612C4.16959 17.0779 4.41821 16.9749 4.67744 16.9749C4.93667 16.9749 5.18529 17.0779 5.3686 17.2612C5.5519 17.4445 5.65488 17.6931 5.65488 17.9523C5.65488 18.2576 5.5057 18.5364 5.25256 18.7052C5.25253 18.7053 5.2525 18.7053 5.25247 18.7053L5.05417 18.8352L5.05413 18.8352C4.36192 19.2897 3.94248 20.0657 3.94248 20.8977V21.0347V21.0847H3.99248H5.01992H5.06992V21.0347V20.8977C5.06992 20.443 5.29346 20.0402 5.67101 19.7748L5.87548 19.6453L5.87549 19.6454L5.87658 19.6446C6.43125 19.2725 6.78232 18.6338 6.78232 17.9523C6.78232 17.3941 6.56056 16.8587 6.16582 16.464C5.77108 16.0692 5.23569 15.8475 4.67744 15.8475C4.11919 15.8475 3.58381 16.0692 3.18906 16.464C2.79432 16.8587 2.57256 17.3941 2.57256 17.9523V18.2948V18.3448H2.62256H3.65ZM14.05 9.94998V4.62069L19.3793 9.94998H14.05Z" fill="currentColor" stroke="currentColor" stroke-width="0.1"/>
</svg>
