<svg width="24" height="24" viewBox="0 0 24 24" fill="currentColor" xmlns="http://www.w3.org/2000/svg">
<path fill-rule="evenodd" clip-rule="evenodd" d="M2.97852 4.03955C2.97852 2.93498 3.87395 2.03955 4.97852 2.03955H19.0288C20.1334 2.03955 21.0288 2.93498 21.0288 4.03955V19.957C21.0288 21.0616 20.1334 21.957 19.0288 21.957H4.97852C3.87395 21.957 2.97852 21.0616 2.97852 19.957V4.03955ZM13.5618 14.5L12.1618 9.388H13.4578L14.4618 13.568H14.5538L15.5618 9.388H16.8538L15.4578 14.5H13.5618ZM8.5815 12.26L10.0495 14.5H11.5015L9.7291 11.8205L11.4455 9.388H10.0295L8.5815 11.508H8.3935V9.388H7.1535V14.5H8.3935V12.26H8.5815Z" fill="currentColor"/>
</svg>
