<svg width="32" height="32" viewBox="0 0 32 32" fill="none" xmlns="http://www.w3.org/2000/svg">
    <path d="M28 15.6V9.33333L22.6667 4H6.66667C5.2 4 4 5.2 4 6.66667V25.3333C4 26.8 5.2 28 6.66667 28H15.6C15.2 27.0667 14.9333 26.1333 14.8 25.0667C13.2 24.5333 12 23.0667 12 21.3333C12 19.0667 13.7333 17.3333 16 17.3333C16.4 17.3333 16.8 17.4667 17.2 17.6C18.9333 15.7333 21.3333 14.6667 24 14.6667C25.4667 14.6667 26.8 14.9333 28 15.6ZM20 12H6.66667V6.66667H20V12Z" fill="currentColor"/>
    <path d="M24.93 22.6195L23.5348 18.4341L22.1397 22.6195L17.9543 24.0146L22.1397 25.4098L23.5348 29.5952L24.93 25.4098L29.1154 24.0146L24.93 22.6195ZM23.5348 24.9633C23.0326 24.9633 22.5861 24.5727 22.5861 24.0146C22.5861 23.5124 22.9768 23.066 23.5348 23.066C24.0371 23.066 24.4835 23.4566 24.4835 24.0146C24.4835 24.5169 24.0371 24.9633 23.5348 24.9633Z" fill="currentColor"/>
</svg>
