<svg width="32" height="32" viewBox="0 0 32 32" fill="none" xmlns="http://www.w3.org/2000/svg">
    <path d="M21.9646 14.7019L22 14.7373L22.0353 14.7019L29.502 7.23527L29.5373 7.19992L29.502 7.16456L27.6353 5.2979L27.6 5.26254L27.5646 5.2979L22 10.8625L19.2353 8.0979L19.2 8.06254L19.1646 8.0979L17.2979 9.96456L17.2626 9.99992L17.2979 10.0353L21.9646 14.7019ZM14.7166 9.33325V9.28325H14.6666H2.66663H2.61663V9.33325V11.9999V12.0499H2.66663H14.6666H14.7166V11.9999V9.33325ZM28.0353 17.9019L28.0707 17.8666L28.0353 17.8312L26.1686 15.9646L26.1333 15.9292L26.0979 15.9646L22.6666 19.3959L19.2353 15.9646L19.2 15.9292L19.1646 15.9646L17.2979 17.8312L17.2626 17.8666L17.2979 17.9019L20.7292 21.3333L17.2979 24.7646L17.2626 24.7999L17.2979 24.8353L19.1646 26.7019L19.2 26.7373L19.2353 26.7019L22.6666 23.2706L26.0979 26.7019L26.1333 26.7373L26.1686 26.7019L28.0353 24.8353L28.0707 24.7999L28.0353 24.7646L24.604 21.3333L28.0353 17.9019ZM10.484 21.1465H10.3569L10.4499 21.2331C11.2386 21.967 11.8353 22.9043 12.1566 23.9614L12.1674 23.9969H12.2045H14.5731H14.6231V23.9469V21.1965V21.1465H14.5731H10.484ZM6.74319 28.9594V28.9094H6.69319H5.32327H5.27327V28.9594V30.3293V30.3793H5.32327H6.69319H6.74319V30.3293V28.9594ZM4.86663 24.443H4.91663V24.393V23.9364C4.91663 23.5863 5.05569 23.2506 5.30322 23.0031C5.55076 22.7555 5.88648 22.6165 6.23655 22.6165C6.58661 22.6165 6.92234 22.7555 7.16987 23.0031C7.41741 23.2506 7.55647 23.5863 7.55647 23.9364C7.55647 24.3489 7.35483 24.7259 7.01272 24.954C7.01265 24.9541 7.01257 24.9541 7.0125 24.9542L6.74798 25.1275L6.74794 25.1275C5.8297 25.7304 5.27327 26.7599 5.27327 27.8635V28.0461V28.0961H5.32327H6.69319H6.74319V28.0461V27.8635C6.74319 27.2512 7.04434 26.7092 7.55201 26.3525L7.82501 26.1796L7.82502 26.1796L7.82611 26.1789C8.56116 25.6858 9.02639 24.8393 9.02639 23.9364C9.02639 23.1965 8.73246 22.4869 8.20927 21.9637C7.68607 21.4405 6.97646 21.1465 6.23655 21.1465C5.49664 21.1465 4.78703 21.4405 4.26383 21.9637C3.74063 22.4869 3.4467 23.1965 3.4467 23.9364V24.393V24.443H3.4967H4.86663Z" fill="currentColor" stroke="currentColor" stroke-width="0.1"/>
</svg>
