<svg width="24" height="24" viewBox="0 0 24 24" fill="currentColor" xmlns="http://www.w3.org/2000/svg">
<path d="M10 4L12 6H20C20.5304 6 21.0391 6.21071 21.4142 6.58579C21.7893 6.96086 22 7.46957 22 8V11.5C21.23 11.18 20.39 11 19.5 11C17.7761 11 16.1228 11.6848 14.9038 12.9038C13.6848 14.1228 13 15.7761 13 17.5C13 18.39 13.18 19.23 13.5 20H4C2.89 20 2 19.1 2 18V6C2 4.89 2.89 4 4 4H10ZM19 12V13.5C20.0609 13.5 21.0783 13.9214 21.8284 14.6716C22.5786 15.4217 23 16.4391 23 17.5C23 18.32 22.75 19.08 22.33 19.71L21.24 18.62C21.41 18.28 21.5 17.9 21.5 17.5C21.5 16.837 21.2366 16.2011 20.7678 15.7322C20.2989 15.2634 19.663 15 19 15V16.5L16.75 14.25L19 12ZM19 23V21.5C17.9391 21.5 16.9217 21.0786 16.1716 20.3284C15.4214 19.5783 15 18.5609 15 17.5C15 16.68 15.25 15.92 15.67 15.29L16.76 16.38C16.59 16.72 16.5 17.1 16.5 17.5C16.5 18.163 16.7634 18.7989 17.2322 19.2678C17.7011 19.7366 18.337 20 19 20V18.5L21.25 20.75L19 23Z" fill="currentColor"/>
</svg>
