<svg width="32" height="32" viewBox="0 0 32 32" fill="none" xmlns="http://www.w3.org/2000/svg">
    <path d="M12.0133 27.9821L11.9872 28.05H12.06H25.3333C26.8276 28.05 28.05 26.8276 28.05 25.3333V6.66667C28.05 5.17239 26.8276 3.95 25.3333 3.95H6.66663C5.17235 3.95 3.94996 5.17239 3.94996 6.66667V19.9397V20.0125L4.0179 19.9864C4.70653 19.7218 5.45453 19.5767 6.23653 19.5767C6.57197 19.5767 6.90114 19.6034 7.22205 19.6548L7.30239 19.6676L7.27756 19.5901C6.91241 18.4504 6.71663 17.2361 6.71663 16C6.71663 12.9582 7.90223 10.0491 9.87791 8.05951L11.9103 8.94868C10.1996 10.5661 9.28329 13.2206 9.28329 16C9.28329 17.97 9.74353 19.8761 10.6199 21.3951L10.6184 21.396L10.6277 21.4053C11.0415 21.8223 11.3963 22.2978 11.6785 22.8183L11.6769 22.8192L11.6864 22.8291C11.7595 22.9052 11.8341 22.9793 11.9103 23.0513L11.8653 23.071L11.8183 23.0916L11.8401 23.138C12.2141 23.9349 12.4231 24.8246 12.4231 25.7633C12.4231 26.5453 12.278 27.2934 12.0133 27.9821ZM12.0993 19.95L15.1068 15.8965L15.1242 15.8729L15.1123 15.8462L13.4105 12.05H15.0328L16.0869 14.6852L16.1212 14.7711L16.1743 14.6953L18.026 12.05H19.9013L17.0263 15.9704L17.0093 15.9936L17.0207 16.0199L18.7238 19.95H16.9671L15.913 17.3148L15.8787 17.2289L15.8257 17.3047L13.9739 19.95H12.0993ZM6.74319 28.9595V28.9095H6.69319H5.32327H5.27327V28.9595V30.3294V30.3794H5.32327H6.69319H6.74319V30.3294V28.9595ZM4.86663 24.4431H4.91663V24.3931V23.9365C4.91663 23.5864 5.05569 23.2507 5.30322 23.0031C5.55076 22.7556 5.88648 22.6165 6.23655 22.6165C6.58661 22.6165 6.92234 22.7556 7.16987 23.0031C7.41741 23.2507 7.55647 23.5864 7.55647 23.9365C7.55647 24.3489 7.35483 24.7259 7.01273 24.9541C7.01266 24.9542 7.01258 24.9542 7.0125 24.9543L6.74798 25.1276L6.74794 25.1276C5.8297 25.7305 5.27327 26.7599 5.27327 27.8636V28.0462V28.0962H5.32327H6.69319H6.74319V28.0462V27.8636C6.74319 27.2513 7.04434 26.7093 7.55202 26.3526L7.82501 26.1797L7.82502 26.1797L7.82611 26.179C8.56116 25.6859 9.02639 24.8393 9.02639 23.9365C9.02639 23.1965 8.73246 22.4869 8.20927 21.9637C7.68607 21.4405 6.97646 21.1466 6.23655 21.1466C5.49664 21.1466 4.78703 21.4405 4.26383 21.9637C3.74063 22.4869 3.4467 23.1965 3.4467 23.9365V24.3931V24.4431H3.4967H4.86663ZM25.2833 16C25.2833 19.0418 24.0977 21.9509 22.122 23.9405L20.0868 23.0501C21.7981 21.3073 22.7166 18.7829 22.7166 16C22.7166 13.2206 21.8003 10.5661 20.0896 8.94868L22.122 8.05951C24.0977 10.0491 25.2833 12.9582 25.2833 16Z" fill="currentColor" stroke="currentColor" stroke-width="0.1"/>
</svg>
