<svg width="32" height="32" viewBox="0 0 32 32" xmlns="http://www.w3.org/2000/svg">
    <path d="M25.3333 4H6.66667C5.2 4 4 5.2 4 6.66667V25.3333C4 26.8 5.2 28 6.66667 28H25.3333C26.8 28 28 26.8 28 25.3333V6.66667C28 5.2 26.8 4 25.3333 4ZM17.3333 9.46667L18.8 8L20.6667 9.86667L22.5333 8L24 9.46667L22.1333 11.3333L24 13.2L22.5333 14.6667L20.6667 12.8L18.8 14.6667L17.3333 13.2L19.2 11.3333L17.3333 9.46667ZM8.26667 10.2667H14.9333V12.2667H8.26667V10.2667ZM15.3333 21.3333H12.6667V24H10.6667V21.3333H8V19.3333H10.6667V16.6667H12.6667V19.3333H15.3333V21.3333ZM24 22.9333H17.3333V20.9333H24V22.9333ZM24 19.7333H17.3333V17.7333H24V19.7333Z" fill="currentColor"/>
</svg>
