<svg width="32" height="32" viewBox="0 0 32 32" fill="none" xmlns="http://www.w3.org/2000/svg">
    <path d="M28 15.6V9.33333L22.6667 4H6.66667C5.2 4 4 5.2 4 6.66667V25.3333C4 26.8 5.2 28 6.66667 28H15.6C15.2 27.0667 14.9333 26.1333 14.8 25.0667C13.2 24.5333 12 23.0667 12 21.3333C12 19.0667 13.7333 17.3333 16 17.3333C16.4 17.3333 16.8 17.4667 17.2 17.6C18.9333 15.7333 21.3333 14.6667 24 14.6667C25.4667 14.6667 26.8 14.9333 28 15.6ZM20 12H6.66667V6.66667H20V12Z" fill="currentColor"/>
    <path d="M27.2134 25.3333L30.0534 22.5066L28.16 20.6133L25.3334 23.4533L22.5067 20.6133L20.6134 22.5066L23.4534 25.3333L20.6134 28.1599L22.5067 30.0533L25.3334 27.2133L28.16 30.0533L30.0534 28.1599L27.2134 25.3333Z" fill="currentColor"/>
</svg>
