<svg width="32" height="32" viewBox="0 0 32 32" fill="none" xmlns="http://www.w3.org/2000/svg">
    <path d="M28 2.66669H4.00004C2.53337 2.66669 1.33337 3.86669 1.33337 5.33335V26.6667C1.33337 28.1334 2.53337 29.3334 4.00004 29.3334H28C29.4667 29.3334 30.6667 28.1334 30.6667 26.6667V5.33335C30.6667 3.86669 29.4667 2.66669 28 2.66669ZM14.6667 14.6667H12V16.6667C12 18.1334 10.8 19.3334 9.33337 19.3334C10.8 19.3334 12 20.5334 12 22V24H14.6667V26.6667H12C10.5334 26.6667 9.33337 25.4667 9.33337 24V23.3334C9.33337 21.8667 8.13337 20.6667 6.66671 20.6667V18C8.13337 18 9.33337 16.8 9.33337 15.3334V14.6667C9.33337 13.2 10.5334 12 12 12H14.6667V14.6667ZM25.3334 20.6667C23.8667 20.6667 22.6667 21.8667 22.6667 23.3334V24C22.6667 25.4667 21.4667 26.6667 20 26.6667H17.3334V24H20V22C20 20.5334 21.2 19.3334 22.6667 19.3334C21.2 19.3334 20 18.1334 20 16.6667V14.6667H17.3334V12H20C21.4667 12 22.6667 13.2 22.6667 14.6667V15.3334C22.6667 16.8 23.8667 18 25.3334 18V20.6667ZM28 9.33335H4.00004V5.33335H28V9.33335Z" fill="currentColor"/>
</svg>
