<svg width="24" height="24" viewBox="0 0 24 24" fill="currentColor" xmlns="http://www.w3.org/2000/svg">
<path d="M18 3.17331C16.9 3.17331 16 4.07331 16 5.17331V11.1733C16 12.2733 16.9 13.1733 18 13.1733H20C21.1 13.1733 22 12.2733 22 11.1733V7.17331H20V11.1733H18V5.17331H22V3.17331H18ZM2 3.17331V13.1733H8V11.1733H4V3.17331H2ZM11 3.17331C9.9 3.17331 9 4.07331 9 5.17331V11.1733C9 12.2733 9.9 13.1733 11 13.1733H13C14.1 13.1733 15 12.2733 15 11.1733V5.17331C15 4.07331 14.1 3.17331 13 3.17331H11ZM11 5.17331H13V11.1733H11V5.17331Z" fill="currentColor"/>
<path d="M11 14.9691H13V17.0209H15L12 20.0209L9 17.0209H11V14.9691Z" fill="currentColor"/>
<path d="M9 21.0051H15V22.0286H9V21.0051Z" fill="currentColor"/>
</svg>
