<svg viewBox="0 0 640 512" xmlns="http://www.w3.org/2000/svg"><path d="M128 352H32c-17.62 0-32 14.38-32 32v96c0 17.62 14.38 32 32 32h96c17.62 0 32-14.38 32-32v-96C160 366.4 145.6 352 128 352zM104 272h192V320h48V272h192V320h48V262.4C584 241.3 566.8 224 545.6 224H344V160H384c17.62 0 32-14.38 32-32V32c0-17.62-14.38-32-32-32H256C238.4 0 224 14.38 224 32v96c0 17.62 14.38 32 32 32h40v64H94.38C73.25 224 56 241.3 56 262.4V320h48V272zM368 352h-96c-17.62 0-32 14.38-32 32v96c0 17.62 14.38 32 32 32h96c17.62 0 32-14.38 32-32v-96C400 366.4 385.6 352 368 352zM608 352h-96c-17.62 0-32 14.38-32 32v96c0 17.62 14.38 32 32 32h96c17.62 0 32-14.38 32-32v-96C640 366.4 625.6 352 608 352z"/></svg>