<svg width="24" height="24" viewBox="0 0 24 24" xmlns="http://www.w3.org/2000/svg">
<path d="M3.8973 2.18179C3.44231 2.18179 3.00596 2.36254 2.68423 2.68426C2.36251 3.00599 2.18176 3.44234 2.18176 3.89733V5.38841H3.78507V3.7851H5.38838V2.18179H3.8973ZM6.99169 2.18179V3.7851H9.39665V2.18179H6.99169ZM11 2.18179V3.7851H12.6033V5.38841H14.2066V3.89733C14.2066 2.95138 13.437 2.18179 12.491 2.18179H11ZM2.18176 6.99172V9.39668H3.78507V6.99172H2.18176ZM8.595 6.99172C7.70516 6.99172 6.99169 7.70519 6.99169 8.59503C6.99169 10.4629 6.99169 14.2066 6.99169 14.2066C6.99169 14.2066 10.6552 14.2066 12.491 14.2066C12.946 14.2066 13.3824 14.0259 13.7041 13.7041C14.0258 13.3824 14.2066 12.9461 14.2066 12.4911C14.2066 10.6553 14.2066 6.99172 14.2066 6.99172C14.2066 6.99172 10.4629 6.99172 8.595 6.99172ZM15.8099 6.99172V8.59503H17.4132V10.1983H19.0165V8.59503C19.0165 7.70519 18.303 6.99172 17.4132 6.99172H15.8099ZM8.595 8.59503H12.6033V12.6033H8.595V8.59503ZM2.18176 11V12.4911C2.18176 13.437 2.95135 14.2066 3.8973 14.2066H5.38838V12.6033H3.78507V11H2.18176ZM17.4132 11.8016V14.2066H19.0165V11.8016H17.4132ZM6.99169 15.8099V17.4132C6.99169 18.3031 7.70516 19.0165 8.595 19.0165H10.1983V17.4132H8.595V15.8099H6.99169ZM11.8016 17.4132V19.0165H14.2066V17.4132H11.8016Z" fill="currentColor"/>
<path d="M19.87 18.3801L22 16.2601L20.58 14.8401L18.46 16.9701L16.34 14.8401L14.92 16.2601L17.05 18.3801L14.92 20.5001L16.34 21.9201L18.46 19.7901L20.58 21.9201L22 20.5001L19.87 18.3801Z" fill="currentColor"/>
</svg>
