<svg width="32" height="32" viewBox="0 0 32 32" fill="none" xmlns="http://www.w3.org/2000/svg">
    <path d="M28.6666 25.9998L24.6666 29.9998L20.6666 25.9998H23.3333V20.6665H26V25.9998H28.6666Z" fill="currentColor"/>
    <path d="M23.1323 10.1839H23.8203C24.0576 10.1839 24.2269 10.1359 24.3283 10.0399C24.4323 9.94389 24.4843 9.79056 24.4843 9.57989V9.37589C24.4843 9.16522 24.4323 9.01189 24.3283 8.91589C24.2269 8.81722 24.0576 8.76789 23.8203 8.76789H23.1323V10.1839Z" fill="currentColor"/>
    <path fill-rule="evenodd" clip-rule="evenodd" d="M3.96155 5.38591C3.96155 3.91315 5.15546 2.71924 6.62821 2.71924H25.3717C26.8445 2.71924 28.0384 3.91315 28.0384 5.38591V17.7815C27.1628 17.453 26.2143 17.2733 25.224 17.2733C20.7991 17.2733 17.212 20.8603 17.212 25.2852C17.212 26.75 17.6052 28.1231 18.2916 29.3045H6.62821C5.15545 29.3045 3.96155 28.1106 3.96155 26.6379V5.38591ZM6.30314 12.7199H7.75514V10.7159H9.33514V12.7199H10.7871V7.60789H9.33514V9.50789H7.75514V7.60789H6.30314V12.7199ZM13.0796 8.81189V12.7199H14.5316V8.81189H15.8996V7.60789H11.7076V8.81189H13.0796ZM17.97 12.7199V8.81189H16.598V7.60789H20.79V8.81189H19.422V12.7199H17.97ZM23.1403 11.3479V12.7199H21.7163V7.60789H23.9483C24.6256 7.60789 25.1229 7.75589 25.4403 8.05189C25.7576 8.34522 25.9163 8.77189 25.9163 9.33189V9.62789C25.9163 10.1906 25.7576 10.6186 25.4403 10.9119C25.1229 11.2026 24.6283 11.3479 23.9563 11.3479H23.1403Z" fill="currentColor"/>
</svg>
