<svg width="32" height="32" viewBox="0 0 32 32" fill="none" xmlns="http://www.w3.org/2000/svg">
    <path d="M21.3333 20H11.9999V17.3333H21.3333M25.3333 14.6666H11.9999V12H25.3333M25.3333 9.33331H11.9999V6.66665H25.3333M27.9999 1.33331H9.33325C7.85325 1.33331 6.66658 2.51998 6.66658 3.99998V22.6666C6.66658 24.1466 7.86658 25.3333 9.33325 25.3333H27.9999C29.4799 25.3333 30.6666 24.1466 30.6666 22.6666V3.99998C30.6666 2.51998 29.4666 1.33331 27.9999 1.33331ZM3.99992 6.66665V28H25.3333V30.6666H3.99992C3.29267 30.6666 2.6144 30.3857 2.1143 29.8856C1.6142 29.3855 1.33325 28.7072 1.33325 28V6.66665H3.99992Z" fill="currentColor"/>
</svg>
