<svg width="32" height="32" viewBox="0 0 32 32" fill="none" xmlns="http://www.w3.org/2000/svg">
    <path fill-rule="evenodd" clip-rule="evenodd" d="M28.0001 17.3334V21.3334H30.6667V29.3334H22.6667V21.3334H25.3334V17.3334H17.3334V21.3334H20.0001V29.3334H12.0001V21.3334H14.6667V17.3334H6.66674V19.5417C6.52612 19.5318 6.38275 19.5268 6.23665 19.5268C5.44842 19.5268 4.69435 19.673 4.00007 19.9398V17.3334C4.00007 15.8534 5.18674 14.6667 6.66674 14.6667H14.6667V10.6667H12.0001V2.66675H20.0001V10.6667H17.3334V14.6667H25.3334C26.8134 14.6667 28.0001 15.8534 28.0001 17.3334ZM17.3334 5.33341H14.6667V8.00008H17.3334V5.33341ZM14.6667 26.6667H17.3334V24.0001H14.6667V26.6667ZM25.3334 26.6667H28.0001V24.0001H25.3334V26.6667Z" fill="currentColor"/>
    <path d="M6.69331 28.9596V30.3295H5.32339V28.9596H6.69331ZM4.86675 24.3932H3.49683V23.9365C3.49683 23.2099 3.78549 22.513 4.29931 21.9992C4.81313 21.4854 5.51002 21.1967 6.23667 21.1967C6.96332 21.1967 7.66021 21.4854 8.17403 21.9992C8.68785 22.513 8.97651 23.2099 8.97651 23.9365C8.97651 24.8224 8.51987 25.6535 7.79838 26.1375L7.5244 26.3111C7.00383 26.6764 6.69331 27.2335 6.69331 27.8637V28.0463H5.32339V27.8637C5.32339 26.7768 5.87136 25.7631 6.77551 25.1695L7.04036 24.9959C7.39654 24.7585 7.60659 24.3658 7.60659 23.9365C7.60659 23.5732 7.46226 23.2248 7.20535 22.9679C6.94844 22.7109 6.6 22.5666 6.23667 22.5666C5.87334 22.5666 5.5249 22.7109 5.26799 22.9679C5.01108 23.2248 4.86675 23.5732 4.86675 23.9365V24.3932Z" fill="currentColor"/>
    <path d="M6.71674 19.5417V17.3834H14.6167V21.2834H12.0001H11.9501V21.3334V29.3334V29.3834H12.0001H20.0001H20.0501V29.3334V21.3334V21.2834H20.0001H17.3834V17.3834H25.2834V21.2834H22.6667H22.6167V21.3334V29.3334V29.3834H22.6667H30.6667H30.7167V29.3334V21.3334V21.2834H30.6667H28.0501V17.3334C28.0501 15.8258 26.841 14.6167 25.3334 14.6167H17.3834V10.7167H20.0001H20.0501V10.6667V2.66675V2.61675H20.0001H12.0001H11.9501V2.66675V10.6667V10.7167H12.0001H14.6167V14.6167H6.66674C5.15912 14.6167 3.95007 15.8258 3.95007 17.3334V19.9398V20.0126L4.01801 19.9865C4.70665 19.7218 5.45465 19.5768 6.23665 19.5768C6.3816 19.5768 6.5238 19.5818 6.66323 19.5916L6.71674 19.5953V19.5417ZM6.74331 28.9596V28.9096H6.69331H5.32339H5.27339V28.9596V30.3295V30.3795H5.32339H6.69331H6.74331V30.3295V28.9596ZM4.86675 24.4432H4.91675V24.3932V23.9365C4.91675 23.5865 5.05581 23.2507 5.30334 23.0032C5.55088 22.7557 5.88661 22.6166 6.23667 22.6166C6.58673 22.6166 6.92246 22.7557 7.16999 23.0032C7.41753 23.2507 7.55659 23.5865 7.55659 23.9365C7.55659 24.3491 7.35488 24.7261 7.01268 24.9543C7.01266 24.9543 7.01264 24.9543 7.01262 24.9543L6.7481 25.1276L6.74806 25.1277C5.82982 25.7306 5.27339 26.76 5.27339 27.8637V28.0463V28.0963H5.32339H6.69331H6.74331V28.0463V27.8637C6.74331 27.2514 7.04448 26.7094 7.55217 26.3527L7.82513 26.1798L7.82514 26.1798L7.82624 26.1791C8.56128 25.6859 9.02651 24.8394 9.02651 23.9365C9.02651 23.1966 8.73258 22.487 8.20939 21.9638C7.68619 21.4406 6.97658 21.1467 6.23667 21.1467C5.49676 21.1467 4.78715 21.4406 4.26395 21.9638C3.74075 22.487 3.44683 23.1966 3.44683 23.9365V24.3932V24.4432H3.49683H4.86675ZM14.7167 5.38341H17.2834V7.95008H14.7167V5.38341ZM17.2834 26.6167H14.7167V24.0501H17.2834V26.6167ZM27.9501 26.6167H25.3834V24.0501H27.9501V26.6167Z" stroke="currentColor" stroke-width="0.1"/>
</svg>
