<svg width="24" height="24" viewBox="0 0 24 24" fill="currentColor" xmlns="http://www.w3.org/2000/svg">
<path fill-rule="evenodd" clip-rule="evenodd" d="M21 13V16H23V22H17V16H19V13H13V16H15V22H8.99999V16H11V13H4.99999V14.6562C4.89453 14.6488 4.787 14.645 4.67743 14.645C4.08626 14.645 3.5207 14.7547 2.99999 14.9548V13C2.99999 11.89 3.88999 11 4.99999 11H11V8H8.99999V2H15V8H13V11H19C20.11 11 21 11.89 21 13ZM13 4H11V6H13V4ZM11 20H13V18H11V20ZM19 20H21V18H19V20Z" fill="currentColor"/>
<path d="M5.01992 21.7196V22.7471H3.99248V21.7196H5.01992ZM3.65 18.2948H2.62256V17.9523C2.62256 17.4074 2.83905 16.8847 3.22442 16.4993C3.60978 16.114 4.13245 15.8975 4.67744 15.8975C5.22243 15.8975 5.7451 16.114 6.13046 16.4993C6.51583 16.8847 6.73232 17.4074 6.73232 17.9523C6.73232 18.6168 6.38984 19.2401 5.84872 19.6031L5.64324 19.7332C5.25281 20.0072 5.01992 20.4251 5.01992 20.8977V21.0347H3.99248V20.8977C3.99248 20.0826 4.40346 19.3223 5.08157 18.877L5.28021 18.7469C5.54734 18.5688 5.70488 18.2743 5.70488 17.9523C5.70488 17.6798 5.59663 17.4185 5.40395 17.2258C5.21127 17.0332 4.94994 16.9249 4.67744 16.9249C4.40495 16.9249 4.14361 17.0332 3.95093 17.2258C3.75825 17.4185 3.65 17.6798 3.65 17.9523V18.2948Z" fill="currentColor"/>
<path d="M5.04999 14.6562V13.05H10.95V15.95H8.99999H8.94999V16V22V22.05H8.99999H15H15.05V22V16V15.95H15H13.05V13.05H18.95V15.95H17H16.95V16V22V22.05H17H23H23.05V22V16V15.95H23H21.05V13C21.05 11.8624 20.1376 10.95 19 10.95H13.05V8.05H15H15.05V8V2V1.95H15H8.99999H8.94999V2V8V8.05H8.99999H10.95V10.95H4.99999C3.86238 10.95 2.94999 11.8624 2.94999 13V14.9548V15.0276L3.01793 15.0015C3.533 14.8035 4.09248 14.695 4.67743 14.695C4.78585 14.695 4.89221 14.6987 4.99649 14.7061L5.04999 14.7098V14.6562ZM5.06992 21.7196V21.6696H5.01992H3.99248H3.94248V21.7196V22.7471V22.7971H3.99248H5.01992H5.06992V22.7471V21.7196ZM3.65 18.3448H3.7V18.2948V17.9523C3.7 17.6931 3.80298 17.4445 3.98629 17.2612C4.16959 17.0779 4.41821 16.9749 4.67744 16.9749C4.93667 16.9749 5.18529 17.0779 5.3686 17.2612C5.5519 17.4445 5.65488 17.6931 5.65488 17.9523C5.65488 18.2576 5.50569 18.5365 5.25253 18.7053C5.25251 18.7053 5.25249 18.7053 5.25247 18.7053L5.05417 18.8352L5.05413 18.8352C4.36192 19.2897 3.94248 20.0657 3.94248 20.8977V21.0347V21.0847H3.99248H5.01992H5.06992V21.0347V20.8977C5.06992 20.443 5.29346 20.0402 5.67101 19.7748L5.87548 19.6453L5.87549 19.6454L5.87658 19.6446C6.43125 19.2725 6.78232 18.6338 6.78232 17.9523C6.78232 17.3941 6.56056 16.8587 6.16582 16.464C5.77108 16.0692 5.23569 15.8475 4.67744 15.8475C4.11919 15.8475 3.58381 16.0692 3.18906 16.464C2.79432 16.8587 2.57256 17.3941 2.57256 17.9523V18.2948V18.3448H2.62256H3.65ZM11.05 5.95V4.05H12.95V5.95H11.05ZM12.95 18.05V19.95H11.05V18.05H12.95ZM20.95 18.05V19.95H19.05V18.05H20.95Z" stroke="currentColor" stroke-width="0.1"/>
</svg>
