<svg height='300px' width='300px'  fill="#0D1523" xmlns="http://www.w3.org/2000/svg" data-name="Layer 1" viewBox="0 0 100 100" x="0px" y="0px"><title>Calendar</title><rect x="31.75" y="68.78" width="10" height="6" rx="1.7" ry="1.7"></rect><rect x="31.75" y="57.43" width="10" height="6" rx="1.7" ry="1.7"></rect><rect x="15.62" y="68.78" width="10" height="6" rx="1.7" ry="1.7"></rect><rect x="15.62" y="57.43" width="10" height="6" rx="1.7" ry="1.7"></rect><rect x="31.75" y="46.08" width="10" height="6" rx="1.7" ry="1.7"></rect><rect x="47.87" y="46.08" width="10" height="6" rx="1.7" ry="1.7"></rect><path d="M73.25,95A21.75,21.75,0,1,1,95,73.25,21.78,21.78,0,0,1,73.25,95Zm0-39A17.25,17.25,0,1,0,90.5,73.25,17.27,17.27,0,0,0,73.25,56Z"></path><path d="M84.69,75.5H73.25A2.25,2.25,0,0,1,71,73.25V64.06a2.25,2.25,0,0,1,4.5,0V71h9.19a2.25,2.25,0,0,1,0,4.5Z"></path><path d="M63.26,26a5,5,0,0,1-5-5V10a5,5,0,0,1,10,0V21A5,5,0,0,1,63.26,26Z"></path><path d="M77.37,13.16H72.76V21a9.5,9.5,0,0,1-19,0V13.16H35.86V21a9.5,9.5,0,1,1-19,0V13.16H12.25A7.26,7.26,0,0,0,5,20.41v57a7.26,7.26,0,0,0,7.25,7.25H49.6a26.66,26.66,0,0,1-1.68-4.5H12.25A2.75,2.75,0,0,1,9.5,77.38V40.74H80.12v7.18a25.79,25.79,0,0,1,4.5,1.67V20.41A7.26,7.26,0,0,0,77.37,13.16Z"></path><path d="M26.36,26a5,5,0,0,1-5-5V10a5,5,0,0,1,10,0V21A5,5,0,0,1,26.36,26Z"></path></svg>