<svg width="32" height="32" viewBox="0 0 32 32" fill="none" xmlns="http://www.w3.org/2000/svg">
    <path d="M26.7979 16.0349L26.785 15.9866L26.7367 15.9995L19.4512 17.9517L19.3346 17.9829L19.4391 18.0433L22.8598 20.0182C20.6551 23.783 15.8087 25.0694 12.025 22.8849C11.922 22.8254 11.8205 22.7637 11.7208 22.7L11.6501 22.7664C12.1427 23.6542 12.4231 24.6759 12.4231 25.7632C12.4231 25.8641 12.4207 25.9643 12.416 26.064L12.4142 26.1012L12.4493 26.1135C17.2057 27.7904 22.6244 25.9116 25.2559 21.4015L28.6768 23.3766L28.7813 23.4369L28.75 23.3204L26.7979 16.0349ZM9.24645 20.3569L9.31317 20.2867C9.30074 20.2669 9.2884 20.247 9.27617 20.2271L9.25665 20.1952L9.22061 20.2049L9.17199 20.2179L9.05018 20.2506L9.16126 20.3103C9.18979 20.3256 9.21818 20.3412 9.24645 20.3569ZM12.5609 13.9567L9.14028 11.9817C11.345 8.21694 16.1913 6.93054 19.975 9.11506C21.1226 9.77762 22.0699 10.7071 22.7239 11.7729L22.7434 11.8047L22.7795 11.795L25.4387 11.0825L25.499 11.0663L25.47 11.011C24.5656 9.28233 23.1798 7.77068 21.3584 6.71905C16.2451 3.76692 9.7165 5.50408 6.74424 10.5984L3.32334 8.62332L3.2188 8.56297L3.25004 8.67957L5.20218 15.965L5.21512 16.0133L5.26342 16.0004L12.5489 14.0483L12.6655 14.017L12.5609 13.9567ZM6.74323 28.9595V28.9095H6.69323H5.32331H5.27331V28.9595V30.3294V30.3794H5.32331H6.69323H6.74323V30.3294V28.9595ZM4.86667 24.4431H4.91667V24.3931V23.9364C4.91667 23.5864 5.05573 23.2507 5.30326 23.0031C5.5508 22.7556 5.88652 22.6165 6.23659 22.6165C6.58665 22.6165 6.92238 22.7556 7.16991 23.0031C7.41745 23.2507 7.55651 23.5864 7.55651 23.9364C7.55651 24.3489 7.35487 24.7259 7.01277 24.9541C7.0127 24.9541 7.01262 24.9542 7.01254 24.9542L6.74802 25.1276L6.74798 25.1276C5.82974 25.7305 5.27331 26.7599 5.27331 27.8636V28.0462V28.0962H5.32331H6.69323H6.74323V28.0462V27.8636C6.74323 27.2513 7.04438 26.7093 7.55206 26.3526L7.82505 26.1797L7.82506 26.1797L7.82615 26.179C8.5612 25.6858 9.02643 24.8393 9.02643 23.9364C9.02643 23.1965 8.7325 22.4869 8.20931 21.9637C7.68611 21.4405 6.9765 21.1466 6.23659 21.1466C5.49668 21.1466 4.78707 21.4405 4.26387 21.9637C3.74067 22.4869 3.44674 23.1965 3.44674 23.9364V24.3931V24.4431H3.49674H4.86667ZM14.6417 18.3527C15.9473 19.1065 17.5989 18.6639 18.3527 17.3583C19.0999 16.0642 18.6525 14.3944 17.3584 13.6473C16.0644 12.9002 14.4012 13.3359 13.6473 14.6416C12.8935 15.9473 13.3361 17.5989 14.6417 18.3527Z" fill="currentColor" stroke="currentColor" stroke-width="0.1"/>
</svg>
