<svg height='300px' width='300px'  fill="#0D1523" xmlns="http://www.w3.org/2000/svg" xmlns:cc="http://creativecommons.org/ns#" xmlns:dc="http://purl.org/dc/elements/1.1/" xmlns:rdf="http://www.w3.org/1999/02/22-rdf-syntax-ns#" version="1.1" viewBox="0 0 100 100" x="0px" y="0px"><path d="m15.329 2.8309s-0.73085 8.0405-2.9513 10.273c-2.2205 2.2322-10.371 3.1206-10.371 3.1206s8.0004 0.83542 10.233 3.0559c2.2321 2.2205 3.1586 10.267 3.1586 10.267s0.95141-8.0518 3.1719-10.284c2.2205-2.2322 10.153-3.1092 10.153-3.1092s-8.1431-0.79359-10.375-3.0141c-2.2322-2.2205-3.0179-10.309-3.0179-10.309zm40.727 8.6524s-2.264 24.96-9.1563 31.888c-6.8923 6.9287-32.196 9.6831-32.196 9.6831s24.834 2.5948 31.763 9.4872c6.9287 6.8923 9.8084 31.867 9.8084 31.867s2.9523-24.99 9.8444-31.919c6.8923-6.9287 31.51-9.6527 31.51-9.6527s-25.275-2.4617-32.204-9.3541c-6.9287-6.8923-9.3693-32-9.3693-32zm-32.257 58.509s-0.72894 8.0423-2.9494 10.275c-2.2205 2.2322-10.373 3.1186-10.373 3.1186s8.0024 0.83732 10.235 3.0578c2.2322 2.2205 3.1586 10.265 3.1586 10.265s0.95141-8.0499 3.1719-10.283c2.2205-2.2322 10.151-3.111 10.151-3.111s-8.1412-0.79168-10.373-3.0122c-2.2322-2.2205-3.0198-10.311-3.0198-10.311z" stroke-width=".97363"></path></svg>