<svg width="32" height="32" viewBox="0 0 32 32" fill="none" xmlns="http://www.w3.org/2000/svg">
    <path d="M20 17.3333H22V21.0933L25.2533 22.9733L24.2533 24.7066L20 22.2533V17.3333ZM25.3333 10.6666H6.66667V25.3333H12.8933C12.32 24.1199 12 22.7599 12 21.3333C12 18.8579 12.9833 16.4839 14.7337 14.7336C16.484 12.9832 18.858 11.9999 21.3333 11.9999C22.76 11.9999 24.12 12.3199 25.3333 12.8933V10.6666ZM6.66667 27.9999C5.18667 27.9999 4 26.7999 4 25.3333V6.66658C4 5.18659 5.18667 3.99992 6.66667 3.99992H8V1.33325H10.6667V3.99992H21.3333V1.33325H24V3.99992H25.3333C26.0406 3.99992 26.7189 4.28087 27.2189 4.78097C27.719 5.28106 28 5.95934 28 6.66658V14.7999C29.6533 16.4799 30.6667 18.7866 30.6667 21.3333C30.6667 23.8086 29.6833 26.1826 27.933 27.9329C26.1827 29.6833 23.8087 30.6666 21.3333 30.6666C18.7867 30.6666 16.48 29.6533 14.8 27.9999H6.66667ZM21.3333 14.8666C19.6183 14.8666 17.9734 15.5479 16.7607 16.7606C15.548 17.9734 14.8667 19.6182 14.8667 21.3333C14.8667 24.9066 17.76 27.7999 21.3333 27.7999C22.1825 27.7999 23.0234 27.6327 23.808 27.3077C24.5926 26.9827 25.3055 26.5064 25.906 25.9059C26.5064 25.3054 26.9828 24.5925 27.3078 23.8079C27.6327 23.0234 27.8 22.1825 27.8 21.3333C27.8 17.7599 24.9067 14.8666 21.3333 14.8666Z" fill="currentColor"/>
</svg>
