<?xml version="1.0" encoding="UTF-8"?>
<svg width="700pt" height="600pt" version="1.1" viewBox="0 0 700 600" xmlns="http://www.w3.org/2000/svg" xmlns:xlink="http://www.w3.org/1999/xlink">
    <g>
        <path d="m397.13 96.223c17.609 4.5039 34.234 11.473 49.477 20.523l61.938-44.848 49.559 49.559-44.848 61.938c9.043 15.25 16.012 31.875 20.516 49.477l75.484 12.082v70.086l-75.477 12.082c-4.5039 17.609-11.473 34.234-20.523 49.477l44.848 61.938-49.559 49.559-61.938-44.848c-15.25 9.043-31.875 16.012-49.477 20.516l-12.082 75.484-70.094 0.003906-12.082-75.484c-17.609-4.5039-34.234-11.473-49.477-20.523l-61.938 44.848-49.559-49.559 44.848-61.938c-9.043-15.25-16.012-31.875-20.516-49.477l-75.484-12.082-0.003906-70.082 75.484-12.082c4.5039-17.609 11.473-34.23 20.516-49.477l-44.848-61.938 49.559-49.559 61.934 44.84c15.25-9.043 31.875-16.012 49.484-20.516l12.082-75.484h70.086zm-47.129 57.375c-69.809 0-126.4 56.59-126.4 126.4s56.594 126.4 126.4 126.4 126.4-56.59 126.4-126.4-56.594-126.4-126.4-126.4zm-75.762 135 49.824 49.816c7.2617 7.2617 19.039 7.2617 26.301 0 35.684-35.684 41.609-42.391 77.129-78.262 7.2227-7.2617 7.1914-19.012-0.074219-26.234-7.2617-7.2227-19.004-7.1914-26.234 0.070312l-64.004 64.945-36.641-36.641c-7.2617-7.2617-19.039-7.2617-26.301 0-7.2656 7.2656-7.2656 19.043 0 26.305z" fill-rule="evenodd"/>
    </g>
</svg>
