<?xml version="1.0" encoding="UTF-8"?>
<svg width="700pt" height="700pt" version="1.1" viewBox="0 0 700 700" xmlns="http://www.w3.org/2000/svg">
 <g>
  <path d="m525 245c0-115.79-94.199-210-210-210s-210 94.207-210 210 94.199 210 210 210 210-94.207 210-210zm-210 175c-96.488 0-175-78.504-175-175s78.512-175 175-175 175 78.504 175 175-78.512 175-175 175z"/>
  <path d="m315 210c-28.949 0-52.5 27.48-52.5 61.25s23.551 61.25 52.5 61.25 52.5-27.48 52.5-61.25-23.551-61.25-52.5-61.25z"/>
  <path d="m332.5 175c0 9.6641-7.8359 17.5-17.5 17.5s-17.5-7.8359-17.5-17.5 7.8359-17.5 17.5-17.5 17.5 7.8359 17.5 17.5"/>
  <path d="m315 87.5c-86.984 0-157.5 70.516-157.5 157.5s70.516 157.5 157.5 157.5 157.5-70.516 157.5-157.5-70.516-157.5-157.5-157.5zm87.5 192.5h-18.285c-1.5625 15.621-7.0977 29.754-15.586 41.254l11.246 11.246h13.875c4.8359 0 8.75 3.9141 8.75 8.75s-3.9141 8.75-8.75 8.75h-17.5c-2.3242 0-4.5469-0.92188-6.1875-2.5625l-13.332-13.332c-11.688 9.8477-26.035 15.895-41.73 15.895s-30.043-6.0469-41.73-15.898l-13.332 13.332c-1.6406 1.6445-3.8633 2.5664-6.1875 2.5664h-17.5c-4.8359 0-8.75-3.9141-8.75-8.75s3.9141-8.75 8.75-8.75h13.879l11.246-11.246c-8.4883-11.5-14.027-25.633-15.59-41.254h-18.285c-4.8359 0-8.75-3.9141-8.75-8.75s3.9141-8.75 8.75-8.75h18.285c1.5625-15.621 7.0977-29.754 15.586-41.254l-11.242-11.246h-13.879c-4.8359 0-8.75-3.9141-8.75-8.75s3.9141-8.75 8.75-8.75h17.5c2.3242 0 4.5469 0.92188 6.1875 2.5625l13.332 13.332c4.8477-4.082 10.07-7.5664 15.77-10.141-5.5547-6.1953-9.0391-14.293-9.0391-23.254 0-11.945 6.0352-22.488 15.191-28.805l-14.27-28.539c-2.1523-4.3242-0.41016-9.5781 3.9141-11.742 4.3242-2.1367 9.5703-0.41016 11.742 3.9141l15.246 30.492c1.0625-0.097656 2.0898-0.32031 3.1758-0.32031s2.1133 0.22266 3.1719 0.32031l15.25-30.5c2.1875-4.3242 7.418-6.0312 11.742-3.9141 4.3242 2.1602 6.0664 7.418 3.9141 11.742l-14.273 28.543c9.1602 6.3203 15.195 16.863 15.195 28.809 0 8.9609-3.4844 17.059-9.0391 23.258 5.6992 2.5742 10.926 6.0586 15.77 10.141l13.332-13.332c1.6406-1.6445 3.8633-2.5664 6.1875-2.5664h17.5c4.8359 0 8.75 3.9141 8.75 8.75s-3.9141 8.75-8.75 8.75h-13.879l-11.246 11.246c8.4883 11.5 14.027 25.633 15.59 41.254h18.285c4.8359 0 8.75 3.9141 8.75 8.75s-3.9141 8.75-8.75 8.75z"/>
  <path d="m576.73 434.3-72.777-62.785c-16.555 24.645-37.789 45.879-62.43 62.434l62.578 72.551c9.8086 11.754 24.195 18.496 39.508 18.496 13.723 0 26.625-5.3477 36.332-15.055 10.188-10.188 15.656-24.285 15.004-38.676-0.64453-14.391-7.3789-27.934-18.215-36.965z"/>
 </g>
</svg>
