<svg width="32" height="32" viewBox="0 0 32 32" fill="none" xmlns="http://www.w3.org/2000/svg">
    <path d="M4.28341 19.8224V19.8909L4.34866 19.8701C4.94378 19.6796 5.57815 19.5767 6.23665 19.5767C9.6534 19.5767 12.4232 22.3465 12.4232 25.7633C12.4232 26.5453 12.2781 27.2934 12.0135 27.9821L11.9873 28.05H12.0601H25.6667C26.3873 28.05 27.0782 27.7638 27.5877 27.2543C28.0972 26.7448 28.3834 26.0538 28.3834 25.3333V6.66667C28.3834 5.15889 27.1609 3.95 25.6667 3.95H7.00008C5.49247 3.95 4.28341 5.15905 4.28341 6.66667V19.8224ZM21.8211 14.74L21.8331 14.7727H21.868H21.9613H22.0126L22.0113 14.7214L21.918 11.1227V11.122V8.5194H23.8046V16.9461H21.096L18.7148 10.5852L18.7026 10.5527H18.668H18.5813H18.53L18.5313 10.604L18.6246 14.2834V16.9461H16.738V8.5194H19.5265L21.8211 14.74ZM10.8879 10.1794H10.8379V10.2294V12.2761V12.3261H10.8879H14.3779V13.9794H10.8879H10.8379V14.0294V16.9461H8.86453V8.52607H14.4779V10.1794H10.8879ZM6.74331 28.9595V28.9095H6.69331H5.32339H5.27339V28.9595V30.3294V30.3794H5.32339H6.69331H6.74331V30.3294V28.9595ZM4.86675 24.4431H4.91675V24.3931V23.9365C4.91675 23.5864 5.05581 23.2507 5.30334 23.0031C5.55088 22.7556 5.88661 22.6165 6.23667 22.6165C6.58673 22.6165 6.92246 22.7556 7.16999 23.0031C7.41753 23.2507 7.55659 23.5864 7.55659 23.9365C7.55659 24.3489 7.35495 24.7259 7.01285 24.9541C7.01278 24.9542 7.0127 24.9542 7.01262 24.9543L6.7481 25.1276L6.74806 25.1276C5.82982 25.7305 5.27339 26.7599 5.27339 27.8636V28.0462V28.0962H5.32339H6.69331H6.74331V28.0462V27.8636C6.74331 27.2513 7.04446 26.7093 7.55214 26.3526L7.82513 26.1797L7.82514 26.1797L7.82624 26.179C8.56128 25.6859 9.02651 24.8393 9.02651 23.9365C9.02651 23.1965 8.73258 22.4869 8.20939 21.9637C7.68619 21.4405 6.97658 21.1466 6.23667 21.1466C5.49676 21.1466 4.78715 21.4405 4.26395 21.9637C3.74075 22.4869 3.44683 23.1965 3.44683 23.9365V24.3931V24.4431H3.49683H4.86675Z" fill="currentColor" stroke="currentColor" stroke-width="0.1"/>
</svg>
