<svg width="32" height="32" viewBox="0 0 32 32" fill="none" xmlns="http://www.w3.org/2000/svg">
    <path d="M17.7293 24.2115C15.9407 24.8619 14.0229 24.8344 12.3087 24.217L12.2208 24.1854L12.2432 24.276C12.3607 24.7523 12.4231 25.2504 12.4231 25.7632C12.4231 26.2076 12.3762 26.641 12.2872 27.0587L12.2773 27.1055L12.3236 27.1175C14.5282 27.6878 16.9158 27.5586 19.1277 26.6336L21.1523 30.1404L21.2127 30.2449L21.2439 30.1283L23.4645 21.8411L23.4776 21.7922L23.4286 21.7797L15.208 19.6746L15.0929 19.6451L15.1523 19.748L17.7293 24.2115ZM7.55816 19.7181L7.64958 19.738L7.61532 19.6509C6.36038 16.4618 7.31451 12.8111 9.95418 10.6279L9.98674 10.601L9.96561 10.5644L8.61895 8.23187L8.59065 8.18287L8.54551 8.21698C4.98361 10.908 3.50117 15.5104 4.71676 19.7152L4.73004 19.7611L4.77655 19.7499C5.24463 19.6366 5.73354 19.5766 6.23653 19.5766C6.69018 19.5766 7.13238 19.6254 7.55816 19.7181ZM16.5101 6.19538L16.5245 6.14075L16.4685 6.13307C14.52 5.86593 12.592 6.14368 10.8655 6.87752L10.8135 6.89962L10.8417 6.94854L12.1951 9.29258L12.2161 9.32906L12.2557 9.3145C13.3534 8.91024 14.5424 8.74392 15.7606 8.86667L15.8031 8.87095L15.814 8.8297L16.5101 6.19538ZM21.1358 11.6838L21.1627 11.7169L21.1996 11.6956L23.5321 10.3489L23.581 10.3207L23.5471 10.2755C22.4186 8.7765 20.8828 7.59033 19.0621 6.84754L19.0094 6.82604L18.9948 6.88106L18.3134 9.46073L18.3027 9.50096L18.3404 9.51872C19.4345 10.0351 20.3925 10.7672 21.1358 11.6838ZM22.927 17.4892L22.9232 17.531L22.9637 17.542L25.5385 18.2417L25.5934 18.2566L25.6012 18.2003C25.8682 16.2523 25.6205 14.3225 24.8865 12.5955L24.8644 12.5435L24.8155 12.5717L22.483 13.9184L22.4461 13.9397L22.4612 13.9795C22.8768 15.07 23.0384 16.2772 22.927 17.4892ZM6.74319 28.9594V28.9094H6.69319H5.32327H5.27327V28.9594V30.3293V30.3793H5.32327H6.69319H6.74319V30.3293V28.9594ZM4.86663 24.443H4.91663V24.393V23.9364C4.91663 23.5863 5.05569 23.2506 5.30322 23.003C5.55076 22.7555 5.88648 22.6164 6.23655 22.6164C6.58661 22.6164 6.92234 22.7555 7.16987 23.003C7.41741 23.2506 7.55647 23.5863 7.55647 23.9364C7.55647 24.3488 7.35483 24.7258 7.01273 24.954C7.01266 24.9541 7.01258 24.9541 7.0125 24.9542L6.74798 25.1275L6.74794 25.1275C5.8297 25.7304 5.27327 26.7598 5.27327 27.8635V28.0461V28.0961H5.32327H6.69319H6.74319V28.0461V27.8635C6.74319 27.2512 7.04435 26.7092 7.55205 26.3525L7.82501 26.1796L7.82502 26.1796L7.82611 26.1789C8.56116 25.6858 9.02639 24.8393 9.02639 23.9364C9.02639 23.1965 8.73246 22.4868 8.20927 21.9637C7.68607 21.4405 6.97646 21.1465 6.23655 21.1465C5.49664 21.1465 4.78703 21.4405 4.26383 21.9637C3.74063 22.4868 3.4467 23.1965 3.4467 23.9364V24.393V24.443H3.4967H4.86663Z" fill="currentColor" stroke="currentColor" stroke-width="0.1"/>
</svg>
