<svg width="32" height="32" viewBox="0 0 32 32" fill="currentColor" xmlns="http://www.w3.org/2000/svg">
    <path d="M13.3333 5.33331L16 7.99998H26.6666C27.3739 7.99998 28.0521 8.28093 28.5522 8.78103C29.0523 9.28112 29.3333 9.9594 29.3333 10.6666V15.3333C28.3066 14.9066 27.1866 14.6666 26 14.6666C23.7014 14.6666 21.497 15.5797 19.8717 17.2051C18.2464 18.8304 17.3333 21.0348 17.3333 23.3333C17.3333 24.52 17.5733 25.64 18 26.6666H5.33329C3.85329 26.6666 2.66663 25.4666 2.66663 24V7.99998C2.66663 6.51998 3.85329 5.33331 5.33329 5.33331H13.3333ZM25.3333 16V18C26.7478 18 28.1043 18.5619 29.1045 19.5621C30.1047 20.5623 30.6666 21.9188 30.6666 23.3333C30.6666 24.4266 30.3333 25.44 29.7733 26.28L28.32 24.8266C28.5466 24.3733 28.6666 23.8666 28.6666 23.3333C28.6666 22.4493 28.3154 21.6014 27.6903 20.9763C27.0652 20.3512 26.2173 20 25.3333 20V22L22.3333 19L25.3333 16ZM25.3333 30.6666V28.6666C23.9188 28.6666 22.5623 28.1047 21.5621 27.1045C20.5619 26.1044 20 24.7478 20 23.3333C20 22.24 20.3333 21.2266 20.8933 20.3866L22.3466 21.84C22.12 22.2933 22 22.8 22 23.3333C22 24.2174 22.3511 25.0652 22.9763 25.6903C23.6014 26.3155 24.4492 26.6666 25.3333 26.6666V24.6666L28.3333 27.6666L25.3333 30.6666Z" fill="currentColor"/>
</svg>
