<?xml version="1.0" encoding="UTF-8"?>
<svg width="700pt" height="600pt" version="1.1" viewBox="0 0 700 600" xmlns="http://www.w3.org/2000/svg" xmlns:xlink="http://www.w3.org/1999/xlink">
    <g>
        <path d="m613.81 490h-527.62c-4.8125 0-8.75-3.9375-8.75-8.75v-402.5c0-4.8125 3.9375-8.75 8.75-8.75h432.69c4.8125 0 8.75 3.9375 8.75 8.75v77h85.75c4.8125 0 8.75 3.9375 8.75 8.75v316.75c0.4375 5.25-3.5 8.75-8.3125 8.75zm-518.88-17.5h509.69v-299.25h-85.75c-4.8125 0-8.75-3.9375-8.75-8.75v-77h-415.19z"/>
        <path d="m613.81 165.81c-2.1875 0-4.375-0.875-5.6875-2.1875l-86.625-78.312c-3.5-3.0625-3.9375-8.75-0.4375-12.25 3.0625-3.5 8.75-3.9375 12.25-0.4375l86.625 78.312c3.5 3.0625 3.9375 8.75 0.4375 12.25-1.75 1.75-4.375 2.625-6.5625 2.625z"/>
        <path d="m263.38 352.62c-2.1875 0-4.375-0.875-6.125-2.625l-64.312-63.875c-1.75-1.75-2.625-3.9375-2.625-6.125s0.875-4.375 2.625-6.125l63.875-63.875c3.5-3.5 8.75-3.5 12.25 0s3.5 8.75 0 12.25l-57.312 57.75 57.75 57.75c3.5 3.5 3.5 8.75 0 12.25-1.75 1.75-3.9375 2.625-6.125 2.625z"/>
        <path d="m322 376.25c-0.875 0-1.75 0-2.625-0.4375-4.8125-1.3125-7-6.5625-5.6875-10.938l56-175.44c1.3125-4.8125 6.5625-7 10.938-5.6875 4.8125 1.3125 7 6.5625 5.6875 10.938l-56 175.44c-1.3125 3.9375-4.8125 6.125-8.3125 6.125z"/>
        <path d="m436.62 352.62c-2.1875 0-4.375-0.875-6.125-2.625-3.5-3.5-3.5-8.75 0-12.25l57.75-57.75-57.75-57.75c-3.5-3.5-3.5-8.75 0-12.25s8.75-3.5 12.25 0l63.875 63.875c1.75 1.75 2.625 3.9375 2.625 6.125s-0.875 4.375-2.625 6.125l-63.438 63.875c-1.75 1.75-4.375 2.625-6.5625 2.625z"/>
    </g>
</svg>
