<svg id="screenshot" viewBox="0 0 563 491.9999999999999" width="563" height="491.9999999999999" version="1.1" xmlns="http://www.w3.org/2000/svg" xmlns:xlink="http://www.w3.org/1999/xlink" style="-webkit-print-color-adjust: exact;"><g id="shape-905b32c0-a380-11ec-b86b-81b1b9ccc6c9" clip-path="url(#frame-clip-905b32c0-a380-11ec-b86b-81b1b9ccc6c9-bd0e5fe0-a380-11ec-9310-33c76cc872fb)"><defs><clipPath id="frame-clip-905b32c0-a380-11ec-b86b-81b1b9ccc6c9-bd0e5fe0-a380-11ec-9310-33c76cc872fb" class="frame-clip"><rect x="0" y="0" width="563" height="492"/></clipPath></defs><g id="shape-87e70b50-a380-11ec-b86b-81b1b9ccc6c9" width="700pt" height="700pt" version="1.1"><g id="shape-87e75970-a380-11ec-b86b-81b1b9ccc6c9"><g id="shape-87e891f0-a380-11ec-b86b-81b1b9ccc6c9"><path d="M50.35000000000002,207.69L180.59000000000003,207.69C198.12099999999998,207.69,212.37900000000002,193.413,212.37900000000002,175.878L212.37900000000002,45.65799999999999C212.37900000000002,28.12299999999999,198.1210000000001,13.84599999999999,180.57000000000005,13.84599999999999L50.35000000000002,13.84599999999999C32.795000000000016,13.84599999999999,18.53800000000001,28.12299999999999,18.53800000000001,45.65799999999999L18.53800000000001,175.898C18.53800000000001,193.41,32.79600000000005,207.687,50.35000000000002,207.69ZZM40.077,45.66C40.077,39.99199999999999,44.68639999999999,35.382999999999996,50.35000000000002,35.382999999999996L180.59000000000003,35.382999999999996C186.23450000000003,35.382999999999996,190.84400000000005,39.99239999999999,190.84400000000005,45.66L190.84400000000005,175.9C190.84400000000005,181.5406,186.2346,186.15,180.57100000000003,186.15L50.351,186.15C44.68689999999998,186.15,40.077999999999975,181.5406,40.077999999999975,175.877Z"/></g><g id="shape-87e92e30-a380-11ec-b86b-81b1b9ccc6c9"><path d="M50.35000000000002,466.15L180.59000000000003,466.15C198.12099999999998,466.15,212.37900000000002,451.873,212.37900000000002,434.33799999999997L212.37900000000002,304.09799999999996C212.37900000000002,286.56699999999995,198.1210000000001,272.28599999999994,180.567,272.28599999999994L50.34699999999998,272.28599999999994C32.79200000000003,272.30943799999994,18.535000000000025,286.58699999999993,18.535000000000025,304.12199999999996L18.535000000000025,434.36199999999997C18.535000000000025,451.87399999999997,32.793000000000006,466.15099999999995,50.35000000000002,466.15ZZM40.077,304.12C40.077,298.4559,44.68639999999999,293.847,50.35000000000002,293.847L180.59000000000003,293.847C186.23450000000003,293.847,190.84400000000005,298.4564,190.84400000000005,304.12L190.84400000000005,434.36C190.84400000000005,440.0045,186.2346,444.61400000000003,180.57100000000003,444.61400000000003L50.351,444.61400000000003C44.68689999999998,444.61400000000003,40.077999999999975,440.00460000000004,40.077999999999975,434.33700000000005Z"/></g><g id="shape-87e97c50-a380-11ec-b86b-81b1b9ccc6c9"><path d="M524.69,56.922L277,56.922C271.05470000000014,56.922,266.23,61.7462,266.23,67.692C266.23,73.6373,271.05420000000004,78.46199999999999,277,78.46199999999999L524.69,78.46199999999999C530.6353,78.46199999999999,535.46,73.63779999999998,535.46,67.692C535.46,61.74669999999999,530.6358,56.922,524.69,56.922ZZ"/></g><g id="shape-87e9ca70-a380-11ec-b86b-81b1b9ccc6c9"><path d="M277,164.62L439.21000000000004,164.62C445.1553,164.62,449.98,159.7958,449.98,153.85C449.98,147.9047,445.1558,143.07999999999998,439.21000000000004,143.07999999999998L277,143.07999999999998C271.0547,143.07999999999998,266.23,147.90419999999997,266.23,153.85C266.23,159.79139999999998,271.05420000000004,164.62,277,164.62ZZ"/></g><g id="shape-87e9f180-a380-11ec-b86b-81b1b9ccc6c9"><path d="M524.69,315.38L277,315.38C271.05470000000014,315.38,266.23,320.2042,266.23,326.15C266.23,332.09529999999995,271.05420000000004,336.91999999999996,277,336.91999999999996L524.69,336.91999999999996C530.6353,336.91999999999996,535.46,332.09579999999994,535.46,326.15C535.46,320.2086,530.6358,315.38,524.69,315.38ZZ"/></g><g id="shape-87ea3fa0-a380-11ec-b86b-81b1b9ccc6c9"><path d="M439.21000000000004,423.08C445.1553,423.08,449.98,418.25579999999997,449.98,412.31C449.98,406.3647,445.1558,401.54,439.21000000000004,401.54L277,401.54C271.0547,401.54,266.23,406.36420000000004,266.23,412.31C266.23,418.2553,271.05420000000004,423.08,277,423.08Z"/></g></g></g></g></svg>