<svg width="32" height="32" viewBox="0 0 32 32" fill="none" xmlns="http://www.w3.org/2000/svg">
    <path d="M29.5942 8.27811L29.5952 8.2778L29.5902 8.26896L26.6307 2.98989C26.6307 2.98973 26.6306 2.98957 26.6305 2.98941C26.5152 2.77369 26.2719 2.61675 26 2.61675H20C19.728 2.61675 19.4847 2.77369 19.3694 2.98941C19.3693 2.98957 19.3693 2.98973 19.3692 2.98989L16.4097 8.26896L16.4088 8.26847L16.4057 8.27811L16.2857 8.65145L16.2808 8.66675L16.2857 8.68205L16.4057 9.05538L16.4047 9.05569L16.4097 9.06453L19.3692 14.3436C19.3693 14.3438 19.3693 14.3439 19.3694 14.3441C19.4847 14.5598 19.728 14.7167 20 14.7167H26C26.2719 14.7167 26.5152 14.5598 26.6305 14.3441C26.6306 14.3439 26.6307 14.3438 26.6307 14.3436L29.5902 9.06453L29.5911 9.06503L29.5942 9.05538L29.7142 8.68205L29.7191 8.66675L29.7142 8.65145L29.5942 8.27811ZM29.5942 22.9448L29.5952 22.9445L29.5902 22.9356L26.6307 17.6566C26.6307 17.6564 26.6306 17.6562 26.6305 17.6561C26.5152 17.4404 26.2719 17.2834 26 17.2834H20C19.728 17.2834 19.4847 17.4404 19.3694 17.6561C19.3693 17.6562 19.3693 17.6564 19.3692 17.6566L16.4097 22.9356L16.4088 22.9351L16.4057 22.9448L16.2857 23.3181L16.2808 23.3334L16.2857 23.3487L16.4057 23.722L16.4047 23.7224L16.4097 23.7312L19.3692 29.0103C19.3693 29.0104 19.3693 29.0106 19.3694 29.0107C19.4847 29.2265 19.728 29.3834 20 29.3834H26C26.2719 29.3834 26.5152 29.2265 26.6305 29.0107C26.6306 29.0106 26.6307 29.0104 26.6307 29.0103L29.5902 23.7312L29.5911 23.7317L29.5942 23.722L29.7142 23.3487L29.7191 23.3334L29.7142 23.3181L29.5942 22.9448ZM17.2609 15.6114L17.2619 15.6111L17.2569 15.6023L14.2974 10.3232C14.2973 10.3231 14.2972 10.3229 14.2972 10.3227C14.1819 10.107 13.9386 9.95008 13.6666 9.95008H7.66663C7.39465 9.95008 7.15137 10.107 7.03609 10.3228C7.03601 10.3229 7.03592 10.3231 7.03584 10.3232L4.07635 15.6023L4.07546 15.6018L4.07236 15.6114L3.95236 15.9848L3.94744 16.0001L3.95236 16.0154L4.07236 16.3887L4.07139 16.389L4.07635 16.3979L5.84935 19.5605L5.86458 19.5877L5.89568 19.586C6.00851 19.5799 6.12216 19.5768 6.23653 19.5768C8.25101 19.5768 10.0406 20.5396 11.1703 22.0303L11.1853 22.0501H11.2102H13.6666C13.9386 22.0501 14.1819 21.8931 14.2972 21.6774C14.2972 21.6773 14.2973 21.6771 14.2974 21.6769L17.2569 16.3979L17.2578 16.3984L17.2609 16.3887L17.3809 16.0154L17.3858 16.0001L17.3809 15.9848L17.2609 15.6114ZM6.74319 28.9596V28.9096H6.69319H5.32327H5.27327V28.9596V30.3295V30.3795H5.32327H6.69319H6.74319V30.3295V28.9596ZM4.86663 24.4432H4.91663V24.3932V23.9365C4.91663 23.5865 5.05569 23.2507 5.30322 23.0032C5.55076 22.7557 5.88648 22.6166 6.23655 22.6166C6.58661 22.6166 6.92234 22.7557 7.16987 23.0032C7.41741 23.2507 7.55647 23.5865 7.55647 23.9365C7.55647 24.3491 7.35476 24.7261 7.01256 24.9543C7.01254 24.9543 7.01252 24.9543 7.0125 24.9543L6.74798 25.1276L6.74794 25.1277C5.8297 25.7306 5.27327 26.76 5.27327 27.8637V28.0463V28.0963H5.32327H6.69319H6.74319V28.0463V27.8637C6.74319 27.2514 7.04435 26.7094 7.55205 26.3527L7.82501 26.1798L7.82502 26.1798L7.82611 26.1791C8.56116 25.6859 9.02639 24.8394 9.02639 23.9365C9.02639 23.1966 8.73246 22.487 8.20927 21.9638C7.68607 21.4406 6.97646 21.1467 6.23655 21.1467C5.49664 21.1467 4.78703 21.4406 4.26383 21.9638C3.74063 22.487 3.4467 23.1966 3.4467 23.9365V24.3932V24.4432H3.4967H4.86663Z" fill="currentColor" stroke="currentColor" stroke-width="0.1"/>
</svg>
