<svg width="24" height="24" viewBox="0 0 24 24" fill="currentColor" xmlns="http://www.w3.org/2000/svg">
<path fill-rule="evenodd" clip-rule="evenodd" d="M2.97852 4.03955C2.97852 2.93498 3.87395 2.03955 4.97852 2.03955H19.0288C20.1334 2.03955 21.0288 2.93498 21.0288 4.03955V19.957C21.0288 21.0616 20.1334 21.957 19.0288 21.957H4.97852C3.87395 21.957 2.97852 21.0616 2.97852 19.957V4.03955ZM7.00647 14.001C7.00647 13.4487 7.45419 13.001 8.00647 13.001C8.55875 13.001 9.00647 13.4487 9.00647 14.001C9.00647 14.5533 8.55875 15.001 8.00647 15.001C7.45419 15.001 7.00647 14.5533 7.00647 14.001ZM8.00647 16.9235C7.45419 16.9235 7.00647 17.3712 7.00647 17.9235C7.00647 18.4758 7.45419 18.9235 8.00647 18.9235C8.55875 18.9235 9.00647 18.4758 9.00647 17.9235C9.00647 17.3712 8.55875 16.9235 8.00647 16.9235ZM10.0037 14.001C10.0037 13.4487 10.4514 13.001 11.0037 13.001H15.988C16.5403 13.001 16.988 13.4487 16.988 14.001C16.988 14.5533 16.5403 15.001 15.988 15.001H11.0037C10.4514 15.001 10.0037 14.5533 10.0037 14.001ZM11.0037 16.9235C10.4514 16.9235 10.0037 17.3712 10.0037 17.9235C10.0037 18.4758 10.4514 18.9235 11.0037 18.9235H15.988C16.5403 18.9235 16.988 18.4758 16.988 17.9235C16.988 17.3712 16.5403 16.9235 15.988 16.9235H11.0037ZM13.5618 10.54L12.1618 5.42804H13.4578L14.4618 9.60804H14.5538L15.5618 5.42804H16.8538L15.4578 10.54H13.5618ZM8.5815 8.30004L10.0495 10.54H11.5015L9.7291 7.86056L11.4455 5.42804H10.0295L8.5815 7.54804H8.3935V5.42804H7.1535V10.54H8.3935V8.30004H8.5815Z" fill="currentColor"/>
</svg>
