<svg width="24" height="24" viewBox="0 0 24 24" fill="currentColor" xmlns="http://www.w3.org/2000/svg">
<path d="M4.45624 14.7002L4.52349 14.6971L4.50103 14.6336C4.20904 13.8085 4.05 12.922 4.05 12C4.05 7.62761 7.62761 4.05 12 4.05C16.3724 4.05 19.95 7.62761 19.95 12C19.95 16.3724 16.3724 19.95 12 19.95C11.078 19.95 10.1914 19.7909 9.36629 19.4989L9.30282 19.4765L9.29966 19.5437C9.26727 20.2319 9.08455 20.8808 8.78361 21.4582L8.7566 21.51L8.81198 21.5286C9.8148 21.8667 10.8871 22.05 12 22.05C17.5276 22.05 22.05 17.5276 22.05 12C22.05 6.47239 17.5276 1.95 12 1.95C6.47239 1.95 1.95 6.47239 1.95 12C1.95 13.1129 2.13333 14.1851 2.4713 15.1879L2.48996 15.2432L2.54179 15.2162C3.11919 14.9153 3.76801 14.7326 4.45624 14.7002ZM15.8406 15.6432L15.8867 15.6701L15.9105 15.6224L16.6105 14.2224L16.6316 14.1802L16.5907 14.1567L12.6158 11.8711V7V6.95H12.5658H11.0658H11.0158V7V12.8V12.8287L11.0406 12.8432L15.8406 15.6432ZM5.06992 21.7196V21.6696H5.01992H3.99248H3.94248V21.7196V22.7471V22.7971H3.99248H5.01992H5.06992V22.7471V21.7196ZM3.65 18.3448H3.7V18.2948V17.9523C3.7 17.6931 3.80298 17.4445 3.98629 17.2612C4.16959 17.0779 4.41821 16.9749 4.67744 16.9749C4.93667 16.9749 5.18529 17.0779 5.3686 17.2612C5.5519 17.4445 5.65488 17.6931 5.65488 17.9523C5.65488 18.2576 5.50569 18.5365 5.25253 18.7053C5.25251 18.7053 5.25249 18.7053 5.25247 18.7053L5.05417 18.8352L5.05413 18.8352C4.36192 19.2897 3.94248 20.0657 3.94248 20.8977V21.0347V21.0847H3.99248H5.01992H5.06992V21.0347V20.8977C5.06992 20.443 5.29346 20.0402 5.67101 19.7748L5.87548 19.6453L5.87549 19.6454L5.87658 19.6446C6.43125 19.2725 6.78232 18.6338 6.78232 17.9523C6.78232 17.3941 6.56056 16.8587 6.16582 16.464C5.77108 16.0692 5.23569 15.8475 4.67744 15.8475C4.11919 15.8475 3.58381 16.0692 3.18906 16.464C2.79432 16.8587 2.57256 17.3941 2.57256 17.9523V18.2948V18.3448H2.62256H3.65Z" fill="currentColor" stroke="currentColor" stroke-width="0.1"/>
</svg>
