<svg height='300px' width='300px'  fill="#0D1523" xmlns="http://www.w3.org/2000/svg" xmlns:xlink="http://www.w3.org/1999/xlink" xmlns:sketch="http://www.bohemiancoding.com/sketch/ns" viewBox="0 0 100 100" version="1.1" x="0px" y="0px"><title>Webhooks</title><desc>Created with Sketch.</desc><g stroke="none" stroke-width="1" fill="none" fill-rule="evenodd" sketch:type="MSPage"><g sketch:type="MSArtboardGroup" fill="#0D1523"><path d="M76.4951181,73.9145361 L29.7416046,73.9145361 L29.7416046,78.9216292 C28.8333748,84.0543287 24.331884,87.9538209 18.915493,87.9538209 C12.8441011,87.9538209 7.92226559,83.0541766 7.92226559,77.0101589 C7.92226559,73.2805892 9.7963671,69.9867658 12.658225,68.0110376 L9.50582555,63.5279145 L9.50582555,63.5279145 C5.22643184,66.4933182 2.4256519,71.4261347 2.4256519,77.0101589 C2.4256519,86.0761854 9.80840521,93.4256519 18.915493,93.4256519 C27.0826867,93.4256519 33.8630986,87.5149032 35.1756484,79.7560854 L35.1756484,79.7560854 L76.2727359,79.7560854 C77.2245493,81.3860971 78.9977998,82.4819899 81.028169,82.4819899 C84.0638649,82.4819899 86.5247827,80.0321677 86.5247827,77.0101589 C86.5247827,73.9881501 84.0638649,71.538328 81.028169,71.538328 C79.146664,71.538328 77.4859566,72.4794128 76.4951181,73.9145361 Z" sketch:type="MSShapeGroup"></path><path d="M13.9970435,74.7331616 C14.0920108,74.4983716 14.2044037,74.2673509 14.3346608,74.041739 C15.3445598,72.2925426 17.1729461,71.3107523 19.055871,71.3013474 L39.6682879,35.599594 L39.6682879,35.599594 C33.5944678,30.5874599 31.8490151,21.7752971 35.919978,14.7241825 C40.4574517,6.86504756 50.5025335,4.16979473 58.3562962,8.70416677 C63.1781003,11.4880366 66.0529051,16.3497657 66.5038811,21.5073647 L66.5038811,21.5073647 L61.0496311,21.9855501 C60.749694,18.546218 58.833007,15.3039392 55.6176886,13.4475743 C50.3818468,10.4246596 43.6851256,12.2214948 40.6601432,17.4609181 C37.6977221,22.5919819 39.3553436,29.1218655 44.342833,32.2289783 L47.3568902,33.969145 L24.0107416,74.4058605 L24.0107416,74.4058605 C24.6741594,75.7914555 24.7457069,77.4352393 24.1133132,78.9183847 C23.3416855,81.0070401 21.3316098,82.496256 18.9734712,82.496256 C15.9484888,82.496256 13.496256,80.0456995 13.496256,77.0227848 C13.496256,76.2053441 13.6755734,75.4297567 13.9970435,74.7331616 Z" sketch:type="MSShapeGroup"></path><path d="M49.662923,28.3537714 L72.775405,68.3857646 L75.5278906,66.7966163 L75.5745661,66.8774606 C75.5972847,66.8641312 75.6200684,66.8508704 75.6429171,66.8376787 C80.8823981,63.8126629 87.5575782,65.5653749 90.5523492,70.7524704 C93.5471202,75.939566 91.7274232,82.5967975 86.4879423,85.6218133 C83.2579165,87.4866695 79.48226,87.5357725 76.359624,86.0838539 L74.0282197,91.020885 L74.0282197,91.020885 C78.7079973,93.1885541 84.3615702,93.1108529 89.1991985,90.3178469 C97.05842,85.7803233 99.7879655,75.794476 95.295809,68.0138327 C91.2398724,60.9887444 82.6834446,58.1633014 75.2751126,61.0206617 L75.2751126,61.0206617 L54.7672927,25.5000756 C55.6506759,23.8891995 55.7003697,21.8799727 54.7216499,20.1847802 C53.2242644,17.5912325 49.8866743,16.7148765 47.2669338,18.2273844 C44.6471933,19.7398922 43.7373448,23.068508 45.2347303,25.6620558 C46.1863907,27.3103798 47.8813487,28.2650936 49.662923,28.3537714 Z" sketch:type="MSShapeGroup"></path></g></g></svg>