<svg width="32" height="32" viewBox="0 0 32 32" fill="none" xmlns="http://www.w3.org/2000/svg">
    <path d="M5.33337 9.33333C5.33337 6.38667 10.1067 4 16 4C21.8934 4 26.6667 6.38667 26.6667 9.33333C26.6667 12.28 21.8934 14.6667 16 14.6667C10.1067 14.6667 5.33337 12.28 5.33337 9.33333ZM16.1067 24H16C10.1067 24 5.33337 21.6133 5.33337 18.6667V22.6667C5.33337 25.6133 10.1067 28 16 28C16.1334 28 16.2667 28 16.3867 28C16.1467 27.1467 16 26.2533 16 25.3333C16 24.88 16.04 24.44 16.1067 24ZM26.6667 16.1067C26.6667 16.0667 26.6667 16.04 26.6667 16V12C26.6667 14.9467 21.8934 17.3333 16 17.3333C10.1067 17.3333 5.33337 14.9467 5.33337 12V16C5.33337 18.9467 10.1067 21.3333 16 21.3333C16.3067 21.3333 16.6134 21.3333 16.92 21.3333C18.4267 18.1733 21.6267 16 25.3334 16C25.7867 16 26.2267 16.04 26.6667 16.1067ZM31.7334 27.2C31.8667 27.2 31.8667 27.3333 31.7334 27.4667L30.4 29.7333C30.2667 29.8667 30.1334 29.8667 30 29.8667L28.4 29.3333C28 29.6 27.7334 29.7333 27.3334 30L27.0667 31.7333C27.0667 31.8667 26.9334 32 26.8 32H24.1334C24 32 23.8667 31.8667 23.7334 31.7333L23.4667 30C23.0667 29.8667 22.6667 29.6 22.4 29.3333L20.8 30C20.6667 30 20.5334 30 20.4 29.8667L19.0667 27.6C18.9334 27.4667 19.0667 27.3333 19.2 27.2L20.6667 26.1333V24.8L19.2 23.7333C19.0667 23.6 19.0667 23.4667 19.0667 23.3333L20.4 21.0667C20.5334 20.9333 20.6667 20.9333 20.8 20.9333L22.4 21.6C22.8 21.3333 23.0667 21.2 23.4667 20.9333L23.7334 19.2C23.7334 19.0667 23.8667 18.9333 24.1334 18.9333H26.8C26.9334 18.9333 27.0667 19.0667 27.0667 19.2L27.3334 20.9333C27.7334 21.0667 28.1334 21.3333 28.5334 21.6L30.1334 20.9333C30.2667 20.9333 30.5334 20.9333 30.5334 21.0667L31.8667 23.3333C32 23.4667 31.8667 23.6 31.7334 23.7333L30.2667 24.8V26.1333L31.7334 27.2ZM27.3334 25.3333C27.3334 24.2667 26.4 23.3333 25.3334 23.3333C24.2667 23.3333 23.3334 24.2667 23.3334 25.3333C23.3334 26.4 24.2667 27.3333 25.3334 27.3333C26.4 27.3333 27.3334 26.4 27.3334 25.3333Z" fill="currentColor"/>
</svg>
