<svg width="32" height="32" viewBox="0 0 32 32" fill="none" xmlns="http://www.w3.org/2000/svg">
    <path d="M14.6667 9.33337V14.6667H17.3333V9.33337H14.6667Z" fill="currentColor"/>
    <path d="M17.3333 6.66671V1.33337H14.6667V6.66671H17.3333Z" fill="currentColor"/>
    <path d="M14.6667 17.3334V22.6667H17.3333V17.3334H14.6667Z" fill="currentColor"/>
    <path d="M14.6667 25.3334H17.3333V30.6667H14.6667V25.3334Z" fill="currentColor"/>
    <path d="M11.9473 4.00004H6.66667C5.18667 4.00004 4 5.20004 4 6.66671V25.3334C4 26.0406 4.28095 26.7189 4.78105 27.219C5.28115 27.7191 5.95942 28 6.66667 28H11.9473V12H6.66667V6.66671H11.9473V4.00004Z" fill="currentColor"/>
    <path d="M20.0008 28V4.00004H22.6667L28 9.33337V25.3334C28 26.0406 27.719 26.7189 27.219 27.219C26.7189 27.7191 26.0406 28 25.3333 28H20.0008Z" fill="currentColor"/>
</svg>
