<svg width="24" height="24" viewBox="0 0 24 24" fill="currentColor" xmlns="http://www.w3.org/2000/svg">
<path d="M8.99836 20.9821L8.97225 21.05H9.04503H19C20.1276 21.05 21.05 20.1276 21.05 19V5C21.05 3.87239 20.1276 2.95 19 2.95H5C3.87239 2.95 2.95 3.87239 2.95 5V14.9548V15.0276L3.01794 15.0015C3.53301 14.8035 4.09249 14.695 4.67743 14.695C4.92834 14.695 5.17456 14.715 5.41459 14.7534L5.49493 14.7663L5.47011 14.6888C5.19663 13.8352 5.05 12.9257 5.05 12C5.05 9.72486 5.93561 7.54906 7.4113 6.05952L8.91048 6.71541C7.63308 7.9327 6.95 9.92055 6.95 12C6.95 13.4793 7.29558 14.9112 7.9541 16.0526L7.95261 16.0534L7.96192 16.0628C8.27143 16.3747 8.5368 16.7303 8.74795 17.1197L8.74632 17.1206L8.75583 17.1305C8.80637 17.1831 8.85792 17.2345 8.91048 17.2846L8.89402 17.2918L8.84699 17.3124L8.8688 17.3588C9.14852 17.9549 9.30486 18.6203 9.30486 19.3224C9.30486 19.9074 9.19633 20.467 8.99836 20.9821ZM11.9464 12.9814L11.9121 12.8956L11.859 12.9713L10.474 14.95H9.09936L11.3402 11.9298L11.3576 11.9063L11.3456 11.8795L10.0772 9.05H11.2661L12.0536 11.0186L12.0879 11.1044L12.141 11.0287L13.526 9.05H14.9013L12.7597 11.9704L12.7427 11.9936L12.7541 12.0199L14.0238 14.95H12.7339L11.9464 12.9814ZM5.06992 21.7196V21.6696H5.01992H3.99248H3.94248V21.7196V22.7471V22.7971H3.99248H5.01992H5.06992V22.7471V21.7196ZM3.65 18.3448H3.7V18.2948V17.9523C3.7 17.6931 3.80298 17.4445 3.98629 17.2612C4.16959 17.0779 4.41821 16.9749 4.67744 16.9749C4.93667 16.9749 5.18529 17.0779 5.3686 17.2612C5.5519 17.4445 5.65488 17.6931 5.65488 17.9523C5.65488 18.2575 5.50576 18.5363 5.2527 18.7051C5.25263 18.7052 5.25255 18.7052 5.25247 18.7053L5.05417 18.8352L5.05413 18.8352C4.36192 19.2897 3.94248 20.0657 3.94248 20.8977V21.0347V21.0847H3.99248H5.01992H5.06992V21.0347V20.8977C5.06992 20.443 5.29346 20.0402 5.67101 19.7748L5.87548 19.6453L5.87549 19.6454L5.87658 19.6446C6.43125 19.2725 6.78232 18.6338 6.78232 17.9523C6.78232 17.3941 6.56056 16.8587 6.16582 16.464C5.77108 16.0692 5.23569 15.8475 4.67744 15.8475C4.11919 15.8475 3.58381 16.0692 3.18906 16.464C2.79432 16.8587 2.57256 17.3941 2.57256 17.9523V18.2948V18.3448H2.62256H3.65ZM18.95 12C18.95 14.2751 18.0644 16.4509 16.5887 17.9405L15.0867 17.2834C16.3648 15.974 17.05 14.083 17.05 12C17.05 9.92055 16.3669 7.9327 15.0895 6.71541L16.5887 6.05952C18.0644 7.54906 18.95 9.72486 18.95 12Z" fill="currentColor" stroke="currentColor" stroke-width="0.1"/>
</svg>
