<svg width="32" height="32" viewBox="0 0 32 32" fill="currentColor" xmlns="http://www.w3.org/2000/svg">
    <path d="M24 4.2312C22.5333 4.2312 21.3333 5.4312 21.3333 6.89787V14.8979C21.3333 16.3645 22.5333 17.5645 24 17.5645H26.6666C28.1333 17.5645 29.3333 16.3645 29.3333 14.8979V9.56453H26.6666V14.8979H24V6.89787H29.3333V4.2312H24ZM2.66663 4.2312V17.5645H10.6666V14.8979H5.33329V4.2312H2.66663ZM14.6666 4.2312C13.2 4.2312 12 5.4312 12 6.89787V14.8979C12 16.3645 13.2 17.5645 14.6666 17.5645H17.3333C18.8 17.5645 20 16.3645 20 14.8979V6.89787C20 5.4312 18.8 4.2312 17.3333 4.2312H14.6666ZM14.6666 6.89787H17.3333V14.8979H14.6666V6.89787Z" />
    <path d="M14.6666 19.959H17.3333V22.6947H20L16 26.6947L12 22.6947H14.6666V19.959Z" />
    <path d="M12 28.007H20V29.3716H12V28.007Z" />
</svg>
