<svg width="30" height="28" viewBox="0 0 30 28" fill="currentColor" xmlns="http://www.w3.org/2000/svg">
    <path d="M23 27.5467L19.3333 23.5467L20.88 22L23 24.12L27.7866 19.3334L29.3333 21.2134L23 27.5467ZM15.3333 15.3334V7.33335H12.6666V15.3334H15.3333ZM15.3333 20.6667V18H12.6666V20.6667H15.3333ZM14 0.666687C21.3333 0.666687 27.3333 6.66669 27.3333 14L27.2133 15.7467C26.4133 15.48 25.56 15.3334 24.6666 15.3334C20.2533 15.3334 16.6666 18.92 16.6666 23.3334C16.6666 24.6 16.96 25.8 17.4933 26.8667C16.3733 27.1734 15.2133 27.3334 14 27.3334C6.66663 27.3334 0.666626 21.3334 0.666626 14C0.666626 6.66669 6.66663 0.666687 14 0.666687Z" fill="currentColor"/>
</svg>
