<svg width="24" height="24" viewBox="0 0 24 24" xmlns="http://www.w3.org/2000/svg">
<path d="M3.89718 3.18179C3.44219 3.18179 3.00584 3.36254 2.68411 3.68426C2.36238 4.00599 2.18164 4.44234 2.18164 4.89733V6.38841H3.78495V4.7851H5.38826V3.18179H3.89718ZM6.99157 3.18179V4.7851H9.39653V3.18179H6.99157ZM10.9998 3.18179V4.7851H12.6031V6.38841H14.2065V4.89733C14.2065 3.95138 13.4369 3.18179 12.4909 3.18179H10.9998ZM2.18164 7.99172V10.3967H3.78495V7.99172H2.18164ZM8.59487 7.99172C7.70504 7.99172 6.99157 8.70519 6.99157 9.59503C6.99157 11.4629 6.99157 15.2066 6.99157 15.2066C6.99157 15.2066 10.6551 15.2066 12.4909 15.2066C12.9459 15.2066 13.3823 15.0259 13.704 14.7041C14.0257 14.3824 14.2065 13.9461 14.2065 13.4911C14.2065 11.6553 14.2065 7.99172 14.2065 7.99172C14.2065 7.99172 10.4627 7.99172 8.59487 7.99172ZM15.8098 7.99172V9.59503H17.4131V11.1983H19.0164V9.59503C19.0164 8.70519 18.3029 7.99172 17.4131 7.99172H15.8098ZM8.59487 9.59503H12.6031V13.6033H8.59487V9.59503ZM2.18164 12V13.4911C2.18164 14.437 2.95123 15.2066 3.89718 15.2066H5.38826V13.6033H3.78495V12H2.18164ZM6.99157 16.8099V18.4132C6.99157 19.3031 7.70504 20.0165 8.59487 20.0165H10.1982V18.4132H8.59487V16.8099H6.99157ZM11.8015 18.4132V20.0165H14.0527V18.4132H11.8015Z" fill="currentColor"/>
<path d="M21.1097 17.0165L18.1097 20.0165L15.1097 17.0165H17.1097V13.0165H19.1097V17.0165H21.1097Z" fill="currentColor"/>
</svg>
