<svg width="24" height="24" viewBox="0 0 24 24" fill="currentColor" xmlns="http://www.w3.org/2000/svg">
<path d="M15.8535 22.6116L15.9138 22.7161L15.9451 22.5995L17.6105 16.3841L17.6236 16.3353L17.5746 16.3227L11.4092 14.7439L11.294 14.7144L11.3535 14.8173L13.2787 18.152C11.9441 18.6335 10.5143 18.6115 9.23579 18.1511L9.14793 18.1194L9.1703 18.2101C9.25821 18.5663 9.30486 18.9389 9.30486 19.3224C9.30486 19.6549 9.26981 19.979 9.20324 20.2915L9.19326 20.3383L9.23962 20.3503C10.8923 20.7778 12.6818 20.682 14.3405 19.991L15.8535 22.6116ZM5.66599 14.8008L5.75741 14.8207L5.72315 14.7337C4.78394 12.3469 5.49802 9.61459 7.47363 7.98062L7.5062 7.95369L7.48507 7.91709L6.47507 6.16772L6.44677 6.11871L6.40162 6.15282C3.72603 8.17426 2.61247 11.6314 3.52559 14.7899L3.53888 14.8359L3.58538 14.8246C3.93549 14.7399 4.30118 14.695 4.67743 14.695C5.01677 14.695 5.34752 14.7315 5.66599 14.8008ZM8.14426 5.1467L8.09227 5.1688L8.12051 5.21772L9.13551 6.97575L9.15657 7.01222L9.19609 6.99767C10.0177 6.6951 10.9075 6.57063 11.8192 6.6625L11.8617 6.66678L11.8726 6.62553L12.3947 4.64979L12.4091 4.59516L12.3531 4.58748C10.8894 4.38681 9.4412 4.59545 8.14426 5.1467ZM17.6554 7.77257L17.7043 7.74433L17.6703 7.6992C16.8226 6.57308 15.6689 5.68207 14.3013 5.12414L14.2486 5.10264L14.2341 5.15766L13.723 7.09242L13.7123 7.13265L13.75 7.15041C14.569 7.53695 15.286 8.0849 15.8422 8.77076L15.869 8.80391L15.906 8.78257L17.6554 7.77257ZM19.1506 13.6934L19.2056 13.7083L19.2133 13.652C19.4139 12.1888 19.2278 10.7392 18.6764 9.44177L18.6543 9.38978L18.6054 9.41802L16.856 10.428L16.8191 10.4493L16.8343 10.4891C17.1452 11.3052 17.2662 12.2086 17.1829 13.1158L17.179 13.1576L17.2195 13.1687L19.1506 13.6934ZM5.06992 21.7196V21.6696H5.01992H3.99248H3.94248V21.7196V22.7471V22.7971H3.99248H5.01992H5.06992V22.7471V21.7196ZM3.65 18.3448H3.7V18.2948V17.9523C3.7 17.6931 3.80298 17.4445 3.98629 17.2612C4.16959 17.0779 4.41821 16.9749 4.67744 16.9749C4.93667 16.9749 5.18529 17.0779 5.3686 17.2612C5.5519 17.4445 5.65488 17.6931 5.65488 17.9523C5.65488 18.2575 5.50576 18.5363 5.2527 18.7051C5.25263 18.7052 5.25255 18.7052 5.25247 18.7053L5.05417 18.8352L5.05413 18.8352C4.36192 19.2897 3.94248 20.0657 3.94248 20.8977V21.0347V21.0847H3.99248H5.01992H5.06992V21.0347V20.8977C5.06992 20.443 5.29345 20.0402 5.67099 19.7748L5.87548 19.6453L5.87549 19.6454L5.87658 19.6446C6.43125 19.2725 6.78232 18.6338 6.78232 17.9523C6.78232 17.3941 6.56056 16.8587 6.16582 16.464C5.77108 16.0692 5.23569 15.8475 4.67744 15.8475C4.11919 15.8475 3.58381 16.0692 3.18906 16.464C2.79432 16.8587 2.57256 17.3941 2.57256 17.9523V18.2948V18.3448H2.62256H3.65Z" fill="currentColor" stroke="currentColor" stroke-width="0.1"/>
</svg>
