<svg width="32" height="32" viewBox="0 0 32 32" fill="none" xmlns="http://www.w3.org/2000/svg">
    <path d="M24.0597 27.8873C24.0597 25.8873 26.7263 25.754 26.7263 23.4873C26.7263 21.4873 25.393 19.8873 23.393 19.8873C21.393 19.8873 19.793 21.4873 19.793 23.4873H21.5263C21.5263 22.554 22.3263 21.754 23.2597 21.754C24.193 21.754 24.993 22.554 24.993 23.4873C24.993 25.2206 22.3263 24.954 22.3263 27.8873H24.0597Z" fill="currentColor"/>
    <path d="M24.0597 30.554V28.8206H22.3263V30.554H24.0597Z" fill="currentColor"/>
    <path d="M23.1323 10.1839H23.8203C24.0576 10.1839 24.2269 10.1359 24.3283 10.0399C24.4323 9.94389 24.4843 9.79056 24.4843 9.57989V9.37589C24.4843 9.16522 24.4323 9.01189 24.3283 8.91589C24.2269 8.81722 24.0576 8.76789 23.8203 8.76789H23.1323V10.1839Z" fill="currentColor"/>
    <path fill-rule="evenodd" clip-rule="evenodd" d="M6.62821 2.71924C5.15546 2.71924 3.96155 3.91315 3.96155 5.38591V26.6379C3.96155 28.1106 5.15545 29.3045 6.62821 29.3045H15.9583C15.5202 28.1809 15.2798 26.9583 15.2798 25.6797C15.2798 20.1664 19.7492 15.697 25.2625 15.697C26.2257 15.697 27.1571 15.8334 28.0384 16.088V5.38591C28.0384 3.91315 26.8445 2.71924 25.3717 2.71924H6.62821ZM6.30314 12.7199H7.75514V10.7159H9.33514V12.7199H10.7871V7.60789H9.33514V9.50789H7.75514V7.60789H6.30314V12.7199ZM13.0796 8.81189V12.7199H14.5316V8.81189H15.8996V7.60789H11.7076V8.81189H13.0796ZM17.97 12.7199V8.81189H16.598V7.60789H20.79V8.81189H19.422V12.7199H17.97ZM23.1403 11.3479V12.7199H21.7163V7.60789H23.9483C24.6256 7.60789 25.1229 7.75589 25.4403 8.05189C25.7576 8.34522 25.9163 8.77189 25.9163 9.33189V9.62789C25.9163 10.1906 25.7576 10.6186 25.4403 10.9119C25.1229 11.2026 24.6283 11.3479 23.9563 11.3479H23.1403Z" fill="currentColor"/>
</svg>
