<svg width="24" height="24" viewBox="0 0 24 24" fill="currentColor" xmlns="http://www.w3.org/2000/svg">
<path d="M14.5852 13.4517L14.4686 13.4829L14.5731 13.5433L17.1277 15.0182C15.4747 17.8275 11.8532 18.7857 9.02503 17.1528C8.9479 17.1083 8.87197 17.0621 8.7973 17.0144L8.72666 17.0808C9.09506 17.7449 9.30486 18.5091 9.30486 19.3224C9.30486 19.3979 9.30305 19.4729 9.29949 19.5474L9.29771 19.5846L9.3328 19.5969C12.9019 20.8552 16.9674 19.4483 18.9464 16.0682L21.5013 17.5433L21.6059 17.6036L21.5746 17.487L20.1105 12.0229L20.0976 11.9746L20.0493 11.9876L14.5852 13.4517ZM6.92875 15.2786L6.99547 15.2084L6.96778 15.1638L6.94826 15.1319L6.91222 15.1416L6.87576 15.1514L6.75395 15.184L6.86503 15.2437C6.88636 15.2552 6.9076 15.2668 6.92875 15.2786ZM16.025 5.02846C12.1877 2.813 7.28923 4.11338 5.05366 7.93174L2.49875 6.45667L2.39422 6.39631L2.42546 6.51291L3.88956 11.977L3.9025 12.0253L3.9508 12.0124L9.4149 10.5483L9.5315 10.517L9.42696 10.4567L6.87236 8.98177C8.5254 6.17248 12.1469 5.21427 14.975 6.84712C15.8339 7.34301 16.5429 8.03866 17.0323 8.83618L17.0518 8.86799L17.0878 8.85833L19.0822 8.32393L19.1425 8.30778L19.1136 8.25246C18.4342 6.95395 17.3933 5.81842 16.025 5.02846ZM5.06992 21.7196V21.6696H5.01992H3.99248H3.94248V21.7196V22.7471V22.7971H3.99248H5.01992H5.06992V22.7471V21.7196ZM3.65 18.3448H3.7V18.2948V17.9523C3.7 17.6931 3.80298 17.4445 3.98629 17.2612C4.16959 17.0779 4.41821 16.9749 4.67744 16.9749C4.93667 16.9749 5.18529 17.0779 5.3686 17.2612C5.5519 17.4445 5.65488 17.6931 5.65488 17.9523C5.65488 18.2575 5.50576 18.5363 5.2527 18.7051C5.25263 18.7052 5.25255 18.7052 5.25247 18.7053L5.05417 18.8352L5.05413 18.8352C4.36192 19.2897 3.94248 20.0657 3.94248 20.8977V21.0347V21.0847H3.99248H5.01992H5.06992V21.0347V20.8977C5.06992 20.4429 5.29345 20.0402 5.67099 19.7748L5.87548 19.6453L5.87549 19.6453L5.87658 19.6446C6.43125 19.2725 6.78232 18.6338 6.78232 17.9523C6.78232 17.3941 6.56056 16.8587 6.16582 16.464C5.77108 16.0692 5.23569 15.8474 4.67744 15.8474C4.11919 15.8474 3.58381 16.0692 3.18906 16.464C2.79432 16.8587 2.57256 17.3941 2.57256 17.9523V18.2948V18.3448H2.62256H3.65ZM10.975 13.7753C11.9602 14.3441 13.2066 14.0102 13.7754 13.025C14.3392 12.0484 14.0016 10.7884 13.025 10.2246C12.0486 9.66089 10.7936 9.98962 10.2247 10.975C9.65587 11.9602 9.98983 13.2065 10.975 13.7753Z" fill="currentColor" stroke="currentColor" stroke-width="0.1"/>
</svg>
