<svg width="32" height="32" viewBox="0 0 32 32" fill="none" xmlns="http://www.w3.org/2000/svg">
    <path d="M29.5153 28.6487L29.5507 28.6133L29.5153 28.578L27.65 26.7126V26.6993L27.6353 26.6846L3.222 2.27129L3.18679 2.23607L3.15143 2.27115L1.44476 3.96448L1.40922 3.99974L1.44453 4.03524L3.94998 6.55394V19.9397V20.0125L4.01792 19.9864C4.70656 19.7218 5.45457 19.5767 6.23657 19.5767C9.65332 19.5767 12.4231 22.3465 12.4231 25.7633C12.4231 26.5453 12.2781 27.2934 12.0134 27.982L11.9873 28.05H12.0601H25.446L27.7514 30.3421L27.7867 30.3773L27.822 30.342L29.5153 28.6487ZM27.9646 23.7687L28.05 23.854V23.7333V12V11.9793L28.0353 11.9646L20.0353 3.96462L20.0207 3.94997H20H8.26665H8.14594L8.23129 4.03533L27.9646 23.7687ZM6.74323 28.9595V28.9095H6.69323H5.32331H5.27331V28.9595V30.3294V30.3794H5.32331H6.69323H6.74323V30.3294V28.9595ZM4.86667 24.4431H4.91667V24.3931V23.9365C4.91667 23.5864 5.05573 23.2507 5.30326 23.0031C5.5508 22.7556 5.88652 22.6165 6.23659 22.6165C6.58665 22.6165 6.92238 22.7556 7.16991 23.0031C7.41745 23.2507 7.55651 23.5864 7.55651 23.9365C7.55651 24.3489 7.35487 24.7259 7.01276 24.9541C7.01269 24.9542 7.01261 24.9542 7.01254 24.9543L6.74802 25.1276L6.74798 25.1276C5.82974 25.7305 5.27331 26.7599 5.27331 27.8636V28.0462V28.0962H5.32331H6.69323H6.74323V28.0462V27.8636C6.74323 27.2513 7.04438 26.7093 7.55206 26.3526L7.82505 26.1797L7.82506 26.1797L7.82615 26.179C8.5612 25.6859 9.02643 24.8393 9.02643 23.9365C9.02643 23.1965 8.7325 22.4869 8.20931 21.9637C7.68611 21.4405 6.9765 21.1466 6.23659 21.1466C5.49668 21.1466 4.78707 21.4405 4.26387 21.9637C3.74067 22.4869 3.44674 23.1965 3.44674 23.9365V24.3931V24.4431H3.49674H4.86667ZM18.7166 13.2833V6.12069L25.8793 13.2833H18.7166Z" fill="currentColor" stroke="currentColor" stroke-width="0.1"/>
</svg>
