
<svg xmlns="http://www.w3.org/2000/svg" version="1.1" viewBox="-5.0 -10.0 110.0 135.0">
    <g>
        <path d="m71.875 28.125h-43.75c-7.8164 0-15.035 4.168-18.945 10.938-3.9062 6.7695-3.9062 15.105 0 21.875 3.9102 6.7695 11.129 10.938 18.945 10.938h43.75c7.8164 0 15.035-4.168 18.945-10.938 3.9062-6.7695 3.9062-15.105 0-21.875-3.9102-6.7695-11.129-10.938-18.945-10.938zm0 37.5h-43.75c-5.582 0-10.742-2.9766-13.531-7.8125-2.793-4.8359-2.793-10.789 0-15.625 2.7891-4.8359 7.9492-7.8125 13.531-7.8125h43.75c5.582 0 10.742 2.9766 13.531 7.8125 2.793 4.8359 2.793 10.789 0 15.625-2.7891 4.8359-7.9492 7.8125-13.531 7.8125z"/>
        <path d="m70.312 39.062c-4.4219 0-8.4102 2.6641-10.105 6.75-1.6914 4.0898-0.75781 8.793 2.3711 11.922s7.832 4.0625 11.922 2.3711c4.0859-1.6953 6.75-5.6836 6.75-10.105-0.007812-6.0391-4.8984-10.93-10.938-10.938zm0 15.625c-1.8945 0-3.6055-1.1406-4.332-2.8945-0.72266-1.75-0.32422-3.7656 1.0156-5.1094 1.3438-1.3398 3.3594-1.7383 5.1094-1.0156 1.7539 0.72656 2.8945 2.4375 2.8945 4.332-0.003906 2.5859-2.1016 4.6836-4.6875 4.6875z"/>
    </g>
</svg>