<svg width="24" height="24" viewBox="0 0 24 24" fill="currentColor" xmlns="http://www.w3.org/2000/svg">
<path d="M12.9646 7.46464L12.9293 7.5L12.9646 7.53536L16.4646 11.0354L16.5 11.0707L16.5354 11.0354L22.1354 5.43536L22.1707 5.4L22.1354 5.36464L20.7354 3.96464L20.7 3.92929L20.6646 3.96464L16.5 8.12929L14.4354 6.06464L14.4 6.02929L14.3646 6.06464L12.9646 7.46464ZM2 6.95H1.95V7V9V9.05H2H11H11.05V9V7V6.95H11H2ZM19.6354 11.9646L19.6 11.9293L19.5646 11.9646L17 14.5293L14.4354 11.9646L14.4 11.9293L14.3646 11.9646L12.9646 13.3646L12.9293 13.4L12.9646 13.4354L15.5293 16L12.9646 18.5646L12.9293 18.6L12.9646 18.6354L14.3646 20.0354L14.4 20.0707L14.4354 20.0354L17 17.4707L19.5646 20.0354L19.6 20.0707L19.6354 20.0354L21.0354 18.6354L21.0707 18.6L21.0354 18.5646L18.4707 16L21.0354 13.4354L21.0707 13.4L21.0354 13.3646L19.6354 11.9646ZM7.86302 15.8475H7.73589L7.82896 15.9341C8.41889 16.483 8.86523 17.1841 9.10555 17.9747L9.11633 18.0102H9.15339H10.9299H10.9799V17.9602V15.8975V15.8475H10.9299H7.86302ZM5.06992 21.7196V21.6696H5.01992H3.99248H3.94248V21.7196V22.7471V22.7971H3.99248H5.01992H5.06992V22.7471V21.7196ZM3.65 18.3448H3.7V18.2948V17.9523C3.7 17.6931 3.80298 17.4445 3.98629 17.2612C4.16959 17.0779 4.41821 16.9749 4.67744 16.9749C4.93667 16.9749 5.18529 17.0779 5.3686 17.2612C5.5519 17.4445 5.65488 17.6931 5.65488 17.9523C5.65488 18.2575 5.50576 18.5363 5.2527 18.7051C5.25263 18.7052 5.25255 18.7052 5.25247 18.7053L5.05417 18.8352L5.05413 18.8352C4.36192 19.2897 3.94248 20.0657 3.94248 20.8977V21.0347V21.0847H3.99248H5.01992H5.06992V21.0347V20.8977C5.06992 20.443 5.29345 20.0402 5.67099 19.7748L5.87548 19.6453L5.87549 19.6454L5.87658 19.6446C6.43125 19.2725 6.78232 18.6338 6.78232 17.9523C6.78232 17.3941 6.56056 16.8587 6.16582 16.464C5.77108 16.0692 5.23569 15.8475 4.67744 15.8475C4.11919 15.8475 3.58381 16.0692 3.18906 16.464C2.79432 16.8587 2.57256 17.3941 2.57256 17.9523V18.2948V18.3448H2.62256H3.65Z" fill="currentColor" stroke="currentColor" stroke-width="0.1"/>
</svg>
