<svg width="24" height="24" viewBox="0 0 24 24" fill="currentColor" xmlns="http://www.w3.org/2000/svg">
<path d="M5 21H19C20.1 21 21 20.1 21 19V5C21 3.9 20.1 3 19 3H5C3.9 3 3 3.9 3 5V19C3 20.1 3.9 21 5 21ZM5 5H19V19H5V5Z" fill="currentColor"/>
<path d="M17.19 12C17.19 10.5913 16.5227 9.25676 15.4106 8.29291L14.2243 8.73776C15.1881 9.47918 15.7071 10.7396 15.7071 12C15.7071 13.2604 15.1881 14.5208 14.2243 15.2623L15.4106 15.7071C16.5227 14.7433 17.19 13.4087 17.19 12Z" fill="currentColor"/>
<path d="M9.77575 8.73776L8.58947 8.29291C7.47734 9.25676 6.81006 10.5913 6.81006 12C6.81006 13.4087 7.47734 14.7433 8.58947 15.7071L9.77575 15.2623C8.8119 14.5208 8.2929 13.2604 8.2929 12C8.2929 10.7396 8.8119 9.47918 9.77575 8.73776Z" fill="currentColor"/>
<path d="M13.1121 9.77575L12.0742 11.2586L11.481 9.77575H10.5172L11.481 11.9259L9.77575 14.2243H10.962L12 12.7414L12.5931 14.2243H13.557L12.5931 12L14.2243 9.77575H13.1121Z" fill="currentColor"/>
</svg>
