<svg width="81" height="80" viewBox="0 0 81 80" fill="currentColor" xmlns="http://www.w3.org/2000/svg">
<path fill-rule="evenodd" clip-rule="evenodd" d="M14.4367 13.2937C15.9061 11.8722 17.709 11.4243 19.1061 11.5108H22.1744C23.6741 11.5108 24.8899 12.7265 24.8899 14.2263C24.8899 15.726 23.6741 16.9418 22.1744 16.9418H18.885L18.7632 16.9312C18.7495 16.9317 18.6815 16.9339 18.583 16.9664C18.4757 17.0018 18.3459 17.0684 18.2128 17.1972C17.988 17.4146 17.431 18.1358 17.431 20.1419V59.8581C17.431 61.8641 17.988 62.5853 18.2128 62.8028C18.3459 62.9316 18.4757 62.9982 18.583 63.0335C18.6815 63.066 18.7495 63.0683 18.7632 63.0687L18.885 63.0582H22.1744C23.6741 63.0582 24.8899 64.274 24.8899 65.7737C24.8899 67.2734 23.6741 68.4892 22.1744 68.4892H19.1061C17.709 68.5756 15.9061 68.1277 14.4367 66.7063C12.8735 65.1941 12 62.8932 12 59.8581V20.1419C12 17.1068 12.8735 14.8059 14.4367 13.2937Z" />
<path fill-rule="evenodd" clip-rule="evenodd" d="M66.5633 13.2937C65.0939 11.8722 63.291 11.4243 61.8939 11.5108H58.8256C57.3259 11.5108 56.1101 12.7265 56.1101 14.2263C56.1101 15.726 57.3259 16.9418 58.8256 16.9418H62.115L62.2368 16.9312C62.2505 16.9317 62.3185 16.9339 62.417 16.9664C62.5243 17.0018 62.6541 17.0684 62.7872 17.1972C63.012 17.4146 63.569 18.1358 63.569 20.1419V59.8581C63.569 61.8641 63.012 62.5853 62.7872 62.8028C62.6541 62.9316 62.5243 62.9982 62.417 63.0335C62.3185 63.066 62.2505 63.0683 62.2368 63.0687L62.115 63.0582H58.8256C57.3259 63.0582 56.1101 64.274 56.1101 65.7737C56.1101 67.2734 57.3259 68.4892 58.8256 68.4892H61.8939C63.291 68.5756 65.0939 68.1277 66.5633 66.7063C68.1265 65.1941 69 62.8932 69 59.8581V20.1419C69 17.1068 68.1265 14.8059 66.5633 13.2937Z" />
<path fill-rule="evenodd" clip-rule="evenodd" d="M23.3952 29.0209C23.3952 27.5211 24.611 26.3054 26.1107 26.3054H55.2862C56.786 26.3054 58.0017 27.5211 58.0017 29.0209C58.0017 30.5206 56.786 31.7364 55.2862 31.7364H26.1107C24.611 31.7364 23.3952 30.5206 23.3952 29.0209Z" />
<path fill-rule="evenodd" clip-rule="evenodd" d="M23.3952 40.5151C23.3952 39.0154 24.611 37.7996 26.1107 37.7996H44.9042C46.4039 37.7996 47.6197 39.0154 47.6197 40.5151C47.6197 42.0149 46.4039 43.2306 44.9042 43.2306H26.1107C24.611 43.2306 23.3952 42.0149 23.3952 40.5151Z" />
<path fill-rule="evenodd" clip-rule="evenodd" d="M23.3952 52.133C23.3952 50.6333 24.611 49.4175 26.1107 49.4175H51.8255C53.3253 49.4175 54.541 50.6333 54.541 52.133C54.541 53.6328 53.3253 54.8485 51.8255 54.8485H26.1107C24.611 54.8485 23.3952 53.6328 23.3952 52.133Z" />
</svg>
