<svg width="24" height="24" viewBox="0 0 24 24" fill="currentColor" xmlns="http://www.w3.org/2000/svg">
<path d="M5.01995 21.7196V22.7471H3.9925V21.7196H5.01995ZM3.65002 18.2948H2.62258V17.9523C2.62258 17.4074 2.83908 16.8847 3.22444 16.4993C3.60981 16.114 4.13248 15.8975 4.67747 15.8975C5.22245 15.8975 5.74512 16.114 6.13049 16.4993C6.51585 16.8847 6.73235 17.4074 6.73235 17.9523C6.73235 18.6168 6.38987 19.2401 5.84875 19.6031L5.64326 19.7332C5.25283 20.0072 5.01995 20.4251 5.01995 20.8977V21.0347H3.9925V20.8977C3.9925 20.0826 4.40348 19.3223 5.08159 18.877L5.28023 18.7469C5.54737 18.5688 5.70491 18.2743 5.70491 17.9523C5.70491 17.6798 5.59666 17.4185 5.40398 17.2258C5.21129 17.0332 4.94996 16.9249 4.67747 16.9249C4.40497 16.9249 4.14364 17.0332 3.95096 17.2258C3.75827 17.4185 3.65002 17.6798 3.65002 17.9523V18.2948Z" fill="currentColor"/>
<path fill-rule="evenodd" clip-rule="evenodd" d="M5.11995 21.6196V22.8471H3.8925V21.6196H5.11995ZM3.75002 18.3948H2.52258V17.9523C2.52258 17.3808 2.74961 16.8327 3.15373 16.4286C3.55785 16.0245 4.10596 15.7975 4.67747 15.7975C5.24898 15.7975 5.79708 16.0245 6.2012 16.4286C6.60532 16.8327 6.83235 17.3808 6.83235 17.9523C6.83235 18.6508 6.47269 19.3049 5.90446 19.6861L5.90227 19.6876L5.69879 19.8164C5.33414 20.0732 5.11995 20.4609 5.11995 20.8977V21.1347H3.8925V20.8977C3.8925 20.0489 4.32041 19.2572 5.02671 18.7934L5.22476 18.6637C5.22466 18.6638 5.22486 18.6636 5.22476 18.6637C5.46383 18.5042 5.60491 18.2408 5.60491 17.9523C5.60491 17.7064 5.50719 17.4705 5.33327 17.2965C5.15934 17.1226 4.92344 17.0249 4.67747 17.0249C4.43149 17.0249 4.1956 17.1226 4.02167 17.2965C3.84774 17.4705 3.75002 17.7064 3.75002 17.9523V18.3948ZM5.08159 18.877L5.28023 18.7469C5.54737 18.5688 5.70491 18.2743 5.70491 17.9523C5.70491 17.6798 5.59666 17.4185 5.40398 17.2258C5.21129 17.0332 4.94996 16.9249 4.67747 16.9249C4.40497 16.9249 4.14364 17.0332 3.95096 17.2258C3.75827 17.4185 3.65002 17.6798 3.65002 17.9523V18.2948H2.62258V17.9523C2.62258 17.4074 2.83908 16.8847 3.22444 16.4993C3.60981 16.114 4.13248 15.8975 4.67747 15.8975C5.22245 15.8975 5.74512 16.114 6.13049 16.4993C6.51585 16.8847 6.73235 17.4074 6.73235 17.9523C6.73235 18.6168 6.38987 19.2401 5.84875 19.6031L5.64326 19.7332C5.25283 20.0072 5.01995 20.4251 5.01995 20.8977V21.0347H3.9925V20.8977C3.9925 20.0826 4.40348 19.3223 5.08159 18.877ZM5.01995 21.7196H3.9925V22.7471H5.01995V21.7196Z" fill="currentColor"/>
<path fill-rule="evenodd" clip-rule="evenodd" d="M13.0685 4H11.0685V6H13.0685V4ZM9.06851 2V8H15.0685V2H9.06851Z" fill="currentColor"/>
<path fill-rule="evenodd" clip-rule="evenodd" d="M13.0685 18H11.0685V20H13.0685V18ZM9.06851 16V22H15.0685V16H9.06851Z" fill="currentColor"/>
<path fill-rule="evenodd" clip-rule="evenodd" d="M21 18H19V20H21V18ZM17 16V22H23V16H17Z" fill="currentColor"/>
<path d="M10.9801 8H12.9801V10H10.9801V8Z" fill="currentColor"/>
<path d="M10.9801 11H12.9801V13H10.9801V11Z" fill="currentColor"/>
<path d="M15.0685 11H17.0685V13H15.0685V11Z" fill="currentColor"/>
<path d="M6.89211 11H8.89211V13H6.89211V11Z" fill="currentColor"/>
<path d="M2.96011 11H4.96011V13H2.96011V11Z" fill="currentColor"/>
<path d="M19 11H21V13H19V11Z" fill="currentColor"/>
<path d="M19 14H21V16H19V14Z" fill="currentColor"/>
<path d="M10.9801 14H12.9801V16H10.9801V14Z" fill="currentColor"/>
</svg>
