<svg xmlns="http://www.w3.org/2000/svg" xmlns:xlink="http://www.w3.org/1999/xlink" width="20" height="20"
     preserveAspectRatio="xMidYMid meet" viewBox="0 0 20 20"
     style="-ms-transform: rotate(360deg); -webkit-transform: rotate(360deg); transform: rotate(360deg);">
    <path
        d="M16.4 4a2.4 2.4 0 1 0-4.8 0c0 .961.568 1.784 1.384 2.167c-.082 1.584-1.27 2.122-3.335 2.896c-.87.327-1.829.689-2.649 1.234V6.176A2.396 2.396 0 0 0 6 1.6a2.397 2.397 0 0 0-1 4.576v7.649A2.393 2.393 0 0 0 3.6 16a2.4 2.4 0 1 0 4.8 0c0-.961-.568-1.784-1.384-2.167c.082-1.583 1.271-2.122 3.335-2.896c2.03-.762 4.541-1.711 4.64-4.756A2.398 2.398 0 0 0 16.4 4zM6 2.615a1.384 1.384 0 1 1 0 2.768a1.384 1.384 0 0 1 0-2.768zm0 14.77a1.385 1.385 0 1 1 0-2.77a1.385 1.385 0 0 1 0 2.77zm8-12a1.385 1.385 0 1 1 0-2.77a1.385 1.385 0 0 1 0 2.77z"
        fill="#333"/>
</svg>