<svg xmlns="http://www.w3.org/2000/svg" xmlns:xlink="http://www.w3.org/1999/xlink" viewBox="0 0 60 66" fill="#fff" fill-rule="evenodd" stroke="#000" stroke-linecap="round" stroke-linejoin="round"><use xlink:href="#A" x="1" y="1"/><symbol id="A" overflow="visible"><path d="M26.32.681c1.6-.906 3.64-.91 5.2 0l23.888 13.466c1.494.84 2.494 2.506 2.48 4.228v27c.01 1.794-1.088 3.496-2.664 4.32l-23.76 13.404a5.2 5.2 0 0 1-5.278-.146l-7.13-4.12c-.486-.29-1.032-.52-1.376-.99.304-.408.844-.46 1.284-.64.992-.316 1.9-.8 2.812-1.312.23-.16.512-.1.732.044l6.08 3.516c.434.25.874-.08 1.246-.29l23.33-13.166c.288-.14.448-.444.424-.76v-26.74c.032-.36-.174-.688-.5-.834L29.408 4.315a.82.82 0 0 0-.93-.002L4.792 17.687c-.32.146-.54.47-.5.83v26.74a.75.75 0 0 0 .43.75l6.324 3.57c1.188.64 2.646 1 3.954.53a3 3 0 0 0 1.942-2.818l.006-26.6c-.028-.394.344-.72.726-.68h3.04c.4-.01.714.414.66.81l-.006 26.768c.002 2.376-.974 4.96-3.172 6.126-2.708 1.4-6.056 1.106-8.732-.24l-6.8-3.76A4.9 4.9 0 0 1 0 45.393v-27a4.92 4.92 0 0 1 2.564-4.282L26.32.681zm6.888 18.716c3.454-.2 7.152-.132 10.26 1.57 2.406 1.304 3.74 4.04 3.784 6.716-.068.36-.444.56-.788.534-1-.002-2.004.014-3.008-.006-.426.016-.672-.376-.726-.752-.288-1.28-.986-2.546-2.19-3.164-1.848-.926-3.992-.88-6.008-.86-1.472.08-3.054.206-4.3 1.07-.96.656-1.248 2-.906 3.044.32.766 1.206 1.012 1.928 1.24 4.164 1.088 8.574 1 12.66 2.414 1.69.584 3.344 1.72 3.924 3.49.756 2.372.426 5.208-1.26 7.112-1.368 1.568-3.36 2.4-5.35 2.884-2.646.59-5.39.604-8.076.34-2.526-.288-5.154-.952-7.104-2.672-1.668-1.448-2.48-3.704-2.4-5.88.02-.368.386-.624.74-.594h3c.404-.028.7.32.72.7.186 1.2.644 2.5 1.708 3.2 2.052 1.324 4.626 1.232 6.974 1.27 1.946-.086 4.13-.112 5.72-1.4.84-.734 1.086-1.96.86-3.016-.246-.892-1.2-1.306-2-1.6-4.11-1.3-8.57-.828-12.64-2.3-1.652-.584-3.25-1.688-3.884-3.386-.886-2.4-.48-5.374 1.386-7.214 1.8-1.83 4.44-2.536 6.94-2.788z" stroke="none" fill="#8cc84b" fill-rule="nonzero"/></symbol></svg>