<svg width="512" height="512" viewBox="0 0 512 512" fill="currentColor"  xmlns="http://www.w3.org/2000/svg">
    <g clip-path="url(#clip0_1765_9330)">
        <path d="M244.592 215.915C251.569 208.938 262.881 208.938 269.858 215.915L298.537 244.595C305.514 251.572 305.514 262.883 298.537 269.86L269.858 298.54C262.881 305.517 251.569 305.517 244.592 298.54L215.913 269.86C208.936 262.883 208.936 251.572 215.913 244.595L244.592 215.915Z" />
        <path d="M376.685 215.687C383.537 208.835 394.646 208.835 401.498 215.687L430.63 244.818C437.482 251.67 437.482 262.78 430.63 269.632L401.498 298.763C394.646 305.615 383.537 305.615 376.685 298.763L347.553 269.632C340.701 262.78 340.701 251.67 347.553 244.818L376.685 215.687Z" />
        <path d="M244.818 83.8243C251.671 76.9722 262.78 76.9722 269.632 83.8243L298.763 112.956C305.616 119.808 305.616 130.917 298.763 137.769L269.632 166.901C262.78 173.753 251.671 173.753 244.818 166.901L215.687 137.769C208.835 130.917 208.835 119.808 215.687 112.956L244.818 83.8243Z" />
        <path d="M232.611 178.663C239.588 185.64 239.588 196.951 232.611 203.928L203.931 232.608C196.955 239.585 185.643 239.585 178.666 232.608L149.986 203.928C143.01 196.952 143.01 185.64 149.986 178.663L178.666 149.983C185.643 143.006 196.955 143.006 203.931 149.983L232.611 178.663Z" />
        <path d="M166.901 244.818C173.753 251.67 173.753 262.78 166.901 269.632L137.77 298.763C130.918 305.615 119.808 305.615 112.956 298.763L83.8246 269.632C76.9725 262.78 76.9725 251.67 83.8246 244.818L112.956 215.687C119.808 208.835 130.918 208.835 137.77 215.687L166.901 244.818Z" />
        <path d="M364.472 178.663C371.449 185.64 371.449 196.951 364.472 203.928L335.793 232.608C328.816 239.585 317.504 239.585 310.527 232.608L281.848 203.928C274.871 196.952 274.871 185.64 281.848 178.663L310.527 149.983C317.504 143.006 328.816 143.006 335.793 149.983L364.472 178.663Z" />
        <path d="M285.45 367.015C301.037 382.602 301.037 407.873 285.45 423.46C269.863 439.047 244.591 439.047 229.004 423.46C213.417 407.873 213.417 382.602 229.004 367.015C244.591 351.428 269.863 351.428 285.45 367.015Z" />
    </g>
</svg>
