<?xml version="1.0" encoding="utf-8"?>
<!-- Generator: Adobe Illustrator 27.1.1, SVG Export Plug-In . SVG Version: 6.00 Build 0)  -->
<svg version="1.1" id="Layer_1" xmlns="http://www.w3.org/2000/svg" xmlns:xlink="http://www.w3.org/1999/xlink" x="0px" y="0px"
     viewBox="0 0 439 309" style="enable-background:new 0 0 439 309;" xml:space="preserve">
<style type="text/css">
	.st0{fill:#1D63ED;}
</style>
    <path class="st0" d="M379.6,111.7c-2.3-16.7-11.5-31.2-28.1-44.3l-9.6-6.5l-6.4,9.7c-8.2,12.5-12.3,29.9-11,46.6
	c0.6,5.8,2.5,16.4,8.4,25.5c-5.9,3.3-17.6,7.7-33.2,7.4H1.7l-0.6,3.5c-2.8,16.7-2.8,69,30.7,109.1c25.5,30.5,63.6,46,113.4,46
	c108,0,187.8-50.3,225.3-141.9c14.7,0.3,46.4,0.1,62.7-31.4c0.4-0.7,1.4-2.6,4.2-8.6l1.6-3.3l-9.1-6.2
	C419.9,110.8,397.2,108.3,379.6,111.7L379.6,111.7z M240,0h-45.3v41.7H240V0z M240,50.1h-45.3v41.7H240V50.1z M186.4,50.1h-45.3
	v41.7h45.3V50.1z M132.9,50.1H87.6v41.7h45.3V50.1z M79.3,100.2H34v41.7h45.3V100.2z M132.9,100.2H87.6v41.7h45.3V100.2z
	 M186.4,100.2h-45.3v41.7h45.3V100.2z M240,100.2h-45.3v41.7H240V100.2z M293.6,100.2h-45.3v41.7h45.3V100.2z"/>
</svg>
