<svg width="140" height="141" viewBox="0 0 140 141" fill="none" xmlns="http://www.w3.org/2000/svg">
<rect x="23.5" y="34" width="96" height="78" rx="2.5" fill="#E8E7F5" stroke="#A9B5EA"/>
<rect x="26" y="46.5" width="91" height="63" rx="3" fill="#FAFAFF"/>
<rect x="31" y="50.5" width="11" height="4" rx="2" fill="#AEB7E2"/>
<rect x="58" y="119.5" width="11" height="4" rx="2" fill="#DCE0F3"/>
<rect x="107" y="18.5" width="11" height="4" rx="2" fill="#464F79"/>
<rect x="42" y="58.5" width="11" height="4" rx="2" fill="#AEB7E2"/>
<path d="M57 60.5C57 59.3954 57.8954 58.5 59 58.5C60.1046 58.5 61 59.3954 61 60.5C61 61.6046 60.1046 62.5 59 62.5C57.8954 62.5 57 61.6046 57 60.5Z" fill="#A3B3FE"/>
<path d="M99 20.5C99 19.3954 99.8954 18.5 101 18.5C102.105 18.5 103 19.3954 103 20.5C103 21.6046 102.105 22.5 101 22.5C99.8954 22.5 99 21.6046 99 20.5Z" fill="#707BAD"/>
<path d="M45 52.5C45 51.3954 45.8954 50.5 47 50.5H74C75.1046 50.5 76 51.3954 76 52.5C76 53.6046 75.1046 54.5 74 54.5H47C45.8954 54.5 45 53.6046 45 52.5Z" fill="#E5E8F7"/>
<path d="M24 121.5C24 120.395 24.8954 119.5 26 119.5H53C54.1046 119.5 55 120.395 55 121.5C55 122.605 54.1046 123.5 53 123.5H26C24.8954 123.5 24 122.605 24 121.5Z" fill="#AEB7E2"/>
<path d="M31 60.5C31 59.3954 31.8954 58.5 33 58.5H36C37.1046 58.5 38 59.3954 38 60.5C38 61.6046 37.1046 62.5 36 62.5H33C31.8954 62.5 31 61.6046 31 60.5Z" fill="#E5E8F7"/>
<path d="M94.3201 116.498C94.4539 117.322 93.2706 117.612 93.008 116.82L92.2678 114.587C92.1161 114.13 91.5492 113.973 91.1835 114.286L89.245 115.949C88.6178 116.486 87.7567 115.647 88.2786 115.006L90.0468 112.836C90.331 112.487 90.2025 111.963 89.789 111.785L87.217 110.68C86.4578 110.353 86.8325 109.21 87.6375 109.397L90.1251 109.973C90.5945 110.082 91.0241 109.68 90.9469 109.204L90.5698 106.883C90.436 106.059 91.6192 105.769 91.8818 106.561L92.6221 108.793C92.7737 109.251 93.3407 109.408 93.7064 109.094L95.6448 107.432C96.2721 106.894 97.1332 107.734 96.6113 108.375L94.843 110.545C94.5588 110.894 94.6874 111.418 95.1008 111.596L97.6729 112.701C98.432 113.027 98.0574 114.17 97.2524 113.984L94.7647 113.408C94.2954 113.299 93.8657 113.701 93.9429 114.176L94.3201 116.498Z" fill="#1761FD"/>
<path d="M28.1475 28.558C28.2599 28.8637 28.6922 28.8637 28.8046 28.558L29.8916 25.5995C29.927 25.5031 30.003 25.4271 30.0994 25.3917L33.058 24.3046C33.3637 24.1923 33.3637 23.7599 33.058 23.6476L30.0994 22.5605C30.003 22.5251 29.927 22.4491 29.8916 22.3527L28.8046 19.3942C28.6922 19.0885 28.2599 19.0885 28.1475 19.3942L27.0605 22.3527C27.025 22.4491 26.9491 22.5251 26.8527 22.5605L23.8941 23.6476C23.5884 23.7599 23.5884 24.1923 23.8941 24.3046L26.8527 25.3917C26.9491 25.4271 27.025 25.5031 27.0605 25.5995L28.1475 28.558Z" fill="#79C7D1"/>
<path d="M120 123C120 124.933 118.433 126.5 116.5 126.5C114.567 126.5 113 124.933 113 123C113 121.067 114.567 119.5 116.5 119.5C118.433 119.5 120 121.067 120 123ZM114.923 123C114.923 123.871 115.629 124.577 116.5 124.577C117.371 124.577 118.077 123.871 118.077 123C118.077 122.129 117.371 121.423 116.5 121.423C115.629 121.423 114.923 122.129 114.923 123Z" fill="#E8957C"/>
<circle cx="39" cy="39.5" r="2" fill="#8934DD"/>
<circle cx="32" cy="39.5" r="2" fill="#E0562A"/>
<circle cx="46" cy="39.5" r="2" fill="#5DCA75"/>
<path d="M119.652 29.5L115.625 34.4696L118.5 37.0509L112.905 43.4077" stroke="#A626E2" stroke-width="1.27819" stroke-linecap="round"/>
<path d="M124.652 29.5L120.625 34.4696L123.5 37.0509L117.905 43.4077" stroke="#A626E2" stroke-width="1.27819" stroke-linecap="round"/>
<rect x="52.5" y="74" width="41" height="18" rx="1.5" fill="#192A4E" stroke="#5F72B1"/>
<path d="M72.2466 90.25H71.4966L72.2466 85H69.6216C68.9616 85 69.3741 84.4375 69.3891 84.415C70.3566 82.705 71.8116 80.155 73.7541 76.75H74.5041L73.7541 82H76.3866C76.6866 82 76.8516 82.1425 76.6866 82.495C73.7241 87.6625 72.2466 90.25 72.2466 90.25Z" fill="white"/>
<mask id="path-22-inside-1_298_2388" fill="white">
<path fill-rule="evenodd" clip-rule="evenodd" d="M87.7575 60.9141L84.9852 81.298L103.728 72.8182L98.5488 68.9579L103.33 62.5437L97.7175 58.3603L92.9364 64.7744L87.7575 60.9141Z"/>
</mask>
<path fill-rule="evenodd" clip-rule="evenodd" d="M87.7575 60.9141L84.9852 81.298L103.728 72.8182L98.5488 68.9579L103.33 62.5437L97.7175 58.3603L92.9364 64.7744L87.7575 60.9141Z" fill="white"/>
<path d="M84.9852 81.298L83.9943 81.1632L83.7507 82.9541L85.3974 82.2091L84.9852 81.298ZM87.7575 60.9141L88.3552 60.1124L86.9952 59.0987L86.7667 60.7794L87.7575 60.9141ZM103.728 72.8182L104.14 73.7293L105.685 73.0301L104.325 72.0164L103.728 72.8182ZM98.5488 68.9579L97.747 68.3602L97.1494 69.162L97.9511 69.7596L98.5488 68.9579ZM103.33 62.5437L104.132 63.1414L104.729 62.3396L103.927 61.742L103.33 62.5437ZM97.7175 58.3603L98.3151 57.5585L97.5133 56.9609L96.9157 57.7626L97.7175 58.3603ZM92.9364 64.7744L92.3388 65.5762L93.1405 66.1738L93.7382 65.3721L92.9364 64.7744ZM85.976 81.4328L88.7484 61.0489L86.7667 60.7794L83.9943 81.1632L85.976 81.4328ZM103.315 71.9071L84.573 80.3869L85.3974 82.2091L104.14 73.7293L103.315 71.9071ZM97.9511 69.7596L103.13 73.6199L104.325 72.0164L99.1464 68.1561L97.9511 69.7596ZM102.528 61.9461L97.747 68.3602L99.3505 69.5555L104.132 63.1414L102.528 61.9461ZM97.1198 59.162L102.732 63.3455L103.927 61.742L98.3151 57.5585L97.1198 59.162ZM93.7382 65.3721L98.5192 58.9579L96.9157 57.7626L92.1346 64.1768L93.7382 65.3721ZM87.1599 61.7159L92.3388 65.5762L93.534 63.9727L88.3552 60.1124L87.1599 61.7159Z" fill="#1A1C27" mask="url(#path-22-inside-1_298_2388)"/>
</svg>
