<svg width="191" height="86" viewBox="0 0 191 86" fill="none" xmlns="http://www.w3.org/2000/svg">
<path d="M10.8359 33.3875L1.55193 1.57545H6.83193L13.2779 24.5435L19.7459 1.57545H23.7499L30.2619 24.5435L36.7299 1.57545H42.0319L32.6819 33.3875H28.1719L21.7479 10.8374L15.2359 33.3875H10.8359ZM53.8078 33.8275C51.6224 33.8275 49.6938 33.3655 48.0218 32.4415C46.3644 31.5028 45.0664 30.1681 44.1278 28.4375C43.2038 26.7068 42.7418 24.6461 42.7418 22.2555C42.7418 19.9235 43.1598 17.8555 43.9958 16.0515C44.8464 14.2328 46.0711 12.8028 47.6698 11.7615C49.2831 10.7201 51.2264 10.1995 53.4998 10.1995C55.7438 10.1995 57.6284 10.6761 59.1538 11.6295C60.6791 12.5828 61.8378 13.9175 62.6298 15.6335C63.4218 17.3348 63.8178 19.3295 63.8178 21.6175V23.2455H48.0878C48.0731 24.5361 48.2784 25.6801 48.7038 26.6775C49.1291 27.6748 49.7598 28.4595 50.5958 29.0315C51.4318 29.5888 52.4658 29.8675 53.6978 29.8675C54.9591 29.8675 56.0518 29.5888 56.9758 29.0315C57.9144 28.4595 58.5378 27.5941 58.8458 26.4355H63.7298C63.4658 28.0195 62.8351 29.3615 61.8378 30.4615C60.8551 31.5615 59.6524 32.3975 58.2298 32.9695C56.8218 33.5415 55.3478 33.8275 53.8078 33.8275ZM48.0658 19.9235H58.7578C58.7578 18.8235 58.5598 17.8335 58.1638 16.9535C57.7824 16.0588 57.2031 15.3548 56.4258 14.8414C55.6484 14.3134 54.6658 14.0494 53.4778 14.0494C52.3044 14.0494 51.3144 14.3354 50.5078 14.9075C49.7011 15.4795 49.0924 16.2201 48.6818 17.1295C48.2711 18.0241 48.0658 18.9555 48.0658 19.9235ZM75.4895 33.7175C74.0228 33.7175 72.8495 33.5341 71.9695 33.1675C71.0895 32.8008 70.4295 32.3095 69.9895 31.6935C69.5495 31.0775 69.2635 30.3881 69.1315 29.6255C68.9995 28.8481 68.9335 28.0561 68.9335 27.2495V0.69545H74.1695V26.6335C74.1695 27.6161 74.3675 28.3788 74.7635 28.9215C75.1741 29.4641 75.8341 29.7795 76.7435 29.8675L77.8875 29.9115V33.2775C77.4915 33.3948 77.0881 33.4975 76.6775 33.5855C76.2668 33.6735 75.8708 33.7175 75.4895 33.7175ZM91.2432 33.8275C89.1605 33.8275 87.3052 33.3728 85.6772 32.4635C84.0638 31.5395 82.7952 30.2048 81.8712 28.4595C80.9472 26.6995 80.4852 24.5801 80.4852 22.1015C80.4852 19.7401 80.9178 17.6721 81.7832 15.8975C82.6632 14.1081 83.9025 12.7148 85.5012 11.7174C87.1145 10.7055 89.0285 10.1995 91.2432 10.1995C93.0178 10.1995 94.5798 10.5515 95.9292 11.2555C97.2785 11.9594 98.3565 12.9348 99.1632 14.1815C99.9845 15.4281 100.476 16.8435 100.637 18.4275H96.0832C95.9658 17.7381 95.7092 17.0854 95.3132 16.4694C94.9172 15.8388 94.3818 15.3328 93.7072 14.9514C93.0472 14.5554 92.2405 14.3574 91.2872 14.3574C89.5712 14.3574 88.1852 14.9881 87.1292 16.2495C86.0732 17.5108 85.5452 19.4468 85.5452 22.0575C85.5452 24.4628 86.0438 26.3768 87.0412 27.7995C88.0532 29.2221 89.4978 29.9335 91.3752 29.9335C92.3138 29.9335 93.1205 29.7281 93.7952 29.3175C94.4698 28.8921 94.9978 28.3715 95.3792 27.7555C95.7752 27.1248 96.0245 26.4941 96.1272 25.8635H100.571C100.439 27.4035 99.9625 28.7748 99.1412 29.9775C98.3198 31.1801 97.2345 32.1261 95.8852 32.8155C94.5358 33.4901 92.9885 33.8275 91.2432 33.8275ZM115.177 33.8275C113.006 33.8275 111.114 33.3655 109.501 32.4415C107.887 31.5028 106.633 30.1608 105.739 28.4155C104.859 26.6701 104.419 24.5728 104.419 22.1235C104.419 19.7475 104.851 17.6648 105.717 15.8754C106.582 14.0861 107.814 12.6928 109.413 11.6954C111.026 10.6981 112.955 10.1995 115.199 10.1995C117.369 10.1995 119.254 10.6761 120.853 11.6295C122.451 12.5828 123.683 13.9468 124.549 15.7215C125.429 17.4961 125.869 19.6301 125.869 22.1235C125.869 24.4261 125.451 26.4575 124.615 28.2175C123.793 29.9628 122.583 31.3341 120.985 32.3315C119.401 33.3288 117.465 33.8275 115.177 33.8275ZM115.199 29.7575C116.431 29.7575 117.443 29.4201 118.235 28.7455C119.041 28.0708 119.643 27.1468 120.039 25.9735C120.435 24.8001 120.633 23.4655 120.633 21.9694C120.633 20.5761 120.457 19.2928 120.105 18.1195C119.753 16.9461 119.173 16.0075 118.367 15.3035C117.575 14.5848 116.519 14.2255 115.199 14.2255C113.952 14.2255 112.918 14.5555 112.097 15.2155C111.29 15.8608 110.689 16.7701 110.293 17.9435C109.897 19.1021 109.699 20.4441 109.699 21.9694C109.699 23.3481 109.875 24.6315 110.227 25.8195C110.579 26.9928 111.158 27.9461 111.965 28.6795C112.771 29.3981 113.849 29.7575 115.199 29.7575ZM130.765 33.3875V10.6395H135.979V13.8955C136.639 12.8981 137.534 12.0328 138.663 11.2994C139.807 10.5661 141.259 10.1995 143.019 10.1995C143.826 10.1995 144.64 10.3388 145.461 10.6174C146.297 10.8961 147.067 11.3068 147.771 11.8495C148.49 12.3921 149.062 13.0668 149.487 13.8735C150.206 12.8028 151.159 11.9228 152.347 11.2334C153.55 10.5441 154.899 10.1995 156.395 10.1995C157.217 10.1995 158.06 10.3315 158.925 10.5955C159.805 10.8595 160.612 11.2995 161.345 11.9154C162.079 12.5315 162.673 13.3748 163.127 14.4454C163.582 15.5015 163.809 16.8288 163.809 18.4275V33.3875H158.463V19.0655C158.463 17.9361 158.265 17.0488 157.869 16.4035C157.473 15.7581 156.96 15.3035 156.329 15.0395C155.713 14.7608 155.053 14.6215 154.349 14.6215C153.719 14.6215 153.059 14.7461 152.369 14.9955C151.695 15.2448 151.115 15.6554 150.631 16.2275C150.162 16.7995 149.927 17.5695 149.927 18.5375V33.3875H144.581V18.2074C144.581 17.4155 144.376 16.7555 143.965 16.2275C143.555 15.6995 143.034 15.3035 142.403 15.0395C141.787 14.7608 141.157 14.6215 140.511 14.6215C139.851 14.6215 139.177 14.7608 138.487 15.0395C137.813 15.3181 137.248 15.7435 136.793 16.3155C136.339 16.8875 136.111 17.6281 136.111 18.5375V33.3875H130.765ZM179.62 33.8275C177.435 33.8275 175.506 33.3655 173.834 32.4415C172.177 31.5028 170.879 30.1681 169.94 28.4375C169.016 26.7068 168.554 24.6461 168.554 22.2555C168.554 19.9235 168.972 17.8555 169.808 16.0515C170.659 14.2328 171.884 12.8028 173.482 11.7615C175.096 10.7201 177.039 10.1995 179.312 10.1995C181.556 10.1995 183.441 10.6761 184.966 11.6295C186.492 12.5828 187.65 13.9175 188.442 15.6335C189.234 17.3348 189.63 19.3295 189.63 21.6175V23.2455H173.9C173.886 24.5361 174.091 25.6801 174.516 26.6775C174.942 27.6748 175.572 28.4595 176.408 29.0315C177.244 29.5888 178.278 29.8675 179.51 29.8675C180.772 29.8675 181.864 29.5888 182.788 29.0315C183.727 28.4595 184.35 27.5941 184.658 26.4355H189.542C189.278 28.0195 188.648 29.3615 187.65 30.4615C186.668 31.5615 185.465 32.3975 184.042 32.9695C182.634 33.5415 181.16 33.8275 179.62 33.8275ZM173.878 19.9235H184.57C184.57 18.8235 184.372 17.8335 183.976 16.9535C183.595 16.0588 183.016 15.3548 182.238 14.8414C181.461 14.3134 180.478 14.0494 179.29 14.0494C178.117 14.0494 177.127 14.3354 176.32 14.9075C175.514 15.4795 174.905 16.2201 174.494 17.1295C174.084 18.0241 173.878 18.9555 173.878 19.9235ZM11.1181 85.5635C9.31415 85.5635 7.91348 85.3288 6.91615 84.8595C5.93348 84.3755 5.25148 83.6935 4.87015 82.8135C4.48882 81.9335 4.29815 80.8848 4.29815 79.6675V66.4235H0.602149V62.6395H4.45215L5.79415 55.8854H9.64415V62.6174H14.7261V66.4235H9.64415L9.66615 79.4695C9.66615 80.1441 9.73948 80.6428 9.88615 80.9655C10.0475 81.2735 10.2968 81.4788 10.6341 81.5815C10.9861 81.6695 11.4481 81.7135 12.0201 81.7135H14.8361V85.1015C14.5281 85.2188 14.0735 85.3215 13.4721 85.4095C12.8855 85.5121 12.1008 85.5635 11.1181 85.5635ZM28.6807 85.8275C26.51 85.8275 24.618 85.3655 23.0047 84.4415C21.3913 83.5028 20.1373 82.1608 19.2427 80.4155C18.3627 78.6701 17.9227 76.5728 17.9227 74.1235C17.9227 71.7475 18.3553 69.6648 19.2207 67.8754C20.086 66.0861 21.318 64.6928 22.9167 63.6954C24.53 62.6981 26.4587 62.1995 28.7027 62.1995C30.8733 62.1995 32.758 62.6761 34.3567 63.6295C35.9553 64.5828 37.1873 65.9468 38.0527 67.7215C38.9327 69.4961 39.3727 71.6301 39.3727 74.1235C39.3727 76.4261 38.9547 78.4575 38.1187 80.2175C37.2973 81.9628 36.0873 83.3341 34.4887 84.3315C32.9047 85.3288 30.9687 85.8275 28.6807 85.8275ZM28.7027 81.7575C29.9347 81.7575 30.9467 81.4201 31.7387 80.7455C32.5453 80.0708 33.1467 79.1468 33.5427 77.9735C33.9387 76.8001 34.1367 75.4655 34.1367 73.9694C34.1367 72.5761 33.9607 71.2928 33.6087 70.1195C33.2567 68.9461 32.6773 68.0075 31.8707 67.3035C31.0787 66.5848 30.0227 66.2255 28.7027 66.2255C27.456 66.2255 26.422 66.5555 25.6007 67.2155C24.794 67.8608 24.1927 68.7701 23.7967 69.9435C23.4007 71.1021 23.2027 72.4441 23.2027 73.9694C23.2027 75.3481 23.3787 76.6315 23.7307 77.8195C24.0827 78.9928 24.662 79.9461 25.4687 80.6795C26.2753 81.3981 27.3533 81.7575 28.7027 81.7575ZM54.3241 85.3875V52.6954H59.6481V72.9575L69.0861 62.6395H74.9601L66.7321 71.5274L75.3781 85.3875H69.9441L63.3441 74.8495L59.6481 78.7215V85.3875H54.3241ZM88.4406 85.8275C86.2553 85.8275 84.3266 85.3655 82.6546 84.4415C80.9973 83.5028 79.6993 82.1681 78.7606 80.4375C77.8366 78.7068 77.3746 76.6461 77.3746 74.2555C77.3746 71.9235 77.7926 69.8555 78.6286 68.0515C79.4793 66.2328 80.7039 64.8028 82.3026 63.7615C83.9159 62.7201 85.8593 62.1995 88.1326 62.1995C90.3766 62.1995 92.2613 62.6761 93.7866 63.6295C95.3119 64.5828 96.4706 65.9175 97.2626 67.6335C98.0546 69.3348 98.4506 71.3295 98.4506 73.6175V75.2455H82.7206C82.7059 76.5361 82.9113 77.6801 83.3366 78.6775C83.7619 79.6748 84.3926 80.4595 85.2286 81.0315C86.0646 81.5888 87.0986 81.8675 88.3306 81.8675C89.5919 81.8675 90.6846 81.5888 91.6086 81.0315C92.5473 80.4595 93.1706 79.5941 93.4786 78.4355H98.3626C98.0986 80.0195 97.4679 81.3615 96.4706 82.4615C95.4879 83.5615 94.2853 84.3975 92.8626 84.9695C91.4546 85.5415 89.9806 85.8275 88.4406 85.8275ZM82.6986 71.9235H93.3906C93.3906 70.8235 93.1926 69.8335 92.7966 68.9535C92.4153 68.0588 91.8359 67.3548 91.0586 66.8414C90.2813 66.3134 89.2986 66.0494 88.1106 66.0494C86.9373 66.0494 85.9473 66.3354 85.1406 66.9075C84.3339 67.4795 83.7253 68.2201 83.3146 69.1295C82.9039 70.0241 82.6986 70.9555 82.6986 71.9235ZM112.192 85.8275C110.608 85.8275 109.105 85.5781 107.682 85.0795C106.274 84.5661 105.086 83.7668 104.118 82.6815C103.165 81.5961 102.564 80.1955 102.314 78.4795H107.022C107.228 79.3155 107.587 79.9975 108.1 80.5255C108.628 81.0535 109.244 81.4421 109.948 81.6915C110.667 81.9261 111.408 82.0435 112.17 82.0435C113.534 82.0435 114.634 81.8088 115.47 81.3395C116.306 80.8701 116.724 80.1441 116.724 79.1615C116.724 78.4428 116.49 77.8708 116.02 77.4455C115.566 77.0201 114.818 76.6975 113.776 76.4775L109.464 75.4875C107.528 75.0621 105.981 74.3581 104.822 73.3755C103.664 72.3928 103.077 71.0068 103.062 69.2175C103.048 67.8681 103.385 66.6655 104.074 65.6095C104.764 64.5534 105.79 63.7248 107.154 63.1234C108.518 62.5075 110.198 62.1995 112.192 62.1995C114.847 62.1995 116.974 62.7935 118.572 63.9815C120.186 65.1548 121.014 66.8341 121.058 69.0195H116.504C116.343 68.0368 115.881 67.2741 115.118 66.7315C114.356 66.1741 113.366 65.8955 112.148 65.8955C110.887 65.8955 109.853 66.1375 109.046 66.6215C108.24 67.1055 107.836 67.8461 107.836 68.8435C107.836 69.5328 108.137 70.0755 108.738 70.4715C109.354 70.8675 110.286 71.2048 111.532 71.4835L115.624 72.4735C116.798 72.7668 117.758 73.1628 118.506 73.6615C119.254 74.1601 119.834 74.7101 120.244 75.3115C120.67 75.8981 120.963 76.5068 121.124 77.1375C121.3 77.7535 121.388 78.3255 121.388 78.8535C121.388 80.3201 121.007 81.5741 120.244 82.6155C119.496 83.6421 118.433 84.4341 117.054 84.9915C115.69 85.5488 114.07 85.8275 112.192 85.8275ZM135.126 85.5635C133.322 85.5635 131.921 85.3288 130.924 84.8595C129.941 84.3755 129.259 83.6935 128.878 82.8135C128.497 81.9335 128.306 80.8848 128.306 79.6675V66.4235H124.61V62.6395H128.46L129.802 55.8854H133.652V62.6174H138.734V66.4235H133.652L133.674 79.4695C133.674 80.1441 133.747 80.6428 133.894 80.9655C134.055 81.2735 134.305 81.4788 134.642 81.5815C134.994 81.6695 135.456 81.7135 136.028 81.7135H138.844V85.1015C138.536 85.2188 138.081 85.3215 137.48 85.4095C136.893 85.5121 136.109 85.5635 135.126 85.5635ZM143.785 85.3875V62.6395H148.911V67.5674C149.278 66.4381 149.798 65.4775 150.473 64.6855C151.162 63.8788 151.969 63.2628 152.893 62.8374C153.817 62.4121 154.822 62.1995 155.907 62.1995C156.171 62.1995 156.428 62.2141 156.677 62.2435C156.926 62.2728 157.11 62.3241 157.227 62.3974V67.5235C157.066 67.4501 156.853 67.3988 156.589 67.3694C156.34 67.3401 156.12 67.3255 155.929 67.3255C154.829 67.2375 153.854 67.2815 153.003 67.4574C152.167 67.6335 151.456 67.9341 150.869 68.3595C150.297 68.7701 149.864 69.2981 149.571 69.9435C149.278 70.5741 149.131 71.3148 149.131 72.1655V85.3875H143.785ZM167.422 85.8275C165.97 85.8275 164.664 85.5635 163.506 85.0355C162.362 84.4928 161.46 83.7228 160.8 82.7255C160.154 81.7135 159.832 80.4888 159.832 79.0515C159.832 76.5435 160.734 74.6515 162.538 73.3755C164.356 72.0995 167.246 71.4321 171.206 71.3735L174.616 71.2855V69.7455C174.616 68.5428 174.256 67.6041 173.538 66.9295C172.834 66.2401 171.734 65.9028 170.238 65.9175C169.123 65.9321 168.111 66.1961 167.202 66.7095C166.292 67.2081 165.691 68.0515 165.398 69.2395H160.844C160.932 67.6848 161.379 66.3868 162.186 65.3454C163.007 64.2895 164.129 63.5048 165.552 62.9915C166.974 62.4635 168.617 62.1995 170.48 62.1995C172.65 62.1995 174.418 62.4855 175.782 63.0574C177.146 63.6294 178.15 64.4581 178.796 65.5434C179.441 66.6141 179.764 67.9121 179.764 69.4375V85.3875H175.254L174.814 81.2955C174.007 83.0115 172.973 84.1995 171.712 84.8595C170.465 85.5048 169.035 85.8275 167.422 85.8275ZM169.16 82.1975C169.82 82.1975 170.472 82.0801 171.118 81.8455C171.763 81.5961 172.342 81.2661 172.856 80.8555C173.384 80.4301 173.802 79.9608 174.11 79.4475C174.432 78.9341 174.601 78.3988 174.616 77.8415V74.2555L171.822 74.2995C170.443 74.3141 169.233 74.4608 168.192 74.7395C167.165 75.0181 166.366 75.4655 165.794 76.0815C165.222 76.6828 164.936 77.4895 164.936 78.5015C164.936 79.6601 165.339 80.5695 166.146 81.2295C166.952 81.8748 167.957 82.1975 169.16 82.1975Z" fill="black"/>
<path d="M184.717 85.3875V79.2275H190.767V85.3875H184.717Z" fill="#FD7278"/>
</svg>
