<svg width="140" height="141" viewBox="0 0 140 141" fill="none" xmlns="http://www.w3.org/2000/svg">
<rect x="25.5" y="19" width="54" height="78" rx="2.5" stroke="#A626E2"/>
<rect x="41.5" y="31" width="54" height="78" rx="2.5" fill="white" stroke="#FD3C97"/>
<path d="M99.3201 25.498C99.4539 26.3215 98.2706 26.6119 98.008 25.82L97.2678 23.5875C97.1161 23.1302 96.5492 22.9728 96.1835 23.2864L94.245 24.9486C93.6178 25.4865 92.7567 24.6468 93.2786 24.0062L95.0468 21.8357C95.331 21.4868 95.2025 20.9629 94.789 20.7852L92.217 19.6796C91.4578 19.3533 91.8325 18.2105 92.6375 18.3969L95.1251 18.9731C95.5945 19.0818 96.0241 18.6798 95.9469 18.2043L95.5698 15.8827C95.436 15.0592 96.6192 14.7689 96.8818 15.5608L97.6221 17.7933C97.7737 18.2505 98.3407 18.408 98.7064 18.0944L100.645 16.4322C101.272 15.8943 102.133 16.7339 101.611 17.3746L99.843 19.5451C99.5588 19.894 99.6874 20.4179 100.101 20.5956L102.673 21.7011C103.432 22.0275 103.057 23.1703 102.252 22.9838L99.7647 22.4077C99.2954 22.2989 98.8657 22.7009 98.9429 23.1765L99.3201 25.498Z" fill="#FCD3A3"/>
<path d="M34.1475 121.558C34.2599 121.864 34.6922 121.864 34.8046 121.558L35.8916 118.599C35.927 118.503 36.003 118.427 36.0994 118.392L39.058 117.305C39.3637 117.192 39.3637 116.76 39.058 116.648L36.0994 115.561C36.003 115.525 35.927 115.449 35.8916 115.353L34.8046 112.394C34.6922 112.088 34.2599 112.088 34.1475 112.394L33.0605 115.353C33.025 115.449 32.9491 115.525 32.8527 115.561L29.8941 116.648C29.5884 116.76 29.5884 117.192 29.8941 117.305L32.8527 118.392C32.9491 118.427 33.025 118.503 33.0605 118.599L34.1475 121.558Z" fill="#26CCE2"/>
<path d="M25 99C25 100.933 23.433 102.5 21.5 102.5C19.567 102.5 18 100.933 18 99C18 97.067 19.567 95.5 21.5 95.5C23.433 95.5 25 97.067 25 99ZM19.9232 99C19.9232 99.8708 20.6292 100.577 21.5 100.577C22.3708 100.577 23.0768 99.8708 23.0768 99C23.0768 98.1292 22.3708 97.4232 21.5 97.4232C20.6292 97.4232 19.9232 98.1292 19.9232 99Z" fill="#1761FD"/>
<mask id="path-6-inside-1_298_2386" fill="white">
<path fill-rule="evenodd" clip-rule="evenodd" d="M99.5294 42.5H63C61.3431 42.5 60 43.8431 60 45.5V118.5C60 120.157 61.3431 121.5 63 121.5H112C113.657 121.5 115 120.157 115 118.5V55.65L99.5294 42.5Z"/>
</mask>
<path fill-rule="evenodd" clip-rule="evenodd" d="M99.5294 42.5H63C61.3431 42.5 60 43.8431 60 45.5V118.5C60 120.157 61.3431 121.5 63 121.5H112C113.657 121.5 115 120.157 115 118.5V55.65L99.5294 42.5Z" fill="white"/>
<path d="M99.5294 42.5L100.177 41.7381L99.897 41.5H99.5294V42.5ZM115 55.65H116V55.1876L115.648 54.8881L115 55.65ZM63 43.5H99.5294V41.5H63V43.5ZM61 45.5C61 44.3954 61.8954 43.5 63 43.5V41.5C60.7909 41.5 59 43.2909 59 45.5H61ZM61 118.5V45.5H59V118.5H61ZM63 120.5C61.8954 120.5 61 119.605 61 118.5H59C59 120.709 60.7909 122.5 63 122.5V120.5ZM112 120.5H63V122.5H112V120.5ZM114 118.5C114 119.605 113.105 120.5 112 120.5V122.5C114.209 122.5 116 120.709 116 118.5H114ZM114 55.65V118.5H116V55.65H114ZM115.648 54.8881L100.177 41.7381L98.8818 43.2619L114.352 56.4119L115.648 54.8881Z" fill="#2267F9" mask="url(#path-6-inside-1_298_2386)"/>
<line x1="73" y1="78" x2="100" y2="78" stroke="#1761FD"/>
<line x1="73" y1="83" x2="88" y2="83" stroke="#1761FD"/>
<line x1="73" y1="73" x2="100" y2="73" stroke="#1761FD"/>
<line x1="73" y1="68" x2="100" y2="68" stroke="#1761FD"/>
<line x1="73" y1="63" x2="100" y2="63" stroke="#1761FD"/>
<path d="M78.496 100.716L84.176 103.052L83.76 104.284L76.848 101.356V100.076L83.76 97.148L84.176 98.38L78.496 100.716ZM86.1673 108.46H84.6472L90.0713 92.972H91.5593L86.1673 108.46ZM92.0199 98.38L92.4359 97.148L99.3479 100.076V101.356L92.4359 104.284L92.0199 103.052L97.6999 100.716L92.0199 98.38Z" fill="#1761FD"/>
<path d="M114.034 55.7526L99.6644 42.9794C99.0195 42.4062 98 42.864 98 43.7268V56.5C98 57.0523 98.4477 57.5 99 57.5H113.37C114.289 57.5 114.721 56.3635 114.034 55.7526Z" fill="#2267F9"/>
<circle cx="32" cy="31.5" r="2" fill="#8934DD"/>
<circle cx="32" cy="38.5" r="2" fill="#E0562A"/>
<circle cx="32" cy="24.5" r="2" fill="#5DCA75"/>
<path fill-rule="evenodd" clip-rule="evenodd" d="M115.5 32.5C119.09 32.5 122 29.5899 122 26C122 22.4101 119.09 19.5 115.5 19.5C111.91 19.5 109 22.4101 109 26C109 29.5899 111.91 32.5 115.5 32.5ZM112.81 28.9138C113.677 28.9138 114.379 28.2113 114.379 27.3448C114.379 26.4783 113.677 25.7759 112.81 25.7759C111.944 25.7759 111.241 26.4783 111.241 27.3448C111.241 28.2113 111.944 28.9138 112.81 28.9138Z" fill="#26CCE2"/>
</svg>
