<svg width="140" height="141" viewBox="0 0 140 141" fill="none" xmlns="http://www.w3.org/2000/svg">
<rect x="29.0273" y="37.3818" width="82.1818" height="51.1273" rx="3.5" fill="#FAFAFF" stroke="#C8C6DE" stroke-dasharray="2 2"/>
<rect x="22.4273" y="29.6727" width="96.4909" height="65.4364" rx="2.77273" stroke="#3475FD" stroke-width="1.10909"/>
<rect x="56.2546" y="49.0818" width="28.8364" height="28.8364" rx="14.4182" fill="#1761FD"/>
<path d="M78 63.5L66 70.4282L66 56.5718L78 63.5Z" fill="#E8E7F5"/>
<path d="M65.4823 25.7887C65.6307 26.7021 64.3184 27.0241 64.0271 26.1458L63.2061 23.6697C63.0379 23.1626 62.4091 22.988 62.0035 23.3358L59.8536 25.1793C59.1579 25.7759 58.2029 24.8447 58.7817 24.1341L60.7429 21.7268C61.0581 21.3399 60.9155 20.7588 60.457 20.5617L57.6043 19.3356C56.7623 18.9737 57.1779 17.7061 58.0707 17.9129L60.8297 18.552C61.3503 18.6725 61.8268 18.2267 61.7411 17.6993L61.3229 15.1245C61.1745 14.2111 62.4868 13.8891 62.778 14.7674L63.5991 17.2434C63.7673 17.7506 64.396 17.9252 64.8016 17.5774L66.9516 15.7339C67.6473 15.1373 68.6023 16.0685 68.0234 16.779L66.0623 19.1863C65.7471 19.5733 65.8897 20.1544 66.3482 20.3515L69.2009 21.5776C70.0428 21.9395 69.6273 23.207 68.7345 23.0002L65.9754 22.3612C65.4549 22.2406 64.9784 22.6865 65.064 23.2139L65.4823 25.7887Z" fill="#A626E2"/>
<path d="M122.964 25.8553C123.088 26.1943 123.568 26.1943 123.692 25.8553L124.898 22.574C124.937 22.4671 125.022 22.3828 125.129 22.3435L128.41 21.1379C128.749 21.0133 128.749 20.5337 128.41 20.4091L125.129 19.2035C125.022 19.1642 124.937 19.0799 124.898 18.973L123.692 15.6917C123.568 15.3526 123.088 15.3526 122.964 15.6917L121.758 18.973C121.719 19.0799 121.635 19.1642 121.528 19.2035L118.246 20.4091C117.907 20.5337 117.907 21.0133 118.246 21.1379L121.528 22.3435C121.635 22.3828 121.719 22.4671 121.758 22.574L122.964 25.8553Z" fill="#26CCE2"/>
<path d="M27.0908 94.1091C27.0908 96.253 25.3528 97.9909 23.209 97.9909C21.0651 97.9909 19.3271 96.253 19.3271 94.1091C19.3271 91.9652 21.0651 90.2273 23.209 90.2273C25.3528 90.2273 27.0908 91.9652 27.0908 94.1091ZM21.4602 94.1091C21.4602 95.0749 22.2431 95.8579 23.209 95.8579C24.1748 95.8579 24.9578 95.0749 24.9578 94.1091C24.9578 93.1433 24.1748 92.3603 23.209 92.3603C22.2431 92.3603 21.4602 93.1433 21.4602 94.1091Z" fill="#26CCE2"/>
<path fill-rule="evenodd" clip-rule="evenodd" d="M37.2686 36.1187C34.5026 35.3776 32.8612 32.5345 33.6023 29.7685C34.3435 27.0026 37.1865 25.3611 39.9525 26.1023C42.7184 26.8434 44.3599 29.6865 43.6187 32.4524C42.8776 35.2184 40.0345 36.8598 37.2686 36.1187ZM40.3656 34.0315C39.6979 33.8526 39.3017 33.1663 39.4806 32.4987C39.6595 31.8311 40.3457 31.4348 41.0134 31.6137C41.681 31.7926 42.0772 32.4789 41.8983 33.1465C41.7195 33.8142 41.0332 34.2104 40.3656 34.0315Z" fill="#1761FD"/>
<rect x="31.2454" y="106.146" width="33.3818" height="17.8545" rx="3.93636" stroke="#FD3C97"/>
<path d="M47.3818 104.915C47.3818 103.621 48.1582 101.033 51.2637 101.033C54.3691 101.033 84.1667 101.033 100.064 101.033C105.609 101.033 110.698 102.726 110.045 109.906C109.491 116.006 103.021 117.485 100.064 117.115C96.5515 117.115 90.6364 115.008 90.6364 106.579C90.6364 98.1495 90.6364 95.4876 90.6364 95.6724" stroke="#1761FD" stroke-width="2.21818" stroke-linecap="round"/>
<rect x="103" y="86" width="26" height="13" rx="1.625" fill="#26CCE2"/>
<path d="M110.549 92.5308L114.074 93.9807L113.816 94.7453L109.526 92.9281V92.1336L113.816 90.3164L114.074 91.081L110.549 92.5308ZM115.31 97.3371H114.367L117.733 87.7246H118.657L115.31 97.3371ZM118.943 91.081L119.201 90.3164L123.491 92.1336V92.9281L119.201 94.7453L118.943 93.9807L122.468 92.5308L118.943 91.081Z" fill="white"/>
</svg>
