<svg width="125" height="125" viewBox="0 0 125 125" fill="none" xmlns="http://www.w3.org/2000/svg">
    <rect x="22.4036" y="16.2536" width="47.4429" height="68.5286" rx="2.19643" stroke="#A626E2" stroke-width="0.878571"/>
    <rect x="36.4608" y="26.7964" width="47.4429" height="68.5286" rx="2.19643" fill="#191B26" stroke="#FCD3A3" stroke-width="0.878571"/>
    <path d="M87.2598 21.9625C87.3774 22.686 86.3378 22.9411 86.1071 22.2454L85.4567 20.284C85.3235 19.8822 84.8254 19.7439 84.5041 20.0194L82.801 21.4798C82.2499 21.9524 81.4934 21.2147 81.9519 20.6518L83.5055 18.7449C83.7552 18.4384 83.6422 17.978 83.279 17.8219L81.0192 16.8506C80.3523 16.5639 80.6814 15.5599 81.3887 15.7237L83.5743 16.2299C83.9866 16.3254 84.3641 15.9722 84.2962 15.5545L83.9649 13.5148C83.8474 12.7913 84.8869 12.5362 85.1176 13.2319L85.768 15.1933C85.9012 15.5951 86.3993 15.7334 86.7206 15.4579L88.4237 13.9975C88.9748 13.5249 89.7313 14.2626 89.2728 14.8255L87.7193 16.7324C87.4696 17.0389 87.5825 17.4992 87.9458 17.6554L90.2055 18.6267C90.8725 18.9134 90.5433 19.9174 89.8361 19.7536L87.6505 19.2474C87.2381 19.1519 86.8606 19.5051 86.9285 19.9228L87.2598 21.9625Z" fill="#FCD3A3"/>
    <path d="M30.001 106.358C30.0997 106.627 30.4796 106.627 30.5782 106.358L31.5333 103.759C31.5644 103.674 31.6312 103.607 31.7159 103.576L34.3152 102.621C34.5838 102.522 34.5838 102.143 34.3152 102.044L31.7159 101.089C31.6312 101.058 31.5644 100.991 31.5333 100.906L30.5782 98.307C30.4796 98.0384 30.0997 98.0384 30.001 98.307L29.0459 100.906C29.0148 100.991 28.9481 101.058 28.8633 101.089L26.2641 102.044C25.9955 102.143 25.9955 102.522 26.2641 102.621L28.8633 103.576C28.9481 103.607 29.0148 103.674 29.0459 103.759L30.001 106.358Z" fill="#26CCE2"/>
    <path d="M25.4786 83.9036C25.4786 85.6019 24.1019 86.9786 22.4036 86.9786C20.7053 86.9786 19.3286 85.6019 19.3286 83.9036C19.3286 82.2053 20.7053 80.8286 22.4036 80.8286C24.1019 80.8286 25.4786 82.2053 25.4786 83.9036ZM21.0183 83.9036C21.0183 84.6687 21.6385 85.2889 22.4036 85.2889C23.1687 85.2889 23.7889 84.6687 23.7889 83.9036C23.7889 83.1385 23.1687 82.5183 22.4036 82.5183C21.6385 82.5183 21.0183 83.1385 21.0183 83.9036Z" fill="#D9D9D9"/>
    <mask id="path-6-inside-1_309_299" fill="white">
        <path fill-rule="evenodd" clip-rule="evenodd" d="M87.4438 36.9H55.3501C53.8944 36.9 52.7144 38.08 52.7144 39.5357V103.671C52.7144 105.127 53.8944 106.307 55.3501 106.307H98.4001C99.8557 106.307 101.036 105.127 101.036 103.671V48.4532L87.4438 36.9Z"/>
    </mask>
    <path fill-rule="evenodd" clip-rule="evenodd" d="M87.4438 36.9H55.3501C53.8944 36.9 52.7144 38.08 52.7144 39.5357V103.671C52.7144 105.127 53.8944 106.307 55.3501 106.307H98.4001C99.8557 106.307 101.036 105.127 101.036 103.671V48.4532L87.4438 36.9Z" fill="#161822"/>
    <path d="M87.4438 36.9L88.0128 36.2306L87.7667 36.0214H87.4438V36.9ZM101.036 48.4532H101.914V48.0469L101.605 47.7838L101.036 48.4532ZM55.3501 37.7786H87.4438V36.0214H55.3501V37.7786ZM53.5929 39.5357C53.5929 38.5653 54.3796 37.7786 55.3501 37.7786V36.0214C53.4092 36.0214 51.8358 37.5948 51.8358 39.5357H53.5929ZM53.5929 103.671V39.5357H51.8358V103.671H53.5929ZM55.3501 105.429C54.3796 105.429 53.5929 104.642 53.5929 103.671H51.8358C51.8358 105.612 53.4092 107.186 55.3501 107.186V105.429ZM98.4001 105.429H55.3501V107.186H98.4001V105.429ZM100.157 103.671C100.157 104.642 99.3705 105.429 98.4001 105.429V107.186C100.341 107.186 101.914 105.612 101.914 103.671H100.157ZM100.157 48.4532V103.671H101.914V48.4532H100.157ZM101.605 47.7838L88.0128 36.2306L86.8748 37.5694L100.467 49.1226L101.605 47.7838Z" fill="#C0D2F7" mask="url(#path-6-inside-1_309_299)"/>
    <line x1="64.1357" y1="68.0893" x2="87.8572" y2="68.0893" stroke="#C0D2F7" stroke-width="0.878571"/>
    <line x1="64.1357" y1="72.4821" x2="77.3143" y2="72.4821" stroke="#C0D2F7" stroke-width="0.878571"/>
    <line x1="64.1357" y1="63.6964" x2="87.8572" y2="63.6964" stroke="#C0D2F7" stroke-width="0.878571"/>
    <line x1="64.1357" y1="59.3036" x2="87.8572" y2="59.3036" stroke="#C0D2F7" stroke-width="0.878571"/>
    <line x1="64.1357" y1="54.9107" x2="87.8572" y2="54.9107" stroke="#C0D2F7" stroke-width="0.878571"/>
    <path d="M68.9644 88.2326L73.9547 90.285L73.5892 91.3674L67.5165 88.7949V87.6703L73.5892 85.0979L73.9547 86.1803L68.9644 88.2326ZM75.7041 95.0363H74.3687L79.1341 81.429H80.4414L75.7041 95.0363ZM80.8461 86.1803L81.2116 85.0979L87.2843 87.6703V88.7949L81.2116 91.3674L80.8461 90.285L85.8364 88.2326L80.8461 86.1803Z" fill="#FCFDD4"/>
    <path d="M100.187 48.5433L87.5624 37.3212C86.9958 36.8176 86.1001 37.2198 86.1001 37.9779V49.2C86.1001 49.6852 86.4934 50.0786 86.9787 50.0786H99.6036C100.411 50.0786 100.791 49.0801 100.187 48.5433Z" fill="#C0D2F7"/>
    <circle cx="28.1143" cy="27.2357" r="1.75714" fill="#8934DD"/>
    <circle cx="28.1143" cy="33.3857" r="1.75714" fill="#E0562A"/>
    <circle cx="28.1143" cy="21.0857" r="1.75714" fill="#5DCA75"/>
    <path fill-rule="evenodd" clip-rule="evenodd" d="M101.475 28.1143C104.629 28.1143 107.186 25.5575 107.186 22.4036C107.186 19.2496 104.629 16.6929 101.475 16.6929C98.3212 16.6929 95.7644 19.2496 95.7644 22.4036C95.7644 25.5575 98.3212 28.1143 101.475 28.1143ZM99.1121 24.9635C99.8734 24.9635 100.491 24.3464 100.491 23.5851C100.491 22.8238 99.8734 22.2067 99.1121 22.2067C98.3508 22.2067 97.7336 22.8238 97.7336 23.5851C97.7336 24.3464 98.3508 24.9635 99.1121 24.9635Z" fill="#26CCE2"/>
</svg>
