<svg width="126" height="125" viewBox="0 0 126 125" fill="none" xmlns="http://www.w3.org/2000/svg">
    <path d="M64.8143 24.058C64.9266 24.3637 65.359 24.3637 65.4713 24.058L66.5584 21.0994C66.5938 21.003 66.6698 20.927 66.7662 20.8916L69.7247 19.8046C70.0304 19.6922 70.0304 19.2598 69.7247 19.1475L66.7662 18.0605C66.6698 18.025 66.5938 17.9491 66.5584 17.8526L65.4713 14.8941C65.359 14.5884 64.9266 14.5884 64.8143 14.8941L63.7272 17.8526C63.6918 17.9491 63.6158 18.025 63.5194 18.0605L60.5609 19.1475C60.2551 19.2598 60.2551 19.6922 60.5609 19.8046L63.5194 20.8916C63.6158 20.927 63.6918 21.003 63.7272 21.0994L64.8143 24.058Z" fill="#CFB1FF"/>
    <path d="M43.9868 102.998C44.1206 103.821 42.9374 104.112 42.6748 103.32L41.9345 101.087C41.7829 100.63 41.2159 100.473 40.8502 100.786L38.9118 102.449C38.2845 102.986 37.4234 102.147 37.9453 101.506L39.7135 99.3356C39.9978 98.9867 39.8692 98.4628 39.4558 98.2851L36.8837 97.1796C36.1246 96.8533 36.4992 95.7104 37.3042 95.8969L39.7919 96.4731C40.2612 96.5818 40.6909 96.1798 40.6136 95.7043L40.2365 93.3827C40.1027 92.5592 41.2859 92.2688 41.5485 93.0607L42.2888 95.2932C42.4405 95.7505 43.0074 95.9079 43.3731 95.5943L45.3116 93.9321C45.9388 93.3942 46.7999 94.2339 46.278 94.8745L44.5098 97.045C44.2256 97.3939 44.3541 97.9178 44.7676 98.0955L47.3396 99.2011C48.0988 99.5274 47.7241 100.67 46.9191 100.484L44.4314 99.9076C43.9621 99.7989 43.5325 100.201 43.6097 100.676L43.9868 102.998Z" fill="#FCD3A3"/>
    <g clip-path="url(#clip0_309_350)">
        <path d="M62.0919 103.898C62.0919 105.622 60.6982 107.016 58.9738 107.016C57.2494 107.016 55.8557 105.622 55.8557 103.898C55.8557 102.173 57.2494 100.78 58.9738 100.78H62.0919V103.898ZM63.651 103.898C63.651 102.173 65.0447 100.78 66.7691 100.78C68.4935 100.78 69.8872 102.173 69.8872 103.898V111.693C69.8872 113.417 68.4935 114.811 66.7691 114.811C65.0447 114.811 63.651 113.417 63.651 111.693V103.898Z" fill="#C0D2F7"/>
        <path d="M66.769 91.378C65.0446 91.378 63.6509 89.9843 63.6509 88.2598C63.6509 86.5354 65.0446 85.1417 66.769 85.1417C68.4934 85.1417 69.8871 86.5354 69.8871 88.2598V91.378H66.769ZM66.769 92.9606C68.4934 92.9606 69.8871 94.3543 69.8871 96.0787C69.8871 97.8032 68.4934 99.1968 66.769 99.1968H58.9501C57.2257 99.1968 55.832 97.8032 55.832 96.0787C55.832 94.3543 57.2257 92.9606 58.9501 92.9606H66.769Z" fill="#C0D2F7"/>
        <path d="M79.2652 96.0787C79.2652 94.3543 80.6589 92.9606 82.3834 92.9606C84.1078 92.9606 85.5015 94.3543 85.5015 96.0787C85.5015 97.8032 84.1078 99.1968 82.3834 99.1968H79.2652V96.0787ZM77.7062 96.0787C77.7062 97.8032 76.3125 99.1968 74.5881 99.1968C72.8637 99.1968 71.47 97.8032 71.47 96.0787V88.2598C71.47 86.5354 72.8637 85.1417 74.5881 85.1417C76.3125 85.1417 77.7062 86.5354 77.7062 88.2598V96.0787Z" fill="#C0D2F7"/>
        <path d="M74.5881 108.575C76.3125 108.575 77.7062 109.969 77.7062 111.693C77.7062 113.417 76.3125 114.811 74.5881 114.811C72.8637 114.811 71.47 113.417 71.47 111.693V108.575H74.5881ZM74.5881 107.016C72.8637 107.016 71.47 105.622 71.47 103.898C71.47 102.173 72.8637 100.78 74.5881 100.78H82.407C84.1314 100.78 85.5251 102.173 85.5251 103.898C85.5251 105.622 84.1314 107.016 82.407 107.016H74.5881Z" fill="#C0D2F7"/>
    </g>
    <path fill-rule="evenodd" clip-rule="evenodd" d="M20.6667 54.5C20.6667 42.1611 32.8824 32 48.1667 32C63.4511 32 75.6667 42.1611 75.6667 54.5C75.6667 63.2951 69.48 70.9689 60.3691 74.6679L60.0669 74.7906L60.0574 75.1167L59.8118 83.5856C59.7995 84.0086 59.3001 84.2261 58.9821 83.9469L51.0997 77.0262L50.9417 76.8875L50.7321 76.9034C49.8875 76.9673 49.0319 77 48.1667 77C32.8824 77 20.6667 66.8389 20.6667 54.5ZM48.1667 31C32.5231 31 19.6667 41.4338 19.6667 54.5C19.6667 67.5662 32.5231 78 48.1667 78C48.9854 78 49.796 77.9715 50.5973 77.9158L58.3223 84.6983C59.2763 85.5359 60.7746 84.8836 60.8114 83.6146L61.0476 75.4699C70.2721 71.6113 76.6667 63.7012 76.6667 54.5C76.6667 41.4338 63.8104 31 48.1667 31ZM35.1667 55.5H62.1667V53.5H35.1667V55.5ZM50.1667 60.5H35.1667V58.5H50.1667V60.5ZM35.1667 50.5H62.1667V48.5H35.1667V50.5Z" fill="#FCD3A3"/>
    <path d="M97.3184 86.2587L93.2917 91.2283L96.167 93.8097L90.5722 100.166" stroke="#A626E2" stroke-width="1.27819" stroke-linecap="round"/>
    <path d="M101.144 86L97.1177 90.9696L99.9929 93.551L94.3981 99.9078" stroke="#A626E2" stroke-width="1.27819" stroke-linecap="round"/>
    <path fill-rule="evenodd" clip-rule="evenodd" d="M78.799 71.2866C70.3686 65.8117 65.8066 55.4855 68.1458 45.1057C71.1482 31.7835 84.3818 23.4176 97.704 26.4199C111.026 29.4222 119.392 42.6559 116.39 55.9781C113.424 69.1391 100.472 77.4631 87.3149 74.7678L78.8934 79.356C78.1502 79.7609 77.2714 79.1171 77.4335 78.2864L78.799 71.2866Z" fill="#202331"/>
    <path d="M78.799 71.2866L79.0713 70.8673L79.3544 71.0511L79.2898 71.3824L78.799 71.2866ZM87.3149 74.7678L87.0756 74.3287L87.2361 74.2413L87.4152 74.2779L87.3149 74.7678ZM78.8934 79.356L79.1326 79.795L78.8934 79.356ZM77.4335 78.2864L77.9242 78.3821L77.9242 78.3821L77.4335 78.2864ZM68.6336 45.2156C66.3418 55.3848 70.8107 65.5026 79.0713 70.8673L78.5267 71.706C69.9264 66.1207 65.2713 55.5863 67.6581 44.9957L68.6336 45.2156ZM97.5941 26.9077C84.5412 23.966 71.5752 32.1628 68.6336 45.2156L67.6581 44.9957C70.7211 31.4042 84.2223 22.8691 97.8139 25.9321L97.5941 26.9077ZM115.902 55.8681C118.844 42.8153 110.647 29.8493 97.5941 26.9077L97.8139 25.9321C111.405 28.9952 119.941 42.4964 116.877 56.088L115.902 55.8681ZM87.4152 74.2779C100.306 76.9187 112.996 68.763 115.902 55.8681L116.877 56.088C113.851 69.5152 100.638 78.0074 87.2145 75.2576L87.4152 74.2779ZM78.6542 78.9169L87.0756 74.3287L87.5541 75.2068L79.1326 79.795L78.6542 78.9169ZM77.9242 78.3821C77.8432 78.7974 78.2826 79.1194 78.6542 78.9169L79.1326 79.795C78.0178 80.4024 76.6996 79.4367 76.9427 78.1906L77.9242 78.3821ZM79.2898 71.3824L77.9242 78.3821L76.9427 78.1906L78.3083 71.1909L79.2898 71.3824Z" fill="#C0D2F7"/>
    <path d="M79.1627 51.216L84.8427 53.552L84.4267 54.784L77.5147 51.856V50.576L84.4267 47.648L84.8427 48.88L79.1627 51.216ZM90.5371 58.96H89.0171L94.4411 43.472H95.9291L90.5371 58.96ZM100.093 48.88L100.509 47.648L107.421 50.576V51.856L100.509 54.784L100.093 53.552L105.773 51.216L100.093 48.88Z" fill="#1761FD"/>
    <defs>
        <clipPath id="clip0_309_350">
            <rect width="30" height="30" fill="white" transform="translate(55.6667 85)"/>
        </clipPath>
    </defs>
</svg>
