<svg width="140" height="141" viewBox="0 0 140 141" fill="none" xmlns="http://www.w3.org/2000/svg">
<rect x="23.5" y="34" width="96" height="78" rx="2.5" fill="#E8E7F5" stroke="#A9B5EA"/>
<rect x="26" y="46.5" width="91" height="63" rx="3" fill="#FAFAFF"/>
<rect x="31" y="50.5" width="11" height="4" rx="2" fill="#AEB7E2"/>
<rect x="58" y="119.5" width="11" height="4" rx="2" fill="#DCE0F3"/>
<rect x="107" y="18.5" width="11" height="4" rx="2" fill="#464F79"/>
<rect x="42" y="58.5" width="11" height="4" rx="2" fill="#AEB7E2"/>
<path d="M57 60.5C57 59.3954 57.8954 58.5 59 58.5C60.1046 58.5 61 59.3954 61 60.5C61 61.6046 60.1046 62.5 59 62.5C57.8954 62.5 57 61.6046 57 60.5Z" fill="#A3B3FE"/>
<path d="M99 20.5C99 19.3954 99.8954 18.5 101 18.5C102.105 18.5 103 19.3954 103 20.5C103 21.6046 102.105 22.5 101 22.5C99.8954 22.5 99 21.6046 99 20.5Z" fill="#707BAD"/>
<path d="M45 52.5C45 51.3954 45.8954 50.5 47 50.5H74C75.1046 50.5 76 51.3954 76 52.5C76 53.6046 75.1046 54.5 74 54.5H47C45.8954 54.5 45 53.6046 45 52.5Z" fill="#E5E8F7"/>
<path d="M24 121.5C24 120.395 24.8954 119.5 26 119.5H53C54.1046 119.5 55 120.395 55 121.5C55 122.605 54.1046 123.5 53 123.5H26C24.8954 123.5 24 122.605 24 121.5Z" fill="#AEB7E2"/>
<path d="M31 60.5C31 59.3954 31.8954 58.5 33 58.5H36C37.1046 58.5 38 59.3954 38 60.5C38 61.6046 37.1046 62.5 36 62.5H33C31.8954 62.5 31 61.6046 31 60.5Z" fill="#E5E8F7"/>
<path d="M109.32 50.498C109.454 51.3215 108.271 51.6119 108.008 50.82L107.268 48.5875C107.116 48.1302 106.549 47.9728 106.183 48.2864L104.245 49.9486C103.618 50.4865 102.757 49.6468 103.279 49.0062L105.047 46.8357C105.331 46.4868 105.202 45.9629 104.789 45.7852L102.217 44.6796C101.458 44.3533 101.832 43.2105 102.637 43.3969L105.125 43.9731C105.594 44.0818 106.024 43.6798 105.947 43.2043L105.57 40.8827C105.436 40.0592 106.619 39.7689 106.882 40.5608L107.622 42.7933C107.774 43.2505 108.341 43.408 108.706 43.0944L110.645 41.4322C111.272 40.8943 112.133 41.7339 111.611 42.3746L109.843 44.5451C109.559 44.894 109.687 45.4179 110.101 45.5956L112.673 46.7011C113.432 47.0275 113.057 48.1703 112.252 47.9838L109.765 47.4077C109.295 47.2989 108.866 47.7009 108.943 48.1765L109.32 50.498Z" fill="#1761FD"/>
<path d="M28.1475 28.558C28.2599 28.8637 28.6922 28.8637 28.8046 28.558L29.8916 25.5995C29.927 25.5031 30.003 25.4271 30.0994 25.3917L33.058 24.3046C33.3637 24.1923 33.3637 23.7599 33.058 23.6476L30.0994 22.5605C30.003 22.5251 29.927 22.4491 29.8916 22.3527L28.8046 19.3942C28.6922 19.0885 28.2599 19.0885 28.1475 19.3942L27.0605 22.3527C27.025 22.4491 26.9491 22.5251 26.8527 22.5605L23.8941 23.6476C23.5884 23.7599 23.5884 24.1923 23.8941 24.3046L26.8527 25.3917C26.9491 25.4271 27.025 25.5031 27.0605 25.5995L28.1475 28.558Z" fill="#79C7D1"/>
<path d="M120 123C120 124.933 118.433 126.5 116.5 126.5C114.567 126.5 113 124.933 113 123C113 121.067 114.567 119.5 116.5 119.5C118.433 119.5 120 121.067 120 123ZM114.923 123C114.923 123.871 115.629 124.577 116.5 124.577C117.371 124.577 118.077 123.871 118.077 123C118.077 122.129 117.371 121.423 116.5 121.423C115.629 121.423 114.923 122.129 114.923 123Z" fill="#E8957C"/>
<path d="M59.592 77.22L56.52 83.364H56.104L53.032 77.22H51.496L54.84 83.748H55.592V88.5H57.032V83.748H57.784L61.144 77.22H59.592ZM60.8156 86.292C60.8156 87.124 61.1676 88.66 63.5036 88.66C65.4396 88.66 66.2876 87.524 66.5916 86.308H66.9916L66.7676 87.156V87.54C66.7676 88.148 67.1196 88.5 67.7276 88.5H69.1836V87.284H68.0156V83.908C68.0156 81.812 66.7676 80.388 64.4476 80.388C62.3836 80.388 61.1676 81.572 60.9916 83.38H62.3996C62.5276 82.052 63.3596 81.54 64.4636 81.54C65.8716 81.54 66.5276 82.228 66.5916 83.668L63.4716 83.972C61.5836 84.148 60.8156 85.028 60.8156 86.292ZM62.2236 86.116C62.2236 85.348 62.7356 85.076 63.7116 84.98L66.5916 84.676C66.5916 86.276 65.4556 87.492 63.7276 87.492C62.8156 87.492 62.2236 87.028 62.2236 86.116ZM70.6669 88.5H72.0909V85.06C72.0909 82.98 72.9869 81.604 74.5389 81.604C75.8029 81.604 76.1389 82.324 76.1389 83.86V88.5H77.5629V85.06C77.5629 82.98 78.4589 81.604 80.0109 81.604C81.2749 81.604 81.6109 82.324 81.6109 83.86V88.5H83.0349V83.556C83.0349 81.748 82.2509 80.388 80.5549 80.388C78.8589 80.388 78.0429 81.364 77.7229 82.804H77.4669C77.2749 81.38 76.5389 80.388 75.0829 80.388C73.3869 80.388 72.5709 81.364 72.2509 82.804H71.8509L72.0909 81.844V80.548H70.6669V88.5ZM84.6095 88.5H90.4815V87.284H88.2575V77.54C88.2575 77.012 87.9535 76.74 87.4255 76.74H85.1695V77.956H86.8335V87.284H84.6095V88.5Z" fill="#2267F9"/>
<circle cx="39" cy="39.5" r="2" fill="#8934DD"/>
<circle cx="32" cy="39.5" r="2" fill="#E0562A"/>
<circle cx="46" cy="39.5" r="2" fill="#5DCA75"/>
<path d="M82.6517 105.5L78.625 110.47L81.5003 113.051L75.9054 119.408" stroke="#A626E2" stroke-width="1.27819" stroke-linecap="round"/>
<path d="M87.6517 105.5L83.625 110.47L86.5003 113.051L80.9054 119.408" stroke="#A626E2" stroke-width="1.27819" stroke-linecap="round"/>
</svg>
