<svg width="284" height="127" viewBox="0 0 284 127" fill="none" xmlns="http://www.w3.org/2000/svg">
<g clip-path="url(#clip0_748_7157)">
<mask id="path-1-inside-1_748_7157" fill="white">
<path d="M0.5 8.88745C0.5 4.46917 4.08172 0.887451 8.5 0.887451H276C280.418 0.887451 284 4.46917 284 8.88745V126.887H0.5V8.88745Z"/>
</mask>
<path d="M0.5 8.88745C0.5 4.46917 4.08172 0.887451 8.5 0.887451H276C280.418 0.887451 284 4.46917 284 8.88745V126.887H0.5V8.88745Z" fill="#8C4BFF"/>
<g filter="url(#filter0_f_748_7157)">
<rect width="170.248" height="266.493" transform="matrix(-1 0 0 1 272.374 -29.359)" fill="url(#paint0_linear_748_7157)"/>
</g>
<g filter="url(#filter1_f_748_7157)">
<rect width="170.248" height="266.493" transform="matrix(-1 0 0 1 357.498 3.64111)" fill="url(#paint1_linear_748_7157)"/>
</g>
<circle cx="142.422" cy="64.0212" r="36.8523" stroke="white" stroke-width="0.475306" stroke-dasharray="0.95 0.95"/>
<path d="M183.802 68.6603C183.563 71.354 183.063 74.0547 182.288 76.7279L182.13 76.6804C181.754 77.9774 181.313 79.268 180.806 80.5482C180.299 81.8283 179.736 83.0691 179.122 84.2689L179.268 84.3456C178.003 86.8184 176.521 89.1175 174.856 91.2285L174.727 91.1249C173.028 93.2795 171.137 95.2372 169.091 96.9825L169.198 97.1092C167.115 98.8859 164.872 100.443 162.507 101.765L162.426 101.62C160.056 102.944 157.564 104.03 154.986 104.862L155.037 105.02C152.454 105.854 149.785 106.434 147.071 106.742L147.051 106.577C144.375 106.881 141.654 106.92 138.925 106.679L138.912 106.844C136.232 106.606 133.544 106.099 130.883 105.307L130.929 105.148C129.637 104.764 128.352 104.312 127.078 103.791C125.803 103.27 124.569 102.692 123.375 102.06L123.299 102.207C120.841 100.906 118.557 99.3803 116.462 97.6655L116.565 97.5374C114.432 95.7915 112.497 93.8487 110.775 91.7466L110.648 91.8514C108.901 89.7191 107.372 87.4237 106.078 85.0043L106.223 84.9266C104.932 82.5132 103.876 79.9758 103.07 77.3535L102.913 77.4014C102.109 74.7843 101.555 72.0831 101.265 69.3364L101.428 69.3201C101.144 66.6221 101.116 63.88 101.361 61.1307L101.197 61.1146C101.436 58.4209 101.936 55.7202 102.711 53.047L102.869 53.0945C103.245 51.7975 103.686 50.5069 104.193 49.2267C104.701 47.9466 105.263 46.7058 105.877 45.506L105.731 45.4293C106.996 42.9565 108.478 40.6574 110.143 38.5464L110.272 38.65C111.971 36.4954 113.862 34.5377 115.908 32.7924L115.801 32.6657C117.884 30.889 120.127 29.3316 122.492 28.0101L122.573 28.155C124.943 26.8309 127.436 25.7445 130.013 24.9125L129.962 24.7548C132.545 23.9207 135.214 23.3412 137.928 23.033L137.948 23.1975C140.624 22.8937 143.345 22.8545 146.074 23.0962L146.087 22.9312C148.768 23.1686 151.455 23.6757 154.116 24.4677L154.07 24.6265C155.362 25.011 156.647 25.4628 157.921 25.9839C159.196 26.5049 160.431 27.0832 161.624 27.7147L161.7 27.5682C164.158 28.869 166.443 30.3946 168.537 32.1094L168.434 32.2375C170.567 33.9834 172.502 35.9262 174.225 38.0283L174.351 37.9235C176.098 40.0558 177.627 42.3512 178.921 44.7706L178.776 44.8483C180.067 47.2617 181.123 49.7992 181.929 52.4214L182.086 52.3736C182.89 54.9906 183.445 57.6918 183.734 60.4385L183.571 60.4548C183.855 63.1528 183.883 65.8949 183.639 68.6442L183.802 68.6603Z" stroke="url(#paint2_linear_748_7157)" stroke-width="0.329909" stroke-linejoin="round" stroke-dasharray="7.92 7.92"/>
<g filter="url(#filter2_d_748_7157)">
<path d="M155.422 94.3462C152.876 95.4266 150.163 96.1814 147.333 96.5592L147.311 96.3957C145.945 96.5781 144.552 96.6722 143.137 96.6722C141.722 96.6722 140.329 96.5781 138.963 96.3957L138.941 96.5592C136.111 96.1814 133.398 95.4266 130.852 94.3462L130.917 94.1944C128.332 93.0973 125.921 91.6626 123.736 89.9445L123.634 90.0742C121.432 88.3425 119.459 86.3245 117.77 84.0751L117.902 83.976C116.239 81.7619 114.853 79.3223 113.794 76.7105L113.642 76.7725C112.605 74.2152 111.882 71.4936 111.521 68.6568L111.684 68.6359C111.51 67.2689 111.42 65.875 111.42 64.4597C111.42 63.0444 111.51 61.6505 111.684 60.2835L111.521 60.2626C111.882 57.4258 112.605 54.7042 113.642 52.147L113.794 52.2089C114.853 49.5971 116.239 47.1576 117.902 44.9434L117.77 44.8443C119.459 42.5949 121.432 40.5769 123.634 38.8453L123.736 38.9749C125.921 37.2568 128.332 35.8221 130.917 34.7251L130.852 34.5732C133.398 33.4928 136.111 32.738 138.941 32.3602L138.963 32.5237C140.329 32.3413 141.722 32.2472 143.137 32.2472C144.552 32.2472 145.945 32.3413 147.311 32.5237L147.333 32.3602C150.163 32.738 152.876 33.4928 155.422 34.5732L155.357 34.7251C157.942 35.8221 160.354 37.2568 162.539 38.9749L162.641 38.8453C164.842 40.5769 166.815 42.5949 168.504 44.8443L168.372 44.9434C170.035 47.1576 171.422 49.5971 172.48 52.2089L172.633 52.147C173.669 54.7042 174.392 57.4258 174.754 60.2626L174.59 60.2835C174.764 61.6505 174.854 63.0444 174.854 64.4597C174.854 65.875 174.764 67.269 174.59 68.6359L174.754 68.6568C174.392 71.4936 173.669 74.2152 172.633 76.7725L172.48 76.7105C171.422 79.3224 170.035 81.7619 168.372 83.976L168.504 84.0751C166.815 86.3245 164.842 88.3425 162.641 90.0742L162.539 89.9445C160.354 91.6626 157.942 93.0973 155.357 94.1944L155.422 94.3462Z" stroke="#5F00E8" stroke-width="0.329909" stroke-linejoin="round" stroke-dasharray="7.92 7.92" shape-rendering="crispEdges"/>
</g>
<g filter="url(#filter3_d_748_7157)">
<path d="M126 72.1375C126 73.5961 125.421 74.9951 124.389 76.0265C123.358 77.058 121.959 77.6375 120.5 77.6375C119.041 77.6375 117.642 77.058 116.611 76.0265C115.579 74.9951 115 73.5961 115 72.1375C115 70.6788 115.579 69.2798 116.611 68.2484C117.642 67.2169 119.041 66.6375 120.5 66.6375H126V72.1375ZM128.75 72.1375C128.75 70.6788 129.329 69.2798 130.361 68.2484C131.392 67.2169 132.791 66.6375 134.25 66.6375C135.709 66.6375 137.108 67.2169 138.139 68.2484C139.171 69.2798 139.75 70.6788 139.75 72.1375V85.8875C139.75 87.3461 139.171 88.7451 138.139 89.7765C137.108 90.808 135.709 91.3875 134.25 91.3875C132.791 91.3875 131.392 90.808 130.361 89.7765C129.329 88.7451 128.75 87.3461 128.75 85.8875V72.1375ZM134.25 50.1375C132.791 50.1375 131.392 49.558 130.361 48.5265C129.329 47.4951 128.75 46.0961 128.75 44.6375C128.75 43.1788 129.329 41.7798 130.361 40.7484C131.392 39.7169 132.791 39.1375 134.25 39.1375C135.709 39.1375 137.108 39.7169 138.139 40.7484C139.171 41.7798 139.75 43.1788 139.75 44.6375V50.1375H134.25ZM134.25 52.8875C135.709 52.8875 137.108 53.4669 138.139 54.4984C139.171 55.5298 139.75 56.9288 139.75 58.3875C139.75 59.8461 139.171 61.2451 138.139 62.2765C137.108 63.308 135.709 63.8875 134.25 63.8875H120.5C119.041 63.8875 117.642 63.308 116.611 62.2765C115.579 61.2451 115 59.8461 115 58.3875C115 56.9288 115.579 55.5298 116.611 54.4984C117.642 53.4669 119.041 52.8875 120.5 52.8875H134.25ZM156.25 58.3875C156.25 56.9288 156.829 55.5298 157.861 54.4984C158.892 53.4669 160.291 52.8875 161.75 52.8875C163.209 52.8875 164.608 53.4669 165.639 54.4984C166.671 55.5298 167.25 56.9288 167.25 58.3875C167.25 59.8461 166.671 61.2451 165.639 62.2765C164.608 63.308 163.209 63.8875 161.75 63.8875H156.25V58.3875ZM153.5 58.3875C153.5 59.8461 152.921 61.2451 151.889 62.2765C150.858 63.308 149.459 63.8875 148 63.8875C146.541 63.8875 145.142 63.308 144.111 62.2765C143.079 61.2451 142.5 59.8461 142.5 58.3875V44.6375C142.5 43.1788 143.079 41.7798 144.111 40.7484C145.142 39.7169 146.541 39.1375 148 39.1375C149.459 39.1375 150.858 39.7169 151.889 40.7484C152.921 41.7798 153.5 43.1788 153.5 44.6375V58.3875ZM148 80.3875C149.459 80.3875 150.858 80.9669 151.889 81.9984C152.921 83.0298 153.5 84.4288 153.5 85.8875C153.5 87.3461 152.921 88.7451 151.889 89.7765C150.858 90.808 149.459 91.3875 148 91.3875C146.541 91.3875 145.142 90.808 144.111 89.7765C143.079 88.7451 142.5 87.3461 142.5 85.8875V80.3875H148ZM148 77.6375C146.541 77.6375 145.142 77.058 144.111 76.0265C143.079 74.9951 142.5 73.5961 142.5 72.1375C142.5 70.6788 143.079 69.2798 144.111 68.2484C145.142 67.2169 146.541 66.6375 148 66.6375H161.75C163.209 66.6375 164.608 67.2169 165.639 68.2484C166.671 69.2798 167.25 70.6788 167.25 72.1375C167.25 73.5961 166.671 74.9951 165.639 76.0265C164.608 77.058 163.209 77.6375 161.75 77.6375H148Z" fill="white"/>
</g>
</g>
<path d="M-0.5 8.88745C-0.5 3.91689 3.52944 -0.112549 8.5 -0.112549H276C280.971 -0.112549 285 3.91689 285 8.88745H283C283 5.02146 279.866 1.88745 276 1.88745H8.5C4.63401 1.88745 1.5 5.02146 1.5 8.88745H-0.5ZM284 126.887H0.5H284ZM-0.5 126.887V8.88745C-0.5 3.91689 3.52944 -0.112549 8.5 -0.112549V1.88745C4.63401 1.88745 1.5 5.02146 1.5 8.88745V126.887H-0.5ZM276 -0.112549C280.971 -0.112549 285 3.91689 285 8.88745V126.887H283V8.88745C283 5.02146 279.866 1.88745 276 1.88745V-0.112549Z" fill="#404559" mask="url(#path-1-inside-1_748_7157)"/>
<defs>
<filter id="filter0_f_748_7157" x="-97.8735" y="-229.359" width="570.248" height="666.493" filterUnits="userSpaceOnUse" color-interpolation-filters="sRGB">
<feFlood flood-opacity="0" result="BackgroundImageFix"/>
<feBlend mode="normal" in="SourceGraphic" in2="BackgroundImageFix" result="shape"/>
<feGaussianBlur stdDeviation="100" result="effect1_foregroundBlur_748_7157"/>
</filter>
<filter id="filter1_f_748_7157" x="-12.75" y="-196.359" width="570.248" height="666.493" filterUnits="userSpaceOnUse" color-interpolation-filters="sRGB">
<feFlood flood-opacity="0" result="BackgroundImageFix"/>
<feBlend mode="normal" in="SourceGraphic" in2="BackgroundImageFix" result="shape"/>
<feGaussianBlur stdDeviation="100" result="effect1_foregroundBlur_748_7157"/>
</filter>
<filter id="filter2_d_748_7157" x="110.266" y="32.0823" width="65.7431" height="66.7343" filterUnits="userSpaceOnUse" color-interpolation-filters="sRGB">
<feFlood flood-opacity="0" result="BackgroundImageFix"/>
<feColorMatrix in="SourceAlpha" type="matrix" values="0 0 0 0 0 0 0 0 0 0 0 0 0 0 0 0 0 0 127 0" result="hardAlpha"/>
<feOffset dy="0.989728"/>
<feGaussianBlur stdDeviation="0.494864"/>
<feComposite in2="hardAlpha" operator="out"/>
<feColorMatrix type="matrix" values="0 0 0 0 0.432266 0 0 0 0 0.00354165 0 0 0 0 0.846458 0 0 0 1 0"/>
<feBlend mode="screen" in2="BackgroundImageFix" result="effect1_dropShadow_748_7157"/>
<feBlend mode="normal" in="SourceGraphic" in2="effect1_dropShadow_748_7157" result="shape"/>
</filter>
<filter id="filter3_d_748_7157" x="89.5" y="14.8875" width="106" height="106" filterUnits="userSpaceOnUse" color-interpolation-filters="sRGB">
<feFlood flood-opacity="0" result="BackgroundImageFix"/>
<feColorMatrix in="SourceAlpha" type="matrix" values="0 0 0 0 0 0 0 0 0 0 0 0 0 0 0 0 0 0 127 0" result="hardAlpha"/>
<feOffset dy="4"/>
<feGaussianBlur stdDeviation="10"/>
<feComposite in2="hardAlpha" operator="out"/>
<feColorMatrix type="matrix" values="0 0 0 0 0.960784 0 0 0 0 0.960784 0 0 0 0 1 0 0 0 0.5 0"/>
<feBlend mode="normal" in2="BackgroundImageFix" result="effect1_dropShadow_748_7157"/>
<feBlend mode="normal" in="SourceGraphic" in2="effect1_dropShadow_748_7157" result="shape"/>
</filter>
<linearGradient id="paint0_linear_748_7157" x1="85.1238" y1="0" x2="85.1238" y2="266.493" gradientUnits="userSpaceOnUse">
<stop stop-color="#6218FF" stop-opacity="0"/>
<stop offset="1" stop-color="#6117FF"/>
</linearGradient>
<linearGradient id="paint1_linear_748_7157" x1="85.1238" y1="0" x2="85.1238" y2="266.493" gradientUnits="userSpaceOnUse">
<stop stop-color="#6218FF" stop-opacity="0"/>
<stop offset="1" stop-color="#E22F8F"/>
</linearGradient>
<linearGradient id="paint2_linear_748_7157" x1="125.363" y1="29.3466" x2="164.675" y2="120.016" gradientUnits="userSpaceOnUse">
<stop offset="0.015625" stop-color="#DCC2FF"/>
<stop offset="0.130208" stop-color="#B8D3FD"/>
<stop offset="0.234375" stop-color="#BD90FF"/>
<stop offset="0.505208" stop-color="#61D9FF" stop-opacity="0"/>
<stop offset="0.765625" stop-color="#E7B5FF" stop-opacity="0.84"/>
</linearGradient>
<clipPath id="clip0_748_7157">
<path d="M0.5 8.88745C0.5 4.46917 4.08172 0.887451 8.5 0.887451H276C280.418 0.887451 284 4.46917 284 8.88745V126.887H0.5V8.88745Z" fill="white"/>
</clipPath>
</defs>
</svg>
