<svg width="140" height="141" viewBox="0 0 140 141" fill="none" xmlns="http://www.w3.org/2000/svg">
<rect x="28.5273" y="36.8818" width="83.1818" height="52.1273" rx="4.98" fill="#48466C"/>
<rect x="22.4273" y="29.6727" width="96.4909" height="65.4364" rx="2.77273" stroke="#A626E2" stroke-width="1.10909"/>
<rect x="56.2546" y="49.0818" width="28.8364" height="28.8364" rx="14.4182" fill="#202331"/>
<path d="M78 63.5L66 70.4282L66 56.5718L78 63.5Z" fill="#AEF6FF"/>
<path d="M65.4823 25.7887C65.6307 26.7021 64.3184 27.0241 64.0271 26.1458L63.2061 23.6697C63.0379 23.1626 62.4091 22.988 62.0035 23.3358L59.8536 25.1793C59.1579 25.7759 58.2029 24.8447 58.7817 24.1341L60.7429 21.7268C61.0581 21.3399 60.9155 20.7588 60.457 20.5617L57.6043 19.3356C56.7623 18.9737 57.1779 17.7061 58.0707 17.9129L60.8297 18.552C61.3503 18.6725 61.8268 18.2267 61.7411 17.6993L61.3229 15.1245C61.1745 14.2111 62.4868 13.8891 62.778 14.7674L63.5991 17.2434C63.7673 17.7506 64.396 17.9252 64.8016 17.5774L66.9516 15.7339C67.6473 15.1373 68.6023 16.0685 68.0234 16.779L66.0623 19.1863C65.7471 19.5733 65.8897 20.1544 66.3482 20.3515L69.2009 21.5776C70.0428 21.9395 69.6273 23.207 68.7345 23.0002L65.9754 22.3612C65.4549 22.2406 64.9784 22.6865 65.064 23.2139L65.4823 25.7887Z" fill="#FCD3A3"/>
<path d="M122.964 25.8553C123.088 26.1943 123.568 26.1943 123.692 25.8553L124.898 22.574C124.937 22.4671 125.022 22.3828 125.129 22.3435L128.41 21.1379C128.749 21.0133 128.749 20.5337 128.41 20.4091L125.129 19.2035C125.022 19.1642 124.937 19.0799 124.898 18.973L123.692 15.6917C123.568 15.3526 123.088 15.3526 122.964 15.6917L121.758 18.973C121.719 19.0799 121.635 19.1642 121.528 19.2035L118.246 20.4091C117.907 20.5337 117.907 21.0133 118.246 21.1379L121.528 22.3435C121.635 22.3828 121.719 22.4671 121.758 22.574L122.964 25.8553Z" fill="#26CCE2"/>
<path d="M24.0908 95.1091C24.0908 97.253 22.3528 98.9909 20.209 98.9909C18.0651 98.9909 16.3271 97.253 16.3271 95.1091C16.3271 92.9652 18.0651 91.2273 20.209 91.2273C22.3528 91.2273 24.0908 92.9652 24.0908 95.1091ZM18.4602 95.1091C18.4602 96.0749 19.2431 96.8579 20.209 96.8579C21.1748 96.8579 21.9578 96.0749 21.9578 95.1091C21.9578 94.1433 21.1748 93.3603 20.209 93.3603C19.2431 93.3603 18.4602 94.1433 18.4602 95.1091Z" fill="#D9D9D9"/>
<path d="M106.714 92.6123L113.013 95.2032L112.552 96.5696L104.886 93.3221V91.9025L112.552 88.6551L113.013 90.0215L106.714 92.6123ZM115.222 101.201H113.536L119.552 84.0235H121.202L115.222 101.201ZM121.713 90.0215L122.174 88.6551L129.84 91.9025V93.3221L122.174 96.5696L121.713 95.2032L128.013 92.6123L121.713 90.0215Z" fill="#FCFDD4"/>
<path fill-rule="evenodd" clip-rule="evenodd" d="M40.375 40.7852C35.4628 39.0592 32.8798 33.678 34.6058 28.7659C36.3317 23.8537 41.7129 21.2708 46.625 22.9967C51.5372 24.7226 54.1202 30.1038 52.3942 35.0159C50.6683 39.9281 45.2871 42.5111 40.375 40.7852ZM45.7795 37.1711C44.5938 36.7545 43.9703 35.4556 44.3869 34.2699C44.8035 33.0842 46.1024 32.4607 47.2881 32.8773C48.4738 33.2939 49.0973 34.5929 48.6807 35.7786C48.2641 36.9642 46.9652 37.5877 45.7795 37.1711Z" fill="#26CCE2"/>
<rect x="31.7454" y="106.646" width="32.3818" height="16.8545" rx="3.43636" stroke="#C0D2F7" stroke-width="2"/>
<path d="M47.3818 104.915C47.3818 103.621 48.1582 101.033 51.2637 101.033C54.3691 101.033 84.1667 101.033 100.064 101.033C105.609 101.033 110.698 102.726 110.045 109.906C109.491 116.006 103.021 117.485 100.064 117.115C96.5515 117.115 90.6364 115.008 90.6364 106.579C90.6364 98.1495 90.6364 95.4876 90.6364 95.6724" stroke="#26CCE2" stroke-width="2.21818" stroke-linecap="round"/>
</svg>
