<svg width="140" height="141" viewBox="0 0 140 141" fill="none" xmlns="http://www.w3.org/2000/svg">
<rect x="23.5" y="34" width="96" height="78" rx="2.5" fill="#1A1C27" stroke="#7984B8"/>
<rect x="31" y="50.5" width="11" height="4" rx="2" fill="#464F79"/>
<rect x="58" y="119.5" width="11" height="4" rx="2" fill="#464F79"/>
<rect x="107" y="18.5" width="11" height="4" rx="2" fill="#464F79"/>
<rect x="42" y="58.5" width="11" height="4" rx="2" fill="#464F79"/>
<path d="M57 60.5C57 59.3954 57.8954 58.5 59 58.5C60.1046 58.5 61 59.3954 61 60.5C61 61.6046 60.1046 62.5 59 62.5C57.8954 62.5 57 61.6046 57 60.5Z" fill="#707BAD"/>
<path d="M99 20.5C99 19.3954 99.8954 18.5 101 18.5C102.105 18.5 103 19.3954 103 20.5C103 21.6046 102.105 22.5 101 22.5C99.8954 22.5 99 21.6046 99 20.5Z" fill="#707BAD"/>
<path d="M45 52.5C45 51.3954 45.8954 50.5 47 50.5H74C75.1046 50.5 76 51.3954 76 52.5C76 53.6046 75.1046 54.5 74 54.5H47C45.8954 54.5 45 53.6046 45 52.5Z" fill="#2A335E"/>
<path d="M24 121.5C24 120.395 24.8954 119.5 26 119.5H53C54.1046 119.5 55 120.395 55 121.5C55 122.605 54.1046 123.5 53 123.5H26C24.8954 123.5 24 122.605 24 121.5Z" fill="#2A335E"/>
<path d="M31 60.5C31 59.3954 31.8954 58.5 33 58.5H36C37.1046 58.5 38 59.3954 38 60.5C38 61.6046 37.1046 62.5 36 62.5H33C31.8954 62.5 31 61.6046 31 60.5Z" fill="#2A335E"/>
<path d="M96.3201 116.498C96.4539 117.322 95.2706 117.612 95.008 116.82L94.2678 114.587C94.1161 114.13 93.5492 113.973 93.1835 114.286L91.245 115.949C90.6178 116.486 89.7567 115.647 90.2786 115.006L92.0468 112.836C92.331 112.487 92.2025 111.963 91.789 111.785L89.217 110.68C88.4578 110.353 88.8325 109.21 89.6375 109.397L92.1251 109.973C92.5945 110.082 93.0241 109.68 92.9469 109.204L92.5698 106.883C92.436 106.059 93.6192 105.769 93.8818 106.561L94.6221 108.793C94.7737 109.251 95.3407 109.408 95.7064 109.094L97.6448 107.432C98.2721 106.894 99.1332 107.734 98.6113 108.375L96.843 110.545C96.5588 110.894 96.6874 111.418 97.1008 111.596L99.6729 112.701C100.432 113.027 100.057 114.17 99.2524 113.984L96.7647 113.408C96.2954 113.299 95.8657 113.701 95.9429 114.176L96.3201 116.498Z" fill="#FCD3A3"/>
<path d="M28.1475 28.558C28.2599 28.8637 28.6922 28.8637 28.8046 28.558L29.8916 25.5995C29.927 25.5031 30.003 25.4271 30.0994 25.3917L33.058 24.3046C33.3637 24.1923 33.3637 23.7599 33.058 23.6476L30.0994 22.5605C30.003 22.5251 29.927 22.4491 29.8916 22.3527L28.8046 19.3942C28.6922 19.0885 28.2599 19.0885 28.1475 19.3942L27.0605 22.3527C27.025 22.4491 26.9491 22.5251 26.8527 22.5605L23.8941 23.6476C23.5884 23.7599 23.5884 24.1923 23.8941 24.3046L26.8527 25.3917C26.9491 25.4271 27.025 25.5031 27.0605 25.5995L28.1475 28.558Z" fill="#26CCE2"/>
<path d="M120 123C120 124.933 118.433 126.5 116.5 126.5C114.567 126.5 113 124.933 113 123C113 121.067 114.567 119.5 116.5 119.5C118.433 119.5 120 121.067 120 123ZM114.923 123C114.923 123.871 115.629 124.577 116.5 124.577C117.371 124.577 118.077 123.871 118.077 123C118.077 122.129 117.371 121.423 116.5 121.423C115.629 121.423 114.923 122.129 114.923 123Z" fill="#D9D9D9"/>
<circle cx="39" cy="39.5" r="2" fill="#8934DD"/>
<circle cx="32" cy="39.5" r="2" fill="#E0562A"/>
<circle cx="46" cy="39.5" r="2" fill="#5DCA75"/>
<path d="M119.652 29.5L115.625 34.4696L118.5 37.0509L112.905 43.4077" stroke="#A626E2" stroke-width="1.27819" stroke-linecap="round"/>
<path d="M124.652 29.5L120.625 34.4696L123.5 37.0509L117.905 43.4077" stroke="#A626E2" stroke-width="1.27819" stroke-linecap="round"/>
<rect x="52.5" y="78" width="41" height="18" rx="1.5" fill="#192A4E" stroke="#5F72B1"/>
<path d="M72.2466 94.25H71.4966L72.2466 89H69.6216C68.9616 89 69.3741 88.4375 69.3891 88.415C70.3566 86.705 71.8116 84.155 73.7541 80.75H74.5041L73.7541 86H76.3866C76.6866 86 76.8516 86.1425 76.6866 86.495C73.7241 91.6625 72.2466 94.25 72.2466 94.25Z" fill="white"/>
<mask id="path-21-inside-1_298_2258" fill="white">
<path fill-rule="evenodd" clip-rule="evenodd" d="M87.7575 64.9141L84.9852 85.298L103.728 76.8182L98.5488 72.9579L103.33 66.5437L97.7175 62.3603L92.9364 68.7744L87.7575 64.9141Z"/>
</mask>
<path fill-rule="evenodd" clip-rule="evenodd" d="M87.7575 64.9141L84.9852 85.298L103.728 76.8182L98.5488 72.9579L103.33 66.5437L97.7175 62.3603L92.9364 68.7744L87.7575 64.9141Z" fill="white"/>
<path d="M84.9852 85.298L83.9943 85.1632L83.7507 86.9541L85.3974 86.2091L84.9852 85.298ZM87.7575 64.9141L88.3552 64.1124L86.9952 63.0987L86.7667 64.7794L87.7575 64.9141ZM103.728 76.8182L104.14 77.7293L105.685 77.0301L104.325 76.0164L103.728 76.8182ZM98.5488 72.9579L97.747 72.3602L97.1494 73.162L97.9511 73.7596L98.5488 72.9579ZM103.33 66.5437L104.132 67.1414L104.729 66.3396L103.927 65.742L103.33 66.5437ZM97.7175 62.3603L98.3151 61.5585L97.5133 60.9609L96.9157 61.7626L97.7175 62.3603ZM92.9364 68.7744L92.3388 69.5762L93.1405 70.1738L93.7382 69.3721L92.9364 68.7744ZM85.976 85.4328L88.7484 65.0489L86.7667 64.7794L83.9943 85.1632L85.976 85.4328ZM103.315 75.9071L84.573 84.3869L85.3974 86.2091L104.14 77.7293L103.315 75.9071ZM97.9511 73.7596L103.13 77.6199L104.325 76.0164L99.1464 72.1561L97.9511 73.7596ZM102.528 65.9461L97.747 72.3602L99.3505 73.5555L104.132 67.1414L102.528 65.9461ZM97.1198 63.162L102.732 67.3455L103.927 65.742L98.3151 61.5585L97.1198 63.162ZM93.7382 69.3721L98.5192 62.9579L96.9157 61.7626L92.1346 68.1768L93.7382 69.3721ZM87.1599 65.7159L92.3388 69.5762L93.534 67.9727L88.3552 64.1124L87.1599 65.7159Z" fill="#1A1C27" mask="url(#path-21-inside-1_298_2258)"/>
</svg>
