<svg width="140" height="141" viewBox="0 0 140 141" fill="none" xmlns="http://www.w3.org/2000/svg">
<path d="M64.1475 24.558C64.2599 24.8637 64.6922 24.8637 64.8046 24.558L65.8916 21.5995C65.927 21.5031 66.003 21.4271 66.0994 21.3917L69.058 20.3046C69.3637 20.1923 69.3637 19.7599 69.058 19.6476L66.0994 18.5605C66.003 18.5251 65.927 18.4491 65.8916 18.3527L64.8046 15.3942C64.6922 15.0885 64.2599 15.0885 64.1475 15.3942L63.0605 18.3527C63.025 18.4491 62.9491 18.5251 62.8527 18.5605L59.8941 19.6476C59.5884 19.7599 59.5884 20.1923 59.8941 20.3046L62.8527 21.3917C62.9491 21.4271 63.025 21.5031 63.0605 21.5995L64.1475 24.558Z" fill="#CFB1FF"/>
<path d="M43.3201 103.498C43.4539 104.322 42.2706 104.612 42.008 103.82L41.2678 101.587C41.1161 101.13 40.5492 100.973 40.1835 101.286L38.245 102.949C37.6178 103.486 36.7567 102.647 37.2786 102.006L39.0468 99.8357C39.331 99.4868 39.2025 98.9629 38.789 98.7852L36.217 97.6796C35.4578 97.3533 35.8325 96.2105 36.6375 96.3969L39.1251 96.9731C39.5945 97.0818 40.0241 96.6798 39.9469 96.2043L39.5698 93.8827C39.436 93.0592 40.6192 92.7689 40.8818 93.5608L41.6221 95.7933C41.7737 96.2505 42.3407 96.408 42.7064 96.0944L44.6448 94.4322C45.2721 93.8943 46.1332 94.7339 45.6113 95.3746L43.843 97.5451C43.5588 97.894 43.6874 98.4179 44.1008 98.5956L46.6729 99.7011C47.432 100.027 47.0574 101.17 46.2524 100.984L43.7647 100.408C43.2954 100.299 42.8657 100.701 42.9429 101.176L43.3201 103.498Z" fill="#FCD3A3"/>
<g clip-path="url(#clip0_298_2753)">
<path d="M61.4252 104.398C61.4252 106.122 60.0315 107.516 58.3071 107.516C56.5827 107.516 55.189 106.122 55.189 104.398C55.189 102.673 56.5827 101.28 58.3071 101.28H61.4252V104.398ZM62.9842 104.398C62.9842 102.673 64.3779 101.28 66.1024 101.28C67.8268 101.28 69.2205 102.673 69.2205 104.398V112.193C69.2205 113.917 67.8268 115.311 66.1024 115.311C64.3779 115.311 62.9842 113.917 62.9842 112.193V104.398Z" fill="#2267F9"/>
<path d="M66.1023 91.8779C64.3779 91.8779 62.9842 90.4842 62.9842 88.7598C62.9842 87.0354 64.3779 85.6417 66.1023 85.6417C67.8267 85.6417 69.2204 87.0354 69.2204 88.7598V91.8779H66.1023ZM66.1023 93.4606C67.8267 93.4606 69.2204 94.8543 69.2204 96.5787C69.2204 98.3031 67.8267 99.6968 66.1023 99.6968H58.2834C56.559 99.6968 55.1653 98.3031 55.1653 96.5787C55.1653 94.8543 56.559 93.4606 58.2834 93.4606H66.1023Z" fill="#2267F9"/>
<path d="M78.5985 96.5787C78.5985 94.8543 79.9922 93.4606 81.7166 93.4606C83.441 93.4606 84.8347 94.8543 84.8347 96.5787C84.8347 98.3031 83.441 99.6968 81.7166 99.6968H78.5985V96.5787ZM77.0394 96.5787C77.0394 98.3031 75.6457 99.6968 73.9213 99.6968C72.1969 99.6968 70.8032 98.3031 70.8032 96.5787V88.7598C70.8032 87.0354 72.1969 85.6417 73.9213 85.6417C75.6457 85.6417 77.0394 87.0354 77.0394 88.7598V96.5787Z" fill="#2267F9"/>
<path d="M73.9213 109.075C75.6457 109.075 77.0394 110.469 77.0394 112.193C77.0394 113.917 75.6457 115.311 73.9213 115.311C72.1969 115.311 70.8032 113.917 70.8032 112.193V109.075H73.9213ZM73.9213 107.516C72.1969 107.516 70.8032 106.122 70.8032 104.398C70.8032 102.673 72.1969 101.28 73.9213 101.28H81.7402C83.4646 101.28 84.8583 102.673 84.8583 104.398C84.8583 106.122 83.4646 107.516 81.7402 107.516H73.9213Z" fill="#2267F9"/>
</g>
<path fill-rule="evenodd" clip-rule="evenodd" d="M20 55C20 42.6611 32.2157 32.5 47.5 32.5C62.7843 32.5 75 42.6611 75 55C75 63.7951 68.8132 71.4689 59.7024 75.1679L59.4001 75.2906L59.3907 75.6167L59.145 84.0856C59.1328 84.5086 58.6334 84.7261 58.3154 84.4469L50.433 77.5262L50.275 77.3875L50.0653 77.4034C49.2208 77.4673 48.3651 77.5 47.5 77.5C32.2157 77.5 20 67.3389 20 55ZM47.5 31.5C31.8564 31.5 19 41.9338 19 55C19 68.0662 31.8564 78.5 47.5 78.5C48.3186 78.5 49.1292 78.4715 49.9305 78.4158L57.6556 85.1983C58.6096 86.0359 60.1078 85.3836 60.1446 84.1146L60.3808 75.9699C69.6053 72.1113 76 64.2012 76 55C76 41.9338 63.1436 31.5 47.5 31.5ZM34.5 56H61.5V54H34.5V56ZM49.5 61H34.5V59H49.5V61ZM34.5 51H61.5V49H34.5V51Z" fill="#FCD3A3"/>
<path d="M96.6517 86.7587L92.625 91.7284L95.5003 94.3097L89.9054 100.667" stroke="#A626E2" stroke-width="1.27819" stroke-linecap="round"/>
<path d="M100.478 86.5L96.4509 91.4696L99.3262 94.0509L93.7313 100.408" stroke="#A626E2" stroke-width="1.27819" stroke-linecap="round"/>
<path fill-rule="evenodd" clip-rule="evenodd" d="M78.1323 71.7866C69.7018 66.3116 65.1398 55.9855 67.4791 45.6056C70.4814 32.2834 83.715 23.9175 97.0372 26.9199C110.359 29.9222 118.725 43.1558 115.723 56.478C112.757 69.6391 99.8056 77.963 86.6481 75.2677L78.2266 79.8559C77.4835 80.2609 76.6047 79.617 76.7667 78.7863L78.1323 71.7866Z" fill="white"/>
<path d="M78.1323 71.7866L78.4046 71.3673L78.6876 71.5511L78.623 71.8823L78.1323 71.7866ZM86.6481 75.2677L86.4089 74.8287L86.5694 74.7412L86.7484 74.7779L86.6481 75.2677ZM78.2266 79.8559L78.4659 80.295L78.2266 79.8559ZM76.7667 78.7863L77.2575 78.8821L77.2575 78.8821L76.7667 78.7863ZM67.9668 45.7155C65.6751 55.8848 70.1439 66.0026 78.4046 71.3673L77.8599 72.2059C69.2597 66.6207 64.6046 56.0862 66.9913 45.4957L67.9668 45.7155ZM96.9273 27.4076C83.8745 24.466 70.9085 32.6627 67.9668 45.7155L66.9913 45.4957C70.0543 31.9041 83.5556 23.3691 97.1472 26.4321L96.9273 27.4076ZM115.235 56.3681C118.177 43.3153 109.98 30.3493 96.9273 27.4076L97.1472 26.4321C110.739 29.4951 119.274 42.9964 116.211 56.588L115.235 56.3681ZM86.7484 74.7779C99.6397 77.4187 112.329 69.263 115.235 56.3681L116.211 56.588C113.185 70.0152 99.9715 78.5074 86.5478 75.7576L86.7484 74.7779ZM77.9874 79.4169L86.4089 74.8287L86.8873 75.7068L78.4659 80.295L77.9874 79.4169ZM77.2575 78.8821C77.1764 79.2974 77.6158 79.6193 77.9874 79.4169L78.4659 80.295C77.3511 80.9024 76.0329 79.9366 76.276 78.6906L77.2575 78.8821ZM78.623 71.8823L77.2575 78.8821L76.276 78.6906L77.6415 71.6909L78.623 71.8823Z" fill="#1761FD"/>
<path d="M78.496 51.716L84.176 54.052L83.76 55.284L76.848 52.356V51.076L83.76 48.148L84.176 49.38L78.496 51.716ZM89.8704 59.46H88.3504L93.7744 43.972H95.2624L89.8704 59.46ZM99.4261 49.38L99.8421 48.148L106.754 51.076V52.356L99.8421 55.284L99.4261 54.052L105.106 51.716L99.4261 49.38Z" fill="#1761FD"/>
<defs>
<clipPath id="clip0_298_2753">
<rect width="30" height="30" fill="white" transform="translate(55 85.5)"/>
</clipPath>
</defs>
</svg>
