<svg width="140" height="140" viewBox="0 0 140 140" fill="none" xmlns="http://www.w3.org/2000/svg">
    <rect x="23.5" y="33.5" width="96" height="78" rx="2.5" fill="#1A1C27" stroke="#7984B8"/>
    <rect x="31" y="50" width="11" height="4" rx="2" fill="#464F79"/>
    <rect x="58" y="119" width="11" height="4" rx="2" fill="#464F79"/>
    <rect x="107" y="18" width="11" height="4" rx="2" fill="#464F79"/>
    <rect x="42" y="58" width="11" height="4" rx="2" fill="#464F79"/>
    <path d="M57 60C57 58.8954 57.8954 58 59 58C60.1046 58 61 58.8954 61 60C61 61.1046 60.1046 62 59 62C57.8954 62 57 61.1046 57 60Z" fill="#707BAD"/>
    <path d="M99 20C99 18.8954 99.8954 18 101 18C102.105 18 103 18.8954 103 20C103 21.1046 102.105 22 101 22C99.8954 22 99 21.1046 99 20Z" fill="#707BAD"/>
    <path d="M45 52C45 50.8954 45.8954 50 47 50H74C75.1046 50 76 50.8954 76 52C76 53.1046 75.1046 54 74 54H47C45.8954 54 45 53.1046 45 52Z" fill="#2A335E"/>
    <path d="M24 121C24 119.895 24.8954 119 26 119H53C54.1046 119 55 119.895 55 121C55 122.105 54.1046 123 53 123H26C24.8954 123 24 122.105 24 121Z" fill="#2A335E"/>
    <path d="M31 60C31 58.8954 31.8954 58 33 58H36C37.1046 58 38 58.8954 38 60C38 61.1046 37.1046 62 36 62H33C31.8954 62 31 61.1046 31 60Z" fill="#2A335E"/>
    <path d="M109.32 49.998C109.454 50.8215 108.271 51.1118 108.008 50.3199L107.268 48.0874C107.116 47.6302 106.549 47.4727 106.183 47.7863L104.245 49.4485C103.618 49.9864 102.757 49.1468 103.279 48.5061L105.047 46.3356C105.331 45.9867 105.202 45.4628 104.789 45.2851L102.217 44.1796C101.458 43.8533 101.832 42.7104 102.637 42.8969L105.125 43.4731C105.594 43.5818 106.024 43.1798 105.947 42.7043L105.57 40.3827C105.436 39.5592 106.619 39.2688 106.882 40.0607L107.622 42.2932C107.774 42.7505 108.341 42.9079 108.706 42.5943L110.645 40.9321C111.272 40.3942 112.133 41.2339 111.611 41.8745L109.843 44.045C109.559 44.3939 109.687 44.9178 110.101 45.0955L112.673 46.2011C113.432 46.5274 113.057 47.6702 112.252 47.4838L109.765 46.9076C109.295 46.7989 108.866 47.2009 108.943 47.6764L109.32 49.998Z" fill="#FCD3A3"/>
    <path d="M28.1475 28.058C28.2599 28.3637 28.6922 28.3637 28.8046 28.058L29.8916 25.0994C29.927 25.003 30.003 24.927 30.0994 24.8916L33.058 23.8046C33.3637 23.6922 33.3637 23.2598 33.058 23.1475L30.0994 22.0605C30.003 22.025 29.927 21.9491 29.8916 21.8526L28.8046 18.8941C28.6922 18.5884 28.2599 18.5884 28.1475 18.8941L27.0605 21.8526C27.025 21.9491 26.9491 22.025 26.8527 22.0605L23.8941 23.1475C23.5884 23.2598 23.5884 23.6922 23.8941 23.8046L26.8527 24.8916C26.9491 24.927 27.025 25.003 27.0605 25.0994L28.1475 28.058Z" fill="#26CCE2"/>
    <path d="M120 122.5C120 124.433 118.433 126 116.5 126C114.567 126 113 124.433 113 122.5C113 120.567 114.567 119 116.5 119C118.433 119 120 120.567 120 122.5ZM114.923 122.5C114.923 123.371 115.629 124.077 116.5 124.077C117.371 124.077 118.077 123.371 118.077 122.5C118.077 121.629 117.371 120.923 116.5 120.923C115.629 120.923 114.923 121.629 114.923 122.5Z" fill="#D9D9D9"/>
    <path d="M59.592 76.72L56.52 82.864H56.104L53.032 76.72H51.496L54.84 83.248H55.592V88H57.032V83.248H57.784L61.144 76.72H59.592ZM60.8156 85.792C60.8156 86.624 61.1676 88.16 63.5036 88.16C65.4396 88.16 66.2876 87.024 66.5916 85.808H66.9916L66.7676 86.656V87.04C66.7676 87.648 67.1196 88 67.7276 88H69.1836V86.784H68.0156V83.408C68.0156 81.312 66.7676 79.888 64.4476 79.888C62.3836 79.888 61.1676 81.072 60.9916 82.88H62.3996C62.5276 81.552 63.3596 81.04 64.4636 81.04C65.8716 81.04 66.5276 81.728 66.5916 83.168L63.4716 83.472C61.5836 83.648 60.8156 84.528 60.8156 85.792ZM62.2236 85.616C62.2236 84.848 62.7356 84.576 63.7116 84.48L66.5916 84.176C66.5916 85.776 65.4556 86.992 63.7276 86.992C62.8156 86.992 62.2236 86.528 62.2236 85.616ZM70.6669 88H72.0909V84.56C72.0909 82.48 72.9869 81.104 74.5389 81.104C75.8029 81.104 76.1389 81.824 76.1389 83.36V88H77.5629V84.56C77.5629 82.48 78.4589 81.104 80.0109 81.104C81.2749 81.104 81.6109 81.824 81.6109 83.36V88H83.0349V83.056C83.0349 81.248 82.2509 79.888 80.5549 79.888C78.8589 79.888 78.0429 80.864 77.7229 82.304H77.4669C77.2749 80.88 76.5389 79.888 75.0829 79.888C73.3869 79.888 72.5709 80.864 72.2509 82.304H71.8509L72.0909 81.344V80.048H70.6669V88ZM84.6095 88H90.4815V86.784H88.2575V77.04C88.2575 76.512 87.9535 76.24 87.4255 76.24H85.1695V77.456H86.8335V86.784H84.6095V88Z" fill="#26CCE2"/>
    <circle cx="39" cy="39" r="2" fill="#8934DD"/>
    <circle cx="32" cy="39" r="2" fill="#E0562A"/>
    <circle cx="46" cy="39" r="2" fill="#5DCA75"/>
    <path d="M82.6517 105L78.625 109.97L81.5003 112.551L75.9054 118.908" stroke="#A626E2" stroke-width="1.27819" stroke-linecap="round"/>
    <path d="M87.6517 105L83.625 109.97L86.5003 112.551L80.9054 118.908" stroke="#A626E2" stroke-width="1.27819" stroke-linecap="round"/>
</svg>
