<svg width="140" height="141" viewBox="0 0 140 141" fill="none" xmlns="http://www.w3.org/2000/svg">
<rect x="35.5" y="88" width="30" height="14" rx="3.5" stroke="#A626E2"/>
<rect x="74.5" y="71" width="30" height="16" rx="3.5" stroke="#C0D2F7"/>
<path d="M50 37.5C50 35.8431 51.3431 34.5 53 34.5H88C89.6569 34.5 91 35.8431 91 37.5V39.5C91 46.6797 85.1797 52.5 78 52.5H63C55.8203 52.5 50 46.6797 50 39.5V37.5Z" stroke="#FF9520" stroke-width="2"/>
<path d="M59.5 33.5L59.5 35L62.5 35L62.5 33.5L59.5 33.5ZM62.5 24.5C62.5 23.6716 61.8284 23 61 23C60.1716 23 59.5 23.6716 59.5 24.5L62.5 24.5ZM62.5 33.5L62.5 24.5L59.5 24.5L59.5 33.5L62.5 33.5Z" fill="#FF9520"/>
<path d="M79.5 33.5L79.5 35L82.5 35L82.5 33.5L79.5 33.5ZM82.5 24.5C82.5 23.6716 81.8284 23 81 23C80.1716 23 79.5 23.6716 79.5 24.5L82.5 24.5ZM82.5 33.5L82.5 24.5L79.5 24.5L79.5 33.5L82.5 33.5Z" fill="#FF9520"/>
<path d="M97.1475 58.558C97.2599 58.8637 97.6922 58.8637 97.8046 58.558L98.8916 55.5995C98.927 55.5031 99.003 55.4271 99.0994 55.3917L102.058 54.3046C102.364 54.1923 102.364 53.7599 102.058 53.6476L99.0994 52.5605C99.003 52.5251 98.927 52.4491 98.8916 52.3527L97.8046 49.3942C97.6922 49.0885 97.2599 49.0885 97.1475 49.3942L96.0605 52.3527C96.025 52.4491 95.9491 52.5251 95.8527 52.5605L92.8941 53.6476C92.5884 53.7599 92.5884 54.1923 92.8941 54.3046L95.8527 55.3917C95.9491 55.4271 96.025 55.5031 96.0605 55.5995L97.1475 58.558Z" fill="#CFB1FF"/>
<path d="M40.3201 76.498C40.4539 77.3215 39.2706 77.6119 39.008 76.82L38.2678 74.5875C38.1161 74.1302 37.5492 73.9728 37.1835 74.2864L35.245 75.9486C34.6178 76.4865 33.7567 75.6468 34.2786 75.0062L36.0468 72.8357C36.331 72.4868 36.2025 71.9629 35.789 71.7852L33.217 70.6796C32.4578 70.3533 32.8325 69.2105 33.6375 69.3969L36.1251 69.9731C36.5945 70.0818 37.0241 69.6798 36.9469 69.2043L36.5698 66.8827C36.436 66.0592 37.6192 65.7689 37.8818 66.5608L38.6221 68.7933C38.7737 69.2505 39.3407 69.408 39.7064 69.0944L41.6448 67.4322C42.2721 66.8943 43.1332 67.7339 42.6113 68.3746L40.843 70.5451C40.5588 70.894 40.6874 71.4179 41.1008 71.5956L43.6729 72.7011C44.432 73.0275 44.0574 74.1703 43.2524 73.9838L40.7647 73.4077C40.2954 73.2989 39.8657 73.7009 39.9429 74.1765L40.3201 76.498Z" fill="#FCD3A3"/>
<path d="M94 79C94 81.4853 91.9853 83.5 89.5 83.5C87.0147 83.5 85 81.4853 85 79C85 76.5147 87.0147 74.5 89.5 74.5C91.9853 74.5 94 76.5147 94 79ZM87.4727 79C87.4727 80.1196 88.3804 81.0273 89.5 81.0273C90.6196 81.0273 91.5273 80.1196 91.5273 79C91.5273 77.8804 90.6196 76.9727 89.5 76.9727C88.3804 76.9727 87.4727 77.8804 87.4727 79Z" fill="#26CCE2"/>
<rect x="29" y="44.5" width="11" height="4" rx="2" fill="#B5C0F2"/>
<rect x="100" y="29.5" width="11" height="4" rx="2" fill="#A0A6C2"/>
<rect x="78" y="59.5" width="11" height="4" rx="2" fill="#BFC9F7"/>
<path d="M50 84.5C50 74.5 50 70 59.5 70C69 70 70 72 70 56.5" stroke="#26CCE2" stroke-width="2" stroke-linecap="round"/>
<path d="M50.5 99.0001C50.5 97.8334 51.2 95.5001 54 95.5001C56.8 95.5001 83.6667 95.5001 98 95.5001C103 95.5001 107.588 97.0268 107 103.5C106.5 109 100.667 110.333 98 110C94.8333 110 89.5 108.1 89.5 100.5C89.5 92.9001 89.5 90.5 89.5 90.6667" stroke="#26CCE2" stroke-width="2" stroke-linecap="round"/>
</svg>
