<svg width="264" height="264" viewBox="0 0 264 264" fill="none" xmlns="http://www.w3.org/2000/svg">
<path d="M0 29.513C0 13.2134 13.2134 0 29.513 0H234.487C250.787 0 264 13.2134 264 29.513V234.487C264 250.787 250.787 264 234.487 264H29.513C13.2134 264 0 250.787 0 234.487V29.513Z" fill="#2C0059"/>
<path d="M125.517 110.8C129.097 107.219 134.902 107.219 138.482 110.8L153.199 125.517C156.78 129.097 156.78 134.902 153.199 138.482L138.482 153.2C134.902 156.78 129.097 156.78 125.517 153.2L110.799 138.482C107.219 134.902 107.219 129.097 110.799 125.517L125.517 110.8Z" fill="#A950FF"/>
<path d="M193.302 110.682C196.818 107.166 202.519 107.166 206.035 110.682L220.985 125.632C224.501 129.148 224.501 134.849 220.985 138.365L206.035 153.314C202.519 156.831 196.818 156.831 193.302 153.314L178.353 138.365C174.836 134.849 174.836 129.148 178.353 125.632L193.302 110.682Z" fill="#A950FF"/>
<path d="M125.633 43.0151C129.149 39.4989 134.85 39.4989 138.366 43.0151L153.315 57.9643C156.832 61.4806 156.832 67.1816 153.315 70.6979L138.366 85.6471C134.85 89.1633 129.149 89.1633 125.633 85.6471L110.683 70.6979C107.167 67.1816 107.167 61.4806 110.683 57.9643L125.633 43.0151Z" fill="#E9C1FF"/>
<path d="M119.368 91.683C122.948 95.2633 122.948 101.068 119.368 104.648L104.651 119.366C101.071 122.946 95.2657 122.946 91.6853 119.366L76.9681 104.648C73.3878 101.068 73.3878 95.2633 76.9681 91.683L91.6854 76.9657C95.2657 73.3854 101.071 73.3854 104.651 76.9657L119.368 91.683Z" fill="#CD88FF"/>
<path d="M85.6481 125.632C89.1643 129.148 89.1643 134.849 85.6481 138.365L70.6988 153.314C67.1826 156.831 61.4816 156.831 57.9653 153.314L43.0161 138.365C39.4998 134.849 39.4998 129.148 43.0161 125.632L57.9653 110.682C61.4816 107.166 67.1826 107.166 70.6988 110.682L85.6481 125.632Z" fill="#A950FF"/>
<path d="M187.035 91.683C190.615 95.2633 190.615 101.068 187.035 104.648L172.317 119.366C168.737 122.946 162.932 122.946 159.352 119.366L144.635 104.648C141.054 101.068 141.054 95.2633 144.635 91.683L159.352 76.9657C162.932 73.3854 168.737 73.3854 172.317 76.9657L187.035 91.683Z" fill="#CD88FF"/>
<path d="M146.483 188.339C154.482 196.338 154.482 209.306 146.483 217.305C138.485 225.303 125.516 225.303 117.517 217.305C109.519 209.306 109.519 196.338 117.517 188.339C125.516 180.34 138.485 180.34 146.483 188.339Z" fill="#F62E76"/>
</svg>
