<?xml version="1.0" encoding="utf-8"?>
<svg width="642" height="219" viewBox="0 0 642 219" fill="none" xmlns="http://www.w3.org/2000/svg">
    <path d="M111.82 207.536V167.372C111.82 166.164 111.289 165.016 110.368 164.234L0 70.5665V119.233L105.012 210.641C107.673 212.957 111.82 211.065 111.82 207.536Z" fill="#6DCACD"/>
    <path d="M37.5948 35.2807L6.92189 6.49579C4.29664 4.03212 0 5.89544 0 9.4976V180.717C0 181.855 0.470279 182.941 1.29917 183.719L31.9721 212.504C34.5973 214.968 38.894 213.104 38.894 209.502V38.2826C38.894 37.1452 38.4237 36.0586 37.5948 35.2807Z" fill="#4F83A5"/>
    <path d="M60.1254 94.1121C58.0443 95.7267 54.981 94.2737 54.981 91.6719V50.2586C54.981 49.3076 55.4246 48.4087 56.1854 47.8185L107.648 7.97762C109.729 6.36297 112.792 7.81601 112.792 10.4178V51.8311C112.792 52.7821 112.349 53.681 111.588 54.2712L60.1254 94.1121Z" fill="#B8EBD9"/>
    <path d="M176.753 49.3762H193.06V166.94H176.753V49.3762ZM193.221 128.282L228.903 90.5792H248.762L212.919 128.282L252.476 166.94H232.617L193.221 128.282Z" fill="#4F83A5"/>
    <path d="M267.982 128.906C267.982 122.151 268.975 116.278 270.962 111.285C272.949 106.194 275.582 101.984 278.861 98.6559C282.14 95.3273 285.916 92.8309 290.188 91.1666C294.46 89.5024 298.832 88.6702 303.303 88.6702C313.736 88.6702 321.734 91.9009 327.298 98.3622C332.862 104.726 335.644 114.466 335.644 127.585C335.644 128.172 335.644 128.955 335.644 129.934C335.644 130.816 335.595 131.648 335.495 132.431H282.438C283.034 140.361 285.369 146.381 289.443 150.493C293.517 154.605 299.875 156.661 308.52 156.661C313.388 156.661 317.462 156.269 320.741 155.486C324.119 154.605 326.652 153.773 328.342 152.99L330.279 164.444C328.59 165.325 325.609 166.255 321.337 167.234C317.164 168.213 312.395 168.702 307.029 168.702C300.273 168.702 294.411 167.723 289.443 165.765C284.574 163.709 280.55 160.919 277.371 157.395C274.191 153.871 271.807 149.71 270.217 144.913C268.727 140.018 267.982 134.682 267.982 128.906ZM321.188 121.417C321.287 115.25 319.697 110.208 316.419 106.292C313.239 102.278 308.818 100.271 303.154 100.271C299.975 100.271 297.143 100.908 294.659 102.18C292.275 103.355 290.238 104.921 288.549 106.879C286.86 108.837 285.518 111.089 284.525 113.634C283.63 116.18 283.034 118.774 282.736 121.417H321.188Z" fill="#4F83A5"/>
    <path d="M387.362 157.101C393.026 157.101 397.199 156.367 399.881 154.899C402.663 153.43 404.054 151.08 404.054 147.85C404.054 144.521 402.713 141.878 400.03 139.92C397.348 137.962 392.926 135.759 386.766 133.312C383.785 132.137 380.904 130.962 378.122 129.788C375.439 128.515 373.104 127.046 371.117 125.382C369.13 123.718 367.54 121.711 366.348 119.361C365.156 117.012 364.56 114.124 364.56 110.697C364.56 103.942 367.093 98.6069 372.16 94.691C377.228 90.6771 384.133 88.6702 392.877 88.6702C395.062 88.6702 397.248 88.8171 399.434 89.1108C401.62 89.3066 403.657 89.6003 405.545 89.9918C407.433 90.2855 409.072 90.6282 410.463 91.0198C411.953 91.4114 413.096 91.754 413.891 92.0477L411.357 103.796C409.867 103.012 407.532 102.229 404.352 101.446C401.173 100.565 397.348 100.124 392.877 100.124C389.002 100.124 385.623 100.908 382.742 102.474C379.861 103.942 378.42 106.292 378.42 109.523C378.42 111.187 378.718 112.655 379.314 113.928C380.01 115.201 381.003 116.375 382.295 117.452C383.686 118.431 385.375 119.361 387.362 120.242C389.349 121.124 391.734 122.054 394.516 123.033C398.192 124.403 401.471 125.774 404.352 127.144C407.234 128.417 409.668 129.934 411.655 131.697C413.742 133.459 415.331 135.613 416.424 138.158C417.517 140.605 418.064 143.64 418.064 147.262C418.064 154.311 415.381 159.647 410.016 163.269C404.75 166.891 397.199 168.702 387.362 168.702C380.507 168.702 375.141 168.115 371.266 166.94C367.391 165.863 364.758 165.031 363.367 164.444L365.901 152.696C367.491 153.283 370.024 154.164 373.502 155.339C376.979 156.514 381.599 157.101 387.362 157.101Z" fill="#4F83A5"/>
    <path d="M462.582 90.5792H491.943V102.033H462.582V137.277C462.582 141.095 462.881 144.277 463.477 146.822C464.073 149.269 464.967 151.227 466.159 152.696C467.352 154.066 468.842 155.045 470.63 155.633C472.419 156.22 474.505 156.514 476.89 156.514C481.063 156.514 484.392 156.073 486.875 155.192C489.459 154.213 491.247 153.528 492.241 153.136L494.923 164.444C493.532 165.129 491.098 165.961 487.621 166.94C484.143 168.017 480.169 168.555 475.698 168.555C470.432 168.555 466.06 167.919 462.582 166.646C459.204 165.276 456.472 163.269 454.385 160.626C452.299 157.982 450.809 154.752 449.914 150.934C449.119 147.018 448.722 142.514 448.722 137.424V66.9368H462.582V90.5792Z" fill="#4F83A5"/>
    <path d="M552.708 88.9639C553.9 88.9639 555.241 89.0618 556.732 89.2576C558.321 89.3555 559.861 89.5513 561.352 89.845C562.842 90.0408 564.183 90.2855 565.376 90.5792C566.667 90.775 567.611 90.9708 568.207 91.1666L565.823 103.061C564.73 102.67 562.892 102.229 560.308 101.74C557.824 101.152 554.595 100.859 550.621 100.859C548.038 100.859 545.454 101.152 542.871 101.74C540.387 102.229 538.748 102.572 537.953 102.768V166.94H524.092V93.8099C527.371 92.6351 531.445 91.5582 536.313 90.5792C541.182 89.5024 546.647 88.9639 552.708 88.9639Z" fill="#4F83A5"/>
    <path d="M613.385 157.101C616.664 157.101 619.545 157.052 622.029 156.954C624.612 156.759 626.748 156.465 628.438 156.073V133.312C627.444 132.822 625.805 132.431 623.519 132.137C621.333 131.746 618.651 131.55 615.471 131.55C613.385 131.55 611.149 131.697 608.765 131.99C606.479 132.284 604.343 132.92 602.356 133.899C600.468 134.78 598.878 136.053 597.587 137.717C596.295 139.284 595.649 141.389 595.649 144.032C595.649 148.927 597.239 152.353 600.419 154.311C603.598 156.171 607.92 157.101 613.385 157.101ZM612.193 88.6702C617.757 88.6702 622.426 89.4045 626.202 90.8729C630.077 92.2435 633.157 94.2504 635.442 96.8937C637.827 99.4391 639.516 102.523 640.51 106.145C641.503 109.669 642 113.585 642 117.893V165.618C640.808 165.814 639.118 166.108 636.933 166.499C634.846 166.793 632.462 167.087 629.779 167.381C627.096 167.674 624.165 167.919 620.986 168.115C617.906 168.409 614.825 168.555 611.745 168.555C607.374 168.555 603.35 168.115 599.673 167.234C595.997 166.353 592.818 164.982 590.135 163.122C587.452 161.164 585.366 158.619 583.875 155.486C582.385 152.353 581.64 148.584 581.64 144.179C581.64 139.969 582.484 136.347 584.174 133.312C585.962 130.277 588.347 127.83 591.327 125.97C594.308 124.109 597.786 122.739 601.76 121.858C605.734 120.977 609.907 120.536 614.279 120.536C615.67 120.536 617.111 120.634 618.601 120.83C620.091 120.928 621.482 121.124 622.774 121.417C624.165 121.613 625.357 121.809 626.351 122.005C627.345 122.2 628.04 122.347 628.438 122.445V118.627C628.438 116.375 628.189 114.173 627.692 112.019C627.196 109.767 626.301 107.809 625.01 106.145C623.718 104.383 621.93 103.012 619.644 102.033C617.458 100.956 614.577 100.418 611 100.418C606.43 100.418 602.406 100.761 598.928 101.446C595.55 102.033 593.016 102.67 591.327 103.355L589.688 92.0477C591.476 91.2645 594.457 90.5303 598.63 89.845C602.803 89.0618 607.324 88.6702 612.193 88.6702Z" fill="#4F83A5"/>
</svg>
