<?xml version="1.0" encoding="utf-8"?>
<svg width="163" height="54" viewBox="0 0 163 54" fill="none" xmlns="http://www.w3.org/2000/svg">
    <path d="M33.2033 50.4378V40.6768C33.2033 40.383 33.0741 40.1041 32.85 39.9141L6 17.1499V28.9774L31.5472 51.1924C32.1944 51.7552 33.2033 51.2955 33.2033 50.4378Z" fill="#6DCACD"/>
    <path d="M15.146 8.57435L7.68394 1.57869C7.04528 0.979946 6 1.43279 6 2.30823V43.9201C6 44.1965 6.11441 44.4605 6.31606 44.6496L13.7781 51.6452C14.4168 52.244 15.462 51.7911 15.462 50.9157V9.30389C15.462 9.02748 15.3476 8.7634 15.146 8.57435Z" fill="#4F83A5"/>
    <path d="M20.6273 22.8722C20.121 23.2646 19.3757 22.9115 19.3757 22.2792V12.2144C19.3757 11.9833 19.4837 11.7648 19.6687 11.6214L32.1884 1.93881C32.6947 1.5464 33.4399 1.89953 33.4399 2.53185V12.5966C33.4399 12.8277 33.332 13.0462 33.1469 13.1896L20.6273 22.8722Z" fill="#B8EBD9"/>
    <path d="M49 10H52.9672V38.5717H49V10ZM53.0064 29.1767L61.6871 20.0136H66.5184L57.7985 29.1767L67.4218 38.5717H62.5905L53.0064 29.1767Z" fill="#FFFFFF"/>
    <path d="M71.1939 29.3284C71.1939 27.6867 71.4357 26.2592 71.9191 25.0457C72.4025 23.8085 73.0431 22.7855 73.8407 21.9765C74.6384 21.1676 75.5569 20.5609 76.5963 20.1564C77.6357 19.7519 78.6992 19.5497 79.7869 19.5497C82.325 19.5497 84.2708 20.3348 85.6244 21.9051C86.978 23.4516 87.6548 25.819 87.6548 29.0072C87.6548 29.1499 87.6548 29.3403 87.6548 29.5782C87.6548 29.7923 87.6427 29.9946 87.6185 30.1849H74.7109C74.8559 32.1121 75.424 33.5753 76.415 34.5746C77.406 35.5739 78.953 36.0735 81.056 36.0735C82.2404 36.0735 83.2314 35.9784 84.0291 35.788C84.8509 35.5739 85.4673 35.3717 85.8782 35.1813L86.3495 37.965C85.9386 38.1792 85.2135 38.4052 84.1741 38.6431C83.1589 38.881 81.9986 39 80.6934 39C79.0497 39 77.6236 38.7621 76.415 38.2862C75.2306 37.7866 74.2516 37.1085 73.4782 36.252C72.7047 35.3954 72.1245 34.3843 71.7378 33.2184C71.3752 32.0288 71.1939 30.7321 71.1939 29.3284ZM84.1378 27.5083C84.162 26.0093 83.7753 24.784 82.9776 23.8323C82.2041 22.8568 81.1285 22.3691 79.7507 22.3691C78.9772 22.3691 78.2883 22.5237 77.684 22.833C77.1039 23.1186 76.6084 23.4992 76.1975 23.9751C75.7865 24.4509 75.4602 24.9982 75.2185 25.6168C75.001 26.2354 74.8559 26.8659 74.7834 27.5083H84.1378Z" fill="#FFFFFF"/>
    <path d="M100.237 36.1806C101.614 36.1806 102.63 36.0022 103.282 35.6453C103.959 35.2884 104.297 34.7174 104.297 33.9322C104.297 33.1233 103.971 32.4809 103.318 32.005C102.666 31.5292 101.59 30.9938 100.092 30.399C99.3664 30.1135 98.6654 29.828 97.9886 29.5425C97.336 29.2332 96.768 28.8763 96.2845 28.4718C95.8011 28.0674 95.4143 27.5796 95.1243 27.0086C94.8342 26.4376 94.6892 25.7357 94.6892 24.903C94.6892 23.2613 95.3056 21.9646 96.5383 21.0129C97.7711 20.0374 99.451 19.5497 101.578 19.5497C102.11 19.5497 102.642 19.5854 103.173 19.6568C103.705 19.7043 104.201 19.7757 104.66 19.8709C105.119 19.9423 105.518 20.0255 105.856 20.1207C106.219 20.2159 106.497 20.2991 106.69 20.3705L106.074 23.2256C105.711 23.0353 105.143 22.8449 104.37 22.6546C103.596 22.4405 102.666 22.3334 101.578 22.3334C100.635 22.3334 99.8136 22.5237 99.1126 22.9044C98.4116 23.2613 98.0611 23.8323 98.0611 24.6175C98.0611 25.0219 98.1337 25.3788 98.2787 25.6881C98.4479 25.9974 98.6896 26.2829 99.0038 26.5447C99.3422 26.7826 99.7532 27.0086 100.237 27.2227C100.72 27.4369 101.3 27.6629 101.977 27.9008C102.871 28.2339 103.669 28.567 104.37 28.9001C105.071 29.2094 105.663 29.5782 106.147 30.0065C106.654 30.4347 107.041 30.9582 107.307 31.5768C107.573 32.1716 107.706 32.9091 107.706 33.7895C107.706 35.5025 107.053 36.7992 105.748 37.6795C104.467 38.5598 102.63 39 100.237 39C98.5687 39 97.2635 38.8572 96.3208 38.5717C95.3781 38.31 94.7375 38.1078 94.3991 37.965L95.0155 35.1099C95.4023 35.2527 96.0186 35.4668 96.8646 35.7523C97.7107 36.0378 98.8346 36.1806 100.237 36.1806Z" fill="#FFFFFF"/>
    <path d="M118.536 20.0136H125.679V22.7974H118.536V31.3626C118.536 32.2905 118.609 33.0638 118.754 33.6824C118.899 34.2772 119.116 34.7531 119.406 35.1099C119.696 35.443 120.059 35.681 120.494 35.8237C120.929 35.9665 121.437 36.0378 122.017 36.0378C123.032 36.0378 123.842 35.9308 124.446 35.7166C125.074 35.4787 125.509 35.3122 125.751 35.217L126.404 37.965C126.065 38.1316 125.473 38.3338 124.627 38.5717C123.781 38.8335 122.814 38.9643 121.727 38.9643C120.446 38.9643 119.382 38.8097 118.536 38.5004C117.714 38.1673 117.049 37.6795 116.542 37.0371C116.034 36.3947 115.672 35.6096 115.454 34.6817C115.261 33.73 115.164 32.6355 115.164 31.3983V14.2678H118.536V20.0136Z" fill="#FFFFFF"/>
    <path d="M140.461 19.6211C140.751 19.6211 141.078 19.6449 141.44 19.6924C141.827 19.7162 142.202 19.7638 142.564 19.8352C142.927 19.8828 143.253 19.9423 143.543 20.0136C143.858 20.0612 144.087 20.1088 144.232 20.1564L143.652 23.0472C143.386 22.952 142.939 22.8449 142.311 22.726C141.706 22.5832 140.921 22.5118 139.954 22.5118C139.325 22.5118 138.697 22.5832 138.068 22.726C137.464 22.8449 137.065 22.9282 136.872 22.9758V38.5717H133.5V20.7988C134.298 20.5133 135.289 20.2516 136.473 20.0136C137.658 19.7519 138.987 19.6211 140.461 19.6211Z" fill="#FFFFFF"/>
    <path d="M155.223 36.1806C156.02 36.1806 156.721 36.1687 157.326 36.1449C157.954 36.0973 158.474 36.0259 158.885 35.9308V30.399C158.643 30.2801 158.244 30.1849 157.688 30.1135C157.157 30.0184 156.504 29.9708 155.73 29.9708C155.223 29.9708 154.679 30.0065 154.099 30.0778C153.543 30.1492 153.023 30.3039 152.54 30.5418C152.081 30.7559 151.694 31.0652 151.38 31.4697C151.065 31.8504 150.908 32.3619 150.908 33.0043C150.908 34.1939 151.295 35.0267 152.068 35.5025C152.842 35.9546 153.893 36.1806 155.223 36.1806ZM154.933 19.5497C156.286 19.5497 157.422 19.7281 158.341 20.085C159.284 20.4181 160.033 20.9059 160.589 21.5483C161.169 22.1669 161.58 22.9163 161.822 23.7966C162.063 24.6532 162.184 25.6049 162.184 26.6517V38.2505C161.894 38.2981 161.483 38.3695 160.951 38.4647C160.444 38.536 159.864 38.6074 159.211 38.6788C158.559 38.7502 157.845 38.8097 157.072 38.8572C156.323 38.9286 155.573 38.9643 154.824 38.9643C153.76 38.9643 152.781 38.8572 151.887 38.6431C150.993 38.429 150.219 38.0959 149.567 37.6438C148.914 37.168 148.406 36.5494 148.044 35.788C147.681 35.0267 147.5 34.1107 147.5 33.04C147.5 32.0169 147.705 31.1366 148.116 30.399C148.551 29.6615 149.132 29.0667 149.857 28.6146C150.582 28.1625 151.428 27.8295 152.395 27.6153C153.362 27.4012 154.377 27.2941 155.44 27.2941C155.779 27.2941 156.129 27.3179 156.492 27.3655C156.854 27.3893 157.193 27.4369 157.507 27.5083C157.845 27.5558 158.136 27.6034 158.377 27.651C158.619 27.6986 158.788 27.7343 158.885 27.7581V26.8302C158.885 26.2829 158.824 25.7476 158.704 25.2242C158.583 24.677 158.365 24.2011 158.051 23.7966C157.737 23.3684 157.302 23.0353 156.746 22.7974C156.214 22.5356 155.513 22.4048 154.643 22.4048C153.531 22.4048 152.552 22.4881 151.706 22.6546C150.884 22.7974 150.268 22.952 149.857 23.1186L149.458 20.3705C149.893 20.1802 150.618 20.0017 151.633 19.8352C152.649 19.6449 153.748 19.5497 154.933 19.5497Z" fill="#FFFFFF"/>
</svg>
