<svg width="170" height="147" viewBox="0 0 170 147" fill="none" xmlns="http://www.w3.org/2000/svg">
<path opacity="0.4" d="M130.225 84.047C123.848 108.196 99.1015 122.602 74.9528 116.225C50.8042 109.847 36.3978 85.1009 42.7752 60.9523C49.1526 36.8036 73.8989 22.3972 98.0476 28.7747C122.196 35.1521 136.603 59.8984 130.225 84.047Z" fill="#1C1E27" stroke="#1761FD" stroke-linejoin="round"/>
<g filter="url(#filter0_d_3129_36818)">
<path d="M127.595 43.3848C131.359 48.6869 134.125 54.7556 135.613 61.3241L135.183 61.4214C135.893 64.5538 136.309 67.8012 136.4 71.1344C136.491 74.4675 136.253 77.7329 135.717 80.8994L136.151 80.973C135.025 87.6131 132.594 93.824 129.126 99.3241L128.754 99.0893C125.26 104.631 120.703 109.444 115.361 113.237L115.615 113.596C110.313 117.359 104.245 120.126 97.676 121.613L97.5788 121.184C94.4463 121.893 91.1989 122.309 87.8657 122.4C84.5326 122.491 81.2673 122.254 78.1007 121.717L78.0271 122.151C71.387 121.025 65.1761 118.595 59.6761 115.127L59.9109 114.754C54.3693 111.26 49.5557 106.703 45.7636 101.361L45.4046 101.616C41.6408 96.3135 38.8744 90.2448 37.3871 83.6762L37.8165 83.579C37.1072 80.4466 36.6914 77.1991 36.6001 73.866C36.5089 70.5328 36.7465 67.2675 37.2834 64.1009L36.8493 64.0273C37.9751 57.3873 40.4054 51.1763 43.8735 45.6763L44.2459 45.9111C47.7402 40.3695 52.2973 35.5559 57.6394 31.7638L57.3846 31.4048C62.6866 27.641 68.7553 24.8746 75.3239 23.3873L75.4211 23.8167C78.5536 23.1074 81.801 22.6916 85.1342 22.6003C88.4673 22.5091 91.7326 22.7467 94.8992 23.2836L94.9728 22.8495C101.613 23.9753 107.824 26.4056 113.324 29.8737L113.089 30.2461C118.631 33.7404 123.444 38.2975 127.236 43.6396L127.595 43.3848Z" stroke="#9470FF" stroke-width="0.880475" stroke-linejoin="round" stroke-dasharray="21.13 21.13" shape-rendering="crispEdges"/>
</g>
<line x1="166.201" y1="73" x2="142.384" y2="73" stroke="#FD7278" stroke-dasharray="2 2"/>
<line x1="43.1741" y1="36.7307" x2="26.6513" y2="19.5765" stroke="#3991FF" stroke-dasharray="2 2"/>
<line y1="-0.5" x2="23.8174" y2="-0.5" transform="matrix(0.73486 -0.678218 -0.678218 -0.73486 131.416 35.8838)" stroke="#3991FF" stroke-dasharray="2 2"/>
<line x1="132.757" y1="118.883" x2="149.279" y2="136.037" stroke="#3991FF" stroke-dasharray="2 2"/>
<line y1="-0.5" x2="23.8174" y2="-0.5" transform="matrix(-0.73486 0.678218 0.678218 0.73486 44.5137 119.73)" stroke="#3991FF" stroke-dasharray="2 2"/>
<g filter="url(#filter1_dd_3129_36818)">
<rect x="29.8672" y="94.5" width="51.4935" height="21.7402" rx="3.62337" fill="#7E703E" fill-opacity="0.2" shape-rendering="crispEdges"/>
<rect x="30.3201" y="94.9529" width="50.5876" height="20.8344" rx="3.17045" stroke="#7E703E" stroke-width="0.905843" shape-rendering="crispEdges"/>
<path d="M40.3753 109.001C39.81 109.001 39.3136 108.859 38.8861 108.577C38.4585 108.294 38.1252 107.881 37.886 107.337C37.6469 106.787 37.5273 106.105 37.5273 105.294C37.5273 104.504 37.6469 103.841 37.886 103.305C38.1252 102.761 38.4585 102.352 38.8861 102.076C39.3136 101.794 39.81 101.652 40.3753 101.652C40.9405 101.652 41.4369 101.794 41.8645 102.076C42.2921 102.352 42.6254 102.761 42.8646 103.305C43.1037 103.841 43.2233 104.504 43.2233 105.294C43.2233 106.105 43.1037 106.787 42.8646 107.337C42.6254 107.881 42.2921 108.294 41.8645 108.577C41.4369 108.859 40.9405 109.001 40.3753 109.001ZM40.3753 107.696C40.6217 107.696 40.8355 107.609 41.0166 107.435C41.1978 107.261 41.3355 107 41.4297 106.653C41.5311 106.298 41.5819 105.845 41.5819 105.294C41.5819 104.801 41.5311 104.388 41.4297 104.055C41.3355 103.721 41.1978 103.468 41.0166 103.294C40.8355 103.12 40.6217 103.033 40.3753 103.033C40.1289 103.033 39.9151 103.12 39.734 103.294C39.5528 103.468 39.4115 103.721 39.31 104.055C39.2158 104.388 39.1687 104.801 39.1687 105.294C39.1687 105.845 39.2158 106.298 39.31 106.653C39.4115 107 39.5528 107.261 39.734 107.435C39.9151 107.609 40.1289 107.696 40.3753 107.696ZM42.408 110.805C41.7051 110.805 41.1145 110.62 40.6362 110.251C40.1651 109.881 39.8209 109.406 39.6035 108.827L41.2232 108.664C41.2956 108.881 41.4007 109.051 41.5384 109.174C41.6833 109.305 41.8464 109.396 42.0276 109.446C42.216 109.497 42.408 109.522 42.6037 109.522C42.7124 109.522 42.8138 109.508 42.908 109.479C43.0095 109.45 43.0964 109.417 43.1689 109.381L43.4515 110.577C43.3356 110.642 43.1907 110.696 43.0167 110.74C42.8428 110.783 42.6399 110.805 42.408 110.805ZM46.3714 109.001C45.9365 109.001 45.5561 108.939 45.23 108.816C44.9111 108.685 44.643 108.501 44.4256 108.261C44.2154 108.015 44.056 107.718 43.9473 107.37C43.8386 107.015 43.7843 106.606 43.7843 106.142V101.783H45.3822V106.305C45.3822 106.587 45.4184 106.827 45.4909 107.022C45.5633 107.218 45.672 107.366 45.817 107.468C45.9619 107.569 46.1467 107.62 46.3714 107.62C46.596 107.62 46.7808 107.569 46.9257 107.468C47.0779 107.366 47.1902 107.218 47.2627 107.022C47.3352 106.827 47.3714 106.587 47.3714 106.305V101.783H48.915V106.142C48.915 106.606 48.8642 107.015 48.7628 107.37C48.6613 107.718 48.5019 108.015 48.2845 108.261C48.0743 108.501 47.8098 108.685 47.491 108.816C47.1721 108.939 46.7989 109.001 46.3714 109.001ZM50.0629 108.87V101.783H54.7588V103.131H51.6717V104.555H54.2914V105.892H51.6717V107.522H54.8675V108.87H50.0629ZM58.32 109.001C57.8852 109.001 57.5047 108.939 57.1786 108.816C56.8598 108.685 56.5916 108.501 56.3742 108.261C56.1641 108.015 56.0047 107.718 55.896 107.37C55.7873 107.015 55.7329 106.606 55.7329 106.142V101.783H57.3308V106.305C57.3308 106.587 57.367 106.827 57.4395 107.022C57.512 107.218 57.6207 107.366 57.7656 107.468C57.9105 107.569 58.0953 107.62 58.32 107.62C58.5446 107.62 58.7294 107.569 58.8744 107.468C59.0265 107.366 59.1389 107.218 59.2113 107.022C59.2838 106.827 59.32 106.587 59.32 106.305V101.783H60.8636V106.142C60.8636 106.606 60.8129 107.015 60.7114 107.37C60.61 107.718 60.4505 108.015 60.2331 108.261C60.023 108.501 59.7585 108.685 59.4396 108.816C59.1208 108.939 58.7475 109.001 58.32 109.001ZM62.0116 108.87V101.783H66.7075V103.131H63.6204V104.555H66.2401V105.892H63.6204V107.522H66.8162V108.87H62.0116ZM67.7468 108.87V101.783H69.7034C70.3918 101.783 70.9897 101.906 71.4969 102.152C72.0115 102.399 72.41 102.783 72.6927 103.305C72.9753 103.819 73.1166 104.482 73.1166 105.294C73.1166 106.105 72.9753 106.776 72.6927 107.305C72.4173 107.834 72.0296 108.229 71.5296 108.49C71.0295 108.743 70.4534 108.87 69.8012 108.87H67.7468ZM69.3555 107.577H69.6164C69.9932 107.577 70.3194 107.504 70.5947 107.359C70.8701 107.214 71.0839 106.975 71.2361 106.642C71.3955 106.308 71.4752 105.859 71.4752 105.294C71.4752 104.729 71.3955 104.287 71.2361 103.968C71.0839 103.642 70.8701 103.413 70.5947 103.283C70.3194 103.145 69.9932 103.076 69.6164 103.076H69.3555V107.577Z" fill="#FDEAA8"/>
</g>
<g filter="url(#filter2_dd_3129_36818)">
<rect x="92.5" y="35.8828" width="54.8168" height="20.7251" rx="3.45419" fill="#1761FD" fill-opacity="0.2" shape-rendering="crispEdges"/>
<rect x="92.9318" y="36.3146" width="53.9532" height="19.8616" rx="3.02242" stroke="#3991FF" stroke-width="0.863548" shape-rendering="crispEdges"/>
<path d="M100.134 49.2451V42.4887H102.527C103.004 42.4887 103.439 42.5543 103.833 42.6856C104.227 42.81 104.541 43.0276 104.776 43.3385C105.018 43.6424 105.139 44.0604 105.139 44.5923C105.139 45.1105 105.018 45.5319 104.776 45.8566C104.541 46.1813 104.227 46.423 103.833 46.5819C103.439 46.7339 103.004 46.8099 102.527 46.8099H101.657V49.2451H100.134ZM101.657 45.5975H102.403C102.804 45.5975 103.108 45.5146 103.315 45.3488C103.529 45.1761 103.636 44.9239 103.636 44.5923C103.636 44.2607 103.529 44.0293 103.315 43.898C103.108 43.7668 102.804 43.7011 102.403 43.7011H101.657V45.5975ZM102.248 46.4161L103.305 45.4317L105.46 49.2451H103.75L102.248 46.4161ZM108.233 49.3695C107.819 49.3695 107.456 49.3107 107.145 49.1933C106.841 49.069 106.585 48.8928 106.378 48.6648C106.178 48.4299 106.026 48.1467 105.922 47.8151C105.819 47.4766 105.767 47.0862 105.767 46.6441V42.4887H107.29V46.7996C107.29 47.069 107.325 47.297 107.394 47.4835C107.463 47.67 107.566 47.8116 107.705 47.9083C107.843 48.0051 108.019 48.0534 108.233 48.0534C108.447 48.0534 108.623 48.0051 108.762 47.9083C108.907 47.8116 109.014 47.67 109.083 47.4835C109.152 47.297 109.186 47.069 109.186 46.7996V42.4887H110.658V46.6441C110.658 47.0862 110.61 47.4766 110.513 47.8151C110.416 48.1467 110.264 48.4299 110.057 48.6648C109.857 48.8928 109.604 49.069 109.3 49.1933C108.996 49.3107 108.641 49.3695 108.233 49.3695ZM111.483 49.2451V42.4887H113.048L114.467 45.8462L115.048 47.3384H115.089C115.054 46.9792 115.01 46.5785 114.954 46.1363C114.899 45.6942 114.871 45.2763 114.871 44.8825V42.4887H116.333V49.2451H114.768L113.348 45.8773L112.768 44.4058H112.726C112.761 44.7719 112.806 45.1726 112.861 45.6079C112.916 46.0362 112.944 46.4507 112.944 46.8514V49.2451H111.483ZM117.178 49.2451V42.4887H118.743L120.163 45.8462L120.743 47.3384H120.784C120.75 46.9792 120.705 46.5785 120.65 46.1363C120.594 45.6942 120.567 45.2763 120.567 44.8825V42.4887H122.028V49.2451H120.463L119.043 45.8773L118.463 44.4058H118.422C118.456 44.7719 118.501 45.1726 118.556 45.6079C118.612 46.0362 118.639 46.4507 118.639 46.8514V49.2451H117.178ZM122.957 49.2451V47.9602H124.532V43.7737H122.957V42.4887H127.64V43.7737H126.065V47.9602H127.64V49.2451H122.957ZM128.569 49.2451V42.4887H130.134L131.553 45.8462L132.134 47.3384H132.175C132.141 46.9792 132.096 46.5785 132.04 46.1363C131.985 45.6942 131.958 45.2763 131.958 44.8825V42.4887H133.419V49.2451H131.854L130.434 45.8773L129.854 44.4058H129.812C129.847 44.7719 129.892 45.1726 129.947 45.6079C130.002 46.0362 130.03 46.4507 130.03 46.8514V49.2451H128.569ZM137.135 49.3695C136.561 49.3695 136.04 49.2417 135.57 48.9861C135.1 48.7235 134.727 48.3367 134.451 47.8254C134.175 47.3073 134.036 46.6683 134.036 45.9084C134.036 45.1554 134.175 44.5163 134.451 43.9913C134.727 43.4593 135.1 43.0552 135.57 42.7789C136.047 42.5025 136.575 42.3644 137.155 42.3644C137.611 42.3644 138.002 42.4542 138.326 42.6338C138.651 42.8065 138.921 43.0034 139.135 43.2245L138.295 44.1675C138.15 44.0224 137.991 43.9049 137.819 43.8151C137.646 43.7253 137.425 43.6804 137.155 43.6804C136.865 43.6804 136.603 43.7702 136.368 43.9498C136.133 44.1226 135.947 44.3713 135.808 44.6959C135.677 45.0206 135.611 45.4075 135.611 45.8566C135.611 46.3194 135.67 46.7166 135.788 47.0483C135.905 47.3729 136.085 47.6216 136.326 47.7944C136.568 47.9671 136.865 48.0534 137.218 48.0534C137.349 48.0534 137.473 48.0362 137.591 48.0016C137.715 47.9671 137.812 47.9153 137.881 47.8462V46.6856H136.896V45.4421H139.249V48.5508C139.021 48.765 138.717 48.955 138.337 49.1208C137.964 49.2866 137.563 49.3695 137.135 49.3695Z" fill="#7FD8FF"/>
</g>
<g filter="url(#filter3_d_3129_36818)">
<g filter="url(#filter4_i_3129_36818)">
<rect x="59.4688" y="66.7422" width="11.5166" height="11.5166" rx="2" fill="#5BB8FF"/>
</g>
<g filter="url(#filter5_i_3129_36818)">
<rect x="73.6504" y="66.7422" width="11.5166" height="11.5166" rx="2" fill="#5BB8FF"/>
</g>
<g filter="url(#filter6_i_3129_36818)">
<rect x="87.832" y="66.7422" width="11.5166" height="11.5166" rx="2" fill="#5BB8FF"/>
</g>
<g filter="url(#filter7_i_3129_36818)">
<rect x="102.015" y="66.7422" width="11.5166" height="11.5166" rx="2" fill="#BDA85D"/>
</g>
</g>
<line x1="87" y1="126.521" x2="87" y2="135.302" stroke="#FD7278" stroke-dasharray="2 2"/>
<line x1="87" y1="7.77344" x2="87" y2="16.5537" stroke="#FD7278" stroke-dasharray="2 2"/>
<line x1="30.6162" y1="73" x2="6.79883" y2="73" stroke="#FD7278" stroke-dasharray="2 2"/>
<defs>
<filter id="filter0_d_3129_36818" x="33.4992" y="22.1406" width="106.002" height="106.002" filterUnits="userSpaceOnUse" color-interpolation-filters="sRGB">
<feFlood flood-opacity="0" result="BackgroundImageFix"/>
<feColorMatrix in="SourceAlpha" type="matrix" values="0 0 0 0 0 0 0 0 0 0 0 0 0 0 0 0 0 0 127 0" result="hardAlpha"/>
<feOffset dy="2.64143"/>
<feGaussianBlur stdDeviation="1.32071"/>
<feComposite in2="hardAlpha" operator="out"/>
<feColorMatrix type="matrix" values="0 0 0 0 0.432266 0 0 0 0 0.00354165 0 0 0 0 0.846458 0 0 0 1 0"/>
<feBlend mode="screen" in2="BackgroundImageFix" result="effect1_dropShadow_3129_36818"/>
<feBlend mode="normal" in="SourceGraphic" in2="effect1_dropShadow_3129_36818" result="shape"/>
</filter>
<filter id="filter1_dd_3129_36818" x="9.86719" y="75.5" width="91.4932" height="61.7402" filterUnits="userSpaceOnUse" color-interpolation-filters="sRGB">
<feFlood flood-opacity="0" result="BackgroundImageFix"/>
<feColorMatrix in="SourceAlpha" type="matrix" values="0 0 0 0 0 0 0 0 0 0 0 0 0 0 0 0 0 0 127 0" result="hardAlpha"/>
<feOffset dy="1"/>
<feGaussianBlur stdDeviation="10"/>
<feColorMatrix type="matrix" values="0 0 0 0 0.258824 0 0 0 0 0 0 0 0 0 0.501961 0 0 0 0.05 0"/>
<feBlend mode="normal" in2="BackgroundImageFix" result="effect1_dropShadow_3129_36818"/>
<feColorMatrix in="SourceAlpha" type="matrix" values="0 0 0 0 0 0 0 0 0 0 0 0 0 0 0 0 0 0 127 0" result="hardAlpha"/>
<feOffset dy="-1"/>
<feGaussianBlur stdDeviation="4"/>
<feComposite in2="hardAlpha" operator="out"/>
<feColorMatrix type="matrix" values="0 0 0 0 1 0 0 0 0 1 0 0 0 0 1 0 0 0 0.72 0"/>
<feBlend mode="normal" in2="effect1_dropShadow_3129_36818" result="effect2_dropShadow_3129_36818"/>
<feBlend mode="normal" in="SourceGraphic" in2="effect2_dropShadow_3129_36818" result="shape"/>
</filter>
<filter id="filter2_dd_3129_36818" x="72.5" y="16.8828" width="94.8164" height="60.7256" filterUnits="userSpaceOnUse" color-interpolation-filters="sRGB">
<feFlood flood-opacity="0" result="BackgroundImageFix"/>
<feColorMatrix in="SourceAlpha" type="matrix" values="0 0 0 0 0 0 0 0 0 0 0 0 0 0 0 0 0 0 127 0" result="hardAlpha"/>
<feOffset dy="1"/>
<feGaussianBlur stdDeviation="10"/>
<feColorMatrix type="matrix" values="0 0 0 0 0.258824 0 0 0 0 0 0 0 0 0 0.501961 0 0 0 0.05 0"/>
<feBlend mode="normal" in2="BackgroundImageFix" result="effect1_dropShadow_3129_36818"/>
<feColorMatrix in="SourceAlpha" type="matrix" values="0 0 0 0 0 0 0 0 0 0 0 0 0 0 0 0 0 0 127 0" result="hardAlpha"/>
<feOffset dy="-1"/>
<feGaussianBlur stdDeviation="4"/>
<feComposite in2="hardAlpha" operator="out"/>
<feColorMatrix type="matrix" values="0 0 0 0 1 0 0 0 0 1 0 0 0 0 1 0 0 0 0.72 0"/>
<feBlend mode="normal" in2="effect1_dropShadow_3129_36818" result="effect2_dropShadow_3129_36818"/>
<feBlend mode="normal" in="SourceGraphic" in2="effect2_dropShadow_3129_36818" result="shape"/>
</filter>
<filter id="filter3_d_3129_36818" x="47.4688" y="58.7422" width="78.0625" height="35.5166" filterUnits="userSpaceOnUse" color-interpolation-filters="sRGB">
<feFlood flood-opacity="0" result="BackgroundImageFix"/>
<feColorMatrix in="SourceAlpha" type="matrix" values="0 0 0 0 0 0 0 0 0 0 0 0 0 0 0 0 0 0 127 0" result="hardAlpha"/>
<feOffset dy="4"/>
<feGaussianBlur stdDeviation="6"/>
<feComposite in2="hardAlpha" operator="out"/>
<feColorMatrix type="matrix" values="0 0 0 0 0.32549 0 0 0 0 0 0 0 0 0 0.623529 0 0 0 1 0"/>
<feBlend mode="normal" in2="BackgroundImageFix" result="effect1_dropShadow_3129_36818"/>
<feBlend mode="normal" in="SourceGraphic" in2="effect1_dropShadow_3129_36818" result="shape"/>
</filter>
<filter id="filter4_i_3129_36818" x="59.4688" y="66.7422" width="11.5166" height="13.5166" filterUnits="userSpaceOnUse" color-interpolation-filters="sRGB">
<feFlood flood-opacity="0" result="BackgroundImageFix"/>
<feBlend mode="normal" in="SourceGraphic" in2="BackgroundImageFix" result="shape"/>
<feColorMatrix in="SourceAlpha" type="matrix" values="0 0 0 0 0 0 0 0 0 0 0 0 0 0 0 0 0 0 127 0" result="hardAlpha"/>
<feMorphology radius="1" operator="erode" in="SourceAlpha" result="effect1_innerShadow_3129_36818"/>
<feOffset dy="2"/>
<feGaussianBlur stdDeviation="2"/>
<feComposite in2="hardAlpha" operator="arithmetic" k2="-1" k3="1"/>
<feColorMatrix type="matrix" values="0 0 0 0 0.871489 0 0 0 0 0.862851 0 0 0 0 0.873217 0 0 0 0.65 0"/>
<feBlend mode="normal" in2="shape" result="effect1_innerShadow_3129_36818"/>
</filter>
<filter id="filter5_i_3129_36818" x="73.6504" y="66.7422" width="11.5166" height="13.5166" filterUnits="userSpaceOnUse" color-interpolation-filters="sRGB">
<feFlood flood-opacity="0" result="BackgroundImageFix"/>
<feBlend mode="normal" in="SourceGraphic" in2="BackgroundImageFix" result="shape"/>
<feColorMatrix in="SourceAlpha" type="matrix" values="0 0 0 0 0 0 0 0 0 0 0 0 0 0 0 0 0 0 127 0" result="hardAlpha"/>
<feMorphology radius="1" operator="erode" in="SourceAlpha" result="effect1_innerShadow_3129_36818"/>
<feOffset dy="2"/>
<feGaussianBlur stdDeviation="2"/>
<feComposite in2="hardAlpha" operator="arithmetic" k2="-1" k3="1"/>
<feColorMatrix type="matrix" values="0 0 0 0 0.871489 0 0 0 0 0.862851 0 0 0 0 0.873217 0 0 0 0.65 0"/>
<feBlend mode="normal" in2="shape" result="effect1_innerShadow_3129_36818"/>
</filter>
<filter id="filter6_i_3129_36818" x="87.832" y="66.7422" width="11.5166" height="13.5166" filterUnits="userSpaceOnUse" color-interpolation-filters="sRGB">
<feFlood flood-opacity="0" result="BackgroundImageFix"/>
<feBlend mode="normal" in="SourceGraphic" in2="BackgroundImageFix" result="shape"/>
<feColorMatrix in="SourceAlpha" type="matrix" values="0 0 0 0 0 0 0 0 0 0 0 0 0 0 0 0 0 0 127 0" result="hardAlpha"/>
<feMorphology radius="1" operator="erode" in="SourceAlpha" result="effect1_innerShadow_3129_36818"/>
<feOffset dy="2"/>
<feGaussianBlur stdDeviation="2"/>
<feComposite in2="hardAlpha" operator="arithmetic" k2="-1" k3="1"/>
<feColorMatrix type="matrix" values="0 0 0 0 0.871489 0 0 0 0 0.862851 0 0 0 0 0.873217 0 0 0 0.65 0"/>
<feBlend mode="normal" in2="shape" result="effect1_innerShadow_3129_36818"/>
</filter>
<filter id="filter7_i_3129_36818" x="102.015" y="66.7422" width="11.5166" height="13.5166" filterUnits="userSpaceOnUse" color-interpolation-filters="sRGB">
<feFlood flood-opacity="0" result="BackgroundImageFix"/>
<feBlend mode="normal" in="SourceGraphic" in2="BackgroundImageFix" result="shape"/>
<feColorMatrix in="SourceAlpha" type="matrix" values="0 0 0 0 0 0 0 0 0 0 0 0 0 0 0 0 0 0 127 0" result="hardAlpha"/>
<feMorphology radius="1" operator="erode" in="SourceAlpha" result="effect1_innerShadow_3129_36818"/>
<feOffset dy="2"/>
<feGaussianBlur stdDeviation="2"/>
<feComposite in2="hardAlpha" operator="arithmetic" k2="-1" k3="1"/>
<feColorMatrix type="matrix" values="0 0 0 0 0.871489 0 0 0 0 0.862851 0 0 0 0 0.873217 0 0 0 0.65 0"/>
<feBlend mode="normal" in2="shape" result="effect1_innerShadow_3129_36818"/>
</filter>
</defs>
</svg>
