<svg width="27" height="27" viewBox="0 0 27 27" fill="none" xmlns="http://www.w3.org/2000/svg">
    <path
        d="M23.6606 0.437012C24.4305 0.437012 25.1688 0.742851 25.7132 1.28725C26.2576 1.83164 26.5635 2.57 26.5635 3.3399V23.6601C26.5635 24.43 26.2576 25.1684 25.7132 25.7128C25.1688 26.2572 24.4305 26.563 23.6606 26.563H3.34039C2.57049 26.563 1.83213 26.2572 1.28774 25.7128C0.743339 25.1684 0.4375 24.43 0.4375 23.6601V3.3399C0.4375 2.57 0.743339 1.83164 1.28774 1.28725C1.83213 0.742851 2.57049 0.437012 3.34039 0.437012H23.6606ZM23.6606 23.6601V3.3399H3.34039V23.6601H23.6606Z"
        fill="#BBBBFF" />
    <path
        d="M12.049 4.79134V12.0486H4.79183V4.79134H12.049ZM10.5976 10.5971V6.24278H6.24327V10.5971H10.5976Z"
        fill="#A396FF" />
    <path
        d="M12.049 14.9514V22.2087H4.79183V14.9514H12.049ZM10.5976 20.7572V16.4029H6.24327V20.7572H10.5976Z"
        fill="#A396FF" />
    <path d="M14.9519 6.96851H22.2091V9.87139H14.9519V6.96851Z" fill="white" />
    <path d="M14.9519 17.1286H22.2091V20.0315H14.9519V17.1286Z" fill="white" />
</svg>