<svg width="27" height="28" viewBox="0 0 27 28" fill="none" xmlns="http://www.w3.org/2000/svg">
<path d="M14.9519 7.46851H22.2091V10.3714H14.9519V7.46851ZM14.9519 17.6286H22.2091V20.5315H14.9519V17.6286ZM23.6606 0.937012C24.4305 0.937012 25.1688 1.24285 25.7132 1.78725C26.2576 2.33164 26.5635 3.07 26.5635 3.8399V24.1601C26.5635 24.93 26.2576 25.6684 25.7132 26.2128C25.1688 26.7572 24.4305 27.063 23.6606 27.063H3.34039C2.57049 27.063 1.83213 26.7572 1.28774 26.2128C0.743339 25.6684 0.4375 24.93 0.4375 24.1601V3.8399C0.4375 3.07 0.743339 2.33164 1.28774 1.78725C1.83213 1.24285 2.57049 0.937012 3.34039 0.937012H23.6606ZM23.6606 24.1601V3.8399H3.34039V24.1601H23.6606ZM12.049 5.29134V12.5486H4.79183V5.29134H12.049ZM10.5976 11.0971V6.74278H6.24327V11.0971H10.5976ZM12.049 15.4514V22.7087H4.79183V15.4514H12.049ZM10.5976 21.2572V16.9029H6.24327V21.2572H10.5976Z" fill="#9999FF"/>
<rect x="5.49395" y="6.01641" width="5.8207" height="5.88955" stroke="#9470FF" stroke-width="1.4"/>
<rect x="5.49395" y="16.1341" width="5.8207" height="5.88955" stroke="#9470FF" stroke-width="1.4"/>
<rect x="14.9707" y="7.49609" width="7.19238" height="2.9082" fill="#453180"/>
<rect x="14.9707" y="17.625" width="7.19238" height="2.9082" fill="#453180"/>
</svg>
