<svg width="77" height="77" viewBox="0 0 77 77" fill="none" xmlns="http://www.w3.org/2000/svg">
<path d="M71.2464 32.1828C71.6258 34.9779 71.6466 37.8535 71.2727 40.7474L71.0781 40.7223C70.8979 42.1166 70.6256 43.5153 70.2569 44.9113C69.8882 46.3074 69.4345 47.6582 68.9027 48.9596L69.0843 49.0339C67.9806 51.7351 66.5427 54.2254 64.8327 56.4687L64.6766 56.3497C62.9366 58.6324 60.9132 60.6579 58.6727 62.3874L58.7926 62.5427C56.5235 64.2943 54.0331 65.7442 51.3896 66.8525L51.3137 66.6715C48.7034 67.766 45.943 68.5255 43.0989 68.9115L43.1253 69.106C40.3302 69.4854 37.4546 69.5062 34.5607 69.1323L34.5858 68.9377C33.1915 68.7575 31.7928 68.4852 30.3967 68.1165C29.0007 67.7478 27.6499 67.2941 26.3484 66.7623L26.2742 66.9439C23.573 65.8402 21.0827 64.4023 18.8394 62.6923L18.9584 62.5362C16.6757 60.7962 14.6502 58.7728 12.9207 56.5323L12.7653 56.6522C11.0137 54.3831 9.56391 51.8927 8.45552 49.2492L8.63652 49.1733C7.5421 46.563 6.78259 43.8027 6.39656 40.9585L6.20207 40.9849C5.82269 38.1898 5.80184 35.3142 6.17573 32.4203L6.37038 32.4454C6.55053 31.0511 6.82288 29.6524 7.19156 28.2564C7.56024 26.8603 8.01401 25.5095 8.5458 24.208L8.36411 24.1338C9.46783 21.4326 10.9058 18.9423 12.6158 16.699L12.7718 16.818C14.5118 14.5353 16.5352 12.5098 18.7758 10.7803L18.6558 10.625C20.9249 8.87336 23.4153 7.42354 26.0589 6.31515L26.1348 6.49615C28.745 5.40173 31.5054 4.64222 34.3496 4.25619L34.3232 4.0617C37.1183 3.68233 39.9939 3.66148 42.8878 4.03537L42.8626 4.23002C44.257 4.41017 45.6557 4.68252 47.0517 5.0512C48.4477 5.41988 49.7985 5.87364 51.1 6.40544L51.1743 6.22375C53.8754 7.32747 56.3658 8.76542 58.6091 10.4754L58.4901 10.6315C60.7728 12.3715 62.7982 14.3949 64.5278 16.6354L64.6831 16.5155C66.4347 18.7846 67.8845 21.275 68.9929 23.9185L68.8119 23.9944C69.9064 26.6047 70.6659 29.365 71.0519 32.2092L71.2464 32.1828Z" stroke="#8405FF" stroke-width="0.392546" stroke-linejoin="round" stroke-dasharray="9.42 9.42"/>
<g filter="url(#filter0_d_1756_12292)">
<path d="M68.2123 15.6917C70.913 19.4963 72.8981 23.851 73.9653 28.5643L73.6912 28.6264C74.2006 30.8763 74.4993 33.2089 74.5648 35.6029C74.6303 37.9969 74.4597 40.3423 74.0741 42.6167L74.3512 42.6637C73.5434 47.4284 71.7995 51.8851 69.3109 55.8318L69.0731 55.6818C66.5634 59.6621 63.2902 63.1195 59.4531 65.8433L59.6158 66.0725C55.8113 68.7732 51.4566 70.7583 46.7432 71.8256L46.6811 71.5514C44.4312 72.0608 42.0987 72.3595 39.7046 72.4251C37.3106 72.4906 34.9652 72.3199 32.6908 71.9343L32.6438 72.2115C27.8791 71.4036 23.4224 69.6597 19.4758 67.1712L19.6257 66.9334C15.6454 64.4236 12.188 61.1504 9.46424 57.3134L9.23503 57.4761C6.53429 53.6715 4.54921 49.3168 3.48198 44.6034L3.75614 44.5413C3.2467 42.2914 2.948 39.9589 2.88247 37.5649C2.81694 35.1708 2.98761 32.8255 3.37322 30.5511L3.09607 30.5041C3.90389 25.7394 5.64779 21.2826 8.13637 17.336L8.37414 17.4859C10.8839 13.5056 14.1571 10.0482 17.9942 7.32447L17.8314 7.09525C21.636 4.39452 25.9907 2.40944 30.7041 1.3422L30.7662 1.61636C33.0161 1.10692 35.3486 0.808216 37.7427 0.74269C40.1367 0.677164 42.482 0.847828 44.7565 1.23344L44.8035 0.956295C49.5682 1.76411 54.0249 3.50802 57.9715 5.99659L57.8216 6.23437C61.8019 8.74417 65.2593 12.0174 67.983 15.8544L68.2123 15.6917Z" stroke="#9470FF" stroke-width="0.5622" stroke-linejoin="round" stroke-dasharray="13.49 13.49" shape-rendering="crispEdges"/>
</g>
<path d="M39.1463 18.1035L39.2927 18.25H39.4998H63.1665C66.1462 18.25 68.5832 20.6607 68.5832 23.6666V53.25C68.5832 54.6866 68.0125 56.0643 66.9967 57.0801C65.9808 58.096 64.6031 58.6666 63.1665 58.6666H15.8332C14.3966 58.6666 13.0188 58.096 12.003 57.0801C10.9872 56.0643 10.4165 54.6866 10.4165 53.25V17.75C10.4165 14.7424 12.8256 12.3333 15.8332 12.3333H33.3761L39.1463 18.1035Z" fill="#9470FF" stroke="#A396FF"/>
<path d="M39.0336 36.5545C39.2913 36.3104 39.709 36.3104 39.9667 36.5545L41.0259 37.5579C41.2836 37.802 41.2836 38.1978 41.0259 38.4419L39.9667 39.4454C39.709 39.6895 39.2913 39.6895 39.0336 39.4454L37.9744 38.4419C37.7167 38.1978 37.7167 37.802 37.9744 37.5579L39.0336 36.5545Z" fill="#362861"/>
<path d="M43.9121 36.5465C44.1651 36.3067 44.5754 36.3067 44.8285 36.5465L45.9044 37.5657C46.1575 37.8055 46.1575 38.1942 45.9044 38.4339L44.8285 39.4532C44.5754 39.6929 44.1651 39.6929 43.9121 39.4532L42.8362 38.4339C42.5831 38.1942 42.5831 37.8055 42.8362 37.5657L43.9121 36.5465Z" fill="#362861"/>
<path d="M39.0419 31.9328C39.295 31.6931 39.7053 31.6931 39.9584 31.9328L41.0343 32.9521C41.2873 33.1918 41.2873 33.5805 41.0343 33.8203L39.9584 34.8395C39.7053 35.0793 39.295 35.0793 39.0419 34.8395L37.966 33.8203C37.713 33.5805 37.713 33.1918 37.966 32.9521L39.0419 31.9328Z" fill="#362861"/>
<path d="M38.5911 35.2511C38.8488 35.4952 38.8488 35.891 38.5911 36.1351L37.5319 37.1385C37.2742 37.3826 36.8564 37.3826 36.5988 37.1385L35.5396 36.1351C35.2819 35.891 35.2819 35.4952 35.5396 35.2511L36.5988 34.2476C36.8564 34.0035 37.2742 34.0035 37.5319 34.2476L38.5911 35.2511Z" fill="#362861"/>
<path d="M36.1643 37.5657C36.4173 37.8055 36.4173 38.1942 36.1643 38.4339L35.0884 39.4532C34.8353 39.6929 34.425 39.6929 34.1719 39.4532L33.096 38.4339C32.843 38.1942 32.843 37.8055 33.096 37.5657L34.1719 36.5465C34.425 36.3067 34.8353 36.3067 35.0884 36.5465L36.1643 37.5657Z" fill="#362861"/>
<path d="M43.461 35.2511C43.7187 35.4952 43.7187 35.891 43.461 36.1351L42.4018 37.1385C42.1442 37.3826 41.7264 37.3826 41.4687 37.1385L40.4095 36.1351C40.1518 35.891 40.1518 35.4952 40.4095 35.2511L41.4687 34.2476C41.7264 34.0035 42.1442 34.0035 42.4018 34.2476L43.461 35.2511Z" fill="#362861"/>
<path d="M40.5426 41.8412C41.1182 42.3866 41.1182 43.2708 40.5426 43.8162C39.9669 44.3616 39.0336 44.3616 38.4579 43.8162C37.8822 43.2708 37.8822 42.3866 38.4579 41.8412C39.0336 41.2959 39.9669 41.2959 40.5426 41.8412Z" fill="#362861"/>
<g clip-path="url(#clip0_1756_12292)">
<circle cx="63.0561" cy="55.1666" r="7.45937" fill="white" stroke="#A396FF"/>
<path d="M66.7137 55.8982H63.7876V58.8243H62.3245V55.8982H59.3984V54.4351H62.3245V51.509H63.7876V54.4351H66.7137M63.056 47.8513C62.0954 47.8513 61.1441 48.0405 60.2566 48.4082C59.3691 48.7758 58.5626 49.3146 57.8833 49.9939C56.5114 51.3658 55.7407 53.2265 55.7407 55.1666C55.7407 57.1068 56.5114 58.9675 57.8833 60.3393C58.5626 61.0186 59.3691 61.5575 60.2566 61.9251C61.1441 62.2927 62.0954 62.482 63.056 62.482C64.9962 62.482 66.8569 61.7112 68.2288 60.3393C69.6006 58.9675 70.3714 57.1068 70.3714 55.1666C70.3714 54.206 70.1821 53.2547 69.8145 52.3672C69.4469 51.4796 68.908 50.6732 68.2288 49.9939C67.5495 49.3146 66.743 48.7758 65.8555 48.4082C64.968 48.0405 64.0167 47.8513 63.056 47.8513Z" fill="#8C4BFF"/>
</g>
<defs>
<filter id="filter0_d_1756_12292" x="0.901292" y="0.447876" width="75.6447" height="75.6452" filterUnits="userSpaceOnUse" color-interpolation-filters="sRGB">
<feFlood flood-opacity="0" result="BackgroundImageFix"/>
<feColorMatrix in="SourceAlpha" type="matrix" values="0 0 0 0 0 0 0 0 0 0 0 0 0 0 0 0 0 0 127 0" result="hardAlpha"/>
<feOffset dy="1.6866"/>
<feGaussianBlur stdDeviation="0.843299"/>
<feComposite in2="hardAlpha" operator="out"/>
<feColorMatrix type="matrix" values="0 0 0 0 0.432266 0 0 0 0 0.00354165 0 0 0 0 0.846458 0 0 0 1 0"/>
<feBlend mode="screen" in2="BackgroundImageFix" result="effect1_dropShadow_1756_12292"/>
<feBlend mode="normal" in="SourceGraphic" in2="effect1_dropShadow_1756_12292" result="shape"/>
</filter>
<clipPath id="clip0_1756_12292">
<rect width="17.5568" height="17.5568" fill="white" transform="translate(54.2778 46.3882)"/>
</clipPath>
</defs>
</svg>
