<svg width="27" height="27" viewBox="0 0 27 27" fill="none" xmlns="http://www.w3.org/2000/svg">
<path d="M17.3999 14.9083L15.8833 13.3916L12.8499 16.425L10.5749 14.15L13.6083 11.1166L12.0916 9.59998L9.05827 12.6333L7.43327 11.1166L4.39993 14.15C3.53327 15.0166 3.53327 16.425 4.39993 17.1833L6.34994 19.1333L2.0166 23.4666L3.53327 24.9833L7.8666 20.65L9.8166 22.6C10.6833 23.4666 12.0916 23.4666 12.8499 22.6L15.8833 19.5666L14.3666 18.05L17.3999 14.9083Z" fill="#BBBBFF"/>
<path d="M23.5751 8.84435C24.4418 9.71102 24.4418 11.1194 23.5751 11.8777L20.5418 14.911L12.0918 6.46102L15.1251 3.42769C15.9918 2.56102 17.4001 2.56102 18.1585 3.42769L20.1085 5.37769L23.3585 2.12769L24.8751 3.64435L21.6251 6.89435L23.5751 8.84435Z" fill="#A396FF"/>
</svg>
