<svg width="27" height="26" viewBox="0 0 27 26" fill="none" xmlns="http://www.w3.org/2000/svg">
<path d="M17.3999 14.4084L15.8833 12.8918L12.8499 15.9251L10.5749 13.6501L13.6083 10.6168L12.0916 9.1001L9.05827 12.1334L7.43327 10.6168L4.39993 13.6501C3.53327 14.5168 3.53327 15.9251 4.39993 16.6834L6.34994 18.6334L2.0166 22.9668L3.53327 24.4834L7.8666 20.1501L9.8166 22.1001C10.6833 22.9668 12.0916 22.9668 12.8499 22.1001L15.8833 19.0668L14.3666 17.5501L17.3999 14.4084Z" fill="#9999FF"/>
<path d="M23.5751 8.34435C24.4418 9.21102 24.4418 10.6194 23.5751 11.3777L20.5418 14.411L12.0918 5.96102L15.1251 2.92769C15.9918 2.06102 17.4001 2.06102 18.1585 2.92769L20.1085 4.87769L23.3585 1.62769L24.8751 3.14435L21.6251 6.39435L23.5751 8.34435Z" fill="#9470FF"/>
</svg>
